<?xml version="1.0" standalone="no"?>
<!DOCTYPE svg PUBLIC "-//W3C//DTD SVG 1.1//EN" "http://www.w3.org/Graphics/SVG/1.1/DTD/svg11.dtd" >
<svg xmlns="http://www.w3.org/2000/svg">
<metadata></metadata>
<defs>
<font id="alsschlangeslab-luploadedfile" horiz-adv-x="1130" >
<font-face units-per-em="2048" ascent="1575" descent="-473" />
<missing-glyph horiz-adv-x="532" />
<glyph unicode="&#xfb01;" horiz-adv-x="937" d="M43 -379q0 33 33 33h131v1388q0 205 72 298q73 94 231 94q114 0 182 -37q47 -24 35 -54q-11 -23 -47 -8q-87 35 -176 35q-230 0 -230 -297v-69h414q37 0 37 -41v-900h137q33 0 33 -32q0 -31 -33 -31h-330q-32 0 -32 31q0 32 32 32h125v877h-383v-1286h132q32 0 32 -33 q0 -31 -32 -31h-330q-33 0 -33 31z" />
<glyph unicode="&#xfb02;" horiz-adv-x="937" d="M43 -379q0 33 33 33h131v1388q0 205 72 298q73 94 231 94q104 0 178 -33q37 -16 37 -55v-1283h131q33 0 33 -32q0 -31 -33 -31h-330q-32 0 -32 31q0 32 32 32h131v1278q-69 29 -153 29q-230 0 -230 -297v-69h242q33 0 33 -33q0 -31 -33 -31h-242v-1286h132q32 0 32 -33 q0 -31 -32 -31h-330q-33 0 -33 31z" />
<glyph horiz-adv-x="0" />
<glyph unicode="&#xd;" horiz-adv-x="681" />
<glyph unicode=" "  horiz-adv-x="532" />
<glyph unicode="&#x09;" horiz-adv-x="532" />
<glyph unicode="&#xa0;" horiz-adv-x="532" />
<glyph unicode="!" horiz-adv-x="378" d="M129 59q0 27 15 43q15 17 44 17q28 0 45 -18q17 -19 17 -42t-17 -42q-16 -17 -45 -17t-44 16t-15 43zM156 393v981q0 39 34 39q33 0 33 -39v-981q0 -39 -33 -39q-34 0 -34 39z" />
<glyph unicode="&#x22;" horiz-adv-x="548" d="M135 1047v348q0 39 33 39t33 -39v-348q0 -39 -33 -39t-33 39zM348 1047v348q0 39 33 39t33 -39v-348q0 -39 -33 -39t-33 39z" />
<glyph unicode="#" horiz-adv-x="1282" d="M94 487q0 29 33 29h186l140 389h-213q-33 0 -33 29t33 29h233l150 419q21 60 51 50q28 -7 10 -64l-145 -405h358l150 419q21 60 51 50q28 -7 10 -64l-145 -405h192q33 0 33 -29t-33 -29h-213l-139 -389h239q33 0 33 -29q0 -28 -33 -28h-260l-149 -416q-16 -42 -26 -54 q-11 -13 -29 -7q-27 8 -3 77l142 400h-359l-149 -416q-16 -42 -26 -54q-11 -13 -29 -7q-26 10 -4 73l143 404h-166q-33 0 -33 28zM379 516h358l140 389h-359z" />
<glyph unicode="$" d="M127 141v197q0 39 33 39q35 0 35 -39v-191q170 -102 374 -102q179 0 270 82t91 223q0 88 -41 153q-40 63 -108 102q-73 41 -146 69l-160 63q-81 34 -146 75q-68 43 -108 114q-41 73 -41 170q0 145 90 238q91 94 279 100v198q0 39 33 39q32 0 32 -39v-200q160 -11 289 -84 q51 -33 51 -68v-184q0 -39 -34 -39q-33 0 -33 39v182q-151 90 -318 90q-162 0 -239 -74q-76 -73 -76 -192q0 -83 41 -147q39 -60 107 -99q55 -31 147 -66q96 -36 160 -64q85 -37 146 -77q68 -45 108 -117q41 -74 41 -172q0 -164 -99 -266t-295 -112v-201q0 -39 -32 -39 q-33 0 -33 39v199q-220 5 -371 98q-47 29 -47 63z" />
<glyph unicode="%" horiz-adv-x="1548" d="M70 1067q0 168 72 267q73 100 218 100t218 -100q71 -98 71 -267q0 -168 -71 -266q-72 -99 -218 -99t-218 99t-72 266zM135 1067q0 -307 225 -307q224 0 224 307q0 136 -54 224q-52 85 -170 85q-225 0 -225 -309zM483 -10l523 1464q12 34 24 49q12 14 31 8q28 -10 4 -77 l-522 -1467q-21 -55 -54 -47q-29 8 -6 70zM899 344q0 167 73 267t218 100q144 0 217 -100q72 -99 72 -267q0 -167 -72 -266q-71 -98 -217 -98q-147 0 -218 98q-73 100 -73 266zM965 344q0 -307 225 -307q223 0 223 307q0 138 -53 224q-52 85 -170 85q-225 0 -225 -309z" />
<glyph unicode="&#x26;" horiz-adv-x="1505" d="M115 326q0 78 25 143q26 67 82 123q59 59 108 95q44 32 141 97q-164 196 -164 359q0 129 84 210t227 81t216 -67q71 -65 71 -165t-69 -201q-67 -97 -263 -229q81 -89 234 -242q65 -67 221 -206q134 183 180 413h-149q-33 0 -33 31q0 33 33 33h358q33 0 33 -33 q0 -31 -33 -31h-145q-33 -236 -197 -456l242 -218h158q32 0 32 -32q0 -31 -32 -31h-158q-27 0 -60 27q-38 27 -227 200q-219 -247 -518 -247q-169 0 -284 86q-113 85 -113 260zM184 324q0 -111 85 -196t243 -85q270 0 471 225q-127 116 -219 211q-174 174 -248 254 q-196 -125 -264 -210q-68 -86 -68 -199zM377 1145q0 -139 153 -324q165 109 235 194q71 86 71 183q0 78 -57 125q-58 47 -163 47q-109 0 -174 -58t-65 -167z" />
<glyph unicode="'" horiz-adv-x="335" d="M135 1047v348q0 39 33 39t33 -39v-348q0 -39 -33 -39t-33 39z" />
<glyph unicode="(" horiz-adv-x="542" d="M115 707q0 257 79 476q80 222 205 353q60 61 84 31q3 -3 5 -9q1 -4 -1 -11l-3 -9q-1 -2 -6 -11q-3 -5 -8 -10l-11 -12q-9 -9 -10 -12q-127 -150 -196 -356q-69 -207 -69 -430q0 -224 69 -431q69 -206 196 -356q46 -55 34 -74q-23 -35 -84 31q-125 131 -205 353 q-79 219 -79 477z" />
<glyph unicode=")" horiz-adv-x="542" d="M44 1558q2 6 5 9q24 30 84 -31q126 -132 206 -353q79 -219 79 -476q0 -258 -79 -477q-80 -221 -206 -353q-61 -66 -84 -31q-12 18 35 74q127 150 196 356q68 204 68 431q0 226 -68 430q-69 206 -196 356q-1 3 -10 12l-12 12q-5 5 -8 10q-5 9 -6 11l-3 9q-2 7 -1 11z" />
<glyph unicode="*" horiz-adv-x="702" d="M133 1030q-14 26 27 49l153 90l-155 91q-40 24 -25 51q17 25 57 -2l152 -107l-6 193q0 39 29 39q28 0 28 -39l-6 -193l154 107q40 27 57 2q16 -27 -25 -51l-157 -91l155 -90q41 -23 27 -49q-17 -24 -59 2l-152 105l6 -193q0 -39 -28 -39q-29 0 -29 39l6 193l-149 -105 q-42 -29 -60 -2z" />
<glyph unicode="+" horiz-adv-x="1007" d="M94 674q0 33 33 33h344v335q0 39 33 39t33 -39v-335h344q32 0 32 -33q0 -31 -32 -31h-344v-338q0 -39 -33 -39t-33 39v338h-344q-33 0 -33 31z" />
<glyph unicode="," horiz-adv-x="413" d="M45 -252l193 356q24 49 59 31q28 -16 6 -59l-194 -359q-24 -47 -60 -30q-28 16 -4 61z" />
<glyph unicode="-" horiz-adv-x="692" d="M33 555q0 31 33 31h561q32 0 32 -31q0 -33 -32 -33h-561q-33 0 -33 33z" />
<glyph unicode="." horiz-adv-x="378" d="M129 59q0 27 15 43q15 17 44 17q28 0 45 -18q17 -19 17 -42t-17 -42q-16 -17 -45 -17t-44 16t-15 43z" />
<glyph unicode="/" horiz-adv-x="647" d="M6 -147l617 1730q12 34 24 46t29 7q32 -7 10 -73l-612 -1737q-22 -60 -58 -49q-32 10 -10 76z" />
<glyph unicode="0" d="M66 707q0 335 125 530q126 197 374 197t374 -197t126 -530q0 -335 -126 -531t-374 -196t-374 196q-125 195 -125 531zM135 707q0 -318 110 -491t320 -173q211 0 321 173q109 172 109 491q0 318 -109 490q-110 173 -321 173q-210 0 -320 -173t-110 -490z" />
<glyph unicode="1" d="M233 985q-21 24 19 64l364 356q29 29 52 29q28 0 28 -43v-1328h142q32 0 32 -32q0 -31 -32 -31h-375q-33 0 -33 31q0 32 33 32h166v1264l-330 -321q-42 -42 -66 -21z" />
<glyph unicode="2" d="M162 47q0 123 41 228q41 104 105 176q60 67 143 134q74 60 156 117q77 54 144 113q65 57 105 132q41 76 41 163q0 106 -78 183q-79 77 -244 77q-164 0 -321 -100q-64 -41 -80 -23q-22 26 35 70q162 117 366 117q198 0 295 -89t97 -235q0 -94 -41 -178q-39 -80 -106 -142 q-68 -63 -143 -117l-158 -116q-76 -57 -143 -126q-66 -67 -106 -161q-41 -96 -41 -207h750q35 0 35 -32q0 -31 -35 -31h-772q-45 0 -45 47z" />
<glyph unicode="3" d="M133 141q15 24 70 -10q143 -88 315 -88q190 0 288 105q97 104 97 266q0 170 -120 264q-119 94 -367 94q-34 0 -45 22q-11 21 10 42l450 514h-587q-33 0 -33 30q0 33 33 33h633q31 0 38 -22q8 -24 -14 -52l-442 -503q241 -4 378 -110q136 -105 136 -314q0 -196 -123 -315 q-121 -117 -336 -117q-213 0 -346 94q-53 41 -35 67z" />
<glyph unicode="4" d="M87 526q-8 23 7 39l672 840q23 29 43 29q29 0 29 -39v-828h131q37 0 37 -30q0 -33 -37 -33h-131v-465q0 -39 -35 -39q-33 0 -33 39v465h-647q-29 0 -36 22zM168 567h602v748z" />
<glyph unicode="5" d="M156 141q15 22 69 -12q142 -86 312 -86q207 0 302 116t95 287q0 152 -91 255q-92 104 -274 104q-98 0 -186 -27q-85 -26 -90 -26q-33 0 -31 39l45 579q1 43 43 43h572q32 0 32 -31q0 -32 -32 -32h-553l-41 -529q124 47 247 47q116 0 204 -38q87 -38 134 -101 q49 -66 69 -133q22 -72 22 -147q0 -226 -130 -348q-128 -121 -339 -121q-91 0 -191 27q-98 26 -158 69q-51 37 -30 65z" />
<glyph unicode="6" d="M111 590q0 844 534 844q136 0 223 -35q49 -22 39 -49q-8 -26 -65 -9q-87 29 -209 29q-216 0 -338 -186q-121 -185 -121 -537q52 128 169 195q114 65 253 65q197 0 309 -121q113 -122 113 -315q0 -202 -113 -347q-112 -144 -332 -144q-462 0 -462 610zM186 485 q0 -73 18 -144q19 -75 57 -141q41 -71 122 -114q82 -43 195 -43q184 0 277 126t93 300q0 164 -96 269q-97 106 -268 106q-164 0 -281 -102t-117 -257z" />
<glyph unicode="7" d="M119 1380q0 33 35 33h792q72 0 37 -74l-602 -1294q-24 -53 -55 -41t-4 68l99 213l192 412l216 466l86 187h-761q-35 0 -35 30z" />
<glyph unicode="8" d="M98 334q0 143 83 250q82 106 259 192q-152 79 -215 157q-61 76 -61 189q0 154 114 233q113 79 287 79q177 0 289 -79q113 -80 113 -233q0 -120 -67 -214q-65 -92 -202 -177q179 -85 257 -175q77 -89 77 -222q0 -159 -131 -257q-130 -97 -336 -97q-199 0 -333 89t-134 265 zM166 334q0 -135 118 -213t281 -78q179 0 289 79q111 79 111 212q0 138 -117 230q-115 90 -346 179q-336 -150 -336 -409zM231 1122q0 -123 113 -209q112 -85 297 -153q258 147 258 362q0 248 -334 248q-151 0 -242 -63q-92 -63 -92 -185z" />
<glyph unicode="9" d="M96 942q0 202 113 347t332 145q463 0 463 -611q0 -843 -535 -843q-139 0 -223 34q-49 22 -39 49q8 26 65 9q87 -29 209 -29q217 0 338 186q121 185 121 537q-52 -128 -169 -195q-114 -65 -253 -65q-197 0 -309 121q-113 122 -113 315zM166 944q0 -164 96 -269 q97 -106 268 -106q164 0 281 102t117 257q0 74 -18 144q-19 75 -57 141q-41 71 -122 114q-82 43 -194 43q-185 0 -278 -126t-93 -300z" />
<glyph unicode=":" horiz-adv-x="378" d="M129 59q0 27 15 43q15 17 44 17q28 0 45 -18q17 -19 17 -42t-17 -42q-16 -17 -45 -17t-44 16t-15 43zM129 944q0 26 15 43t44 17q28 0 45 -18q17 -19 17 -42t-17 -42q-16 -17 -45 -17t-44 16q-15 17 -15 43z" />
<glyph unicode=";" horiz-adv-x="413" d="M45 -252l193 356q24 49 59 31q28 -16 6 -59l-194 -359q-24 -47 -60 -30q-28 16 -4 61zM180 944q0 25 16 43q15 17 44 17q28 0 45 -18q16 -17 16 -42t-16 -42t-45 -17t-44 16q-16 18 -16 43z" />
<glyph unicode="&#x3c;" horiz-adv-x="1007" d="M305 627q-59 45 2 94l469 366q44 33 62 11q19 -25 -27 -60l-461 -362l463 -367q45 -37 27 -61q-18 -27 -62 8z" />
<glyph unicode="=" horiz-adv-x="1007" d="M94 485q0 33 33 33h754q32 0 32 -33q0 -30 -32 -30h-754q-33 0 -33 30zM94 733q0 33 33 33h754q32 0 32 -33q0 -31 -32 -31h-754q-33 0 -33 31z" />
<glyph unicode="&#x3e;" horiz-adv-x="1007" d="M229 1100q18 27 62 -8l473 -371q59 -45 -2 -94l-469 -367q-44 -33 -62 -10q-18 24 27 59l461 363l-463 366q-45 38 -27 62z" />
<glyph unicode="?" horiz-adv-x="845" d="M106 1303q-18 28 35 57q140 74 289 74q178 0 264 -86t86 -222q0 -67 -15 -124q-15 -55 -53 -109q-39 -54 -62 -79q-32 -34 -77 -79q-63 -62 -91 -95q-30 -36 -58 -101q-29 -67 -29 -142q0 -43 -33 -43q-34 0 -34 43q0 88 32 162q32 75 68 117q34 40 96 102q64 62 96 100 q33 39 62 106t29 142q0 104 -73 174t-212 70q-116 0 -252 -63q-53 -27 -68 -4zM303 59q0 27 15 43q15 17 44 17q30 0 46 -18q16 -17 16 -42t-16 -42t-46 -17q-29 0 -44 16t-15 43z" />
<glyph unicode="@" horiz-adv-x="2011" d="M115 471q0 448 245 705q246 258 678 258q426 0 642 -234t216 -625q0 -120 -23 -215q-23 -96 -74 -182q-49 -84 -139 -131q-89 -47 -210 -47h-72q-39 0 -39 41v281q-33 -156 -138 -249t-271 -93q-193 0 -292 134t-99 357q0 247 118 399q119 154 359 154q188 0 323 -78v19 q0 39 35 39q33 0 33 -39v-902h61q178 0 269 142q90 141 90 375q0 361 -197 576q-196 214 -592 214t-625 -241t-229 -658q0 -399 239 -618q240 -220 609 -220q120 0 223 23q46 11 54 -12q11 -35 -45 -50q-80 -24 -232 -24q-416 0 -667 237q-250 237 -250 664zM608 471 q0 -196 83 -312t251 -116q95 0 166 37q73 38 115 96q41 57 69 143q26 81 37 167q10 79 10 178v213q-152 84 -325 84q-143 0 -237 -70q-93 -69 -131 -175t-38 -245z" />
<glyph unicode="A" horiz-adv-x="1429" d="M-2 33q0 33 33 33h116l519 1323q18 45 47 45q28 0 45 -41l524 -1327h117q33 0 33 -33t-33 -33h-340q-33 0 -33 33t33 33h145l-157 399h-670l-156 -399h150q32 0 32 -33t-32 -33h-340q-33 0 -33 33zM401 530h621l-313 797z" />
<glyph unicode="B" horiz-adv-x="1273" d="M80 33q0 33 33 33h151v1282h-151q-33 0 -33 32q0 33 33 33h223q140 10 272 10q237 0 366 -77q130 -78 130 -267q0 -124 -62 -218t-196 -122q169 -15 248 -110q80 -97 80 -242q0 -397 -543 -397q-174 0 -295 10h-223q-33 0 -33 33zM336 66q151 -11 295 -11q227 0 348 75 t121 255q0 170 -111 242q-109 71 -330 71h-323v-632zM336 760h309q385 0 385 319q0 151 -115 215q-116 64 -325 64q-133 0 -254 -10v-588z" />
<glyph unicode="C" horiz-adv-x="1306" d="M115 705q0 325 179 527t484 202q224 -1 371 -91q43 -27 43 -59v-219q0 -39 -35 -39t-35 39v217q-163 86 -346 86q-277 0 -432 -188q-156 -189 -156 -480q0 -307 156 -481t418 -174q217 0 379 117v217q0 39 35 39q34 0 34 -39v-207q0 -37 -43 -70q-161 -122 -409 -122 q-323 0 -483 196t-160 529z" />
<glyph unicode="D" horiz-adv-x="1497" d="M80 33q0 33 33 33h151v1282h-151q-33 0 -33 32q0 33 33 33h223q140 10 330 10q716 0 716 -710q0 -345 -180 -534t-532 -189q-194 0 -334 10h-223q-33 0 -33 33zM336 66q143 -11 328 -11q318 0 482 170q163 169 163 488q0 645 -647 645q-166 0 -326 -10v-1282z" />
<glyph unicode="E" horiz-adv-x="1196" d="M80 33q0 33 33 33h151v1282h-151q-33 0 -33 32q0 33 33 33h972q31 0 31 -39v-258q0 -39 -35 -39q-34 0 -34 39v232h-711v-578h627q32 0 32 -33q0 -32 -32 -32h-627v-639h727v251q0 39 35 39t35 -39v-278q0 -39 -41 -39h-979q-33 0 -33 33z" />
<glyph unicode="F" horiz-adv-x="1128" d="M80 33q0 33 33 33h151v1282h-151q-33 0 -33 32q0 33 33 33h921q35 0 35 -39v-237q0 -39 -35 -39t-35 39v211h-663v-574h579q33 0 33 -33q0 -32 -33 -32h-579v-643h151q33 0 33 -33t-33 -33h-374q-33 0 -33 33z" />
<glyph unicode="G" horiz-adv-x="1368" d="M115 705q0 325 179 527t484 202q224 -1 371 -91q43 -27 43 -59v-199q0 -38 -35 -38t-35 38v195q-155 88 -346 88q-276 0 -432 -187t-156 -479q0 -309 153 -483t429 -174q114 0 230 35q115 35 186 94v438h-367q-33 0 -33 33t33 33h398q36 0 36 -39v-461q0 -33 -24 -51 q-67 -59 -195 -103q-129 -44 -266 -44q-326 0 -490 195q-163 194 -163 530z" />
<glyph unicode="H" horiz-adv-x="1605" d="M80 33q0 33 33 33h151v1282h-151q-33 0 -33 32q0 33 33 33h374q33 0 33 -33q0 -32 -33 -32h-151v-588h934v588h-152q-33 0 -33 32q0 33 33 33h375q33 0 33 -33q0 -32 -33 -32h-152v-1282h152q33 0 33 -33t-33 -33h-375q-33 0 -33 33t33 33h152v628h-934v-628h151 q33 0 33 -33t-33 -33h-374q-33 0 -33 33z" />
<glyph unicode="I" horiz-adv-x="600" d="M80 33q0 33 33 33h151v1282h-151q-33 0 -33 32q0 33 33 33h374q33 0 33 -33q0 -32 -33 -32h-151v-1282h151q33 0 33 -33t-33 -33h-374q-33 0 -33 33z" />
<glyph unicode="J" horiz-adv-x="765" d="M-8 78q7 12 25 12q15 0 38 -8q87 -37 181 -37q221 0 221 270v1033h-172q-33 0 -33 32q0 33 33 33h395q33 0 33 -33q0 -32 -33 -32h-152v-1043q0 -325 -288 -325q-135 0 -220 43q-33 17 -33 39q0 8 5 16z" />
<glyph unicode="K" horiz-adv-x="1251" d="M80 33q0 33 33 33h151v1282h-151q-33 0 -33 32q0 33 33 33h374q33 0 33 -33q0 -32 -33 -32h-151v-609l631 609h-129q-33 0 -33 32q0 33 33 33h327q33 0 33 -33q0 -32 -33 -32h-104l-651 -627l698 -655h113q32 0 32 -33t-32 -33h-351q-32 0 -32 33t32 33h134l-668 624 v-624h151q33 0 33 -33t-33 -33h-374q-33 0 -33 33z" />
<glyph unicode="L" horiz-adv-x="1148" d="M80 33q0 33 33 33h151v1282h-151q-33 0 -33 32q0 33 33 33h387q32 0 32 -33q0 -32 -32 -32h-164v-1282h704v249q0 39 35 39t35 -39v-276q0 -39 -35 -39h-962q-33 0 -33 33z" />
<glyph unicode="M" horiz-adv-x="1769" d="M80 33q0 33 33 33h151v1282h-151q-33 0 -33 32q0 33 33 33h186q26 0 47 -35l541 -843l538 843q23 35 45 35h187q33 0 33 -33q0 -32 -33 -32h-152v-1282h152q33 0 33 -33t-33 -33h-375q-33 0 -33 33t33 33h152v1214l-508 -805q-18 -29 -44 -29t-44 29l-506 795v-1204h155 q33 0 33 -33t-33 -33h-374q-33 0 -33 33z" />
<glyph unicode="N" horiz-adv-x="1607" d="M80 33q0 33 33 33h151v1282h-151q-33 0 -33 32q0 33 33 33h186q25 0 49 -33l928 -1241v1209h-156q-33 0 -33 32q0 33 33 33h375q33 0 33 -33q0 -32 -33 -32h-152v-1305q0 -43 -34 -43q-19 0 -41 25l-936 1249v-1208h155q33 0 33 -33t-33 -33h-374q-33 0 -33 33z" />
<glyph unicode="O" horiz-adv-x="1554" d="M115 707q0 317 175 522t488 205q312 0 487 -205t175 -522q0 -320 -174 -524q-173 -203 -488 -203q-313 0 -488 203t-175 524zM188 707q0 -293 158 -478q157 -184 432 -184q273 0 430 184q158 185 158 478q0 292 -158 477q-157 184 -430 184q-275 0 -432 -184 q-158 -185 -158 -477z" />
<glyph unicode="P" horiz-adv-x="1177" d="M80 33q0 33 33 33h151v1282h-151q-33 0 -33 32q0 33 33 33h223q150 10 280 10q502 0 502 -419q0 -227 -144 -335t-388 -108q-133 0 -250 19v-514h172q33 0 33 -33t-33 -33h-395q-33 0 -33 33zM336 645q105 -18 254 -18q454 0 454 377q0 354 -428 354q-147 0 -280 -10 v-703z" />
<glyph unicode="Q" horiz-adv-x="1554" d="M115 707q0 317 175 522t488 205q312 0 487 -205t175 -522q0 -202 -74 -365q-73 -160 -211 -256q125 -121 262 -203q47 -29 47 -53q0 -4 -2 -8q-5 -12 -21 -12q-20 0 -57 20q-149 82 -288 221q-135 -71 -318 -71q-313 0 -488 203t-175 524zM188 707q0 -293 158 -478 q157 -184 432 -184q152 0 269 59q-125 144 -187 271q-16 31 -16 49t14 25q6 3 12 3l50 -51q97 -171 184 -264q123 83 193 233q69 148 69 337q0 292 -158 477q-157 184 -430 184q-275 0 -432 -184q-158 -185 -158 -477z" />
<glyph unicode="R" horiz-adv-x="1312" d="M80 33q0 33 33 33h151v1282h-151q-33 0 -33 32q0 33 33 33h223q156 10 260 10q498 0 498 -391q0 -312 -303 -401l342 -565h139q33 0 33 -33t-33 -33h-160q-23 0 -47 37l-348 577q-59 -10 -154 -10q-150 0 -227 14v-552h151q33 0 33 -33t-33 -33h-374q-33 0 -33 33z M336 684q99 -16 223 -16q225 0 343 84t118 278q0 175 -110 252q-109 76 -320 76q-121 0 -254 -10v-664z" />
<glyph unicode="S" horiz-adv-x="1110" d="M90 152v194q0 39 35 39t35 -39v-192q174 -109 391 -109q185 0 289 79t104 226q0 88 -44 152q-43 63 -116 99q-78 39 -156 65l-171 60q-87 32 -158 75q-73 44 -116 118q-44 76 -44 177q0 148 108 242q110 96 314 96t350 -91q54 -39 54 -65v-193q0 -38 -35 -38t-35 38v191 q-160 92 -334 92q-171 0 -259 -75q-89 -75 -89 -193q0 -120 83 -197q82 -76 201 -115l236 -79q119 -41 202 -127t83 -222q0 -176 -121 -278q-122 -102 -348 -102q-222 0 -391 94q-68 38 -68 78z" />
<glyph unicode="T" horiz-adv-x="1259" d="M59 1081v293q0 39 39 39h1067q15 0 25 -11t10 -28v-293q0 -39 -35 -39t-35 39v267h-464v-1282h172q32 0 32 -33t-32 -33h-416q-33 0 -33 33t33 33h172v1282h-465v-267q0 -39 -35 -39t-35 39z" />
<glyph unicode="U" horiz-adv-x="1527" d="M70 1380q0 33 32 33h375q33 0 33 -33q0 -32 -33 -32h-151v-754q0 -549 438 -549q238 0 338 145t100 404v754h-151q-33 0 -33 32q0 33 33 33h374q33 0 33 -33q0 -32 -33 -32h-151v-756q0 -612 -512 -612q-508 0 -508 612v756h-152q-32 0 -32 32z" />
<glyph unicode="V" horiz-adv-x="1390" d="M-2 1380q0 33 33 33h307q33 0 33 -33q0 -32 -33 -32h-131l498 -1258l483 1258h-131q-33 0 -33 32q0 33 33 33h303q33 0 33 -33q0 -32 -33 -32h-94l-521 -1328q-16 -40 -43 -40q-29 0 -47 43l-530 1325h-94q-33 0 -33 32z" />
<glyph unicode="W" horiz-adv-x="1921" d="M-2 1380q0 33 33 33h315q33 0 33 -33q0 -32 -33 -32h-139l344 -1244l373 1043q15 39 41 39t41 -37l360 -1043l350 1242h-137q-33 0 -33 32q0 33 33 33h311q33 0 33 -33q0 -32 -33 -32h-100l-383 -1321q-12 -47 -45 -47q-28 0 -45 45l-354 1038l-373 -1043 q-15 -40 -45 -40q-33 0 -43 43l-371 1325h-100q-33 0 -33 32z" />
<glyph unicode="X" horiz-adv-x="1372" d="M-2 33q0 33 33 33h116l494 669l-455 613h-102q-33 0 -33 32q0 33 33 33h315q33 0 33 -33q0 -32 -33 -32h-120l407 -557l408 557h-129q-33 0 -33 32q0 33 33 33h311q33 0 33 -33q0 -32 -33 -32h-98l-449 -607l500 -675h112q33 0 33 -33t-33 -33h-346q-32 0 -32 33t32 33 h142l-453 616l-455 -616h152q33 0 33 -33t-33 -33h-350q-33 0 -33 33z" />
<glyph unicode="Y" horiz-adv-x="1284" d="M-2 1380q0 33 33 33h313q33 0 33 -33q0 -32 -33 -32h-133l440 -650l424 650h-133q-33 0 -33 32q0 33 33 33h311q33 0 33 -33q0 -32 -33 -32h-100l-469 -717v-565h154q32 0 32 -33t-32 -33h-375q-33 0 -33 33t33 33h149v559l-487 723h-94q-33 0 -33 32z" />
<glyph unicode="Z" horiz-adv-x="1236" d="M113 22q-3 8 -3 16q0 13 9 25l919 1285h-821v-234q0 -39 -35 -39t-35 39v260q0 39 33 39h914q29 0 36 -23q8 -25 -10 -47l-915 -1277h870v253q0 39 35 39t35 -39v-280q0 -39 -33 -39h-962q-29 0 -37 22z" />
<glyph unicode="[" horiz-adv-x="557" d="M135 -104v1622q0 38 35 38h281q32 0 32 -32q0 -31 -32 -31h-248v-1573h248q32 0 32 -33q0 -30 -32 -30h-279q-37 0 -37 39z" />
<glyph unicode="\" horiz-adv-x="647" d="M6 1561q-22 65 10 75q36 11 58 -49l612 -1737q22 -66 -10 -73q-17 -5 -29 7t-24 46z" />
<glyph unicode="]" horiz-adv-x="557" d="M57 -113q0 33 33 33h248v1573h-248q-33 0 -33 31q0 32 33 32h281q35 0 35 -38v-1622q0 -39 -37 -39h-279q-33 0 -33 30z" />
<glyph unicode="^" horiz-adv-x="1171" d="M135 711q-20 16 4 55l416 635q21 33 45 33q26 0 47 -33l422 -625q30 -47 6 -65q-29 -18 -59 28l-418 623l-405 -623q-29 -47 -58 -28z" />
<glyph unicode="_" horiz-adv-x="1216" d="M33 -127q0 33 33 33h1085q33 0 33 -33q0 -31 -33 -31h-1085q-33 0 -33 31z" />
<glyph unicode="`" horiz-adv-x="1087" d="M358 1464q17 24 60 -4l317 -211q43 -28 25 -55q-16 -24 -60 6l-315 209q-43 27 -27 55z" />
<glyph unicode="a" horiz-adv-x="1077" d="M47 266q0 93 40 161q39 67 110 104t145 53t162 16q154 0 301 -29v88q0 302 -307 302q-129 0 -291 -66q-21 -9 -36 -9q-18 0 -24 15q-12 28 29 49q148 74 328 74q368 0 368 -356v-605h129q33 0 33 -32q0 -31 -33 -31h-163q-33 0 -33 39v242q-45 -130 -158 -216 q-112 -85 -280 -85q-147 0 -233 73q-87 73 -87 213zM117 268q0 -105 67 -165t193 -60q194 0 311 134q117 133 117 290v45q-167 27 -291 27q-180 0 -289 -68q-108 -67 -108 -203z" />
<glyph unicode="b" horiz-adv-x="1169" d="M43 31q0 32 33 32h131v1287h-131q-33 0 -33 30q0 33 33 33h164q34 0 34 -39v-692q33 155 139 249q105 93 271 93q193 0 292 -134t99 -358q0 -245 -119 -399q-118 -153 -358 -153q-191 0 -324 77v-18q0 -39 -34 -39h-164q-33 0 -33 31zM274 127q151 -84 326 -84 q143 0 237 70q93 69 131 175t38 244q0 197 -83 313t-251 116q-95 0 -166 -37q-72 -37 -115 -97q-41 -57 -69 -143q-26 -81 -37 -167t-11 -177v-213z" />
<glyph unicode="c" horiz-adv-x="972" d="M94 492q0 242 136 387t354 145q155 0 266 -59q37 -22 37 -52v-176q0 -39 -35 -39q-33 0 -33 39v170q-122 54 -235 54q-182 0 -301 -130t-119 -339q0 -216 106 -332q106 -117 291 -117q150 0 291 90q24 15 40 15q13 0 21 -9q5 -8 5 -17q0 -20 -29 -40q-139 -102 -330 -102 q-225 0 -345 132t-120 380z" />
<glyph unicode="d" horiz-adv-x="1169" d="M94 471q0 245 119 399t358 154q189 0 324 -78v404h-129q-33 0 -33 30q0 33 33 33h164q33 0 33 -39v-1311h131q32 0 32 -32q0 -31 -32 -31h-164q-35 0 -35 39v283q-33 -156 -138 -249t-272 -93q-192 0 -291 134q-100 135 -100 357zM164 471q0 -196 83 -312t251 -116 q95 0 166 37t114 96q43 60 70 143q26 81 37 167q10 79 10 178v213q-151 84 -326 84q-142 0 -236 -70q-93 -69 -131 -175t-38 -245z" />
<glyph unicode="e" horiz-adv-x="1046" d="M94 498q0 232 125 380q124 146 340 146q192 0 293 -112q100 -110 100 -269q0 -78 -10 -117q-12 -59 -63 -59h-715q0 -198 108 -311t295 -113q154 0 291 86q38 22 53 0q6 -8 6 -17q0 -17 -26 -36q-130 -96 -324 -96q-235 0 -354 135q-119 136 -119 383zM164 528h717 q8 42 8 111q-1 149 -90 235q-90 87 -246 87q-170 0 -280 -119q-109 -118 -109 -314z" />
<glyph unicode="f" horiz-adv-x="661" d="M43 -379q0 33 33 33h131v1411q0 369 303 369q127 0 197 -41q23 -13 23 -32q0 -6 -3 -13q-8 -23 -47 -11q-94 33 -176 33q-230 0 -230 -297v-69h299q33 0 33 -33q0 -31 -33 -31h-299v-1286h132q32 0 32 -33q0 -31 -32 -31h-330q-33 0 -33 31z" />
<glyph unicode="g" horiz-adv-x="1052" d="M53 -154q0 170 191 256q-131 45 -131 164q0 102 110 178q-88 89 -88 236q0 150 99 247q98 97 286 97q79 0 148 -20h329q33 0 33 -27t-33 -27h-221q129 -94 129 -270q0 -148 -99 -244t-286 -96q-151 0 -250 66q-92 -57 -92 -136q0 -66 81 -104t298 -45q96 -5 144 -10 q53 -5 119 -22q58 -14 96 -40q37 -25 59 -66t22 -100q0 -141 -131 -227t-377 -86q-436 0 -436 276zM121 -154q0 -90 83 -153q84 -64 283 -64q223 0 333 71t110 171q0 98 -88 138q-86 39 -314 50q-99 1 -204 21q-203 -74 -203 -234zM203 680q0 -122 81 -201q82 -80 236 -80 q155 0 237 80q81 79 81 201q0 121 -81 202t-237 81q-154 0 -236 -80q-81 -79 -81 -203z" />
<glyph unicode="h" horiz-adv-x="1236" d="M43 31q0 32 33 32h131v1287h-131q-33 0 -33 30q0 33 33 33h164q34 0 34 -39v-692q34 167 144 255q108 87 258 87q186 0 270 -108t84 -316v-537h131q33 0 33 -32q0 -31 -33 -31h-164q-34 0 -34 39v559q0 172 -66 267q-67 96 -225 96q-203 0 -300 -166q-98 -167 -98 -455 v-277h132q32 0 32 -32q0 -31 -32 -31h-330q-33 0 -33 31z" />
<glyph unicode="i" horiz-adv-x="481" d="M43 31q0 32 33 32h131v877h-131q-33 0 -33 31q0 33 33 33h164q34 0 34 -39v-902h132q32 0 32 -32q0 -31 -32 -31h-330q-33 0 -33 31zM182 1303q0 25 16 43q15 16 42 16t43 -16t16 -43q0 -58 -59 -58q-58 0 -58 58z" />
<glyph unicode="j" horiz-adv-x="419" d="M-188 -350q11 25 51 10q84 -27 157 -27q118 0 159 71q40 70 40 230v1006h-131q-33 0 -33 31q0 33 33 33h164q35 0 35 -39v-1049q0 -176 -60 -261t-202 -85q-123 0 -189 33q-27 12 -27 32q0 7 3 15zM195 1303q0 27 15 43t42 16t43 -16t16 -43q0 -58 -59 -58q-57 0 -57 58z " />
<glyph unicode="k" horiz-adv-x="1013" d="M43 31q0 32 33 32h131v1287h-131q-33 0 -33 30q0 33 33 33h164q34 0 34 -39v-837l459 403h-108q-33 0 -33 31q0 33 33 33h282q33 0 33 -33q0 -31 -33 -31h-84l-487 -430l500 -447h137q33 0 33 -32q0 -31 -33 -31h-148q-19 0 -53 29l-498 446v-412h132q32 0 32 -32 q0 -31 -32 -31h-330q-33 0 -33 31z" />
<glyph unicode="l" horiz-adv-x="669" d="M43 1380q0 33 33 33h164q34 0 34 -39v-1052q0 -160 39 -220q38 -59 154 -59q70 0 143 37q22 11 36 11q15 0 22 -13q4 -8 4 -15q0 -19 -29 -36q-79 -47 -188 -47q-138 0 -193 71t-55 246v1053h-131q-33 0 -33 30z" />
<glyph unicode="m" horiz-adv-x="1867" d="M43 31q0 32 33 32h131v877h-131q-33 0 -33 31q0 33 33 33h164q34 0 34 -39v-283q33 159 136 251q101 91 252 91q294 0 294 -351v-9q33 167 142 264q108 96 256 96q166 0 236 -100q71 -101 71 -310v-551h131q33 0 33 -32q0 -31 -33 -31h-166q-33 0 -33 39v567 q0 176 -54 265q-55 90 -193 90q-127 0 -216 -83q-86 -80 -124 -201q-38 -119 -39 -259v-355h131q32 0 32 -32q0 -31 -32 -31h-164q-35 0 -35 39v553q0 180 -51 274q-51 95 -195 95q-134 0 -224 -93q-89 -92 -122 -212t-33 -257v-336h132q32 0 32 -32q0 -31 -32 -31h-330 q-33 0 -33 31z" />
<glyph unicode="n" horiz-adv-x="1236" d="M43 31q0 32 33 32h131v877h-131q-33 0 -33 31q0 33 33 33h164q34 0 34 -39v-283q34 167 144 255q108 87 258 87q186 0 270 -108t84 -316v-537h131q33 0 33 -32q0 -31 -33 -31h-164q-34 0 -34 39v559q0 172 -66 267q-67 96 -225 96q-203 0 -300 -166q-98 -167 -98 -455 v-277h132q32 0 32 -32q0 -31 -32 -31h-330q-33 0 -33 31z" />
<glyph unicode="o" horiz-adv-x="1155" d="M94 502q0 231 128 377q127 145 356 145q228 0 355 -145q128 -146 128 -377t-128 -377q-127 -145 -355 -145q-229 0 -356 145q-128 146 -128 377zM164 502q0 -214 110 -336q111 -123 304 -123q192 0 303 123q110 122 110 336q0 212 -110 335q-111 124 -303 124 q-193 0 -304 -124q-110 -123 -110 -335z" />
<glyph unicode="p" horiz-adv-x="1169" d="M43 -379q0 33 33 33h131v1286h-131q-33 0 -33 31q0 33 33 33h164q34 0 34 -39v-283q33 155 139 249q105 93 271 93q193 0 292 -134t99 -358q0 -245 -119 -399q-118 -153 -358 -153q-191 0 -324 77v-403h132q32 0 32 -33q0 -31 -32 -31h-330q-33 0 -33 31zM274 127 q151 -84 326 -84q143 0 237 70q93 69 131 175t38 244q0 197 -83 313t-251 116q-95 0 -166 -37q-72 -37 -115 -97q-41 -57 -69 -143q-26 -81 -37 -167t-11 -177v-213z" />
<glyph unicode="q" horiz-adv-x="1169" d="M94 471q0 245 119 399t358 154q189 0 324 -78v19q0 39 35 39h164q32 0 32 -33q0 -31 -32 -31h-131v-1286h131q32 0 32 -33q0 -31 -32 -31h-330q-33 0 -33 31q0 33 33 33h131v668q-33 -156 -138 -249t-272 -93q-192 0 -291 134q-100 135 -100 357zM164 471q0 -196 83 -312 t251 -116q95 0 166 37t114 96q43 60 70 143q26 81 37 167q10 79 10 178v213q-151 84 -326 84q-142 0 -236 -70q-93 -69 -131 -175t-38 -245z" />
<glyph unicode="r" horiz-adv-x="749" d="M43 31q0 32 33 32h131v877h-131q-33 0 -33 31q0 33 33 33h164q34 0 34 -39v-230q30 129 113 209t201 80q76 0 127 -33q25 -16 25 -35q0 -7 -3 -14q-11 -24 -51 -6q-59 25 -108 25q-119 0 -197 -107q-107 -142 -107 -436v-355h142q33 0 33 -32q0 -31 -33 -31h-340 q-33 0 -33 31z" />
<glyph unicode="s" horiz-adv-x="864" d="M74 106v148q0 39 32 39q35 0 35 -39v-143q138 -68 281 -68q135 0 217 58t82 157q0 83 -64 135q-65 52 -153 76l-179 51q-91 28 -153 87q-63 60 -63 161q0 124 88 190q89 66 241 66q160 0 281 -66q39 -22 37 -45v-6v-143q0 -39 -35 -39q-33 0 -33 39v137q-124 60 -250 60 q-127 0 -194 -50q-66 -49 -66 -137q0 -83 64 -133q62 -49 152 -73q94 -25 179 -51q91 -27 154 -89q64 -62 64 -164q0 -132 -99 -208q-98 -76 -278 -76q-181 0 -303 73q-37 18 -37 53z" />
<glyph unicode="t" horiz-adv-x="608" d="M145 297v913q0 39 33 39q35 0 35 -39v-206h299q33 0 33 -33q0 -31 -33 -31h-299v-616q0 -161 39 -221t154 -60q70 0 143 37q45 22 57 -2q4 -8 4 -15q0 -19 -28 -36q-79 -47 -189 -47q-137 0 -192 71q-56 73 -56 246z" />
<glyph unicode="u" horiz-adv-x="1236" d="M43 971q0 33 33 33h164q34 0 34 -39v-559q0 -174 66 -268q66 -95 225 -95q203 0 300 166q98 167 98 455v276h-129q-33 0 -33 31q0 33 33 33h163q33 0 33 -39v-902h131q33 0 33 -32q0 -31 -33 -31h-164q-34 0 -34 39v283q-34 -167 -144 -255q-108 -87 -258 -87 q-187 0 -270 107q-84 108 -84 316v537h-131q-33 0 -33 31z" />
<glyph unicode="v" horiz-adv-x="1099" d="M8 971q0 33 33 33h291q33 0 33 -33q0 -31 -33 -31h-125l348 -852l340 852h-127q-33 0 -33 31q0 33 33 33h291q33 0 33 -33q0 -31 -33 -31h-92l-373 -922q-18 -38 -43 -38t-41 38l-379 922h-90q-33 0 -33 31z" />
<glyph unicode="w" horiz-adv-x="1544" d="M8 971q0 33 33 33h291q33 0 33 -33q0 -31 -33 -31h-123l270 -852l258 709q12 34 39 34q25 0 37 -32l272 -717l254 858h-127q-32 0 -32 31q0 33 32 33h291q33 0 33 -33q0 -31 -33 -31h-96l-281 -922q-12 -38 -43 -38q-26 0 -41 34l-270 705l-256 -701q-12 -38 -41 -38 t-41 36l-303 924h-90q-33 0 -33 31z" />
<glyph unicode="x" horiz-adv-x="1079" d="M8 33q0 30 33 30h98l359 459l-330 418h-92q-33 0 -33 31q0 33 33 33h282q33 0 33 -33q0 -31 -33 -31h-104l287 -367l284 367h-112q-33 0 -33 31q0 33 33 33h286q33 0 33 -33q0 -31 -33 -31h-92l-325 -414l364 -463h92q33 0 33 -30q0 -33 -33 -33h-295q-32 0 -32 33 q0 30 32 30h119l-325 406l-316 -406h115q33 0 33 -30q0 -33 -33 -33h-295q-33 0 -33 33z" />
<glyph unicode="y" horiz-adv-x="1114" d="M8 971q0 33 33 33h291q33 0 33 -33q0 -31 -33 -31h-123l356 -862l344 862h-127q-32 0 -32 31q0 33 32 33h291q33 0 33 -33q0 -31 -33 -31h-88l-414 -1006q-83 -204 -153 -284q-69 -80 -178 -80q-89 0 -156 37q-32 18 -32 40q0 6 3 13q6 14 23 14q15 0 39 -12 q64 -29 127 -29q50 0 96 31q44 30 77 84q27 46 55 106q24 53 46 111q8 26 10 29l-397 946h-90q-33 0 -33 31z" />
<glyph unicode="z" horiz-adv-x="993" d="M109 20q-2 6 -2 12q0 15 12 31l680 877h-580v-172q0 -39 -35 -39q-32 0 -32 39v197q0 39 28 39h672q32 0 40 -23q7 -22 -11 -43l-682 -875h632v191q0 39 33 39q35 0 35 -39v-215q0 -39 -33 -39h-725q-26 0 -32 20z" />
<glyph unicode="{" horiz-adv-x="608" d="M94 707q0 26 35 43q41 17 57 56q15 38 15 101v387q0 132 47 208q46 75 176 75q60 0 98 -16q50 -18 37 -48q-7 -22 -53 -10q-60 13 -80 13q-89 0 -124 -58q-34 -56 -34 -166v-405q0 -146 -98 -180q98 -34 98 -181v-405q0 -107 33 -165t125 -58q25 0 84 14q42 8 49 -12 q12 -29 -37 -47q-40 -17 -98 -17q-127 0 -175 71q-48 70 -48 212v387q0 62 -15 100q-16 39 -57 56q-35 17 -35 45z" />
<glyph unicode="|" horiz-adv-x="358" d="M145 -186v1785q0 39 33 39t33 -39v-1785q0 -39 -33 -39t-33 39z" />
<glyph unicode="}" horiz-adv-x="608" d="M45 -100q7 20 49 12q59 -14 84 -14q92 0 125 58t33 165v405q0 147 98 181q-98 34 -98 180v405q0 110 -34 166q-35 58 -124 58q-20 0 -80 -13q-46 -12 -53 10q-13 30 37 48q38 16 98 16q130 0 176 -75q47 -76 47 -208v-387q0 -63 15 -101q16 -39 57 -56q35 -17 35 -43 q0 -28 -35 -45q-41 -17 -57 -56q-15 -38 -15 -100v-387q0 -141 -48 -212t-175 -71q-58 0 -98 17q-49 18 -37 47z" />
<glyph unicode="~" horiz-adv-x="1007" d="M123 569q-21 23 18 62q84 84 197 84q72 0 201 -51q132 -52 176 -52q79 0 147 60q44 41 64 20q20 -20 -21 -61q-82 -82 -196 -82q-67 0 -194 51t-183 51q-79 0 -146 -61q-43 -38 -63 -21z" />
<glyph unicode="&#xa1;" horiz-adv-x="378" d="M129 1354q0 26 15 43q15 16 44 16t45 -17q17 -19 17 -42t-17 -42q-17 -18 -45 -18q-29 0 -44 17t-15 43zM156 39v981q0 39 34 39q33 0 33 -39v-981q0 -39 -33 -39q-34 0 -34 39z" />
<glyph unicode="&#xa2;" d="M145 492q0 225 122 370q121 143 319 160v211q0 39 32 39q31 0 31 -39v-209q140 -1 252 -59q37 -22 37 -52v-176q0 -39 -35 -39q-33 0 -33 39v170q-122 54 -235 54q-182 0 -301 -130t-119 -339q0 -214 107 -332q106 -117 290 -117q150 0 291 90q44 27 62 6q18 -27 -25 -57 q-121 -89 -291 -100v-211q0 -39 -31 -39q-32 0 -32 39v209q-215 8 -328 139t-113 373z" />
<glyph unicode="&#xa3;" d="M117 31q0 32 33 32q106 0 177 97q70 95 70 223q0 119 -45 240h-174q-33 0 -33 30q0 31 33 31h152q-20 44 -32 71q-14 32 -34 80q-3 9 -24 70q-15 45 -21 87t-6 89q0 170 109 271q107 100 292 100q215 -2 355 -98q35 -23 35 -54v-245q0 -39 -35 -39q-33 0 -33 39v241 q-162 93 -326 93q-150 0 -238 -81q-89 -81 -89 -227q0 -52 13 -107q12 -51 26 -91q14 -39 42 -103q21 -48 39 -96h363q33 0 33 -31q0 -30 -33 -30h-340q41 -120 41 -238q0 -103 -47 -191q-46 -86 -117 -131h666v244q0 39 32 39q35 0 35 -39v-268q0 -39 -37 -39h-849 q-33 0 -33 31z" />
<glyph unicode="&#xa4;" horiz-adv-x="1384" d="M166 152q-23 23 14 63l185 191q-111 123 -111 313q0 188 111 311l-185 193q-37 40 -14 63q24 22 63 -18l183 -193q123 103 303 103q178 0 301 -103l182 193q38 43 66 18q22 -22 -15 -63l-186 -193q111 -128 111 -311q0 -185 -111 -313l186 -191q37 -41 15 -63 q-28 -25 -66 18l-180 190q-124 -102 -303 -102q-181 0 -305 102l-181 -190q-39 -40 -63 -18zM317 719q0 -179 110 -291q109 -111 288 -111q178 0 286 111q109 112 109 291t-109 291q-107 110 -286 110q-177 0 -287 -113q-111 -114 -111 -288z" />
<glyph unicode="&#xa5;" d="M-35 1380q0 33 33 33h313q33 0 33 -33q0 -30 -33 -30h-137l395 -666l392 666h-138q-32 0 -32 30q0 33 32 33h314q32 0 32 -33q0 -30 -32 -30h-103l-409 -680h299q32 0 32 -31t-32 -31h-318v-194h318q32 0 32 -31t-32 -31h-318v-289h154q33 0 33 -32q0 -31 -33 -31h-375 q-33 0 -33 31q0 32 33 32h150v289h-318q-33 0 -33 31t33 31h318v194h-318q-33 0 -33 31t33 31h293q-85 128 -211 343q-121 206 -207 337h-94q-33 0 -33 30z" />
<glyph unicode="&#xa6;" horiz-adv-x="358" d="M145 -186v710q0 39 33 39t33 -39v-710q0 -39 -33 -39t-33 39zM145 889v710q0 39 33 39t33 -39v-710q0 -39 -33 -39t-33 39z" />
<glyph unicode="&#xa7;" horiz-adv-x="1126" d="M141 516q0 193 189 307q-125 95 -125 275q0 153 104 244q106 92 305 92q146 0 267 -52q69 -30 69 -67v-248q0 -39 -35 -39q-32 0 -32 39v244q-143 59 -273 59q-167 0 -252 -74q-84 -74 -84 -198q0 -33 8 -65q10 -41 14 -53q7 -23 28 -47q7 -8 31 -38q12 -15 43 -34 l44 -26q11 -7 53 -24l50 -20q11 -5 57 -21l53 -18q159 -53 244 -129q86 -77 86 -222q0 -200 -188 -307q125 -101 125 -274q0 -154 -105 -245q-104 -91 -305 -91q-164 0 -281 59q-55 27 -55 62v245q0 39 33 39q35 0 35 -39v-243q134 -60 272 -60q167 0 252 74q84 74 84 199 q0 37 -7 65q-9 35 -15 55q-8 26 -27 46q-18 20 -33 38q-12 15 -42 33q-8 5 -23 14.5t-21 12.5q-32 16 -52 24l-51 20q-2 1 -11.5 4t-21 7t-24.5 8q-44 15 -53 19q-159 53 -244 129q-86 77 -86 221zM211 524q0 -67 20 -113q21 -47 65 -81q42 -32 84 -52q55 -27 107 -45 l80 -28q71 -25 104 -40q43 -19 74 -38q170 105 170 266q0 65 -21 115q-20 48 -65 82q-41 31 -85 53q-38 19 -105 43q-33 12 -65 23l-71 24q-5 1 -61 24q-36 14 -63 31q-168 -96 -168 -264z" />
<glyph unicode="&#xa8;" horiz-adv-x="1087" d="M340 1300q0 24 15 41t42 17q24 0 41 -17t17 -41q0 -21 -17 -38t-41 -17q-26 0 -42 16q-15 15 -15 39zM633 1300q0 24 15 41t40 17q27 0 42 -17t15 -41t-15 -39q-16 -16 -42 -16q-24 0 -40 16q-15 15 -15 39z" />
<glyph unicode="&#xa9;" horiz-adv-x="1609" d="M94 707q0 319 189 523t522 204t522 -204t189 -523q0 -323 -189 -525t-522 -202q-334 0 -522 203q-189 204 -189 524zM162 707q0 -298 170 -482q169 -182 473 -182t473 182q170 184 170 482q0 296 -170 480q-170 183 -473 183t-473 -183q-170 -184 -170 -480zM463 711 q0 187 100 299t266 112q124 0 201 -49q25 -19 25 -39v-123q0 -34 -31 -34q-33 0 -33 34v115q-78 33 -164 33q-139 0 -218 -94t-79 -254q0 -161 74 -252q73 -90 215 -90q103 0 187 51v121q0 34 32 34q31 0 31 -34v-123q0 -21 -16 -37q-89 -76 -236 -76q-177 0 -266 108 q-88 107 -88 298z" />
<glyph unicode="&#xaa;" horiz-adv-x="788" d="M92 913q0 120 85 180t216 60q97 0 225 -25v52q0 103 -49 149q-50 47 -161 47q-82 0 -199 -39q-49 -15 -57 9q-7 27 32 43q105 45 226 45q138 0 204 -63t66 -193v-398h80q31 0 31 -28q0 -29 -31 -29h-111q-31 0 -31 31v139q-78 -191 -294 -191q-108 0 -170 57t-62 154z M158 918q0 -71 46 -114q47 -44 126 -44q139 0 214 88q74 87 74 186v41q-105 21 -219 21q-241 0 -241 -178z" />
<glyph unicode="&#xab;" horiz-adv-x="999" d="M164 463q-45 45 2 92l350 342q34 35 55 14q18 -18 -16 -55l-352 -344l352 -356q37 -37 18 -60q-20 -22 -59 17zM514 463q-45 45 2 92l350 342q35 35 56 14q20 -18 -17 -55l-352 -344l352 -356q37 -37 19 -60q-22 -22 -60 17z" />
<glyph unicode="&#xac;" horiz-adv-x="1007" d="M94 674q0 33 33 33h747q39 0 39 -41v-267q0 -39 -32 -39q-33 0 -33 39v244h-721q-33 0 -33 31z" />
<glyph unicode="&#xad;" horiz-adv-x="692" d="M33 555q0 31 33 31h561q32 0 32 -31q0 -33 -32 -33h-561q-33 0 -33 33z" />
<glyph unicode="&#xae;" horiz-adv-x="1384" d="M176 911q0 227 140 374q141 149 376 149t376 -149q140 -147 140 -374q0 -228 -140 -374q-142 -148 -376 -148t-376 148q-140 146 -140 374zM238 911q0 -201 118 -332q119 -133 336 -133t336 133t119 332q0 201 -119 332t-336 131t-336 -131q-118 -130 -118 -332zM414 649 q0 25 26 25h68v493h-68q-26 0 -26 25t26 25h121q54 10 119 10q213 0 213 -176q0 -135 -123 -172l121 -205h63q27 0 27 -25q0 -24 -27 -24h-82q-20 0 -32 22l-125 217q-24 -4 -68 -4q-43 0 -86 6v-192h68q26 0 26 -25q0 -24 -26 -24h-189q-26 0 -26 24zM561 915q39 -6 82 -6 q107 0 151 32t44 110q0 127 -166 127q-62 0 -111 -11v-252z" />
<glyph unicode="&#xaf;" horiz-adv-x="1087" d="M248 1296q0 31 31 31h528q33 0 33 -31q0 -30 -33 -30h-528q-31 0 -31 30z" />
<glyph unicode="&#xb0;" horiz-adv-x="1118" d="M254 1130q0 138 87 221q88 83 218 83t218 -83q87 -82 87 -221q0 -136 -87 -219q-86 -82 -218 -82t-218 82q-87 83 -87 219zM319 1130q0 -111 68 -177t172 -66q105 0 172 66q68 66 68 177q0 114 -68 180q-67 66 -172 66t-172 -66q-68 -66 -68 -180z" />
<glyph unicode="&#xb1;" horiz-adv-x="1007" d="M94 367q0 32 33 32h754q32 0 32 -32q0 -31 -32 -31h-754q-33 0 -33 31zM94 750q0 32 33 32h344v301q0 39 33 39t33 -39v-301h344q32 0 32 -32q0 -31 -32 -31h-344v-168q0 -39 -33 -39t-33 39v168h-344q-33 0 -33 31z" />
<glyph unicode="&#xb2;" horiz-adv-x="593" d="M66 750q0 83 39 144t99 101l115 74q58 35 98 81t40 103q0 53 -39 88q-40 35 -121 35q-83 0 -168 -47q-41 -24 -53 -4q-15 22 24 49q90 60 201 60q107 0 165 -49q56 -47 56 -125q0 -68 -40 -123q-43 -59 -98 -94l-116 -73q-56 -35 -97 -84q-40 -47 -40 -106h387 q31 0 31 -28q0 -29 -31 -29h-428q-24 0 -24 27z" />
<glyph unicode="&#xb3;" horiz-adv-x="616" d="M78 795q10 22 59 0q85 -35 154 -35q201 0 201 162q0 81 -65 120t-210 39q-33 0 -33 27q0 14 21 35l231 213h-297q-28 0 -28 28q0 29 28 29h363q28 0 28 -27q0 -16 -20 -36l-242 -217q289 -4 289 -209q0 -106 -70 -164t-196 -58q-111 0 -178 37q-51 25 -35 56z" />
<glyph unicode="&#xb4;" horiz-adv-x="1087" d="M358 1194q-16 26 25 53l317 213q45 30 62 6q16 -24 -25 -53l-317 -213q-44 -33 -62 -6z" />
<glyph unicode="&#xb5;" horiz-adv-x="1230" d="M43 -379q0 33 33 33h131v1286h-131q-33 0 -33 31q0 33 33 33h164q34 0 34 -39v-582q10 -340 291 -340q203 0 300 166q98 167 98 455v276h-129q-33 0 -33 31q0 33 33 33h163q33 0 33 -39v-902h125q33 0 33 -32q0 -31 -33 -31h-162q-30 0 -30 39v283q-34 -167 -144 -255 q-108 -87 -258 -87q-218 0 -287 172v-498h132q32 0 32 -33q0 -31 -32 -31h-330q-33 0 -33 31z" />
<glyph unicode="&#xb6;" horiz-adv-x="827" d="M33 1022q0 163 96 277t238 114q43 0 43 -45v-1554q0 -39 -33 -39t-33 39v811q-133 1 -222 116t-89 281zM586 -186v1560q0 39 32 39q33 0 33 -39v-1560q0 -39 -33 -39q-32 0 -32 39z" />
<glyph unicode="&#xb7;" horiz-adv-x="368" d="M123 643q0 26 15 43q15 16 44 16t45 -17q17 -19 17 -42t-17 -42q-16 -17 -45 -17t-44 16t-15 43z" />
<glyph unicode="&#xb8;" horiz-adv-x="620" d="M133 -416q1 3 5 7t7 5t8 1t9 -1l9 -3l10 -4q7 -3 9 -3q57 -24 123 -24q144 0 144 123q0 127 -191 127q-34 0 -28 34l41 166q10 37 38 31q30 -6 19 -41l-37 -137q221 -8 221 -178q0 -87 -54 -136q-53 -49 -155 -49q-89 0 -151 33q-42 19 -27 49z" />
<glyph unicode="&#xb9;" horiz-adv-x="491" d="M45 1130q-18 22 12 52l226 225q27 27 47 27q28 0 28 -35v-619h117q31 0 31 -28q0 -29 -31 -29h-317q-31 0 -31 29q0 28 31 28h137v557l-193 -192q-37 -37 -57 -15z" />
<glyph unicode="&#xba;" horiz-adv-x="718" d="M70 1067q0 168 72 267q73 100 218 100t218 -100q71 -98 71 -267q0 -168 -71 -266q-72 -99 -218 -99t-218 99t-72 266zM135 1067q0 -307 225 -307q224 0 224 307q0 136 -54 224q-52 85 -170 85q-225 0 -225 -309z" />
<glyph unicode="&#xbb;" horiz-adv-x="999" d="M123 913q22 21 59 -16l350 -350q45 -45 -2 -92l-350 -342q-35 -35 -55 -15q-21 22 16 56l353 344l-353 356q-36 36 -18 59zM473 913q21 21 59 -16l351 -350q45 -45 -2 -92l-351 -342q-35 -35 -55 -15q-18 21 17 56l352 344l-352 356q-37 37 -19 59z" />
<glyph unicode="&#xbc;" horiz-adv-x="1386" d="M45 1130q-18 22 12 52l226 225q27 27 47 27q28 0 28 -35v-619h117q31 0 31 -28q0 -29 -31 -29h-317q-31 0 -31 29q0 28 31 28h137v557l-193 -192q-37 -37 -57 -15zM418 -10l522 1464q11 31 25 49q11 14 30 8q28 -10 4 -77l-522 -1467q-21 -54 -53 -47q-29 8 -6 70z M812 232q-5 23 9 38l330 412q23 29 45 29q29 0 29 -39v-404h80q26 0 26 -28q0 -29 -26 -29h-80v-180q0 -31 -31 -31q-29 0 -29 31v180h-321q-28 0 -32 21zM885 268h280v350z" />
<glyph unicode="&#xbd;" horiz-adv-x="1458" d="M45 1131q-18 21 12 51l226 225q27 27 47 27q28 0 28 -35v-619h117q31 0 31 -28q0 -29 -31 -29h-317q-31 0 -31 29q0 28 31 28h137v557l-193 -192q-36 -36 -57 -14zM416 -10l522 1464q11 31 25 49q11 14 30 8q28 -10 4 -77l-522 -1467q-21 -54 -53 -47q-29 8 -6 70z M944 27q0 82 40 144t98 101l116 74q56 34 97 81q40 46 40 103q0 54 -39 88q-40 35 -120 35q-83 0 -168 -47q-42 -25 -54 -4q-14 22 25 49q89 60 201 60q108 0 165 -48q56 -47 56 -126q0 -68 -40 -123q-41 -56 -97 -93l-116 -74q-56 -35 -98 -84q-40 -47 -40 -106h387 q30 0 30 -28q0 -29 -30 -29h-428q-25 0 -25 27z" />
<glyph unicode="&#xbe;" horiz-adv-x="1456" d="M78 815q10 22 59 0q85 -35 154 -35q201 0 201 162q0 82 -65 121t-210 39q-33 0 -33 26q0 14 21 35l231 213h-297q-28 0 -28 29t28 29h363q28 0 28 -27q0 -17 -20 -37l-242 -217q289 -4 289 -209q0 -106 -70 -164q-69 -57 -196 -57q-111 0 -178 37q-50 24 -35 55zM477 -10 l522 1464q11 31 25 49q12 14 31 8q28 -10 4 -77l-522 -1467q-21 -55 -54 -47q-29 8 -6 70zM878 232q-5 23 9 38l330 412q23 29 45 29q28 0 28 -39v-404h80q27 0 27 -28q0 -29 -27 -29h-80v-180q0 -31 -30 -31q-29 0 -29 31v180h-322q-27 0 -31 21zM950 268h281v350z" />
<glyph unicode="&#xbf;" horiz-adv-x="845" d="M68 287q0 67 15 124q14 55 53 109t62 79q48 51 76 79q69 67 92 95q30 36 58 101q29 67 29 142q0 43 32 43q35 0 35 -43q0 -86 -33 -162q-34 -78 -67 -117q-34 -41 -96 -102q-69 -67 -96 -99q-32 -38 -62 -107q-29 -67 -29 -142q0 -104 73 -174t212 -70q116 0 252 63 q52 27 67 5q19 -29 -34 -58q-136 -73 -289 -73q-178 0 -264 86t-86 221zM424 1354q0 25 16 42t45 17t44 -16q16 -18 16 -43t-16 -43q-15 -17 -44 -17t-45 18q-16 17 -16 42z" />
<glyph unicode="&#xc0;" horiz-adv-x="1429" d="M-2 33q0 33 33 33h116l519 1323q18 45 47 45q28 0 45 -41l524 -1327h117q33 0 33 -33t-33 -33h-340q-33 0 -33 33t33 33h145l-157 399h-670l-156 -399h150q32 0 32 -33t-32 -33h-340q-33 0 -33 33zM303 1847q17 27 64 -6l374 -221q51 -28 33 -57q-16 -24 -65 4l-377 225 q-47 29 -29 55zM401 530h621l-313 797z" />
<glyph unicode="&#xc1;" horiz-adv-x="1429" d="M-2 33q0 33 33 33h116l519 1323q18 45 47 45q28 0 45 -41l524 -1327h117q33 0 33 -33t-33 -33h-340q-33 0 -33 33t33 33h145l-157 399h-670l-156 -399h150q32 0 32 -33t-32 -33h-340q-33 0 -33 33zM401 530h621l-313 797zM590 1563q-18 29 33 57l374 221q47 33 64 6 q18 -26 -29 -55l-377 -225q-49 -28 -65 -4z" />
<glyph unicode="&#xc2;" horiz-adv-x="1429" d="M-2 33q0 33 33 33h116l519 1323q18 45 47 45q28 0 45 -41l524 -1327h117q33 0 33 -33t-33 -33h-340q-33 0 -33 33t33 33h145l-157 399h-670l-156 -399h150q32 0 32 -33t-32 -33h-340q-33 0 -33 33zM369 1546q-13 25 30 53l263 166q30 19 50 19t50 -19l260 -161 q49 -33 31 -60q-17 -27 -68 6l-274 170l-281 -172q-44 -26 -61 -2zM401 530h621l-313 797z" />
<glyph unicode="&#xc3;" horiz-adv-x="1429" d="M-2 33q0 33 33 33h116l519 1323q18 45 47 45q28 0 45 -41l524 -1327h117q33 0 33 -33t-33 -33h-340q-33 0 -33 33t33 33h145l-157 399h-670l-156 -399h150q32 0 32 -33t-32 -33h-340q-33 0 -33 33zM393 1604q-24 21 13 61q74 86 172 86q58 0 149 -53t135 -53q62 0 123 61 q37 40 57 23q23 -17 -14 -62q-76 -84 -170 -84q-64 0 -153 54q-90 55 -134 55q-51 0 -120 -64q-40 -37 -58 -24zM401 530h621l-313 797z" />
<glyph unicode="&#xc4;" horiz-adv-x="1429" d="M-2 33q0 33 33 33h116l519 1323q18 45 47 45q28 0 45 -41l524 -1327h117q33 0 33 -33t-33 -33h-340q-33 0 -33 33t33 33h145l-157 399h-670l-156 -399h150q32 0 32 -33t-32 -33h-340q-33 0 -33 33zM401 530h621l-313 797zM489 1671q0 62 62 62q27 0 46 -17q17 -16 17 -45 q0 -59 -63 -59q-62 0 -62 59zM813 1671q0 62 61 62q28 0 47 -17q17 -16 17 -45q0 -59 -64 -59q-61 0 -61 59z" />
<glyph unicode="&#xc5;" horiz-adv-x="1429" d="M-2 33q0 33 33 33h116l519 1323q7 19 14 26q-77 11 -121 55q-45 45 -45 115q0 78 56 124t145 46t145 -46q58 -47 58 -124q0 -71 -48 -117q-47 -46 -125 -53l13 -22l524 -1327h117q33 0 33 -33t-33 -33h-340q-33 0 -33 33t33 33h145l-157 399h-670l-156 -399h150 q32 0 32 -33t-32 -33h-340q-33 0 -33 33zM401 530h621l-313 797zM573 1585q0 -55 38 -88q37 -33 104 -33q66 0 106 32q39 32 39 89q0 56 -40 87q-41 32 -105 32q-66 0 -104 -32t-38 -87z" />
<glyph unicode="&#xc6;" horiz-adv-x="1935" d="M-2 33q0 33 33 33h112l893 1310q24 37 56 37h729q34 0 34 -39v-258q0 -39 -34 -39q-35 0 -35 39v232h-674v-578h594q33 0 33 -33q0 -32 -33 -32h-594v-639h690v251q0 39 35 39t35 -39v-278q0 -39 -37 -39h-752q-43 0 -43 41v424h-542l-269 -399h146q33 0 33 -33t-33 -33 h-344q-33 0 -33 33zM543 530h497v742z" />
<glyph unicode="&#xc7;" horiz-adv-x="1306" d="M115 705q0 325 179 527t484 202q224 -1 371 -91q43 -27 43 -59v-219q0 -39 -35 -39t-35 39v217q-163 86 -346 86q-277 0 -432 -188q-156 -189 -156 -480q0 -307 156 -481t418 -174q217 0 379 117v217q0 39 35 39q34 0 34 -39v-207q0 -37 -43 -70q-161 -122 -409 -122h-13 l-30 -115q221 -8 221 -178q0 -87 -54 -136q-53 -49 -155 -49q-91 0 -152 33q-41 18 -26 49q1 3 5 7t7 5t7 1q6 0 10 -1l9 -3l10 -4q7 -3 9 -3q57 -24 123 -24q143 0 143 123q0 127 -190 127q-35 0 -29 34l35 136q-287 21 -430 215t-143 508z" />
<glyph unicode="&#xc8;" horiz-adv-x="1216" d="M80 33q0 33 33 33h151v1282h-151q-33 0 -33 32q0 33 33 33h972q31 0 31 -39v-258q0 -39 -35 -39q-34 0 -34 39v232h-711v-578h627q32 0 32 -33q0 -32 -32 -32h-627v-639h727v251q0 39 35 39t35 -39v-278q0 -39 -41 -39h-979q-33 0 -33 33zM289 1847q17 27 63 -6l375 -221 q51 -28 33 -57q-17 -24 -66 4l-377 225q-46 28 -28 55z" />
<glyph unicode="&#xc9;" horiz-adv-x="1216" d="M80 33q0 33 33 33h151v1282h-151q-33 0 -33 32q0 33 33 33h972q31 0 31 -39v-258q0 -39 -35 -39q-34 0 -34 39v232h-711v-578h627q32 0 32 -33q0 -32 -32 -32h-627v-639h727v251q0 39 35 39t35 -39v-278q0 -39 -41 -39h-979q-33 0 -33 33zM565 1563q-18 29 33 57l375 221 q47 33 63 6q18 -27 -28 -55l-377 -225q-49 -28 -66 -4z" />
<glyph unicode="&#xca;" horiz-adv-x="1216" d="M80 33q0 33 33 33h151v1282h-151q-33 0 -33 32q0 33 33 33h972q31 0 31 -39v-258q0 -39 -35 -39q-34 0 -34 39v232h-711v-578h627q32 0 32 -33q0 -32 -32 -32h-627v-639h727v251q0 39 35 39t35 -39v-278q0 -39 -41 -39h-979q-33 0 -33 33zM340 1546q-12 25 31 53l262 166 q30 19 50 19t50 -19l260 -161q49 -33 31 -60q-17 -27 -68 6l-274 170l-281 -172q-44 -26 -61 -2z" />
<glyph unicode="&#xcb;" horiz-adv-x="1216" d="M80 33q0 33 33 33h151v1282h-151q-33 0 -33 32q0 33 33 33h972q31 0 31 -39v-258q0 -39 -35 -39q-34 0 -34 39v232h-711v-578h627q32 0 32 -33q0 -32 -32 -32h-627v-639h727v251q0 39 35 39t35 -39v-278q0 -39 -41 -39h-979q-33 0 -33 33zM459 1671q0 62 61 62 q27 0 46 -17q18 -16 18 -45q0 -59 -64 -59q-61 0 -61 59zM782 1671q0 62 62 62q27 0 46 -17q17 -16 17 -45q0 -59 -63 -59q-62 0 -62 59z" />
<glyph unicode="&#xcc;" horiz-adv-x="600" d="M-123 1847q17 27 64 -6l374 -221q51 -28 33 -57q-16 -24 -65 4l-377 225q-47 29 -29 55zM98 33q0 33 33 33h152v1282h-152q-33 0 -33 32q0 33 33 33h375q33 0 33 -33q0 -32 -33 -32h-152v-1282h152q33 0 33 -33t-33 -33h-375q-33 0 -33 33z" />
<glyph unicode="&#xcd;" horiz-adv-x="600" d="M80 33q0 33 33 33h151v1282h-151q-33 0 -33 32q0 33 33 33h374q33 0 33 -33q0 -32 -33 -32h-151v-1282h151q33 0 33 -33t-33 -33h-374q-33 0 -33 33zM242 1563q-18 29 32 57l375 221q47 33 64 6q18 -26 -29 -55l-377 -225q-49 -28 -65 -4z" />
<glyph unicode="&#xce;" horiz-adv-x="600" d="M-29 1546q-12 25 31 53l262 166q30 19 50 19q21 0 51 -19l260 -161q48 -32 30 -60q-16 -27 -67 6l-275 170l-280 -172q-45 -27 -62 -2zM92 33q0 33 33 33h151v1282h-151q-33 0 -33 32q0 33 33 33h375q32 0 32 -33q0 -32 -32 -32h-152v-1282h152q32 0 32 -33t-32 -33h-375 q-33 0 -33 33z" />
<glyph unicode="&#xcf;" horiz-adv-x="600" d="M18 1669q0 60 58 60q27 0 42 -18t15 -42q0 -57 -57 -57q-58 0 -58 57zM80 8q0 33 33 33h151v1282h-151q-33 0 -33 33t33 33h374q33 0 33 -33t-33 -33h-151v-1282h151q33 0 33 -33t-33 -33h-374q-33 0 -33 33zM289 1669q0 24 15 42t42 18q29 0 44 -17q16 -18 16 -43 q0 -57 -60 -57q-57 0 -57 57z" />
<glyph unicode="&#xd0;" horiz-adv-x="1499" d="M80 729q0 33 33 33h153v586h-151q-33 0 -33 32q0 33 33 33h223q140 10 330 10q716 0 716 -710q0 -345 -180 -534t-532 -189q-191 0 -334 10h-223q-33 0 -33 33t33 33h151v630h-153q-33 0 -33 33zM338 66q143 -11 328 -11q318 0 482 170q163 169 163 488q0 645 -647 645 q-166 0 -326 -10v-586h369q32 0 32 -33t-32 -33h-369v-630z" />
<glyph unicode="&#xd1;" horiz-adv-x="1607" d="M80 33q0 33 33 33h151v1282h-151q-33 0 -33 32q0 33 33 33h186q25 0 49 -33l928 -1241v1209h-156q-33 0 -33 32q0 33 33 33h375q33 0 33 -33q0 -32 -33 -32h-152v-1305q0 -43 -34 -43q-19 0 -41 25l-936 1249v-1208h155q33 0 33 -33t-33 -33h-374q-33 0 -33 33zM487 1604 q-24 21 13 61q74 86 172 86q58 0 149 -53t135 -53q62 0 123 61q38 41 58 23q23 -17 -15 -62q-76 -84 -170 -84q-64 0 -153 54q-90 55 -133 55q-52 0 -121 -64q-40 -37 -58 -24z" />
<glyph unicode="&#xd2;" horiz-adv-x="1554" d="M115 707q0 317 175 522t488 205q312 0 487 -205t175 -522q0 -320 -174 -524q-173 -203 -488 -203q-313 0 -488 203t-175 524zM188 707q0 -293 158 -478q157 -184 432 -184q273 0 430 184q158 185 158 478q0 292 -158 477q-157 184 -430 184q-275 0 -432 -184 q-158 -185 -158 -477zM397 1847q17 27 64 -6l375 -221q50 -28 32 -57q-16 -24 -65 4l-377 225q-47 29 -29 55z" />
<glyph unicode="&#xd3;" horiz-adv-x="1554" d="M115 707q0 317 175 522t488 205q312 0 487 -205t175 -522q0 -320 -174 -524q-173 -203 -488 -203q-313 0 -488 203t-175 524zM188 707q0 -293 158 -478q157 -184 432 -184q273 0 430 184q158 185 158 478q0 292 -158 477q-157 184 -430 184q-275 0 -432 -184 q-158 -185 -158 -477zM664 1563q-18 29 32 57l375 221q47 33 64 6q18 -26 -29 -55l-377 -225q-49 -28 -65 -4z" />
<glyph unicode="&#xd4;" horiz-adv-x="1554" d="M115 707q0 317 175 522t488 205q312 0 487 -205t175 -522q0 -320 -174 -524q-173 -203 -488 -203q-313 0 -488 203t-175 524zM188 707q0 -293 158 -478q157 -184 432 -184q273 0 430 184q158 185 158 478q0 292 -158 477q-157 184 -430 184q-275 0 -432 -184 q-158 -185 -158 -477zM434 1546q-12 25 31 53l262 166q30 19 50 19t50 -19l260 -161q49 -33 31 -60q-16 -27 -67 6l-275 170l-280 -172q-45 -27 -62 -2z" />
<glyph unicode="&#xd5;" horiz-adv-x="1554" d="M115 707q0 317 175 522t488 205q312 0 487 -205t175 -522q0 -320 -174 -524q-173 -203 -488 -203q-313 0 -488 203t-175 524zM188 707q0 -293 158 -478q157 -184 432 -184q273 0 430 184q158 185 158 478q0 292 -158 477q-157 184 -430 184q-275 0 -432 -184 q-158 -185 -158 -477zM455 1604q-25 22 12 61q74 86 172 86q58 0 149 -53t136 -53q62 0 123 61q37 40 57 23q23 -17 -14 -62q-76 -84 -170 -84q-66 0 -154 54q-90 55 -133 55q-52 0 -121 -64q-40 -37 -57 -24z" />
<glyph unicode="&#xd6;" horiz-adv-x="1554" d="M115 707q0 317 175 522t488 205q312 0 487 -205t175 -522q0 -320 -174 -524q-173 -203 -488 -203q-313 0 -488 203t-175 524zM188 707q0 -293 158 -478q157 -184 432 -184q273 0 430 184q158 185 158 478q0 292 -158 477q-157 184 -430 184q-275 0 -432 -184 q-158 -185 -158 -477zM553 1671q0 62 61 62q27 0 46 -17q18 -16 18 -45q0 -59 -64 -59q-61 0 -61 59zM877 1671q0 62 61 62q27 0 46 -17q17 -16 17 -45q0 -59 -63 -59q-61 0 -61 59z" />
<glyph unicode="&#xd7;" horiz-adv-x="1007" d="M229 387q-18 20 17 55l235 232l-237 235q-35 34 -11 58q23 23 56 -11l237 -237l238 233q35 35 55 13q21 -21 -14 -56l-236 -233l236 -232q37 -36 14 -59q-24 -24 -61 14l-234 232l-235 -232q-39 -39 -60 -12z" />
<glyph unicode="&#xd8;" horiz-adv-x="1533" d="M104 707q0 316 176 522q175 205 488 205q114 0 219 -33l43 121q12 33 24 45t27 6q29 -11 6 -72l-43 -121q187 -78 286 -257q100 -180 100 -416q0 -319 -175 -524q-173 -203 -487 -203q-118 0 -217 30l-41 -114q-12 -31 -24 -44q-12 -14 -27 -10q-30 10 -6 76l41 113 q-188 78 -289 258q-101 181 -101 418zM178 707q0 -218 88 -378q89 -162 250 -235l449 1243q-91 31 -197 31q-275 0 -432 -184q-158 -185 -158 -477zM573 74q93 -29 195 -29q273 0 430 184q158 185 158 478q0 215 -88 375q-89 162 -248 235z" />
<glyph unicode="&#xd9;" horiz-adv-x="1527" d="M70 1380q0 33 32 33h375q33 0 33 -33q0 -32 -33 -32h-151v-754q0 -549 438 -549q238 0 338 145t100 404v754h-151q-33 0 -33 32q0 33 33 33h374q33 0 33 -33q0 -32 -33 -32h-151v-756q0 -612 -512 -612q-508 0 -508 612v756h-152q-32 0 -32 32zM424 1847q16 27 63 -6 l375 -221q51 -28 33 -57q-17 -24 -66 4l-376 225q-47 29 -29 55z" />
<glyph unicode="&#xda;" horiz-adv-x="1527" d="M70 1380q0 33 32 33h375q33 0 33 -33q0 -32 -33 -32h-151v-754q0 -549 438 -549q238 0 338 145t100 404v754h-151q-33 0 -33 32q0 33 33 33h374q33 0 33 -33q0 -32 -33 -32h-151v-756q0 -612 -512 -612q-508 0 -508 612v756h-152q-32 0 -32 32zM649 1563q-18 29 33 57 l375 221q47 33 63 6q18 -27 -28 -55l-377 -225q-49 -28 -66 -4z" />
<glyph unicode="&#xdb;" horiz-adv-x="1527" d="M70 1380q0 33 32 33h375q33 0 33 -33q0 -32 -33 -32h-151v-754q0 -549 438 -549q238 0 338 145t100 404v754h-151q-33 0 -33 32q0 33 33 33h374q33 0 33 -33q0 -32 -33 -32h-151v-756q0 -612 -512 -612q-508 0 -508 612v756h-152q-32 0 -32 32zM446 1546q-12 25 31 53 l262 166q30 19 51 19q20 0 50 -19l260 -161q48 -32 30 -60q-16 -27 -67 6l-275 170l-280 -172q-45 -27 -62 -2z" />
<glyph unicode="&#xdc;" horiz-adv-x="1527" d="M70 1380q0 33 32 33h375q33 0 33 -33q0 -32 -33 -32h-151v-754q0 -549 438 -549q238 0 338 145t100 404v754h-151q-33 0 -33 32q0 33 33 33h374q33 0 33 -33q0 -32 -33 -32h-151v-756q0 -612 -512 -612q-508 0 -508 612v756h-152q-32 0 -32 32zM565 1671q0 62 62 62 q27 0 46 -17q17 -16 17 -45q0 -59 -63 -59q-62 0 -62 59zM889 1671q0 62 61 62q27 0 46 -17q18 -16 18 -45q0 -59 -64 -59q-61 0 -61 59z" />
<glyph unicode="&#xdd;" horiz-adv-x="1284" d="M-2 1380q0 33 33 33h313q33 0 33 -33q0 -32 -33 -32h-133l440 -650l424 650h-133q-33 0 -33 32q0 33 33 33h311q33 0 33 -33q0 -32 -33 -32h-100l-469 -717v-565h154q32 0 32 -33t-32 -33h-375q-33 0 -33 33t33 33h149v559l-487 723h-94q-33 0 -33 32zM522 1563 q-18 29 33 57l375 221q46 33 63 6q18 -27 -28 -55l-377 -225q-49 -28 -66 -4z" />
<glyph unicode="&#xde;" horiz-adv-x="1177" d="M80 33q0 33 33 33h151v1282h-151q-33 0 -33 32q0 33 33 33h374q33 0 33 -33q0 -32 -33 -32h-151v-105q170 23 280 23q237 0 370 -103q132 -102 132 -319q0 -225 -145 -333t-383 -108q-159 0 -254 19v-356h151q33 0 33 -33t-33 -33h-374q-33 0 -33 33zM336 487 q99 -18 248 -18q460 0 460 375q0 177 -110 266q-111 90 -318 90q-132 0 -280 -22v-691z" />
<glyph unicode="&#xdf;" horiz-adv-x="1077" d="M43 -379q0 33 33 33h131v1343q0 234 76 335q77 102 276 102q175 0 254 -70q78 -69 78 -178q0 -74 -40 -138q-42 -67 -87 -103q-46 -37 -87 -87q-40 -49 -40 -96q0 -38 38 -78q34 -35 91 -76q60 -43 107 -82q57 -48 93 -112q38 -68 38 -148q0 -124 -80 -206 q-79 -80 -236 -80q-140 0 -239 43q-83 37 -60 71q5 6 10 9q6 3 16 1q3 -1 8.5 -2.5t7.5 -1.5q4 -1 22 -8l24 -10q101 -39 213 -39q128 0 186 61t58 160q0 86 -57 158t-125 113q-70 42 -125 100q-58 61 -58 123q0 49 26 93q27 46 63 79l75 70q37 35 63 83q25 46 25 101 q0 186 -264 186q-156 0 -219 -80q-64 -81 -64 -284v-1352h132q32 0 32 -33q0 -31 -32 -31h-330q-33 0 -33 31z" />
<glyph unicode="&#xe0;" horiz-adv-x="1077" d="M47 266q0 93 40 161q39 67 110 104t145 53t162 16q154 0 301 -29v88q0 302 -307 302q-129 0 -291 -66q-49 -21 -60 6q-12 28 29 49q148 74 328 74q368 0 368 -356v-605h129q33 0 33 -32q0 -31 -33 -31h-163q-33 0 -33 39v242q-45 -130 -158 -216q-112 -85 -280 -85 q-147 0 -233 73q-87 73 -87 213zM117 268q0 -105 67 -165t193 -60q194 0 311 134q117 133 117 290v45q-167 27 -291 27q-180 0 -289 -68q-108 -67 -108 -203zM254 1464q16 24 59 -4l318 -211q42 -28 24 -55q-16 -24 -59 6l-315 209q-43 27 -27 55z" />
<glyph unicode="&#xe1;" horiz-adv-x="1077" d="M47 266q0 93 40 161q39 67 110 104t145 53t162 16q154 0 301 -29v88q0 302 -307 302q-129 0 -291 -66q-49 -21 -60 6q-12 28 29 49q148 74 328 74q368 0 368 -356v-605h129q33 0 33 -32q0 -31 -33 -31h-163q-33 0 -33 39v242q-45 -130 -158 -216q-112 -85 -280 -85 q-147 0 -233 73q-87 73 -87 213zM117 268q0 -105 67 -165t193 -60q194 0 311 134q117 133 117 290v45q-167 27 -291 27q-180 0 -289 -68q-108 -67 -108 -203zM375 1194q-16 26 24 53l318 213q45 30 61 6q17 -24 -24 -53l-318 -213q-43 -33 -61 -6z" />
<glyph unicode="&#xe2;" horiz-adv-x="1077" d="M47 266q0 93 40 161q39 67 110 104t145 53t162 16q154 0 301 -29v88q0 302 -307 302q-129 0 -291 -66q-49 -21 -60 6q-12 28 29 49q148 74 328 74q368 0 368 -356v-605h129q33 0 33 -32q0 -31 -33 -31h-163q-33 0 -33 39v242q-45 -130 -158 -216q-112 -85 -280 -85 q-147 0 -233 73q-87 73 -87 213zM117 268q0 -105 67 -165t193 -60q194 0 311 134q117 133 117 290v45q-167 27 -291 27q-180 0 -289 -68q-108 -67 -108 -203zM207 1190q-18 24 22 57l222 185q26 20 45 20q20 0 47 -20l221 -183q44 -34 22 -61q-21 -24 -63 10l-229 195 l-226 -193q-43 -34 -61 -10z" />
<glyph unicode="&#xe3;" horiz-adv-x="1077" d="M47 266q0 93 40 161q39 67 110 104t145 53t162 16q154 0 301 -29v88q0 302 -307 302q-129 0 -291 -66q-49 -21 -60 6q-12 28 29 49q148 74 328 74q368 0 368 -356v-605h129q33 0 33 -32q0 -31 -33 -31h-163q-33 0 -33 39v242q-45 -130 -158 -216q-112 -85 -280 -85 q-147 0 -233 73q-87 73 -87 213zM117 268q0 -105 67 -165t193 -60q194 0 311 134q117 133 117 290v45q-167 27 -291 27q-180 0 -289 -68q-108 -67 -108 -203zM199 1233q-24 21 6 55q78 90 164 90q60 0 140 -55t120 -55q52 0 112 63q31 36 54 19q21 -16 -7 -56 q-69 -88 -165 -88q-61 0 -141 56q-79 55 -117 55q-49 0 -113 -64q-32 -32 -53 -20z" />
<glyph unicode="&#xe4;" horiz-adv-x="1077" d="M47 266q0 93 40 161q39 67 110 104t145 53t162 16q154 0 301 -29v88q0 302 -307 302q-129 0 -291 -66q-49 -21 -60 6q-12 28 29 49q148 74 328 74q368 0 368 -356v-605h129q33 0 33 -32q0 -31 -33 -31h-163q-33 0 -33 39v242q-45 -130 -158 -216q-112 -85 -280 -85 q-147 0 -233 73q-87 73 -87 213zM117 268q0 -105 67 -165t193 -60q194 0 311 134q117 133 117 290v45q-167 27 -291 27q-180 0 -289 -68q-108 -67 -108 -203zM317 1300q0 23 16 41q15 17 42 17q24 0 41 -17q16 -16 16 -41q0 -22 -15 -38q-15 -17 -42 -17q-26 0 -42 16 t-16 39zM610 1300q0 23 16 41q15 17 40 17q27 0 42 -17t15 -41t-15 -39q-16 -16 -42 -16q-24 0 -40 16t-16 39z" />
<glyph unicode="&#xe5;" horiz-adv-x="1077" d="M47 266q0 93 40 161q39 67 110 104t145 53t162 16q154 0 301 -29v88q0 302 -307 302q-129 0 -291 -66q-49 -21 -60 6q-12 28 29 49q148 74 328 74q368 0 368 -356v-605h129q33 0 33 -32q0 -31 -33 -31h-163q-33 0 -33 39v242q-45 -130 -158 -216q-112 -85 -280 -85 q-147 0 -233 73q-87 73 -87 213zM117 268q0 -105 67 -165t193 -60q194 0 311 134q117 133 117 290v45q-167 27 -291 27q-180 0 -289 -68q-108 -67 -108 -203zM313 1337q0 80 51 133q50 52 134 52q86 0 136 -52t50 -133q0 -82 -50 -132t-136 -50q-84 0 -134 50 q-51 51 -51 132zM369 1339q0 -60 35 -96q36 -37 94 -37q59 0 95 36t36 95t-37 96t-94 37q-59 0 -94 -36t-35 -95z" />
<glyph unicode="&#xe6;" horiz-adv-x="1755" d="M47 254q0 92 36 158q35 65 102 98q62 31 143 47q71 14 174 14h303v88q0 302 -309 302q-119 0 -287 -68q-49 -21 -59 6q-8 25 32 47q56 29 150 54q92 24 172 24q334 0 352 -285q94 285 418 285q186 0 287 -108q100 -107 100 -254q0 -64 -12 -109q-7 -29 -27 -35 q-18 -6 -70 -6h-16h-668q0 -232 105 -350q105 -119 305 -119q160 0 287 82q40 26 55 2q18 -29 -16 -53q-130 -94 -326 -94q-186 0 -307 94q-120 93 -135 256q-47 -164 -170 -257t-297 -93q-147 0 -234 71q-88 72 -88 203zM117 256q0 -100 68 -156q69 -57 188 -57 q195 0 313 127q119 128 119 287v55h-309q-185 0 -282 -58t-97 -198zM872 571h717q6 37 6 88q0 134 -86 218q-85 84 -239 84q-162 0 -272 -104t-126 -286z" />
<glyph unicode="&#xe7;" horiz-adv-x="972" d="M94 492q0 242 136 387t354 145q155 0 266 -59q37 -22 37 -52v-176q0 -39 -35 -39q-33 0 -33 39v170q-122 54 -235 54q-182 0 -301 -130t-119 -339q0 -216 106 -332q106 -117 291 -117q150 0 291 90q43 27 61 6q18 -28 -24 -57q-139 -102 -330 -102h-12l-29 -115 q221 -8 221 -178q0 -87 -54 -136q-53 -49 -155 -49q-90 0 -151 33q-42 19 -27 49q1 3 5 7q3 3 8 5q3 1 7 1q5 0 9 -1l9 -3l10 -4q8 -3 10 -3q57 -24 122 -24q144 0 144 123q0 127 -191 127q-34 0 -28 34l35 138q-194 18 -296 148t-102 360z" />
<glyph unicode="&#xe8;" horiz-adv-x="1046" d="M94 498q0 232 125 380q124 146 340 146q192 0 293 -112q100 -110 100 -269q0 -78 -10 -117q-12 -59 -63 -59h-715q0 -198 108 -311t295 -113q154 0 291 86q38 22 53 0q19 -25 -20 -53q-130 -96 -324 -96q-235 0 -354 135q-119 136 -119 383zM164 528h717q8 42 8 111 q-1 149 -90 235q-90 87 -246 87q-170 0 -280 -119q-109 -118 -109 -314zM311 1464q17 24 60 -4l317 -211q43 -28 25 -55q-17 -24 -60 6l-315 209q-43 27 -27 55z" />
<glyph unicode="&#xe9;" horiz-adv-x="1046" d="M94 498q0 232 125 380q124 146 340 146q192 0 293 -112q100 -110 100 -269q0 -78 -10 -117q-12 -59 -63 -59h-715q0 -198 108 -311t295 -113q154 0 291 86q38 22 53 0q19 -25 -20 -53q-130 -96 -324 -96q-235 0 -354 135q-119 136 -119 383zM164 528h717q8 42 8 111 q-1 149 -90 235q-90 87 -246 87q-170 0 -280 -119q-109 -118 -109 -314zM444 1194q-16 26 25 53l317 213q45 30 62 6q16 -24 -25 -53l-317 -213q-44 -33 -62 -6z" />
<glyph unicode="&#xea;" horiz-adv-x="1046" d="M94 498q0 232 125 380q124 146 340 146q192 0 293 -112q100 -110 100 -269q0 -78 -10 -117q-12 -59 -63 -59h-715q0 -198 108 -311t295 -113q154 0 291 86q38 22 53 0q19 -25 -20 -53q-130 -96 -324 -96q-235 0 -354 135q-119 136 -119 383zM164 528h717q8 42 8 111 q-1 149 -90 235q-90 87 -246 87q-170 0 -280 -119q-109 -118 -109 -314zM274 1190q-18 24 23 57l221 185q26 20 45 20q20 0 47 -20l221 -183q45 -35 23 -61q-21 -24 -63 10l-230 195l-225 -193q-44 -35 -62 -10z" />
<glyph unicode="&#xeb;" horiz-adv-x="1046" d="M94 498q0 232 125 380q124 146 340 146q192 0 293 -112q100 -110 100 -269q0 -78 -10 -117q-12 -59 -63 -59h-715q0 -198 108 -311t295 -113q154 0 291 86q38 22 53 0q19 -25 -20 -53q-130 -96 -324 -96q-235 0 -354 135q-119 136 -119 383zM164 528h717q8 42 8 111 q-1 149 -90 235q-90 87 -246 87q-170 0 -280 -119q-109 -118 -109 -314zM356 1300q0 23 16 41q15 17 42 17q24 0 41 -17q16 -16 16 -41q0 -22 -16 -38q-17 -17 -41 -17q-26 0 -42 16t-16 39zM649 1300q0 23 16 41q15 17 40 17q26 0 41 -17q16 -18 16 -41t-16 -39t-41 -16 q-24 0 -40 16t-16 39z" />
<glyph unicode="&#xec;" horiz-adv-x="481" d="M-88 1464q16 24 59 -4l318 -211q42 -28 24 -55q-16 -24 -59 6l-315 209q-43 27 -27 55zM59 31q0 32 33 32h131v877h-131q-33 0 -33 31q0 33 33 33h164q35 0 35 -39v-902h131q33 0 33 -32q0 -31 -33 -31h-330q-33 0 -33 31z" />
<glyph unicode="&#xed;" horiz-adv-x="481" d="M43 31q0 32 33 32h131v877h-131q-33 0 -33 31q0 33 33 33h164q34 0 34 -39v-902h132q32 0 32 -32q0 -31 -32 -31h-330q-33 0 -33 31zM199 1194q-16 26 24 53l318 213q45 30 61 6q17 -24 -24 -53l-318 -213q-43 -33 -61 -6z" />
<glyph unicode="&#xee;" horiz-adv-x="481" d="M-33 1190q-18 24 23 57l221 185q26 20 45 20q20 0 47 -20l221 -183q45 -35 23 -61q-21 -24 -64 10l-229 195l-225 -193q-44 -35 -62 -10zM61 31q0 32 33 32h131v877h-131q-33 0 -33 31q0 33 33 33h164q35 0 35 -39v-902h131q33 0 33 -32q0 -31 -33 -31h-330q-33 0 -33 31 z" />
<glyph unicode="&#xef;" horiz-adv-x="481" d="M2 1303q0 23 15 40t42 17q24 0 41 -17t17 -40q0 -24 -17 -41t-41 -17q-27 0 -42 17q-15 16 -15 41zM43 31q0 32 33 32h131v877h-131q-33 0 -33 31q0 33 33 33h164q34 0 34 -39v-902h132q32 0 32 -32q0 -31 -32 -31h-330q-33 0 -33 31zM244 1303q0 23 15 40t40 17 q27 0 42 -17t15 -40q0 -25 -15 -41q-15 -17 -42 -17q-25 0 -40 17q-15 16 -15 41z" />
<glyph unicode="&#xf0;" d="M94 502q0 236 123 378t344 142q287 0 410 -250q-18 170 -90 296q-72 127 -183 194l-188 -136q-38 -28 -55 -4q-17 25 22 52l166 118q-134 65 -330 80q-43 4 -43 33t37 29q219 -4 395 -101l113 82q41 29 57 6q17 -23 -22 -51l-94 -67q280 -190 280 -652q0 -303 -115 -487 t-354 -184q-223 0 -348 144q-125 145 -125 378zM164 502q0 -207 108 -333t295 -126q404 0 404 623q-51 134 -156 213q-104 79 -248 79q-198 0 -300 -120q-103 -121 -103 -336z" />
<glyph unicode="&#xf1;" horiz-adv-x="1236" d="M43 31q0 32 33 32h131v877h-131q-33 0 -33 31q0 33 33 33h164q34 0 34 -39v-283q34 167 144 255q108 87 258 87q186 0 270 -108t84 -316v-537h131q33 0 33 -32q0 -31 -33 -31h-164q-34 0 -34 39v559q0 172 -66 267q-67 96 -225 96q-203 0 -300 -166q-98 -167 -98 -455 v-277h132q32 0 32 -32q0 -31 -32 -31h-330q-33 0 -33 31zM336 1233q-24 21 6 55q78 90 164 90q60 0 140 -55t120 -55q53 0 113 63q31 35 53 19q21 -17 -6 -56q-69 -88 -166 -88q-60 0 -140 56q-79 55 -118 55q-49 0 -113 -64q-32 -32 -53 -20z" />
<glyph unicode="&#xf2;" horiz-adv-x="1155" d="M94 502q0 231 128 377q127 145 356 145q228 0 355 -145q128 -146 128 -377t-128 -377q-127 -145 -355 -145q-229 0 -356 145q-128 146 -128 377zM164 502q0 -214 110 -336q111 -123 304 -123q192 0 303 123q110 122 110 336q0 212 -110 335q-111 124 -303 124 q-193 0 -304 -124q-110 -123 -110 -335zM260 1464q16 24 59 -4l318 -211q43 -28 25 -55q-16 -24 -60 6l-315 209q-43 27 -27 55z" />
<glyph unicode="&#xf3;" horiz-adv-x="1155" d="M94 502q0 231 128 377q127 145 356 145q228 0 355 -145q128 -146 128 -377t-128 -377q-127 -145 -355 -145q-229 0 -356 145q-128 146 -128 377zM164 502q0 -214 110 -336q111 -123 304 -123q192 0 303 123q110 122 110 336q0 212 -110 335q-111 124 -303 124 q-193 0 -304 -124q-110 -123 -110 -335zM465 1194q-16 26 24 53l318 213q45 30 61 6q17 -24 -24 -53l-318 -213q-43 -33 -61 -6z" />
<glyph unicode="&#xf4;" horiz-adv-x="1155" d="M94 502q0 231 128 377q127 145 356 145q228 0 355 -145q128 -146 128 -377t-128 -377q-127 -145 -355 -145q-229 0 -356 145q-128 146 -128 377zM164 502q0 -214 110 -336q111 -123 304 -123q192 0 303 123q110 122 110 336q0 212 -110 335q-111 124 -303 124 q-193 0 -304 -124q-110 -123 -110 -335zM285 1190q-18 24 22 57l221 185q26 20 45 20q21 0 48 -20l221 -183q44 -34 22 -61q-21 -24 -63 10l-230 195l-225 -193q-43 -34 -61 -10z" />
<glyph unicode="&#xf5;" horiz-adv-x="1155" d="M94 502q0 231 128 377q127 145 356 145q228 0 355 -145q128 -146 128 -377t-128 -377q-127 -145 -355 -145q-229 0 -356 145q-128 146 -128 377zM164 502q0 -214 110 -336q111 -123 304 -123q192 0 303 123q110 122 110 336q0 212 -110 335q-111 124 -303 124 q-193 0 -304 -124q-110 -123 -110 -335zM279 1233q-24 21 6 55q78 90 164 90q60 0 140 -55t120 -55q52 0 112 63q31 35 53 19q21 -17 -6 -56q-69 -88 -166 -88q-60 0 -140 56q-79 55 -118 55q-48 0 -112 -64q-32 -32 -53 -20z" />
<glyph unicode="&#xf6;" horiz-adv-x="1155" d="M94 502q0 231 128 377q127 145 356 145q228 0 355 -145q128 -146 128 -377t-128 -377q-127 -145 -355 -145q-229 0 -356 145q-128 146 -128 377zM164 502q0 -214 110 -336q111 -123 304 -123q192 0 303 123q110 122 110 336q0 212 -110 335q-111 124 -303 124 q-193 0 -304 -124q-110 -123 -110 -335zM373 1300q0 24 15 41t42 17q24 0 41 -17q16 -16 16 -41q0 -22 -16 -38q-17 -17 -41 -17q-26 0 -42 16q-15 15 -15 39zM666 1300q0 24 15 41t40 17q27 0 42 -17t15 -41t-15 -39q-16 -16 -42 -16q-24 0 -40 16q-15 15 -15 39z" />
<glyph unicode="&#xf7;" horiz-adv-x="1007" d="M94 674q0 33 33 33h754q32 0 32 -33q0 -31 -32 -31h-754q-33 0 -33 31zM440 383q0 25 16 43q15 16 44 16t44 -16q15 -17 15 -43q0 -27 -15 -43t-44 -16t-44 16q-16 18 -16 43zM440 965q0 25 16 44q14 17 44 17t44 -17q15 -18 15 -44q0 -27 -15 -43q-15 -17 -44 -17 t-44 17q-16 18 -16 43z" />
<glyph unicode="&#xf8;" horiz-adv-x="1155" d="M94 502q0 231 128 377q127 145 356 145q75 0 149 -20l45 122q10 32 23 45t28 7q29 -10 6 -72l-45 -123q133 -55 205 -183q72 -127 72 -298q0 -231 -128 -377q-127 -145 -355 -145q-77 0 -150 20l-41 -123q-23 -62 -53 -51q-27 8 -6 74l43 118q-132 55 -205 184 q-72 128 -72 300zM164 502q0 -155 59 -263q60 -110 170 -159l312 862q-60 19 -127 19q-193 0 -304 -124q-110 -123 -110 -335zM451 59q60 -16 127 -16q192 0 303 123q110 122 110 336q0 152 -60 261t-169 159z" />
<glyph unicode="&#xf9;" horiz-adv-x="1236" d="M43 971q0 33 33 33h164q34 0 34 -39v-559q0 -174 66 -268q66 -95 225 -95q203 0 300 166q98 167 98 455v276h-129q-33 0 -33 31q0 33 33 33h163q33 0 33 -39v-902h131q33 0 33 -32q0 -31 -33 -31h-164q-34 0 -34 39v283q-34 -167 -144 -255q-108 -87 -258 -87 q-187 0 -270 107q-84 108 -84 316v537h-131q-33 0 -33 31zM332 1464q16 24 59 -4l318 -211q42 -28 24 -55q-16 -24 -59 6l-316 209q-43 26 -26 55z" />
<glyph unicode="&#xfa;" horiz-adv-x="1236" d="M43 971q0 33 33 33h164q34 0 34 -39v-559q0 -174 66 -268q66 -95 225 -95q203 0 300 166q98 167 98 455v276h-129q-33 0 -33 31q0 33 33 33h163q33 0 33 -39v-902h131q33 0 33 -32q0 -31 -33 -31h-164q-34 0 -34 39v283q-34 -167 -144 -255q-108 -87 -258 -87 q-187 0 -270 107q-84 108 -84 316v537h-131q-33 0 -33 31zM545 1194q-16 26 24 53l318 213q45 30 61 6q17 -24 -24 -53l-318 -213q-43 -33 -61 -6z" />
<glyph unicode="&#xfb;" horiz-adv-x="1236" d="M43 971q0 33 33 33h164q34 0 34 -39v-559q0 -174 66 -268q66 -95 225 -95q203 0 300 166q98 167 98 455v276h-129q-33 0 -33 31q0 33 33 33h163q33 0 33 -39v-902h131q33 0 33 -32q0 -31 -33 -31h-164q-34 0 -34 39v283q-34 -167 -144 -255q-108 -87 -258 -87 q-187 0 -270 107q-84 108 -84 316v537h-131q-33 0 -33 31zM326 1190q-18 24 22 57l221 185q26 20 45 20q21 0 48 -20l221 -183q44 -34 22 -61q-21 -24 -63 10l-230 195l-225 -193q-43 -34 -61 -10z" />
<glyph unicode="&#xfc;" horiz-adv-x="1236" d="M43 971q0 33 33 33h164q34 0 34 -39v-559q0 -174 66 -268q66 -95 225 -95q203 0 300 166q98 167 98 455v276h-129q-33 0 -33 31q0 33 33 33h163q33 0 33 -39v-902h131q33 0 33 -32q0 -31 -33 -31h-164q-34 0 -34 39v283q-34 -167 -144 -255q-108 -87 -258 -87 q-187 0 -270 107q-84 108 -84 316v537h-131q-33 0 -33 31zM412 1300q0 24 15 41t42 17q24 0 41 -17q16 -16 16 -41q0 -22 -15 -38q-15 -17 -42 -17q-26 0 -42 16q-15 15 -15 39zM705 1300q0 24 15 41t40 17q27 0 42 -17t15 -41t-15 -39q-16 -16 -42 -16q-24 0 -40 16 q-15 15 -15 39z" />
<glyph unicode="&#xfd;" horiz-adv-x="1114" d="M8 971q0 33 33 33h291q33 0 33 -33q0 -31 -33 -31h-123l356 -862l344 862h-127q-32 0 -32 31q0 33 32 33h291q33 0 33 -33q0 -31 -33 -31h-88l-414 -1006q-83 -204 -153 -284q-69 -80 -178 -80q-89 0 -156 37q-41 23 -29 53q12 26 62 2q64 -29 127 -29q50 0 96 31 q44 30 77 84q27 46 55 106q24 53 46 111q8 26 10 29l-397 946h-90q-33 0 -33 31zM467 1194q-16 26 25 53l317 213q45 30 61 6q17 -24 -24 -53l-318 -213q-43 -33 -61 -6z" />
<glyph unicode="&#xfe;" horiz-adv-x="1169" d="M43 -379q0 33 33 33h131v1696h-131q-33 0 -33 30q0 33 33 33h164q34 0 34 -39v-692q33 155 139 249q105 93 271 93q193 0 292 -134t99 -358q0 -245 -119 -399q-118 -153 -358 -153q-191 0 -324 77v-403h132q32 0 32 -33q0 -31 -32 -31h-330q-33 0 -33 31zM274 127 q151 -84 326 -84q143 0 237 70q93 69 131 175t38 244q0 197 -83 313t-251 116q-93 0 -162 -36q-71 -37 -113 -92t-71 -138q-29 -82 -39 -161q-12 -90 -13 -174v-233z" />
<glyph unicode="&#xff;" horiz-adv-x="1114" d="M8 971q0 33 33 33h291q33 0 33 -33q0 -31 -33 -31h-123l356 -862l344 862h-127q-32 0 -32 31q0 33 32 33h291q33 0 33 -33q0 -31 -33 -31h-88l-414 -1006q-83 -204 -153 -284q-69 -80 -178 -80q-89 0 -156 37q-41 23 -29 53q12 26 62 2q64 -29 127 -29q50 0 96 31 q44 30 77 84q27 46 55 106q24 53 46 111q8 26 10 29l-397 946h-90q-33 0 -33 31zM354 1300q0 23 16 41q15 17 42 17q24 0 41 -17q16 -16 16 -41q0 -22 -15 -38q-15 -17 -42 -17q-26 0 -42 16t-16 39zM647 1300q0 23 16 41q15 17 39 17q27 0 42 -17q16 -18 16 -41t-16 -39 t-42 -16q-23 0 -39 16t-16 39z" />
<glyph unicode="&#x152;" horiz-adv-x="2004" d="M104 707q0 316 176 522q175 205 488 205q164 0 305 -66v4q0 41 39 41h778q35 0 35 -39v-258q0 -39 -35 -39t-35 39v232h-710v-578h627q32 0 32 -33q0 -32 -32 -32h-627v-639h727v251q0 39 35 39t35 -39v-278q0 -39 -35 -39h-793q-18 0 -30 12q-11 11 -11 29v6 q-138 -67 -305 -67q-313 0 -488 203q-176 205 -176 524zM178 707q0 -293 158 -478q157 -184 432 -184q175 0 305 74v1173q-133 76 -305 76q-275 0 -432 -184q-158 -185 -158 -477z" />
<glyph unicode="&#x153;" horiz-adv-x="1712" d="M94 502q0 232 129 377t357 145q200 0 331 -119q124 119 314 119q192 0 293 -112q100 -110 100 -269q0 -78 -10 -117q-12 -59 -64 -59h-715q0 -197 109 -311q108 -113 295 -113q154 0 291 86q38 22 53 0q18 -24 -21 -53q-129 -96 -323 -96q-212 0 -332 110 q-126 -110 -321 -110q-228 0 -357 145t-129 377zM164 502q0 -210 111 -335q111 -124 305 -124q178 0 278 94q-98 129 -98 361q0 218 106 358q-114 105 -286 105q-194 0 -305 -124q-111 -125 -111 -335zM829 528h717q8 42 8 111q-1 149 -90 235q-90 87 -245 87 q-170 0 -280 -119t-110 -314z" />
<glyph unicode="&#x178;" horiz-adv-x="1284" d="M-2 1380q0 33 33 33h313q33 0 33 -33q0 -32 -33 -32h-133l440 -650l424 650h-133q-33 0 -33 32q0 33 33 33h311q33 0 33 -33q0 -32 -33 -32h-100l-469 -717v-565h154q32 0 32 -33t-32 -33h-375q-33 0 -33 33t33 33h149v559l-487 723h-94q-33 0 -33 32zM418 1671 q0 62 61 62q27 0 46 -17q18 -16 18 -45q0 -59 -64 -59q-61 0 -61 59zM741 1671q0 62 62 62q27 0 46 -17q17 -16 17 -45q0 -59 -63 -59q-62 0 -62 59z" />
<glyph unicode="&#x2c6;" horiz-adv-x="1087" d="M270 1190q-18 24 23 57l221 185q26 20 45 20q20 0 47 -20l221 -183q45 -35 23 -61q-21 -24 -64 10l-229 195l-225 -193q-44 -35 -62 -10z" />
<glyph unicode="&#x2dc;" horiz-adv-x="1087" d="M270 1233q-24 21 6 55q78 90 164 90q61 0 141 -55t119 -55q53 0 113 63q31 35 53 19q21 -17 -6 -56q-69 -88 -166 -88q-60 0 -140 56q-79 55 -118 55q-48 0 -112 -64q-32 -32 -54 -20z" />
<glyph unicode="&#x2000;" horiz-adv-x="929" />
<glyph unicode="&#x2001;" horiz-adv-x="1859" />
<glyph unicode="&#x2002;" horiz-adv-x="929" />
<glyph unicode="&#x2003;" horiz-adv-x="1859" />
<glyph unicode="&#x2004;" horiz-adv-x="619" />
<glyph unicode="&#x2005;" horiz-adv-x="464" />
<glyph unicode="&#x2006;" horiz-adv-x="309" />
<glyph unicode="&#x2007;" horiz-adv-x="309" />
<glyph unicode="&#x2008;" horiz-adv-x="232" />
<glyph unicode="&#x2009;" horiz-adv-x="371" />
<glyph unicode="&#x200a;" horiz-adv-x="103" />
<glyph unicode="&#x2010;" horiz-adv-x="692" d="M33 555q0 31 33 31h561q32 0 32 -31q0 -33 -32 -33h-561q-33 0 -33 33z" />
<glyph unicode="&#x2011;" horiz-adv-x="692" d="M33 555q0 31 33 31h561q32 0 32 -31q0 -33 -32 -33h-561q-33 0 -33 33z" />
<glyph unicode="&#x2012;" horiz-adv-x="692" d="M33 555q0 31 33 31h561q32 0 32 -31q0 -33 -32 -33h-561q-33 0 -33 33z" />
<glyph unicode="&#x2013;" horiz-adv-x="692" d="M33 555q0 31 33 31h561q32 0 32 -31q0 -33 -32 -33h-561q-33 0 -33 33z" />
<glyph unicode="&#x2014;" horiz-adv-x="1216" d="M33 555q0 31 33 31h1085q33 0 33 -31q0 -33 -33 -33h-1085q-33 0 -33 33z" />
<glyph unicode="&#x2018;" horiz-adv-x="413" d="M141 1368q-22 43 6 59q36 19 60 -30l192 -357q24 -45 -4 -61q-34 -16 -59 31z" />
<glyph unicode="&#x2019;" horiz-adv-x="413" d="M45 1040l193 357q24 49 59 30q28 -16 6 -59l-194 -358q-25 -48 -60 -31q-28 16 -4 61z" />
<glyph unicode="&#x201a;" horiz-adv-x="413" d="M45 -252l193 356q24 49 59 31q28 -16 6 -59l-194 -359q-24 -47 -60 -30q-28 16 -4 61z" />
<glyph unicode="&#x201c;" horiz-adv-x="641" d="M25 1368q-22 43 6 59q35 19 59 -30l193 -357q24 -45 -4 -61q-35 -17 -60 31zM252 1368q-22 43 6 59q35 19 59 -30l193 -357q24 -45 -4 -61q-35 -17 -60 31z" />
<glyph unicode="&#x201d;" horiz-adv-x="641" d="M162 1040l192 357q24 49 60 30q28 -16 6 -59l-195 -358q-25 -47 -59 -31q-28 16 -4 61zM389 1040l193 357q24 49 59 30q28 -16 6 -59l-194 -358q-25 -48 -60 -31q-28 16 -4 61z" />
<glyph unicode="&#x201e;" horiz-adv-x="641" d="M45 -252l193 356q24 49 59 31q28 -16 6 -59l-194 -359q-24 -47 -60 -30q-28 16 -4 61zM272 -252l193 356q24 49 59 31q28 -16 6 -59l-194 -359q-24 -47 -60 -30q-28 16 -4 61z" />
<glyph unicode="&#x2022;" horiz-adv-x="628" d="M156 625q0 69 42 115t115 46q74 0 117 -46t43 -115q0 -71 -42 -114q-42 -44 -118 -44q-73 0 -115 44q-42 43 -42 114z" />
<glyph unicode="&#x2026;" horiz-adv-x="1167" d="M131 57q0 60 57 60q29 0 44 -17q16 -18 16 -43q0 -57 -60 -57q-57 0 -57 57zM524 57q0 60 58 60q29 0 44 -17q15 -16 15 -43q0 -57 -59 -57q-58 0 -58 57zM918 57q0 27 15 43q15 17 44 17t44 -17t15 -43q0 -57 -59 -57t-59 57z" />
<glyph unicode="&#x202f;" horiz-adv-x="371" />
<glyph unicode="&#x2039;" horiz-adv-x="649" d="M164 463q-45 45 2 92l350 342q34 35 55 14q18 -18 -16 -55l-352 -344l352 -356q37 -37 18 -60q-20 -22 -59 17z" />
<glyph unicode="&#x203a;" horiz-adv-x="649" d="M123 913q22 21 59 -16l350 -350q45 -45 -2 -92l-350 -342q-35 -35 -55 -15q-21 22 16 56l353 344l-353 356q-36 36 -18 59z" />
<glyph unicode="&#x205f;" horiz-adv-x="464" />
<glyph unicode="&#x20ac;" d="M-53 573q0 33 33 33h143q-2 40 -2 96q0 68 6 134h-147q-33 0 -33 32q0 31 33 31h157q45 246 200 391q154 144 406 144q172 0 287 -56q43 -22 43 -53v-219q0 -39 -35 -39q-32 0 -32 39v211q-124 51 -271 51q-218 0 -348 -127q-131 -127 -174 -342h582q32 0 32 -31 q0 -32 -32 -32h-592q-8 -61 -8 -134q0 -56 2 -96h598q32 0 32 -33q0 -30 -32 -30h-590q30 -247 168 -373q137 -125 360 -125q163 0 287 57v236q0 39 33 39q34 0 34 -39v-240q0 -34 -45 -57q-121 -61 -311 -61q-540 0 -602 563h-149q-33 0 -33 30z" />
<glyph unicode="&#x2122;" horiz-adv-x="1912" d="M59 1204v180q0 29 31 29h631q31 0 31 -29v-180q0 -35 -31 -35q-33 0 -33 35v152h-252v-658h101q30 0 30 -28q0 -29 -30 -29h-263q-30 0 -30 29q0 28 30 28h99v658h-250v-152q0 -35 -31 -35q-33 0 -33 35zM809 670q0 28 31 28h102v658h-102q-31 0 -31 28q0 29 31 29h133 q19 0 41 -31l315 -479l320 477q23 33 45 33h129q30 0 30 -29q0 -28 -30 -28h-99v-658h99q30 0 30 -28q0 -29 -30 -29h-262q-31 0 -31 29q0 28 31 28h100v602l-301 -444q-15 -22 -35 -22q-19 0 -35 22l-291 436v-594h103q31 0 31 -28q0 -29 -31 -29h-262q-31 0 -31 29z" />
<glyph unicode="&#x25fc;" horiz-adv-x="1003" d="M0 0v1004h1004v-1004h-1004z" />
</font>
</defs>
</svg>
