<?xml version="1.0" standalone="no"?>
<!DOCTYPE svg PUBLIC "-//W3C//DTD SVG 1.1//EN" "http://www.w3.org/Graphics/SVG/1.1/DTD/svg11.dtd" >
<svg xmlns="http://www.w3.org/2000/svg">
<metadata></metadata>
<defs>
<font id="alsschlangeslab-tuploadedfile" horiz-adv-x="1114" >
<font-face units-per-em="2048" ascent="1575" descent="-473" />
<missing-glyph horiz-adv-x="552" />
<glyph unicode="&#xfb01;" horiz-adv-x="858" d="M47 -399q0 10 10 10h154v1446q0 190 63 280q70 97 226 97q120 0 196 -43q19 -11 13 -19q-5 -8 -21 0q-90 41 -190 41q-142 0 -205 -86q-62 -83 -62 -262v-61h451q10 0 10 -13v-971h154q10 0 10 -10t-10 -10h-328q-10 0 -10 10t10 10h154v963h-441v-1372h154q10 0 10 -10 q0 -11 -10 -11h-328q-10 0 -10 11z" />
<glyph unicode="&#xfb02;" horiz-adv-x="903" d="M47 -399q0 10 10 10h154v1446q0 190 63 280q70 97 226 97q92 0 182 -37q10 -4 10 -17v-1360h154q10 0 10 -10t-10 -10h-328q-10 0 -10 10t10 10h154v1358q-87 35 -174 35q-142 0 -205 -86q-62 -83 -62 -262v-61h275q10 0 10 -11q0 -10 -10 -10h-275v-1372h154 q10 0 10 -10q0 -11 -10 -11h-328q-10 0 -10 11z" />
<glyph horiz-adv-x="0" />
<glyph unicode="&#xd;" horiz-adv-x="681" />
<glyph unicode=" "  horiz-adv-x="552" />
<glyph unicode="&#x09;" horiz-adv-x="552" />
<glyph unicode="&#xa0;" horiz-adv-x="552" />
<glyph unicode="!" horiz-adv-x="331" d="M137 29q0 28 29 28t29 -28q0 -29 -29 -29t-29 29zM158 352v1069q0 13 10 13t10 -13v-1069q0 -12 -10 -12t-10 12z" />
<glyph unicode="&#x22;" horiz-adv-x="516" d="M137 1047v374q0 13 10 13q11 0 11 -13v-374q0 -13 -11 -13q-10 0 -10 13zM358 1047v374q0 13 11 13q10 0 10 -13v-374q0 -13 -10 -13q-11 0 -11 13z" />
<glyph unicode="#" horiz-adv-x="1290" d="M96 489q0 11 10 11h207l152 430h-256q-10 0 -10 10t10 10h264l156 443q7 25 14 34q7 8 12 7q11 -2 -4 -45l-155 -439h428l155 443q6 23 15 34q7 8 12 7q11 -2 -4 -45l-156 -439h238q10 0 10 -10t-10 -10h-244l-152 -430h293q11 0 11 -11q0 -10 -11 -10h-301l-162 -461 q-11 -27 -14 -33q-4 -7 -12 -5q-9 5 6 45l160 454h-428l-162 -461q-11 -27 -14 -33q-4 -7 -13 -5q-9 5 6 45l160 454h-201q-10 0 -10 10zM338 500h426l151 430h-426z" />
<glyph unicode="$" d="M123 133v232q0 12 10 12t10 -12v-234q176 -131 432 -131q199 0 296 94q98 95 98 252q0 131 -80 214t-193 124l-226 83q-115 42 -194 126q-79 83 -79 217q0 146 90 235q91 89 276 89h10v235q0 12 11 12q10 0 10 -12v-235q187 -6 315 -88q37 -22 37 -37v-240q0 -12 -10 -12 t-10 12v240q-156 104 -363 104q-176 0 -261 -85t-85 -214q0 -97 43 -165q43 -67 111 -107q74 -43 149 -70l165 -62q81 -31 151 -73q65 -39 110 -114q43 -71 43 -175q0 -164 -97 -265t-306 -103v-236q0 -12 -11 -12q-10 0 -10 12v236q-250 5 -420 120q-22 16 -22 33z" />
<glyph unicode="%" horiz-adv-x="1529" d="M57 1081q0 163 72 257q73 96 203 96t203 -97q71 -95 71 -256q0 -164 -71 -257q-72 -95 -203 -95t-203 96t-72 256zM78 1081q0 -143 63 -237t191 -94q127 0 190 94q64 96 64 237q0 142 -64 238q-63 94 -190 94q-128 0 -191 -94q-63 -95 -63 -238zM483 -84q-10 4 11 59 l530 1489q11 33 17 46q5 10 14 8q7 -4 -11 -60l-530 -1491q-12 -34 -17 -42q-7 -11 -14 -9zM924 332q0 164 71 257q72 95 203 95t203 -96t72 -256q0 -162 -72 -257t-203 -95t-203 96q-71 95 -71 256zM944 332q0 -142 64 -238q63 -94 190 -94q128 0 191 94q63 95 63 238 q0 142 -63 237t-191 95q-127 0 -190 -95q-64 -96 -64 -237z" />
<glyph unicode="&#x26;" horiz-adv-x="1552" d="M117 322q0 154 93 257q92 102 288 232q-179 215 -179 381q0 128 80 205q79 76 219 76q138 0 207 -63q70 -64 70 -157q0 -103 -76 -204q-78 -104 -293 -242q65 -76 226 -236l299 -288q169 215 209 491h-173q-10 0 -10 10q0 11 10 11h369q10 0 10 -11q0 -10 -10 -10h-178 q-38 -286 -211 -506q194 -189 264 -248h205q10 0 10 -10t-10 -10h-195q-19 0 -34 14q-1 0 -35 32l-97 92l-122 114q-227 -272 -545 -272q-166 0 -279 87q-112 87 -112 255zM137 315q0 -125 96 -220q97 -95 275 -95q309 0 530 266q-187 175 -301 291q-145 139 -227 238 q-216 -143 -295 -246q-78 -102 -78 -234zM340 1194q0 -162 174 -373q191 123 274 219q86 100 86 209q0 91 -65 147t-191 56q-124 0 -201 -68t-77 -190z" />
<glyph unicode="'" horiz-adv-x="294" d="M137 1047v374q0 13 10 13q11 0 11 -13v-374q0 -13 -11 -13q-10 0 -10 13z" />
<glyph unicode="(" horiz-adv-x="499" d="M117 707q0 263 76 476q77 215 200 359q13 15 23.5 23.5t16.5 11t9 -1.5q2 -5 -2 -11q-6 -10 -16 -20t-16 -18q-132 -157 -202 -375q-69 -215 -69 -444q0 -231 69 -445q70 -218 202 -375q6 -8 16 -18t16 -20q4 -6 2 -11q-3 -4 -9 -1.5t-16.5 11t-23.5 23.5 q-123 144 -200 359q-76 213 -76 477z" />
<glyph unicode=")" horiz-adv-x="499" d="M47 -162q-2 5 2 11q5 7 17 20q10 10 16 18q132 157 202 375q68 211 68 445q0 233 -68 444q-70 218 -202 375q-6 8 -16 18q-12 12 -17 20q-4 6 -2 11q3 4 9 1.5t16.5 -11t23.5 -23.5q125 -146 201 -359t76 -476q0 -264 -76 -477t-201 -359q-13 -15 -23.5 -23.5t-16.5 -11 t-9 1.5z" />
<glyph unicode="*" horiz-adv-x="681" d="M125 1038q-7 9 22 27l183 109l-187 112q-24 15 -18 25q6 11 33 -6l178 -115v231q0 13 10 13t10 -13v-231l183 115q26 16 30 6q6 -11 -20 -25l-187 -112l185 -109q29 -18 22 -27q-6 -7 -34 11l-179 108v-233q0 -13 -10 -13t-10 13v233l-174 -108q-31 -22 -37 -11z" />
<glyph unicode="+" horiz-adv-x="983" d="M96 672q0 10 10 10h375v362q0 13 11 13q10 0 10 -13v-362h375q10 0 10 -10t-10 -10h-375v-363q0 -12 -10 -12q-11 0 -11 12v363h-375q-10 0 -10 10z" />
<glyph unicode="," horiz-adv-x="385" d="M25 -332q-7 5 14 43l190 357q23 30 29 30q11 -5 -10 -43l-191 -354q-4 -6 -8.5 -13.5t-7 -11.5t-3.5 -6q-5 -7 -13 -2z" />
<glyph unicode="-" horiz-adv-x="675" d="M35 557q0 10 10 10h586q10 0 10 -10t-10 -10h-586q-10 0 -10 10z" />
<glyph unicode="." horiz-adv-x="331" d="M137 29q0 28 29 28t29 -28q0 -29 -29 -29t-29 29z" />
<glyph unicode="/" horiz-adv-x="622" d="M-6 -225q-12 5 4 47l633 1775q12 33 14 36q4 7 12 5q7 -5 -8 -49l-631 -1775q-15 -39 -18 -39h-6z" />
<glyph unicode="0" d="M61 707q0 336 125 532q124 195 369 195q244 0 370 -195t126 -532q0 -338 -126 -533q-125 -194 -370 -194t-369 194q-125 196 -125 533zM82 707q0 -341 123 -524t350 -183t351 183q124 182 124 524q0 341 -124 523q-125 183 -351 183q-227 0 -350 -183t-123 -523z" />
<glyph unicode="1" d="M205 1010q-7 6 28 41l392 368q15 15 22 15q8 0 8 -17v-1397h195q10 0 10 -10t-10 -10h-430q-10 0 -10 10t10 10h215v1381l-387 -367q-35 -35 -43 -24z" />
<glyph unicode="2" d="M152 23q0 121 42 224q42 104 108 176q65 71 148 137l162 124q89 65 149 122q67 64 108 144q42 82 42 176q0 122 -84 204q-85 83 -272 83q-171 0 -346 -106l-24 -16q-17 -11 -18 -10t-11 1q-6 12 39 41q175 111 360 111q191 0 284 -84t93 -222q0 -100 -42 -185 q-41 -83 -109 -148q-66 -63 -147 -123l-163 -123q-81 -62 -148 -135q-68 -74 -109 -172q-42 -100 -42 -222h811q10 0 10 -10t-10 -10h-811q-20 0 -20 23z" />
<glyph unicode="3" d="M121 115q2 2 4 2q3 0 5 -1q4 -2 7 -4q2 -1 4 -3.5t3 -2.5q6 -3 9 -6q5 -4 9 -6q155 -94 342 -94q217 0 322 117q106 118 106 293q0 184 -136 289q-138 106 -401 106q-24 0 -24 12t20 33l488 543h-664q-10 0 -10 10t10 10h668q20 0 20 -12t-18 -33l-490 -543 q253 0 405 -103t152 -312q0 -195 -115 -313q-114 -117 -333 -117q-216 0 -359 100q-35 24 -24 35z" />
<glyph unicode="4" d="M67 542q3 8 5 11l708 864q12 17 21 17q8 0 8 -17v-868h168q10 0 10 -10q0 -11 -10 -11h-168v-516q0 -12 -10 -12q-11 0 -11 12v516h-706q-8 0 -12 4q-5 5 -3 10zM94 549h694v848z" />
<glyph unicode="5" d="M133 115q3 3 43 -21q151 -94 340 -94q228 0 336 128q109 129 109 316q0 164 -102 281t-304 117q-79 0 -146 -14q-73 -15 -100 -27q-35 -15 -43 -15q-10 0 -10 17l49 592q1 18 21 18h608q10 0 10 -10t-10 -10h-608l-50 -584q136 53 279 53q217 0 322 -124 q104 -123 104 -294q0 -222 -125 -344q-123 -120 -340 -120q-213 0 -358 100q-35 25 -25 35z" />
<glyph unicode="6" d="M109 582q0 457 170 669q139 183 383 183q108 0 192 -27q8 -3 17 -6l13 -5q8 -3 9 -6q2 -4 2 -8q-2 -11 -47 4q-84 27 -186 27q-232 0 -365 -172q-176 -221 -170 -690q30 174 162 264q130 88 286 88q202 0 316 -121q115 -123 115 -313q0 -201 -114 -345t-329 -144 q-218 0 -336 148t-118 454zM139 492q0 -76 18 -152q19 -81 60 -157q43 -81 132 -132t214 -51q207 0 315 138q107 137 107 331q0 183 -109 298q-110 116 -305 116q-193 0 -312 -118q-120 -119 -120 -273z" />
<glyph unicode="7" d="M121 1403q0 10 10 10h821q33 0 15 -39l-621 -1339q-10 -23 -15 -30q-4 -7 -12 -5q-9 4 9 43l624 1350h-821q-10 0 -10 10z" />
<glyph unicode="8" d="M98 319q0 145 90 253q88 105 289 212q-176 89 -243 167q-68 78 -68 188q0 148 109 221q110 74 282 74q175 0 283 -72t108 -219q0 -243 -301 -412q205 -99 287 -191t82 -225q0 -159 -126 -247q-125 -88 -333 -88q-206 0 -331 81q-128 83 -128 258zM119 319 q0 -163 124 -241q125 -78 314 -78q198 0 319 83q119 82 119 232q0 154 -119 254t-376 205q-163 -80 -249 -166q-91 -92 -111 -150q-21 -63 -21 -139zM186 1139q0 -59 27 -112q26 -51 65 -90q40 -40 102 -76q69 -40 117 -62q88 -40 130 -58q303 168 303 402q0 133 -102 202 q-101 68 -271 68q-168 0 -270 -70q-101 -69 -101 -204z" />
<glyph unicode="9" d="M100 944q0 201 114 345q115 145 329 145q217 0 336 -149q118 -148 118 -454q0 -457 -170 -669q-139 -182 -383 -182q-111 0 -192 26l-18 6l-12 5q-7 3 -9 7t-2 7q2 11 47 -4q84 -27 186 -27q232 0 365 172q176 221 170 690q-30 -174 -162 -264q-130 -88 -287 -88 q-201 0 -315 121q-115 123 -115 313zM121 944q0 -183 109 -298q110 -116 305 -116q193 0 312 118q120 118 120 274q0 74 -18 151q-19 81 -60 157q-43 81 -132 132t-214 51q-207 0 -315 -138q-107 -137 -107 -331z" />
<glyph unicode=":" horiz-adv-x="331" d="M137 29q0 28 29 28t29 -28q0 -29 -29 -29t-29 29zM137 975q0 29 29 29t29 -29t-29 -29t-29 29z" />
<glyph unicode=";" horiz-adv-x="385" d="M25 -332q-7 5 14 43l190 357q23 30 29 30q11 -5 -10 -43l-191 -354q-4 -6 -8.5 -13.5t-7 -11.5t-3.5 -6q-5 -7 -13 -2zM174 975q0 29 29 29q28 0 28 -29t-28 -29q-29 0 -29 29z" />
<glyph unicode="&#x3c;" horiz-adv-x="983" d="M272 670l496 389q26 21 33 14q8 -8 -21 -31l-506 -399l502 -399q33 -27 27 -35t-39 16l-490 387q-40 29 -2 58z" />
<glyph unicode="=" horiz-adv-x="983" d="M96 459q0 10 10 10h771q10 0 10 -10t-10 -10h-771q-10 0 -10 10zM96 745q0 11 10 11h771q10 0 10 -11q0 -10 -10 -10h-771q-10 0 -10 10z" />
<glyph unicode="&#x3e;" horiz-adv-x="983" d="M211 1073q6 8 39 -16l489 -387q40 -29 2 -58l-495 -389q-26 -21 -33 -14q-9 9 20 31l506 399l-501 399q-33 27 -27 35z" />
<glyph unicode="?" horiz-adv-x="849" d="M104 1333q-6 10 25 27q148 74 293 74q172 0 255 -80t83 -211q0 -85 -35 -166q-34 -78 -73 -125q-40 -48 -103 -111q-98 -98 -145 -179q-48 -83 -48 -208q0 -14 -10 -14t-10 14q0 90 33 170q35 83 69 126q38 46 99 108q67 67 105 113q37 44 67 117q30 72 30 157 q0 118 -80 193t-239 75q-129 0 -277 -70q-34 -16 -39 -10zM319 29q0 28 29 28t29 -28q0 -29 -29 -29t-29 29z" />
<glyph unicode="@" horiz-adv-x="2045" d="M117 469q0 455 249 710t691 255q413 0 643 -236q229 -235 229 -637q0 -111 -23 -202q-25 -98 -73 -178q-49 -83 -138 -132q-88 -49 -208 -49h-74q-16 0 -16 16v412q-23 -199 -140 -324q-117 -124 -305 -124q-193 0 -292 133t-99 356q0 250 118 402q119 153 353 153 q207 0 365 -94v61q0 13 10 13t10 -13v-971h78q198 0 306 155q108 154 108 386q0 392 -223 622t-629 230q-431 0 -675 -249q-245 -250 -245 -695q0 -289 125 -491q124 -200 328 -294q205 -94 461 -94q121 0 223 29q49 15 51 8q6 -11 -33 -26q-2 0 -3 -1t-3 -1 q-96 -29 -235 -29q-425 0 -679 232q-255 233 -255 667zM582 469q0 -215 94 -342t280 -127q213 0 327 165t114 402v340q-180 97 -367 97q-230 0 -339 -150q-109 -149 -109 -385z" />
<glyph unicode="A" horiz-adv-x="1443" d="M6 10q0 10 10 10h136l540 1383q12 31 27 31q12 0 24 -31l543 -1383h141q11 0 11 -10t-11 -10h-348q-10 0 -10 10t10 10h185l-183 461h-727l-178 -461h189q10 0 10 -10t-10 -10h-349q-10 0 -10 10zM362 502h713l-358 907z" />
<glyph unicode="B" horiz-adv-x="1247" d="M88 10q0 10 10 10h174v1373h-174q-10 0 -10 10t10 10h195q133 10 282 10q238 0 367 -74q131 -75 131 -257q0 -138 -78 -238t-247 -121q220 -12 306 -108q85 -95 85 -250q0 -385 -539 -385q-118 0 -307 10h-195q-10 0 -10 10zM293 20q199 -10 307 -10q247 0 383 83 q135 83 135 282q0 187 -117 267q-116 79 -342 79h-366v-701zM293 741h366q183 0 288 87q106 88 106 264q0 311 -478 311q-149 0 -282 -10v-652z" />
<glyph unicode="C" horiz-adv-x="1298" d="M117 707q0 324 179 526q178 201 482 201q191 0 350 -84q43 -24 43 -41v-271q0 -12 -10 -12t-10 12v273q-175 102 -373 102q-301 0 -471 -202t-170 -511q0 -327 167 -514q166 -186 452 -186q114 0 230 38q115 38 194 105v263q0 12 10 12t10 -12v-263q0 -15 -39 -43 q-164 -120 -403 -120q-318 0 -479 197q-162 198 -162 530z" />
<glyph unicode="D" horiz-adv-x="1484" d="M88 10q0 10 10 10h174v1373h-174q-10 0 -10 10t10 10h195q180 10 366 10q709 0 709 -710q0 -345 -176 -535q-175 -188 -526 -188q-213 0 -373 10h-195q-10 0 -10 10zM293 20q176 -10 373 -10q337 0 509 183q173 184 173 520q0 690 -689 690q-190 0 -366 -10v-1373z" />
<glyph unicode="E" horiz-adv-x="1206" d="M88 10q0 10 10 10h174v1373h-174q-10 0 -10 10t10 10h1002q10 0 10 -12v-291q0 -12 -10 -12t-10 12v283h-797v-643h686q10 0 10 -11q0 -10 -10 -10h-686v-709h805v304q0 12 10 12t10 -12v-312q0 -12 -10 -12h-1010q-10 0 -10 10z" />
<glyph unicode="F" horiz-adv-x="1120" d="M88 10q0 10 10 10h174v1373h-174q-10 0 -10 10t10 10h946q9 0 9 -12v-291q0 -12 -11 -12q-10 0 -10 12v283h-739v-639h625q10 0 10 -11q0 -10 -10 -10h-625v-713h174q10 0 10 -10t-10 -10h-369q-10 0 -10 10z" />
<glyph unicode="G" horiz-adv-x="1353" d="M117 707q0 324 179 526q178 201 482 201q195 0 346 -82q50 -29 50 -43v-250q0 -12 -11 -12q-10 0 -10 12v252q-169 102 -375 102q-302 0 -471 -201q-170 -202 -170 -510q0 -331 166 -516q167 -186 453 -186q126 0 255 41q127 40 206 113v483h-402q-10 0 -10 10t10 10h410 q12 0 12 -12v-477q0 -24 -14 -35q-65 -60 -197 -107q-128 -46 -266 -46q-317 0 -480 197t-163 530z" />
<glyph unicode="H" horiz-adv-x="1605" d="M88 10q0 10 10 10h174v1373h-174q-10 0 -10 10t10 10h369q10 0 10 -10t-10 -10h-174v-650h1020v650h-174q-11 0 -11 10t11 10h368q11 0 11 -10t-11 -10h-174v-1373h174q11 0 11 -10t-11 -10h-368q-11 0 -11 10t11 10h174v703h-1020v-703h174q10 0 10 -10t-10 -10h-369 q-10 0 -10 10z" />
<glyph unicode="I" horiz-adv-x="565" d="M88 10q0 10 10 10h174v1373h-174q-10 0 -10 10t10 10h369q10 0 10 -10t-10 -10h-174v-1373h174q10 0 10 -10t-10 -10h-369q-10 0 -10 10z" />
<glyph unicode="J" horiz-adv-x="741" d="M-18 45q1 6 34 -6q89 -39 197 -39q144 0 198 81t54 222v1090h-209q-10 0 -10 10t10 10h403q11 0 11 -10t-11 -10h-174v-1102q0 -154 -64 -233q-63 -78 -208 -78q-125 0 -207 38q-25 13 -25 23q0 2 1 4z" />
<glyph unicode="K" horiz-adv-x="1275" d="M88 10q0 10 10 10h174v1373h-174q-10 0 -10 10t10 10h369q10 0 10 -10t-10 -10h-174v-676l729 676h-184q-11 0 -11 10t11 10h358q10 0 10 -10t-10 -10h-145l-742 -686l807 -687h144q10 0 10 -10t-10 -10h-377q-11 0 -11 10t11 10h198l-788 674v-674h174q10 0 10 -10 t-10 -10h-369q-10 0 -10 10z" />
<glyph unicode="L" horiz-adv-x="1150" d="M88 10q0 10 10 10h174v1373h-174q-10 0 -10 10t10 10h369q10 0 10 -10t-10 -10h-174v-1373h790v322q0 12 11 12q10 0 10 -12v-330q0 -12 -10 -12h-809h-4h-183q-10 0 -10 10z" />
<glyph unicode="M" horiz-adv-x="1769" d="M88 10q0 10 10 10h174v1373h-174q-10 0 -10 10t10 10h187q10 0 22 -18l576 -901l579 899q14 20 23 20h186q10 0 10 -10t-10 -10h-174v-1373h174q10 0 10 -10t-10 -10h-368q-11 0 -11 10t11 10h174v1356l-572 -884q-12 -21 -24 -21q-13 0 -25 21l-563 886v-1358h174 q10 0 10 -10t-10 -10h-369q-10 0 -10 10z" />
<glyph unicode="N" horiz-adv-x="1609" d="M88 10q0 10 10 10h174v1373h-174q-10 0 -10 10t10 10h183q10 0 26 -22l1010 -1352v1354h-174q-10 0 -10 10t10 10h368q11 0 11 -10t-11 -10h-174v-1373q0 -20 -10 -20q-7 0 -22 18l-1012 1358v-1356h174q10 0 10 -10t-10 -10h-369q-10 0 -10 10z" />
<glyph unicode="O" horiz-adv-x="1562" d="M117 707q0 316 176 522q175 205 489 205q313 0 488 -205q176 -206 176 -522q0 -317 -176 -523q-174 -204 -488 -204q-315 0 -489 204q-176 206 -176 523zM137 707q0 -317 174 -512t471 -195q298 0 470 195q173 196 173 512t-173 512q-172 194 -470 194t-471 -194 q-174 -195 -174 -512z" />
<glyph unicode="P" horiz-adv-x="1140" d="M88 10q0 10 10 10h174v1373h-174q-10 0 -10 10t10 10h195q170 10 315 10q486 0 486 -417q0 -433 -516 -433q-160 0 -285 21v-574h215q10 0 10 -10t-10 -10h-410q-10 0 -10 10zM293 614q109 -20 285 -20q495 0 495 412q0 397 -465 397q-156 0 -315 -10v-779z" />
<glyph unicode="Q" horiz-adv-x="1562" d="M117 707q0 316 176 522q175 205 489 205q313 0 488 -205q176 -206 176 -522q0 -214 -82 -381q-82 -168 -236 -258q99 -97 283 -209q35 -23 41 -27q6 -5 6 -9t-6 -4q-14 0 -53 23q-182 112 -289 215q-138 -77 -328 -77q-315 0 -489 204q-176 206 -176 523zM137 707 q0 -317 174 -512t471 -195q178 0 314 72l-29 30q-126 139 -190 281q-22 48 -22 62q0 5 3 6q8 5 16 -13q0 -3 5 -10q5 -14 16 -39q68 -142 188 -274l29 -33q148 84 231 249q82 163 82 376q0 316 -173 512q-172 194 -470 194t-471 -194q-174 -195 -174 -512z" />
<glyph unicode="R" horiz-adv-x="1306" d="M88 10q0 10 10 10h174v1373h-174q-10 0 -10 10t10 10h195q156 10 295 10q240 0 362 -88q123 -89 123 -299q0 -320 -315 -397l348 -619h174q10 0 10 -10t-10 -10h-178q-9 0 -27 29l-340 606q-73 -14 -180 -14q-169 0 -262 16v-617h174q10 0 10 -10t-10 -10h-369 q-10 0 -10 10zM293 657q99 -16 262 -16q114 0 193 17q84 18 155 61q72 43 111 123t39 194q0 193 -116 280q-115 87 -349 87q-162 0 -295 -10v-736z" />
<glyph unicode="S" horiz-adv-x="1097" d="M98 129v244q0 12 11 12q10 0 10 -12v-242q173 -131 428 -131q206 0 320 90t114 256q0 95 -46 163q-45 66 -119 108q-69 39 -162 72l-177 66q-96 37 -161 74q-71 40 -118 113q-46 71 -46 168q0 143 103 233q105 91 304 91q201 0 350 -93q35 -23 35 -34v-248q0 -12 -10 -12 t-10 12v246q-147 108 -365 108q-190 0 -288 -85q-99 -86 -99 -216q0 -95 46 -163q45 -66 119 -108q71 -40 161 -72l177 -64q90 -34 162 -74q71 -40 118 -113q46 -71 46 -170q0 -172 -116 -270t-340 -98q-233 0 -406 108q-41 23 -41 41z" />
<glyph unicode="T" horiz-adv-x="1261" d="M68 1055v346q0 12 10 12h1106q10 0 10 -12v-346q0 -13 -10 -13t-10 13v338h-533v-1373h236q10 0 10 -10t-10 -10h-492q-10 0 -10 10t10 10h236v1373h-533v-338q0 -13 -10 -13t-10 13z" />
<glyph unicode="U" horiz-adv-x="1523" d="M78 1403q0 10 10 10h369q10 0 10 -10t-10 -10h-174v-783q0 -299 109 -454q110 -156 370 -156t370 156q109 155 109 454v783h-174q-10 0 -10 10t10 10h369q10 0 10 -10t-10 -10h-174v-781q0 -308 -112 -471q-110 -161 -388 -161t-388 161q-112 163 -112 471v781h-174 q-10 0 -10 10z" />
<glyph unicode="V" horiz-adv-x="1435" d="M6 1403q0 10 10 10h349q10 0 10 -10t-10 -10h-191l549 -1393l543 1393h-195q-10 0 -10 10t10 10h348q11 0 11 -10t-11 -10h-133l-538 -1387q-12 -26 -25 -26q-14 0 -29 32l-544 1381h-134q-10 0 -10 10z" />
<glyph unicode="W" horiz-adv-x="1990" d="M6 1403q0 10 10 10h349q10 0 10 -10t-10 -10h-189l385 -1387l422 1143q6 16 14 16q9 0 15 -16l407 -1143l400 1387h-193q-10 0 -10 10t10 10h348q11 0 11 -10t-11 -10h-131l-399 -1381q-10 -32 -25 -32t-26 30l-396 1118l-411 -1120q-10 -28 -25 -28q-17 0 -24 28 l-385 1385h-136q-10 0 -10 10z" />
<glyph unicode="X" horiz-adv-x="1419" d="M6 10q0 10 10 10h150l530 717l-483 656h-139q-11 0 -11 10t11 10h346q10 0 10 -10t-10 -10h-178l469 -635l467 635h-181q-10 0 -10 10t10 10h346q11 0 11 -10t-11 -10h-139l-479 -652l532 -721h146q10 0 10 -10t-10 -10h-367q-10 0 -10 10t10 10h193l-520 699l-516 -699 h190q10 0 10 -10t-10 -10h-367q-10 0 -10 10z" />
<glyph unicode="Y" horiz-adv-x="1327" d="M6 1403q0 10 10 10h349q10 0 10 -10t-10 -10h-191l498 -740l483 740h-192q-11 0 -11 10t11 10h348q10 0 10 -10t-10 -10h-131l-498 -762v-611h215q10 0 10 -10t-10 -10h-451q-10 0 -10 10t10 10h216v611l-512 762h-134q-10 0 -10 10z" />
<glyph unicode="Z" horiz-adv-x="1249" d="M110 12q0 7 5 13l985 1368h-932v-306q0 -12 -10 -12q-11 0 -11 12v314q0 12 11 12h952q28 0 10 -29l-983 -1364h983v326q0 12 10 12q11 0 11 -12v-334q0 -12 -11 -12h-1007q-13 0 -13 12z" />
<glyph unicode="[" horiz-adv-x="528" d="M137 -131v1675q0 12 13 12h292q11 0 11 -10t-11 -10h-284v-1659h284q11 0 11 -10t-11 -10h-292q-13 0 -13 12z" />
<glyph unicode="\" horiz-adv-x="622" d="M-6 1638q7 2 11 -4q5 -7 9 -20q1 -5 4 -15l631 -1775q15 -44 8 -49q-8 -2 -12 5q-2 3 -14 36l-633 1775q-16 42 -4 47z" />
<glyph unicode="]" horiz-adv-x="528" d="M63 -133q0 10 11 10h284v1659h-284q-11 0 -11 10t11 10h293q12 0 12 -12v-1675q0 -12 -12 -12h-293q-11 0 -11 10z" />
<glyph unicode="^" horiz-adv-x="1179" d="M119 707q-8 5 12 34l440 678q7 15 19 15q8 0 18 -15l453 -671q23 -34 16 -41q-11 -8 -33 26l-454 680l-445 -682q-21 -28 -26 -24z" />
<glyph unicode="_" horiz-adv-x="1224" d="M35 -139q0 10 10 10h1135q10 0 10 -10q0 -11 -10 -11h-1135q-10 0 -10 11z" />
<glyph unicode="`" horiz-adv-x="1073" d="M350 1493q6 11 37 -12l330 -213q29 -18 24 -29q-6 -11 -36 10l-330 213q-32 21 -25 31z" />
<glyph unicode="a" horiz-adv-x="1077" d="M55 256q0 118 74 197q72 77 171 104q98 27 214 27q162 0 332 -35v119q0 164 -80 250t-260 86q-146 0 -322 -78q-23 -10 -28 -4q-6 10 18 22q169 80 336 80q356 0 356 -348v-656h154q10 0 10 -10t-10 -10h-164q-10 0 -10 12v359q-34 -173 -168 -282q-133 -109 -311 -109 q-141 0 -226 70q-86 71 -86 206zM76 256q0 -118 77 -187t216 -69q213 0 345 147t132 324v59q-175 33 -330 33q-198 0 -319 -79t-121 -228z" />
<glyph unicode="b" horiz-adv-x="1163" d="M47 10q0 10 10 10h154v1373h-154q-10 0 -10 10t10 10h164q10 0 10 -12v-821q24 197 142 321q117 123 305 123q192 0 291 -133q98 -132 98 -356q0 -253 -117 -404t-354 -151q-208 0 -365 94v-62q0 -12 -10 -12h-164q-10 0 -10 10zM231 96q179 -96 367 -96q230 0 339 150 q110 151 110 385q0 214 -95 342q-94 127 -280 127q-213 0 -327 -165t-114 -403v-340z" />
<glyph unicode="c" horiz-adv-x="976" d="M96 487q0 243 142 391q140 146 354 146q159 0 268 -53q33 -17 33 -31v-229q0 -13 -10 -13q-11 0 -11 13v229q-119 64 -280 64q-207 0 -341 -142t-134 -370q0 -244 117 -367q119 -125 329 -125q185 0 322 102q29 21 33 17q4 -2 4 -6q0 -8 -21 -23q-140 -110 -338 -110 q-224 0 -345 130q-122 131 -122 377z" />
<glyph unicode="d" horiz-adv-x="1163" d="M96 469q0 250 118 402q118 153 353 153q207 0 365 -94v463h-154q-10 0 -10 10t10 10h164q10 0 10 -12v-1381h154q10 0 10 -10t-10 -10h-164q-10 0 -10 12v416q-27 -201 -142 -325q-114 -123 -303 -123q-192 0 -291 133q-100 135 -100 356zM117 469q0 -215 94 -342 t281 -127q212 0 326 165t114 402v340q-180 97 -367 97q-229 0 -339 -150q-109 -149 -109 -385z" />
<glyph unicode="e" horiz-adv-x="1050" d="M96 502q0 229 126 376q125 146 337 146q196 0 295 -106q98 -105 98 -267q0 -102 -10 -141q-6 -21 -24 -21h-801q1 -242 121 -366q118 -123 333 -123q189 0 326 111q16 15 23 8q8 -8 -13 -25q-135 -114 -336 -114q-235 0 -355 135t-120 387zM117 510h805q10 49 10 141 q0 168 -103 260q-104 93 -272 93q-191 0 -315 -133t-125 -361z" />
<glyph unicode="f" horiz-adv-x="643" d="M47 -399q0 10 10 10h154v1446q0 190 63 280q70 97 226 97q118 0 192 -41q18 -11 17 -21q-5 -8 -21 0q-90 41 -190 41q-142 0 -205 -86q-62 -83 -62 -262v-61h336q11 0 11 -11q0 -10 -11 -10h-336v-1372h154q10 0 10 -10q0 -11 -10 -11h-328q-10 0 -10 11z" />
<glyph unicode="g" horiz-adv-x="1040" d="M55 -160q0 203 226 283q-93 23 -128 59q-36 38 -36 94q0 97 110 164q-88 94 -88 238q0 147 98 247q97 99 281 99q84 0 148 -20h340q10 0 10 -11q0 -8 -10 -8h-299q94 -45 142 -127t48 -180q0 -146 -97 -244t-282 -98q-171 0 -278 92q-103 -62 -103 -152q0 -74 87 -114 q88 -41 327 -53q75 -4 147 -11q61 -6 119 -22q57 -16 95 -41q37 -25 58 -65t21 -97q0 -137 -131 -220t-375 -83q-430 0 -430 270zM74 -160q0 -104 93 -178q94 -74 316 -74q246 0 368 81t122 194q0 122 -97 168q-99 47 -350 59q-93 4 -215 27q-237 -83 -237 -277zM158 678 q0 -134 92 -229t268 -95q174 0 266 95q93 96 93 229t-93 231q-92 97 -266 97q-175 0 -268 -96q-92 -95 -92 -232z" />
<glyph unicode="h" horiz-adv-x="1232" d="M47 10q0 10 10 10h154v1373h-154q-10 0 -10 10t10 10h164q10 0 10 -12v-821q28 204 147 324q118 120 300 120q344 0 344 -412v-592h154q10 0 10 -10t-10 -10h-164q-11 0 -11 12v598q0 187 -73 290q-74 104 -252 104q-145 0 -249 -83q-102 -81 -149 -209 q-47 -127 -47 -276v-416h154q10 0 10 -10t-10 -10h-328q-10 0 -10 10z" />
<glyph unicode="i" horiz-adv-x="442" d="M47 10q0 10 10 10h154v963h-154q-10 0 -10 10q0 11 10 11h164q10 0 10 -13v-971h154q10 0 10 -10t-10 -10h-328q-10 0 -10 10zM193 1341q0 29 28 29q29 0 29 -29q0 -28 -29 -28q-28 0 -28 28z" />
<glyph unicode="j" horiz-adv-x="358" d="M-229 -381q4 7 24 0q79 -29 176 -29q127 0 175 79q49 81 49 259v1055h-154q-10 0 -10 10q0 11 10 11h164q10 0 10 -13v-1085q0 -175 -55 -255q-55 -81 -187 -81q-99 0 -186 31q-17 6 -17 14q0 2 1 4zM176 1341q0 29 29 29q28 0 28 -29q0 -28 -28 -28q-29 0 -29 28z" />
<glyph unicode="k" horiz-adv-x="985" d="M47 10q0 10 10 10h154v1373h-154q-10 0 -10 10t10 10h164q10 0 10 -12v-866l541 448h-143q-11 0 -11 10q0 11 11 11h289q10 0 10 -11q0 -10 -10 -10h-113l-553 -457l565 -506h152q10 0 10 -10t-10 -10h-152q-11 0 -31 16l-555 500v-496h154q10 0 10 -10t-10 -10h-328 q-10 0 -10 10z" />
<glyph unicode="l" horiz-adv-x="643" d="M47 1403q0 10 10 10h164q10 0 10 -12v-1096q0 -179 42 -242t169 -63q91 0 179 49q20 11 26 4q1 -2 1 -4q0 -8 -17 -18q-89 -51 -193 -51q-132 0 -179 65q-48 66 -48 238v1110h-154q-10 0 -10 10z" />
<glyph unicode="m" horiz-adv-x="1851" d="M47 10q0 10 10 10h154v963h-154q-10 0 -10 10q0 11 10 11h164q10 0 10 -13v-411q27 193 136 319q108 125 284 125q157 0 223 -111q57 -97 57 -287q0 -29 -1 -59q30 204 143 331q113 126 281 126q148 0 217 -92t69 -301v-611h154q10 0 10 -10t-10 -10h-164q-10 0 -10 12 v617q0 187 -59 280q-60 95 -207 95q-190 0 -304 -163t-114 -397v-424h154q10 0 10 -10t-10 -10h-164q-11 0 -11 12v586q0 198 -56 301q-57 105 -210 105q-104 0 -190 -52q-84 -51 -132 -135t-72 -181q-24 -98 -24 -200v-416h154q10 0 10 -10t-10 -10h-328q-10 0 -10 10z" />
<glyph unicode="n" horiz-adv-x="1232" d="M47 10q0 10 10 10h154v963h-154q-10 0 -10 10q0 11 10 11h164q10 0 10 -13v-411q28 204 147 324q118 120 300 120q344 0 344 -412v-592h154q10 0 10 -10t-10 -10h-164q-11 0 -11 12v598q0 187 -73 290q-74 104 -252 104q-145 0 -249 -83q-102 -81 -149 -209 q-47 -127 -47 -276v-416h154q10 0 10 -10t-10 -10h-328q-10 0 -10 10z" />
<glyph unicode="o" horiz-adv-x="1153" d="M96 502q0 236 127 379t352 143q228 0 355 -143t127 -379q0 -238 -127 -380t-355 -142q-225 0 -352 142t-127 380zM117 502q0 -232 123 -367t335 -135q215 0 338 134t123 368q0 231 -123 366q-124 136 -338 136q-211 0 -335 -136q-123 -135 -123 -366z" />
<glyph unicode="p" horiz-adv-x="1163" d="M47 -399q0 10 10 10h154v1372h-154q-10 0 -10 10q0 11 10 11h164q10 0 10 -13v-411q24 197 142 321q117 123 305 123q192 0 291 -133q98 -132 98 -356q0 -253 -117 -404t-354 -151q-208 0 -365 94v-463h154q10 0 10 -10q0 -11 -10 -11h-328q-10 0 -10 11zM231 96 q179 -96 367 -96q230 0 339 150q110 151 110 385q0 214 -95 342q-94 127 -280 127q-213 0 -327 -165t-114 -403v-340z" />
<glyph unicode="q" horiz-adv-x="1163" d="M96 469q0 250 118 402q118 153 353 153q207 0 365 -94v61q0 13 10 13h164q10 0 10 -11q0 -10 -10 -10h-154v-1372h154q10 0 10 -10q0 -11 -10 -11h-328q-10 0 -10 11q0 10 10 10h154v813q-24 -199 -140 -322q-115 -122 -305 -122q-192 0 -291 133q-100 135 -100 356z M117 469q0 -215 94 -342t281 -127q212 0 326 165t114 402v340q-180 97 -367 97q-229 0 -339 -150q-109 -149 -109 -385z" />
<glyph unicode="r" horiz-adv-x="735" d="M47 10q0 10 10 10h154v963h-154q-10 0 -10 10q0 11 10 11h164q10 0 10 -13v-375q27 170 116 290q88 118 235 118q70 0 123 -27q15 -8 15 -15q0 -2 -1 -5q-4 -6 -23 2q-52 25 -121 25q-132 0 -221 -119q-123 -168 -123 -434v-431h154q10 0 10 -10t-10 -10h-328 q-10 0 -10 10z" />
<glyph unicode="s" horiz-adv-x="843" d="M76 84v197q0 12 10 12t10 -12v-197q150 -84 310 -84q158 0 250 68t92 182q0 93 -66 150q-65 56 -160 83l-188 54q-95 27 -160 86t-65 157q0 122 85 183t236 61q155 0 277 -61q26 -12 26 -27v-199q0 -12 -10 -12t-10 12v199q-142 68 -283 68q-147 0 -224 -59t-77 -161 q0 -93 66 -150t159 -82l189 -52q92 -26 159 -87q66 -60 66 -159q0 -128 -94 -201t-268 -73q-160 0 -293 69q-37 18 -37 35z" />
<glyph unicode="t" horiz-adv-x="589" d="M147 283v954q0 12 11 12q10 0 10 -12v-233h336q10 0 10 -11q0 -10 -10 -10h-336v-678q0 -179 42 -242t169 -63q94 0 186 53q15 7 19 0q2 -2 2 -4q0 -6 -13 -14q-94 -55 -198 -55q-134 0 -180 65q-48 68 -48 238z" />
<glyph unicode="u" horiz-adv-x="1232" d="M47 993q0 11 10 11h164q10 0 10 -13v-596q0 -185 74 -291q73 -104 252 -104q145 0 249 83q102 81 149 209q46 125 46 275v416h-153q-10 0 -10 10q0 11 10 11h164q10 0 10 -13v-971h154q10 0 10 -10t-10 -10h-164q-11 0 -11 12v412q-28 -205 -147 -325 q-118 -119 -299 -119q-344 0 -344 411v592h-154q-10 0 -10 10z" />
<glyph unicode="v" horiz-adv-x="1138" d="M6 993q0 11 10 11h301q11 0 11 -11q0 -10 -11 -10h-155l411 -973l404 973h-156q-10 0 -10 10q0 11 10 11h301q11 0 11 -11q0 -10 -11 -10h-123l-405 -975q-12 -28 -23 -28q-8 0 -18 22l-416 981h-121q-10 0 -10 10z" />
<glyph unicode="w" horiz-adv-x="1570" d="M6 993q0 11 10 11h301q11 0 11 -11q0 -10 -11 -10h-157l317 -969l291 772q8 21 18 21q12 0 19 -21l305 -776l299 973h-156q-10 0 -10 10q0 11 10 11h301q11 0 11 -11q0 -10 -11 -10h-124l-300 -975q-10 -28 -20 -28q-11 0 -18 22l-306 774l-73 -192l-144 -385l-73 -193 q-7 -26 -21 -26q-11 0 -18 26l-322 977h-119q-10 0 -10 10z" />
<glyph unicode="x" horiz-adv-x="1095" d="M6 10q0 10 10 10h121l400 504l-363 459h-117q-10 0 -10 10q0 11 10 11h297q11 0 11 -11q0 -10 -11 -10h-151l346 -440l346 440h-154q-10 0 -10 10q0 11 10 11h297q11 0 11 -11q0 -10 -11 -10h-116l-361 -457l402 -506h116q11 0 11 -10t-11 -10h-297q-10 0 -10 10t10 10 h154l-387 490l-385 -490h153q11 0 11 -10t-11 -10h-301q-10 0 -10 10z" />
<glyph unicode="y" horiz-adv-x="1155" d="M6 993q0 11 10 11h301q11 0 11 -11q0 -10 -11 -10h-157l422 -969l411 969h-155q-11 0 -11 10q0 11 11 11h301q10 0 10 -11q0 -10 -10 -10h-121l-473 -1102q-72 -167 -136 -238q-65 -73 -161 -73q-95 0 -158 39q-23 14 -16 24q4 4 28 -8q70 -35 152 -35q20 0 48 7 q24 6 45 21q23 17 38 30q16 15 34 40q3 5 13 19.5t15 20.5q13 16 27 46l21 42q9 21 18 41q13 29 13 32l43 97l-434 997h-119q-10 0 -10 10z" />
<glyph unicode="z" horiz-adv-x="983" d="M101 8q-1 2 -1 5q0 6 6 12l748 958h-678v-242q0 -12 -10 -12t-10 12v250q0 13 10 13h694q35 0 14 -29l-745 -955h737v261q0 12 11 12q10 0 10 -12v-269q0 -12 -10 -12h-762q-11 0 -14 8z" />
<glyph unicode="{" horiz-adv-x="587" d="M96 707q0 12 19 18q54 18 71 65q17 48 17 123v390q0 129 41 202q41 72 164 72q57 0 90 -10q3 -1 8 -2.5t6 -1.5q6 -1 11 -5t7 -7q1 -3 0 -7t-41 4t-83 8q-108 0 -145 -64q-38 -65 -38 -189v-410q0 -156 -102 -186q102 -30 102 -187v-409q0 -124 37 -189t146 -65 q43 0 83 8t41 4q2 -5 -2 -8q-4 -4 -11 -7q-2 -1 -8 -3.5t-11 -4.5q-33 -10 -90 -10q-117 0 -161 65t-44 210v389q0 55 -4 82q-5 32 -25 61q-21 31 -59 45q-19 6 -19 19z" />
<glyph unicode="|" horiz-adv-x="315" d="M147 -213v1839q0 12 11 12q10 0 10 -12v-1839q0 -12 -10 -12q-11 0 -11 12z" />
<glyph unicode="}" horiz-adv-x="587" d="M47 -131q1 4 41 -4t84 -8q108 0 145 65t37 189v409q0 157 103 187q-103 30 -103 186v410q0 124 -38 189q-37 64 -144 64q-44 0 -84 -8t-41 -4t2 8q6 6 11 8q2 1 9 3.5t11 3.5q33 10 90 10q124 0 164 -72q41 -73 41 -202v-390q0 -55 4 -82q5 -34 24 -61q21 -30 60 -45 q18 -6 18 -18q0 -13 -18 -19q-56 -18 -72 -64q-16 -45 -16 -124v-389q0 -145 -44 -210t-161 -65q-57 0 -90 10q-3 1 -8 2.5t-6 1.5q-5 1 -12 6q-6 4 -7 6q-1 3 0 7z" />
<glyph unicode="~" horiz-adv-x="983" d="M106 582q-5 5 17 32q76 78 178 78q64 0 199 -54t194 -54q95 0 162 67q27 27 33 23q8 -7 -19 -37q-69 -74 -176 -74q-63 0 -198 54q-138 55 -197 55q-90 0 -160 -70q-27 -26 -33 -20z" />
<glyph unicode="&#xa1;" horiz-adv-x="331" d="M137 1384q0 29 29 29t29 -29q0 -28 -29 -28t-29 28zM158 -8v1069q0 12 10 12t10 -12v-1069q0 -12 -10 -12t-10 12z" />
<glyph unicode="&#xa2;" d="M127 487q0 234 133 380t336 157v256q0 12 10 12t10 -12v-256h7q159 0 268 -53q33 -17 33 -31v-229q0 -13 -11 -13q-10 0 -10 13v229q-119 64 -280 64q-207 0 -341 -142q-135 -143 -135 -370q0 -243 118 -367q119 -125 329 -125q184 0 321 102q29 21 33 17q13 -8 -16 -29 q-131 -102 -316 -110v-256q0 -13 -10 -13t-10 13v256h-2q-224 0 -345 130q-122 131 -122 377z" />
<glyph unicode="&#xa3;" d="M113 10q0 10 10 10q114 0 200 109q85 107 85 248q0 137 -56 285h-200q-11 0 -11 10t11 10h192l-43 98q-27 63 -45 107q-13 33 -29 98q-14 57 -14 123q0 172 108 268q109 97 287 97q188 0 350 -93q41 -24 41 -39v-313q0 -12 -10 -12t-10 12v318q-178 106 -371 106 q-171 0 -272 -91q-103 -92 -103 -253q0 -58 15 -118t30 -99q16 -43 45 -107l44 -102h411q10 0 10 -10t-10 -10h-403q53 -153 53 -283q0 -127 -66 -227q-68 -103 -147 -132h786v314q0 12 11 12q10 0 10 -12v-322q0 -12 -12 -12h-887q-10 0 -10 10z" />
<glyph unicode="&#xa4;" horiz-adv-x="1384" d="M143 147q-6 8 21 35l211 209q-131 128 -131 328q0 201 133 330l-213 211q-27 27 -21 34q7 8 35 -20l213 -213q125 113 307 113q181 0 306 -113l215 213q28 28 34 20t-20 -34l-213 -211q133 -133 133 -330q0 -192 -131 -328l211 -209q27 -27 20 -35q-6 -7 -34 21l-213 209 q-125 -113 -308 -113q-184 0 -309 113l-211 -209q-29 -29 -35 -21zM264 719q0 -185 121 -309q122 -125 313 -125q192 0 314 125q121 124 121 309t-121 309q-122 125 -314 125q-191 0 -313 -125q-121 -124 -121 -309z" />
<glyph unicode="&#xa5;" d="M-59 1403q0 10 10 10h325q11 0 11 -10t-11 -10h-182l467 -742l453 742h-191q-10 0 -10 10t10 10h340q11 0 11 -10t-11 -10h-125l-460 -752h333q11 0 11 -10t-11 -10h-340v-236h340q11 0 11 -10t-11 -10h-340v-345h215q11 0 11 -10t-11 -10h-450q-10 0 -10 10t10 10h215 v345h-340q-10 0 -10 10t10 10h340v236h-340q-10 0 -10 10t10 10h332q-473 752 -475 752h-117q-10 0 -10 10z" />
<glyph unicode="&#xa6;" horiz-adv-x="315" d="M147 -213v733q0 12 11 12q10 0 10 -12v-733q0 -12 -10 -12q-11 0 -11 12zM147 893v733q0 12 11 12q10 0 10 -12v-733q0 -12 -10 -12q-11 0 -11 12z" />
<glyph unicode="&#xa7;" horiz-adv-x="1110" d="M137 545q0 189 185 303q-123 96 -123 268q0 150 102 234t301 84q159 0 275 -52q49 -22 49 -34v-281q0 -12 -11 -12q-10 0 -10 12v281q-139 65 -303 65q-194 0 -288 -79q-95 -80 -95 -218q0 -82 31 -147q30 -63 95 -107q60 -40 120 -68q68 -31 149 -57q62 -21 107 -38 q35 -13 94 -47q55 -32 84 -66t51 -90q23 -57 23 -123q0 -187 -187 -305q125 -96 125 -267q0 -149 -102 -233t-301 -84q-160 0 -270 49q-52 23 -52 37v283q0 12 11 12q10 0 10 -12v-283q127 -66 301 -66q194 0 288 79q95 80 95 218q0 83 -31 148q-29 62 -95 106 q-65 43 -120 69q-61 28 -149 56q-62 20 -107 38q-35 13 -94 47q-54 31 -84 67q-29 34 -51 90q-23 57 -23 123zM158 551q0 -147 90 -222t264 -132q178 -61 256 -117q184 106 184 287q0 147 -90 222t-264 132q-181 60 -258 115q-29 -18 -69 -49q-29 -23 -73 -94 q-40 -65 -40 -142z" />
<glyph unicode="&#xa8;" horiz-adv-x="1073" d="M385 1341q0 29 29 29q28 0 28 -29q0 -28 -28 -28q-29 0 -29 28zM631 1341q0 29 28 29q29 0 29 -29q0 -28 -29 -28q-28 0 -28 28z" />
<glyph unicode="&#xa9;" horiz-adv-x="1613" d="M96 707q0 323 188 525t523 202q338 0 524 -201q187 -202 187 -526q0 -326 -186 -527q-185 -200 -525 -200q-335 0 -523 201q-188 202 -188 526zM117 707q0 -321 182 -513q183 -194 508 -194q327 0 509 194q181 193 181 513t-181 513t-509 193q-325 0 -508 -193 q-182 -192 -182 -513zM473 713q0 188 98 298q99 111 260 111q119 0 197 -45q21 -12 21 -24v-164q0 -12 -11 -12q-10 0 -10 12v164q-79 49 -197 49q-154 0 -246 -107q-91 -106 -91 -282q0 -179 85 -283t242 -104q121 0 221 69v174q0 13 11 13q10 0 10 -13v-170q0 -13 -10 -20 q-95 -74 -232 -74q-173 0 -261 109q-87 108 -87 299z" />
<glyph unicode="&#xaa;" horiz-adv-x="778" d="M102 928q0 114 84 170q83 55 215 55q118 0 254 -23v58q0 114 -57 170q-56 55 -182 55q-104 0 -203 -37q-25 -9 -37.5 -11t-13.5 3q-2 6 11 13q19 11 34 16q101 37 209 37q133 0 197 -61q63 -60 63 -193v-410h100q10 0 10 -10t-10 -10h-110q-11 0 -11 12v225 q-27 -133 -120 -195q-95 -63 -205 -63q-228 0 -228 199zM123 928q0 -84 54 -131q55 -47 153 -47q154 0 240 99q85 98 85 210v51q-130 23 -254 23q-137 0 -207 -57q-71 -57 -71 -148z" />
<glyph unicode="&#xab;" horiz-adv-x="991" d="M137 489q-24 28 2 54l375 354q29 25 33 21q6 -6 -21 -33l-387 -369l387 -391q26 -26 21 -33q-6 -10 -35 19zM487 489q-24 28 2 54l375 354q29 25 33 21q7 -6 -20 -33l-388 -369l388 -391q25 -25 20 -33q-6 -10 -35 19z" />
<glyph unicode="&#xac;" horiz-adv-x="983" d="M96 672q0 10 10 10h768q13 0 13 -12v-289q0 -12 -10 -12q-11 0 -11 12v281h-760q-10 0 -10 10z" />
<glyph unicode="&#xad;" horiz-adv-x="675" d="M35 557q0 10 10 10h586q10 0 10 -10t-10 -10h-586q-10 0 -10 10z" />
<glyph unicode="&#xae;" horiz-adv-x="1388" d="M178 911q0 230 140 376q141 147 376 147t376 -147q140 -146 140 -376q0 -229 -140 -375q-141 -147 -376 -147t-376 147q-140 146 -140 375zM199 911q0 -217 130 -359t365 -142q236 0 366 142t130 359q0 218 -130 360t-366 142q-235 0 -365 -142t-130 -360zM426 635 q0 10 10 10h84v553h-84q-10 0 -10 10q0 11 10 11h105q60 10 145 10q203 0 203 -172q0 -141 -133 -174l137 -238h86q10 0 10 -10t-10 -10h-88q-9 0 -17 12l-141 242q-47 -7 -84 -7q-59 0 -108 9v-236h86q10 0 10 -10t-10 -10h-191q-10 0 -10 10zM541 901q53 -8 108 -8 q116 0 168 38q51 37 51 126q0 151 -182 151q-82 0 -145 -10v-297z" />
<glyph unicode="&#xaf;" horiz-adv-x="1073" d="M248 1331q0 10 10 10h557q10 0 10 -10t-10 -10h-557q-10 0 -10 10z" />
<glyph unicode="&#xb0;" horiz-adv-x="1091" d="M250 1139q0 130 85 212q86 83 210 83q125 0 211 -83t86 -212q0 -131 -86 -212t-211 -81t-210 82t-85 211zM270 1139q0 -120 79 -196q80 -77 196 -77t196 77t80 196q0 118 -80 196q-79 78 -196 78q-116 0 -196 -77q-79 -76 -79 -197z" />
<glyph unicode="&#xb1;" horiz-adv-x="983" d="M96 365q0 10 10 10h771q10 0 10 -10q0 -11 -10 -11h-771q-10 0 -10 11zM96 762q0 10 10 10h375v332q0 12 11 12q10 0 10 -12v-332h375q10 0 10 -10t-10 -10h-375v-209q0 -13 -10 -13q-11 0 -11 13v209h-375q-10 0 -10 10z" />
<glyph unicode="&#xb2;" horiz-adv-x="573" d="M55 760q0 77 42 137q41 58 103 97l122 75q60 37 103 87q42 50 42 116q0 60 -47 101q-46 40 -144 40q-92 0 -165 -45q-3 -1 -18 -11q-13 -9 -14 -8t-9 3q-6 10 26 30q81 52 180 52q108 0 160 -44q51 -44 51 -114t-42 -124q-41 -53 -102 -91l-121 -75q-59 -37 -102 -92 q-42 -54 -42 -124h430q10 0 10 -10t-10 -10h-442q-11 0 -11 10z" />
<glyph unicode="&#xb3;" horiz-adv-x="589" d="M70 793q4 5 32 -7q79 -36 170 -36q228 0 228 184q0 91 -64 138q-62 46 -237 46q-15 0 -15 10q0 8 13 19l268 246h-348q-11 0 -11 10t11 10h362q15 0 15 -10q0 -8 -13 -21l-270 -245q159 0 234 -48t75 -155q0 -98 -62 -151q-63 -54 -186 -54q-113 0 -180 37q-28 16 -22 27 z" />
<glyph unicode="&#xb4;" horiz-adv-x="1073" d="M346 1241q-5 8 25 27l329 213q30 21 37 12q6 -11 -24 -29l-328 -211q-33 -23 -39 -12z" />
<glyph unicode="&#xb5;" horiz-adv-x="1232" d="M47 -399q0 10 10 10h154v1372h-154q-10 0 -10 10q0 11 10 11h164q10 0 10 -13v-596q0 -185 74 -291q73 -104 252 -104q145 0 249 83q102 81 149 209q46 125 46 275v416h-153q-10 0 -10 10q0 11 10 11h164q10 0 10 -13v-971h154q10 0 10 -10t-10 -10h-164q-11 0 -11 12 v408q-28 -206 -146 -323q-117 -117 -300 -117q-138 0 -221 67q-85 68 -103 197v-633h154q10 0 10 -10q0 -11 -10 -11h-328q-10 0 -10 11z" />
<glyph unicode="&#xb6;" horiz-adv-x="808" d="M35 1030q0 160 95 272q95 111 230 111q19 0 19 -18v-1608q0 -12 -10 -12q-11 0 -11 12v850q-139 1 -231 116t-92 277zM610 -213v1614q0 12 11 12q10 0 10 -12v-1614q0 -12 -10 -12q-11 0 -11 12z" />
<glyph unicode="&#xb7;" horiz-adv-x="311" d="M127 623q0 28 29 28q28 0 28 -28q0 -29 -28 -29q-29 0 -29 29z" />
<glyph unicode="&#xb8;" horiz-adv-x="606" d="M123 -459q5 8 31 -4q59 -26 139 -26q88 0 134 40t46 111q0 158 -227 158q-14 0 -10 14l43 170q1 6 5 12q2 4 9 2q11 -2 6 -18l-43 -162q238 0 238 -174q0 -80 -53 -127t-148 -47q-85 0 -148 29q-26 15 -22 22z" />
<glyph unicode="&#xb9;" horiz-adv-x="464" d="M45 1149q-6 6 23 35l231 231q19 19 27 19t8 -19v-645h137q10 0 10 -10t-10 -10h-315q-11 0 -11 10t11 10h157v631l-229 -230q-33 -33 -39 -22z" />
<glyph unicode="&#xba;" horiz-adv-x="663" d="M57 1081q0 163 72 257q73 96 203 96t203 -97q71 -95 71 -256q0 -164 -71 -257q-72 -95 -203 -95t-203 96t-72 256zM78 1081q0 -143 63 -237t191 -94q127 0 190 94q64 96 64 237q0 142 -64 238q-63 94 -190 94q-128 0 -191 -94q-63 -95 -63 -238z" />
<glyph unicode="&#xbb;" horiz-adv-x="991" d="M113 92q-7 6 20 33l387 369l-387 391q-25 25 -20 33q5 10 34 -19l375 -379q24 -27 -2 -53l-375 -354q-29 -24 -32 -21zM463 92q-7 6 20 33l387 369l-387 391q-25 25 -20 33q6 10 35 -19l374 -379q24 -27 -2 -53l-374 -354q-29 -25 -33 -21z" />
<glyph unicode="&#xbc;" horiz-adv-x="1351" d="M45 1149q-6 6 23 35l231 231q19 19 27 19t8 -19v-645h137q10 0 10 -10t-10 -10h-315q-11 0 -11 10t11 10h157v631l-229 -230q-33 -33 -39 -22zM387 -84q-11 5 10 59l531 1489q11 33 17 46q5 10 13 8q8 -5 -10 -60l-530 -1491q-10 -30 -18 -42q-7 -11 -13 -9zM788 228 q0 5 5 10l340 430q12 16 22 16t10 -14v-432h107q10 0 10 -11q0 -10 -10 -10h-107v-205q0 -12 -10 -12t-10 12v205h-344q-6 0 -9 3q-4 4 -4 8zM817 238h328v413z" />
<glyph unicode="&#xbd;" horiz-adv-x="1445" d="M45 1149q-6 6 23 35l231 231q19 19 27 19t8 -19v-645h137q10 0 10 -10t-10 -10h-315q-11 0 -11 10t11 10h157v631l-229 -230q-33 -33 -39 -22zM397 -84q-10 4 11 59l530 1489q11 33 17 46q5 10 14 8q7 -4 -11 -60l-530 -1491q-12 -34 -17 -42q-7 -11 -14 -9zM934 10 q0 77 42 137q43 61 103 98l122 74q60 38 103 88q42 50 42 115q0 60 -48 102q-46 40 -143 40q-91 0 -166 -46q-1 0 -17 -11q-14 -9 -15 -8t-9 3q-6 10 27 31q79 51 180 51q108 0 160 -44q51 -43 51 -114q0 -70 -42 -124q-41 -53 -102 -91l-121 -74q-60 -37 -103 -93 q-42 -54 -42 -124h430q11 0 11 -10t-11 -10h-442q-10 0 -10 10z" />
<glyph unicode="&#xbe;" horiz-adv-x="1384" d="M70 793q4 5 32 -7q79 -36 170 -36q228 0 228 184q0 91 -64 138q-62 46 -237 46q-15 0 -15 10q0 8 13 19l268 246h-348q-11 0 -11 10t11 10h362q15 0 15 -10q0 -8 -13 -21l-270 -245q159 0 234 -48t75 -155q0 -98 -62 -151q-63 -54 -186 -54q-113 0 -180 37q-28 16 -22 27 zM406 -84q-11 5 10 59l530 1489q9 28 18 46q5 10 13 8q8 -5 -10 -60l-531 -1491q-12 -34 -17 -42q-7 -11 -13 -9zM821 228q0 6 4 10l340 430q12 16 23 16q10 0 10 -14v-432h107q10 0 10 -11q0 -10 -10 -10h-107v-205q0 -12 -10 -12t-10 12v205h-344q-7 0 -10 3t-3 8z M850 238h328v413z" />
<glyph unicode="&#xbf;" horiz-adv-x="849" d="M109 270q0 88 34 166t73 125q40 48 103 111q98 98 145 179q48 83 48 208q0 14 10 14t10 -14q0 -93 -32 -170q-34 -81 -70 -126q-42 -52 -98 -108q-72 -72 -106 -113q-35 -42 -66 -117q-31 -74 -31 -157q0 -118 80 -193q79 -75 240 -75q128 0 276 70q34 16 39 10 q6 -10 -25 -27q-146 -73 -293 -73q-173 0 -255 79t-82 211zM492 1384q0 29 28 29q29 0 29 -29q0 -28 -29 -28q-28 0 -28 28z" />
<glyph unicode="&#xc0;" horiz-adv-x="1443" d="M6 10q0 10 10 10h136l540 1383q12 31 27 31q12 0 24 -31l543 -1383h141q11 0 11 -10t-11 -10h-348q-10 0 -10 10t10 10h185l-183 461h-727l-178 -461h189q10 0 10 -10t-10 -10h-349q-10 0 -10 10zM322 1829q4 10 40 -10l383 -209q33 -16 27 -27t-39 10l-381 207 q-30 21 -30 29zM362 502h713l-358 907z" />
<glyph unicode="&#xc1;" horiz-adv-x="1443" d="M6 10q0 10 10 10h136l540 1383q12 31 27 31q12 0 24 -31l543 -1383h141q11 0 11 -10t-11 -10h-348q-10 0 -10 10t10 10h185l-183 461h-727l-178 -461h189q10 0 10 -10t-10 -10h-349q-10 0 -10 10zM362 502h713l-358 907zM608 1587q-1 10 25 25q3 1 6 4l381 207 q33 21 39 10t-27 -27l-383 -209q-37 -20 -41 -10z" />
<glyph unicode="&#xc2;" horiz-adv-x="1443" d="M6 10q0 10 10 10h136l540 1383q12 31 27 31q12 0 24 -31l543 -1383h141q11 0 11 -10t-11 -10h-348q-10 0 -10 10t10 10h185l-183 461h-727l-178 -461h189q10 0 10 -10t-10 -10h-349q-10 0 -10 10zM362 502h713l-358 907zM383 1571q-6 10 25 28l264 156q32 19 45 19 q6 0 41 -19l256 -151q44 -23 33 -35q-7 -8 -48 16l-284 168l-293 -170q-34 -21 -39 -12z" />
<glyph unicode="&#xc3;" horiz-adv-x="1443" d="M6 10q0 10 10 10h136l540 1383q12 31 27 31q12 0 24 -31l543 -1383h141q11 0 11 -10t-11 -10h-348q-10 0 -10 10t10 10h185l-183 461h-727l-178 -461h189q10 0 10 -10t-10 -10h-349q-10 0 -10 10zM362 502h713l-358 907zM408 1649q-6 6 16 34q68 74 149 74q59 0 150 -52 t147 -52q68 0 125 63l9 9q2 2 4 5t3 4q4 4 7 6q4 3 6 3l6 -2q6 -6 -18 -37q-66 -72 -148 -72q-59 0 -150 52q-92 53 -147 53q-64 0 -125 -64q-4 -4 -7 -8t-7 -8l-2 -2q-3 -2 -5 -4q-4 -4 -7 -4z" />
<glyph unicode="&#xc4;" horiz-adv-x="1443" d="M6 10q0 10 10 10h136l540 1383q12 31 27 31q12 0 24 -31l543 -1383h141q11 0 11 -10t-11 -10h-348q-10 0 -10 10t10 10h185l-183 461h-727l-178 -461h189q10 0 10 -10t-10 -10h-349q-10 0 -10 10zM362 502h713l-358 907zM555 1690q0 28 29 28q28 0 28 -28q0 -29 -28 -29 q-29 0 -29 29zM821 1690q0 28 29 28t29 -28q0 -29 -29 -29t-29 29z" />
<glyph unicode="&#xc5;" horiz-adv-x="1443" d="M6 10q0 10 10 10h136l540 1383q6 16 10 20q-78 4 -123 44q-47 41 -47 110q0 73 53 114q52 40 136 40q83 0 136 -40q54 -41 54 -114q0 -71 -50 -112q-49 -40 -128 -42l10 -20l543 -1383h141q11 0 11 -10t-11 -10h-348q-10 0 -10 10t10 10h185l-183 461h-727l-178 -461h189 q10 0 10 -10t-10 -10h-349q-10 0 -10 10zM362 502h713l-358 907zM553 1577q0 -61 45 -97t123 -36t124 37t46 96t-46 96t-124 37t-123 -36t-45 -97z" />
<glyph unicode="&#xc6;" horiz-adv-x="1951" d="M-14 10q0 10 10 10h131l940 1373q14 20 27 20h751q10 0 10 -12v-291q0 -12 -10 -12t-10 12v283h-743v-643h643q10 0 10 -11q0 -10 -10 -10h-643v-709h751v304q0 12 10 12q11 0 11 -12v-312q0 -12 -11 -12h-770q-12 0 -12 12v469h-600l-315 -461h188q10 0 10 -10t-10 -10 h-348q-10 0 -10 10zM485 502h586v864z" />
<glyph unicode="&#xc7;" horiz-adv-x="1298" d="M117 707q0 324 179 526q178 201 482 201q191 0 350 -84q43 -24 43 -41v-271q0 -12 -10 -12t-10 12v273q-175 102 -373 102q-301 0 -471 -202t-170 -511q0 -327 167 -514q166 -186 452 -186q114 0 230 38q115 38 194 105v263q0 12 10 12t10 -12v-263q0 -15 -39 -43 q-164 -120 -403 -120l-35 -142q238 0 238 -174q0 -80 -53 -127t-148 -47q-85 0 -148 29q-26 15 -22 22q5 8 31 -4q59 -26 139 -26q88 0 134 40t46 111q0 158 -227 158q-15 0 -11 14l37 148q-310 6 -466 202t-156 523z" />
<glyph unicode="&#xc8;" horiz-adv-x="1206" d="M88 10q0 10 10 10h174v1373h-174q-10 0 -10 10t10 10h1002q10 0 10 -12v-291q0 -12 -10 -12t-10 12v283h-797v-643h686q10 0 10 -11q0 -10 -10 -10h-686v-709h805v304q0 12 10 12t10 -12v-312q0 -12 -10 -12h-1010q-10 0 -10 10zM297 1829q4 10 41 -10l383 -209 q33 -16 27 -27t-39 10l-381 207q-31 22 -31 29z" />
<glyph unicode="&#xc9;" horiz-adv-x="1206" d="M88 10q0 10 10 10h174v1373h-174q-10 0 -10 10t10 10h1002q10 0 10 -12v-291q0 -12 -10 -12t-10 12v283h-797v-643h686q10 0 10 -11q0 -10 -10 -10h-686v-709h805v304q0 12 10 12t10 -12v-312q0 -12 -10 -12h-1010q-10 0 -10 10zM563 1587q-1 10 25 25q3 1 6 4l381 207 q33 21 39 10t-27 -27l-383 -209q-37 -20 -41 -10z" />
<glyph unicode="&#xca;" horiz-adv-x="1206" d="M88 10q0 10 10 10h174v1373h-174q-10 0 -10 10t10 10h1002q10 0 10 -12v-291q0 -12 -10 -12t-10 12v283h-797v-643h686q10 0 10 -11q0 -10 -10 -10h-686v-709h805v304q0 12 10 12t10 -12v-312q0 -12 -10 -12h-1010q-10 0 -10 10zM348 1571q-6 10 25 28l264 156 q32 19 45 19q6 0 41 -19l256 -151q44 -23 33 -35q-6 -8 -47 16l-285 168l-293 -170q-34 -21 -39 -12z" />
<glyph unicode="&#xcb;" horiz-adv-x="1206" d="M88 10q0 10 10 10h174v1373h-174q-10 0 -10 10t10 10h1002q10 0 10 -12v-291q0 -12 -10 -12t-10 12v283h-797v-643h686q10 0 10 -11q0 -10 -10 -10h-686v-709h805v304q0 12 10 12t10 -12v-312q0 -12 -10 -12h-1010q-10 0 -10 10zM524 1690q0 28 29 28t29 -28 q0 -29 -29 -29t-29 29zM791 1690q0 28 28 28q29 0 29 -28q0 -29 -29 -29q-28 0 -28 29z" />
<glyph unicode="&#xcc;" horiz-adv-x="565" d="M-141 1829q4 10 41 -10l383 -209q32 -16 26 -27t-39 10l-381 207q-30 21 -30 29zM88 10q0 10 10 10h174v1373h-174q-10 0 -10 10t10 10h369q10 0 10 -10t-10 -10h-174v-1373h174q10 0 10 -10t-10 -10h-369q-10 0 -10 10z" />
<glyph unicode="&#xcd;" horiz-adv-x="565" d="M88 10q0 10 10 10h174v1373h-174q-10 0 -10 10t10 10h369q10 0 10 -10t-10 -10h-174v-1373h174q10 0 10 -10t-10 -10h-369q-10 0 -10 10zM242 1587q-2 11 24 25q3 1 6 4l381 207q33 21 39 10t-26 -27l-383 -209q-37 -20 -41 -10z" />
<glyph unicode="&#xce;" horiz-adv-x="565" d="M-45 1571q-6 10 25 28l264 156q32 19 45 19q6 0 41 -19l256 -151q43 -22 32 -35q-6 -8 -47 16l-284 168l-293 -170q-34 -21 -39 -12zM94 10q0 10 10 10h175v1373h-175q-10 0 -10 10t10 10h369q10 0 10 -10t-10 -10h-174v-1373h174q10 0 10 -10t-10 -10h-369q-10 0 -10 10 z" />
<glyph unicode="&#xcf;" horiz-adv-x="565" d="M37 1690q0 28 29 28q28 0 28 -28q0 -29 -28 -29q-29 0 -29 29zM88 -37q0 10 10 10h174v1373h-174q-10 0 -10 10t10 10h369q10 0 10 -10t-10 -10h-174v-1373h174q10 0 10 -10t-10 -10h-369q-10 0 -10 10zM283 1690q0 28 28 28q29 0 29 -28q0 -29 -29 -29q-28 0 -28 29z " />
<glyph unicode="&#xd0;" horiz-adv-x="1488" d="M88 719q0 10 10 10h178v664h-174q-10 0 -10 10t10 10h195q180 10 367 10q708 0 708 -710q0 -345 -176 -535q-175 -188 -526 -188q-213 0 -373 10h-195q-10 0 -10 10t10 10h174v689h-178q-10 0 -10 10zM297 20q176 -10 373 -10q337 0 509 183q173 184 173 520 q0 690 -688 690q-191 0 -367 -10v-664h416q10 0 10 -10t-10 -10h-416v-689z" />
<glyph unicode="&#xd1;" horiz-adv-x="1609" d="M88 10q0 10 10 10h174v1373h-174q-10 0 -10 10t10 10h183q10 0 26 -22l1010 -1352v1354h-174q-10 0 -10 10t10 10h368q11 0 11 -10t-11 -10h-174v-1373q0 -20 -10 -20q-7 0 -22 18l-1012 1358v-1356h174q10 0 10 -10t-10 -10h-369q-10 0 -10 10zM494 1649q-6 6 16 34 q68 74 149 74q59 0 150 -52t147 -52q68 0 125 63l9 9q2 2 4 5t3 4q4 4 7 6q4 3 6 3l6 -2q6 -6 -18 -37q-66 -72 -148 -72q-59 0 -150 52q-92 53 -147 53q-64 0 -125 -64q-4 -4 -7 -8t-7 -8l-2 -2q-3 -2 -5 -4q-4 -4 -7 -4q-1 0 -3 1t-3 1z" />
<glyph unicode="&#xd2;" horiz-adv-x="1562" d="M117 707q0 316 176 522q175 205 489 205q313 0 488 -205q176 -206 176 -522q0 -317 -176 -523q-174 -204 -488 -204q-315 0 -489 204q-176 206 -176 523zM137 707q0 -317 174 -512t471 -195q298 0 470 195q173 196 173 512t-173 512q-172 194 -470 194t-471 -194 q-174 -195 -174 -512zM412 1829q4 10 41 -10l383 -209q32 -16 26 -27t-39 10l-381 207q-30 21 -30 29z" />
<glyph unicode="&#xd3;" horiz-adv-x="1562" d="M117 707q0 316 176 522q175 205 489 205q313 0 488 -205q176 -206 176 -522q0 -317 -176 -523q-174 -204 -488 -204q-315 0 -489 204q-176 206 -176 523zM137 707q0 -317 174 -512t471 -195q298 0 470 195q173 196 173 512t-173 512q-172 194 -470 194t-471 -194 q-174 -195 -174 -512zM678 1587q-2 11 24 25q4 2 7 4l381 207q32 20 38 10q6 -11 -26 -27l-383 -209q-37 -20 -41 -10z" />
<glyph unicode="&#xd4;" horiz-adv-x="1562" d="M117 707q0 316 176 522q175 205 489 205q313 0 488 -205q176 -206 176 -522q0 -317 -176 -523q-174 -204 -488 -204q-315 0 -489 204q-176 206 -176 523zM137 707q0 -317 174 -512t471 -195q298 0 470 195q173 196 173 512t-173 512q-172 194 -470 194t-471 -194 q-174 -195 -174 -512zM446 1571q-6 10 25 28l264 156q32 19 45 19q6 0 41 -19l256 -151q44 -23 33 -35q-6 -8 -47 16l-285 168l-293 -170q-34 -21 -39 -12z" />
<glyph unicode="&#xd5;" horiz-adv-x="1562" d="M117 707q0 316 176 522q175 205 489 205q313 0 488 -205q176 -206 176 -522q0 -317 -176 -523q-174 -204 -488 -204q-315 0 -489 204q-176 206 -176 523zM137 707q0 -317 174 -512t471 -195q298 0 470 195q173 196 173 512t-173 512q-172 194 -470 194t-471 -194 q-174 -195 -174 -512zM467 1649q-8 6 16 34q68 74 150 74q58 0 149 -52t148 -52q68 0 125 63q1 2 4 5l4 4q2 2 4 5t3 4q4 4 7 6q5 3 6 3t7 -2q6 -6 -19 -37q-66 -72 -147 -72q-60 0 -151 52q-92 53 -146 53q-64 0 -125 -64q-4 -4 -7 -8q-2 -3 -7 -7l-1 -1l-3 -2l-4 -4 q-4 -4 -7 -4q-1 0 -3 1t-3 1z" />
<glyph unicode="&#xd6;" horiz-adv-x="1562" d="M117 707q0 316 176 522q175 205 489 205q313 0 488 -205q176 -206 176 -522q0 -317 -176 -523q-174 -204 -488 -204q-315 0 -489 204q-176 206 -176 523zM137 707q0 -317 174 -512t471 -195q298 0 470 195q173 196 173 512t-173 512q-172 194 -470 194t-471 -194 q-174 -195 -174 -512zM618 1690q0 28 29 28t29 -28q0 -29 -29 -29t-29 29zM885 1690q0 28 28 28q29 0 29 -28q0 -29 -29 -29q-28 0 -28 29z" />
<glyph unicode="&#xd7;" horiz-adv-x="983" d="M221 397q-6 8 23 37l239 238l-241 241q-27 29 -21 35q7 7 35 -20l242 -242l243 242q27 27 35 20t-20 -35l-244 -241l242 -238q30 -29 22 -37t-37 23l-241 237l-238 -235q-33 -33 -39 -25z" />
<glyph unicode="&#xd8;" horiz-adv-x="1521" d="M117 707q0 321 167 524t478 203q129 0 233 -37l47 129q21 47 29 49q8 -5 -10 -57l-47 -129q190 -73 291 -255q100 -181 100 -427q0 -322 -167 -525q-166 -202 -476 -202q-135 0 -236 36l-45 -125q-22 -49 -30 -49q-8 5 10 58l43 125q-189 73 -288 255t-99 427zM137 707 q0 -245 97 -418q97 -174 278 -246l477 1333q-110 37 -227 37q-295 0 -460 -193q-165 -194 -165 -513zM532 37q101 -37 230 -37q295 0 459 194q163 193 163 513q0 244 -97 417q-98 175 -279 246z" />
<glyph unicode="&#xd9;" horiz-adv-x="1523" d="M78 1403q0 10 10 10h369q10 0 10 -10t-10 -10h-174v-783q0 -299 109 -454q110 -156 370 -156t370 156q109 155 109 454v783h-174q-10 0 -10 10t10 10h369q10 0 10 -10t-10 -10h-174v-781q0 -308 -112 -471q-110 -161 -388 -161t-388 161q-112 163 -112 471v781h-174 q-10 0 -10 10zM434 1829q4 10 41 -10l383 -209q33 -16 27 -27t-39 10l-381 207q-31 22 -31 29z" />
<glyph unicode="&#xda;" horiz-adv-x="1523" d="M78 1403q0 10 10 10h369q10 0 10 -10t-10 -10h-174v-783q0 -299 109 -454q110 -156 370 -156t370 156q109 155 109 454v783h-174q-10 0 -10 10t10 10h369q10 0 10 -10t-10 -10h-174v-781q0 -308 -112 -471q-110 -161 -388 -161t-388 161q-112 163 -112 471v781h-174 q-10 0 -10 10zM618 1587q-1 10 25 25q3 1 6 4l381 207q33 21 39 10t-27 -27l-383 -209q-37 -20 -41 -10z" />
<glyph unicode="&#xdb;" horiz-adv-x="1523" d="M78 1403q0 10 10 10h369q10 0 10 -10t-10 -10h-174v-783q0 -299 109 -454q110 -156 370 -156t370 156q109 155 109 454v783h-174q-10 0 -10 10t10 10h369q10 0 10 -10t-10 -10h-174v-781q0 -308 -112 -471q-110 -161 -388 -161t-388 161q-112 163 -112 471v781h-174 q-10 0 -10 10zM453 1571q-6 10 24 28l264 156q32 19 45 19q6 0 41 -19l256 -151q44 -23 33 -35q-6 -8 -47 16l-285 168l-292 -170q-34 -21 -39 -12z" />
<glyph unicode="&#xdc;" horiz-adv-x="1523" d="M78 1403q0 10 10 10h369q10 0 10 -10t-10 -10h-174v-783q0 -299 109 -454q110 -156 370 -156t370 156q109 155 109 454v783h-174q-10 0 -10 10t10 10h369q10 0 10 -10t-10 -10h-174v-781q0 -308 -112 -471q-110 -161 -388 -161t-388 161q-112 163 -112 471v781h-174 q-10 0 -10 10zM625 1690q0 28 28 28q29 0 29 -28q0 -29 -29 -29q-28 0 -28 29zM891 1690q0 28 29 28q28 0 28 -28q0 -29 -28 -29q-29 0 -29 29z" />
<glyph unicode="&#xdd;" horiz-adv-x="1327" d="M6 1403q0 10 10 10h349q10 0 10 -10t-10 -10h-191l498 -740l483 740h-192q-11 0 -11 10t11 10h348q10 0 10 -10t-10 -10h-131l-498 -762v-611h215q10 0 10 -10t-10 -10h-451q-10 0 -10 10t10 10h216v611l-512 762h-134q-10 0 -10 10zM557 1587q-1 10 25 25q3 1 6 4 l381 207q33 21 39 10t-27 -27l-383 -209q-37 -20 -41 -10z" />
<glyph unicode="&#xde;" horiz-adv-x="1140" d="M88 10q0 10 10 10h174v1373h-174q-10 0 -10 10t10 10h389q11 0 11 -10t-11 -10h-194v-164q181 31 315 31q486 0 486 -418q0 -432 -519 -432q-169 0 -282 20v-410h194q11 0 11 -10t-11 -10h-389q-10 0 -10 10zM293 451q117 -21 285 -21q495 0 495 412q0 196 -119 297 q-118 100 -346 100q-152 0 -315 -31v-757z" />
<glyph unicode="&#xdf;" horiz-adv-x="1058" d="M47 -399q0 10 10 10h154v1409q0 230 75 321q76 93 267 93q167 0 240 -67q71 -65 71 -167q0 -71 -40 -133q-41 -64 -88 -102q-46 -37 -88 -92q-40 -52 -40 -101q0 -42 39 -86q36 -40 93 -83q70 -53 110 -86q55 -46 94 -114q39 -67 39 -147q0 -124 -78 -200 q-77 -76 -227 -76q-148 0 -246 36l-6 4q-3 1 -7.5 3t-5.5 2l-16 6q-13 5 -15 7q-1 1 -3 2.5t-4.5 3t-4.5 2.5q-8 4 -6 9q1 3 1 8q2 0 4.5 0.5t4 1t3 0.5h2.5q5 -1 27 -12q21 -10 38 -16q101 -37 232 -37q148 0 217 72q70 73 70 182q0 78 -39 144q-40 68 -95 111 q-69 54 -109 83q-54 39 -93 84t-39 94q0 57 40 110q41 55 88 93t88 99q40 59 40 126q0 215 -293 215q-175 0 -247 -82q-73 -84 -73 -305v-1415h154q10 0 10 -10q0 -11 -10 -11h-328q-10 0 -10 11z" />
<glyph unicode="&#xe0;" horiz-adv-x="1077" d="M55 256q0 118 74 197q72 77 171 104q98 27 214 27q162 0 332 -35v119q0 164 -80 250t-260 86q-146 0 -322 -78q-23 -10 -28 -4q-6 10 18 22q169 80 336 80q356 0 356 -348v-656h154q10 0 10 -10t-10 -10h-164q-10 0 -10 12v359q-34 -173 -168 -282q-133 -109 -311 -109 q-141 0 -226 70q-86 71 -86 206zM76 256q0 -118 77 -187t216 -69q213 0 345 147t132 324v59q-175 33 -330 33q-198 0 -319 -79t-121 -228zM170 1493q6 11 37 -12l330 -213q29 -18 24 -29q-6 -11 -37 10l-329 213q-32 21 -25 31z" />
<glyph unicode="&#xe1;" horiz-adv-x="1077" d="M55 256q0 118 74 197q72 77 171 104q98 27 214 27q162 0 332 -35v119q0 164 -80 250t-260 86q-146 0 -322 -78q-23 -10 -28 -4q-6 10 18 22q169 80 336 80q356 0 356 -348v-656h154q10 0 10 -10t-10 -10h-164q-10 0 -10 12v359q-34 -173 -168 -282q-133 -109 -311 -109 q-141 0 -226 70q-86 71 -86 206zM76 256q0 -118 77 -187t216 -69q213 0 345 147t132 324v59q-175 33 -330 33q-198 0 -319 -79t-121 -228zM373 1241q-5 9 24 27l330 213q30 21 37 12q6 -10 -25 -29l-327 -211q-34 -23 -39 -12z" />
<glyph unicode="&#xe2;" horiz-adv-x="1077" d="M55 256q0 118 74 197q72 77 171 104q98 27 214 27q162 0 332 -35v119q0 164 -80 250t-260 86q-146 0 -322 -78q-23 -10 -28 -4q-6 10 18 22q169 80 336 80q356 0 356 -348v-656h154q10 0 10 -10t-10 -10h-164q-10 0 -10 12v359q-34 -173 -168 -282q-133 -109 -311 -109 q-141 0 -226 70q-86 71 -86 206zM76 256q0 -118 77 -187t216 -69q213 0 345 147t132 324v59q-175 33 -330 33q-198 0 -319 -79t-121 -228zM227 1241q-4 7 27 35l209 178q24 21 37 21q10 0 37 -21l206 -176q37 -28 29 -39q-6 -6 -45 23l-227 192l-232 -194q-35 -27 -41 -19z " />
<glyph unicode="&#xe3;" horiz-adv-x="1077" d="M55 256q0 118 74 197q72 77 171 104q98 27 214 27q162 0 332 -35v119q0 164 -80 250t-260 86q-146 0 -322 -78q-23 -10 -28 -4q-6 10 18 22q169 80 336 80q356 0 356 -348v-656h154q10 0 10 -10t-10 -10h-164q-10 0 -10 12v359q-34 -173 -168 -282q-133 -109 -311 -109 q-141 0 -226 70q-86 71 -86 206zM76 256q0 -118 77 -187t216 -69q213 0 345 147t132 324v59q-175 33 -330 33q-198 0 -319 -79t-121 -228zM201 1282q-8 6 16 35q67 78 145 78q56 0 138 -57q81 -56 133 -56q58 0 125 70q24 29 33 22q7 -6 -17 -35q-68 -77 -145 -77 q-56 0 -136 56t-135 56q-59 0 -122 -67q-1 -2 -4 -5.5t-5 -4.5q-2 -2 -4 -4.5t-3 -3.5q-4 -4 -7 -6q-5 -3 -6 -3z" />
<glyph unicode="&#xe4;" horiz-adv-x="1077" d="M55 256q0 118 74 197q72 77 171 104q98 27 214 27q162 0 332 -35v119q0 164 -80 250t-260 86q-146 0 -322 -78q-23 -10 -28 -4q-6 10 18 22q169 80 336 80q356 0 356 -348v-656h154q10 0 10 -10t-10 -10h-164q-10 0 -10 12v359q-34 -173 -168 -282q-133 -109 -311 -109 q-141 0 -226 70q-86 71 -86 206zM76 256q0 -118 77 -187t216 -69q213 0 345 147t132 324v59q-175 33 -330 33q-198 0 -319 -79t-121 -228zM360 1341q0 29 29 29t29 -29q0 -28 -29 -28t-29 28zM606 1341q0 29 29 29t29 -29q0 -28 -29 -28t-29 28z" />
<glyph unicode="&#xe5;" horiz-adv-x="1077" d="M55 256q0 118 74 197q72 77 171 104q98 27 214 27q162 0 332 -35v119q0 164 -80 250t-260 86q-146 0 -322 -78q-23 -10 -28 -4q-6 10 18 22q169 80 336 80q356 0 356 -348v-656h154q10 0 10 -10t-10 -10h-164q-10 0 -10 12v359q-34 -173 -168 -282q-133 -109 -311 -109 q-141 0 -226 70q-86 71 -86 206zM76 256q0 -118 77 -187t216 -69q213 0 345 147t132 324v59q-175 33 -330 33q-198 0 -319 -79t-121 -228zM336 1376q0 80 46 125q47 45 124 45q78 0 124 -45t46 -125t-46 -125t-124 -45t-124 45t-46 125zM356 1376q0 -67 41 -108t109 -41 q67 0 108 41t41 108q0 68 -41 109t-108 41q-68 0 -109 -41t-41 -109z" />
<glyph unicode="&#xe6;" horiz-adv-x="1800" d="M55 240q0 315 439 315h352v111q0 338 -340 338q-161 0 -320 -78q-26 -11 -30 -4q-6 10 18 22q169 80 336 80q192 0 277 -97t75 -300q27 181 150 289t303 108q190 0 289 -102q98 -101 98 -254q0 -76 -8 -113q-6 -20 -27 -20h-801v-62q5 -231 124 -352q120 -121 331 -121 q189 0 326 111q16 14 22 8q6 -8 -12 -25q-135 -114 -336 -114q-205 0 -325 108q-119 107 -140 309q-30 -177 -167 -298q-135 -119 -320 -119q-144 0 -228 65q-86 66 -86 195zM76 242q0 -112 77 -177t216 -65q207 0 342 145t135 320v70h-357q-413 0 -413 -293zM868 555h805 q8 35 8 109q0 156 -100 247q-102 93 -268 93q-185 0 -307 -121q-123 -122 -138 -328z" />
<glyph unicode="&#xe7;" horiz-adv-x="976" d="M96 487q0 243 142 391q140 146 354 146q159 0 268 -53q33 -17 33 -31v-229q0 -13 -10 -13q-11 0 -11 13v229q-119 64 -280 64q-207 0 -341 -142t-134 -370q0 -243 118 -367q119 -125 328 -125q185 0 322 102q29 21 33 17q12 -8 -17 -29q-140 -110 -338 -110h-20l-35 -142 q237 0 237 -174q0 -81 -52 -127q-53 -47 -148 -47q-85 0 -148 29q-26 15 -22 22q5 8 31 -4q59 -26 139 -26q88 0 134 40t46 111q0 158 -227 158q-15 0 -11 14l37 148q-207 10 -317 140q-111 130 -111 365z" />
<glyph unicode="&#xe8;" horiz-adv-x="1050" d="M96 502q0 229 126 376q125 146 337 146q196 0 295 -106q98 -105 98 -267q0 -102 -10 -141q-6 -21 -24 -21h-801q1 -242 121 -366q118 -123 333 -123q189 0 326 111q16 15 23 8q8 -8 -13 -25q-135 -114 -336 -114q-235 0 -355 135t-120 387zM117 510h805q10 49 10 141 q0 168 -103 260q-104 93 -272 93q-191 0 -315 -133t-125 -361zM233 1493q6 11 37 -12l330 -213q29 -19 25 -29q-6 -11 -37 10l-330 213q-32 21 -25 31z" />
<glyph unicode="&#xe9;" horiz-adv-x="1050" d="M96 502q0 229 126 376q125 146 337 146q196 0 295 -106q98 -105 98 -267q0 -102 -10 -141q-6 -21 -24 -21h-801q1 -242 121 -366q118 -123 333 -123q189 0 326 111q16 15 23 8q8 -8 -13 -25q-135 -114 -336 -114q-235 0 -355 135t-120 387zM117 510h805q10 49 10 141 q0 168 -103 260q-104 93 -272 93q-191 0 -315 -133t-125 -361zM436 1241q-5 8 25 27l330 213q29 20 36 12q6 -11 -24 -29l-328 -211q-33 -23 -39 -12z" />
<glyph unicode="&#xea;" horiz-adv-x="1050" d="M96 502q0 229 126 376q125 146 337 146q196 0 295 -106q98 -105 98 -267q0 -102 -10 -141q-6 -21 -24 -21h-801q1 -242 121 -366q118 -123 333 -123q189 0 326 111q16 15 23 8q8 -8 -13 -25q-135 -114 -336 -114q-235 0 -355 135t-120 387zM117 510h805q10 49 10 141 q0 168 -103 260q-104 93 -272 93q-191 0 -315 -133t-125 -361zM293 1241q-5 8 26 35l209 178q24 21 37 21q10 0 37 -21l207 -176q37 -28 29 -39q-6 -6 -45 23l-228 192l-231 -194q-35 -27 -41 -19z" />
<glyph unicode="&#xeb;" horiz-adv-x="1050" d="M96 502q0 229 126 376q125 146 337 146q196 0 295 -106q98 -105 98 -267q0 -102 -10 -141q-6 -21 -24 -21h-801q1 -242 121 -366q118 -123 333 -123q189 0 326 111q16 15 23 8q8 -8 -13 -25q-135 -114 -336 -114q-235 0 -355 135t-120 387zM117 510h805q10 49 10 141 q0 168 -103 260q-104 93 -272 93q-191 0 -315 -133t-125 -361zM414 1341q0 29 28 29q29 0 29 -29q0 -28 -29 -28q-28 0 -28 28zM659 1341q0 29 29 29t29 -29q0 -28 -29 -28t-29 28z" />
<glyph unicode="&#xec;" horiz-adv-x="442" d="M-88 1493q6 11 37 -12l330 -213q29 -18 24 -29q-6 -11 -37 10l-329 213q-32 21 -25 31zM55 10q0 10 11 10h327q10 0 10 -10t-10 -10h-327q-11 0 -11 10zM55 993q0 11 11 11h163v-21h-163q-11 0 -11 10zM219 12v979q0 13 10 13q11 0 11 -13v-979q0 -12 -11 -12 q-10 0 -10 12z" />
<glyph unicode="&#xed;" horiz-adv-x="442" d="M47 10q0 10 10 10h328q10 0 10 -10t-10 -10h-328q-10 0 -10 10zM47 993q0 11 10 11h164v-21h-164q-10 0 -10 10zM184 1241q-5 8 25 27l330 213q29 20 36 12q6 -11 -24 -29l-328 -211q-35 -23 -39 -12zM211 12v979q0 13 10 13t10 -13v-979q0 -12 -10 -12t-10 12z" />
<glyph unicode="&#xee;" horiz-adv-x="442" d="M-49 1241q-5 8 26 35l209 178q27 21 37 21t37 -21l207 -176q37 -28 29 -39q-6 -6 -45 23l-228 192l-231 -194q-35 -27 -41 -19zM51 10q0 10 10 10h328q10 0 10 -10t-10 -10h-328q-10 0 -10 10zM51 993q0 11 10 11h164v-21h-164q-10 0 -10 10zM215 12v979q0 13 10 13 q11 0 11 -13v-979q0 -12 -11 -12q-10 0 -10 12z" />
<glyph unicode="&#xef;" horiz-adv-x="442" d="M27 1341q0 29 28 29q29 0 29 -29q0 -28 -29 -28q-28 0 -28 28zM47 10q0 10 10 10h328q10 0 10 -10t-10 -10h-328q-10 0 -10 10zM47 993q0 11 10 11h164v-21h-164q-10 0 -10 10zM211 12v979q0 13 10 13t10 -13v-979q0 -12 -10 -12t-10 12zM231 1341q0 29 29 29t29 -29 q0 -28 -29 -28t-29 28z" />
<glyph unicode="&#xf0;" horiz-adv-x="1126" d="M96 502q0 248 123 385t346 137q154 0 273 -84t174 -227q-27 429 -310 583l-206 -147q-28 -18 -33 -10q-5 7 18 24l203 144q-174 86 -387 86q-18 0 -18 10t16 10q232 0 407 -92l129 92q33 24 39 17q5 -6 -26 -31l-121 -88q307 -175 307 -656q0 -304 -112 -489 q-112 -186 -353 -186q-223 0 -346 142t-123 380zM117 502q0 -229 121 -365q122 -137 327 -137q445 0 445 680q-52 140 -171 232t-274 92q-216 0 -333 -135q-115 -133 -115 -367z" />
<glyph unicode="&#xf1;" horiz-adv-x="1232" d="M47 10q0 10 10 10h154v963h-154q-10 0 -10 10q0 11 10 11h164q10 0 10 -13v-411q28 204 147 324q118 120 300 120q344 0 344 -412v-592h154q10 0 10 -10t-10 -10h-164q-11 0 -11 12v598q0 187 -73 290q-74 104 -252 104q-145 0 -249 -83q-102 -81 -149 -209 q-47 -127 -47 -276v-416h154q10 0 10 -10t-10 -10h-328q-10 0 -10 10zM332 1282q-8 6 16 35q67 78 146 78q54 0 137 -57q81 -56 133 -56q58 0 125 70q24 29 33 22q7 -6 -17 -35q-68 -77 -145 -77q-56 0 -136 56t-135 56q-59 0 -122 -67q-2 -2 -5 -5.5t-4 -4.5q-2 -2 -4 -4.5 t-3 -3.5q-4 -4 -7 -6q-4 -3 -6 -3q-1 0 -3 1t-3 1z" />
<glyph unicode="&#xf2;" horiz-adv-x="1153" d="M96 502q0 236 127 379t352 143q228 0 355 -143t127 -379q0 -238 -127 -380t-355 -142q-225 0 -352 142t-127 380zM117 502q0 -232 123 -367t335 -135q215 0 338 134t123 368q0 231 -123 366q-124 136 -338 136q-211 0 -335 -136q-123 -135 -123 -366zM254 1493 q6 11 37 -12l330 -213q29 -18 24 -29q-6 -11 -37 10l-329 213q-32 21 -25 31z" />
<glyph unicode="&#xf3;" horiz-adv-x="1153" d="M96 502q0 236 127 379t352 143q228 0 355 -143t127 -379q0 -238 -127 -380t-355 -142q-225 0 -352 142t-127 380zM117 502q0 -232 123 -367t335 -135q215 0 338 134t123 368q0 231 -123 366q-124 136 -338 136q-211 0 -335 -136q-123 -135 -123 -366zM459 1241 q-5 9 24 27l330 213q30 21 37 12q6 -10 -25 -29l-327 -211q-34 -23 -39 -12z" />
<glyph unicode="&#xf4;" horiz-adv-x="1153" d="M96 502q0 236 127 379t352 143q228 0 355 -143t127 -379q0 -238 -127 -380t-355 -142q-225 0 -352 142t-127 380zM117 502q0 -232 123 -367t335 -135q215 0 338 134t123 368q0 231 -123 366q-124 136 -338 136q-211 0 -335 -136q-123 -135 -123 -366zM301 1241 q-4 7 27 35l209 178q24 21 36 21q10 0 37 -21l207 -176q37 -28 29 -39q-6 -6 -45 23l-228 192l-231 -194q-35 -27 -41 -19z" />
<glyph unicode="&#xf5;" horiz-adv-x="1153" d="M96 502q0 236 127 379t352 143q228 0 355 -143t127 -379q0 -238 -127 -380t-355 -142q-225 0 -352 142t-127 380zM117 502q0 -232 123 -367t335 -135q215 0 338 134t123 368q0 231 -123 366q-124 136 -338 136q-211 0 -335 -136q-123 -135 -123 -366zM281 1282 q-8 6 16 35q68 78 145 78q56 0 138 -57q81 -56 133 -56q58 0 125 70q24 28 32 22t-16 -35q-68 -77 -145 -77q-57 0 -137 56t-134 56q-60 0 -123 -67q-1 -1 -4 -5t-4 -5q-2 -2 -4 -4.5t-3 -3.5q-4 -4 -7 -6q-5 -3 -6 -3t-3 1t-3 1z" />
<glyph unicode="&#xf6;" horiz-adv-x="1153" d="M96 502q0 236 127 379t352 143q228 0 355 -143t127 -379q0 -238 -127 -380t-355 -142q-225 0 -352 142t-127 380zM117 502q0 -232 123 -367t335 -135q215 0 338 134t123 368q0 231 -123 366q-124 136 -338 136q-211 0 -335 -136q-123 -135 -123 -366zM424 1341 q0 29 29 29q28 0 28 -29q0 -28 -28 -28q-29 0 -29 28zM670 1341q0 29 28 29q29 0 29 -29q0 -28 -29 -28q-28 0 -28 28z" />
<glyph unicode="&#xf7;" horiz-adv-x="983" d="M96 672q0 10 10 10h771q10 0 10 -10t-10 -10h-771q-10 0 -10 10zM453 387q0 29 28 29q29 0 29 -29t-29 -29q-28 0 -28 29zM453 956q0 29 28 29q29 0 29 -29q0 -28 -29 -28q-28 0 -28 28z" />
<glyph unicode="&#xf8;" horiz-adv-x="1153" d="M96 502q0 236 127 379t352 143q88 0 168 -25l48 131q22 49 28 50q8 -5 -10 -58l-47 -129q142 -51 218 -181q77 -131 77 -310q0 -238 -127 -380t-355 -142q-81 0 -165 24l-45 -129q-22 -49 -31 -49q-8 5 10 57l45 127q-140 51 -217 180q-76 128 -76 312zM117 502 q0 -177 73 -299t207 -172l340 948q-72 25 -162 25q-211 0 -335 -136q-123 -135 -123 -366zM416 23q80 -23 159 -23q215 0 338 134t123 368q0 177 -73 299t-207 172z" />
<glyph unicode="&#xf9;" horiz-adv-x="1232" d="M47 993q0 11 10 11h164q10 0 10 -13v-596q0 -185 74 -291q73 -104 252 -104q145 0 249 83q102 81 149 209q46 125 46 275v416h-153q-10 0 -10 10q0 11 10 11h164q10 0 10 -13v-971h154q10 0 10 -10t-10 -10h-164q-11 0 -11 12v412q-28 -205 -147 -325 q-118 -119 -299 -119q-344 0 -344 411v592h-154q-10 0 -10 10zM334 1493q6 11 37 -12l329 -213q29 -19 25 -29q-6 -11 -37 10l-330 213q-32 20 -24 31z" />
<glyph unicode="&#xfa;" horiz-adv-x="1232" d="M47 993q0 11 10 11h164q10 0 10 -13v-596q0 -185 74 -291q73 -104 252 -104q145 0 249 83q102 81 149 209q46 125 46 275v416h-153q-10 0 -10 10q0 11 10 11h164q10 0 10 -13v-971h154q10 0 10 -10t-10 -10h-164q-11 0 -11 12v412q-28 -205 -147 -325 q-118 -119 -299 -119q-344 0 -344 411v592h-154q-10 0 -10 10zM547 1241q-5 9 24 27l330 213q30 21 37 12q6 -10 -25 -29l-327 -211q-33 -23 -39 -12z" />
<glyph unicode="&#xfb;" horiz-adv-x="1232" d="M47 993q0 11 10 11h164q10 0 10 -13v-596q0 -185 74 -291q73 -104 252 -104q145 0 249 83q102 81 149 209q46 125 46 275v416h-153q-10 0 -10 10q0 11 10 11h164q10 0 10 -13v-971h154q10 0 10 -10t-10 -10h-164q-11 0 -11 12v412q-28 -205 -147 -325 q-118 -119 -299 -119q-344 0 -344 411v592h-154q-10 0 -10 10zM342 1241q-4 7 27 35l209 178q24 21 36 21q10 0 37 -21l207 -176q37 -28 29 -39q-6 -6 -45 23l-228 192l-231 -194q-35 -27 -41 -19z" />
<glyph unicode="&#xfc;" horiz-adv-x="1232" d="M47 993q0 11 10 11h164q10 0 10 -13v-596q0 -185 74 -291q73 -104 252 -104q145 0 249 83q102 81 149 209q46 125 46 275v416h-153q-10 0 -10 10q0 11 10 11h164q10 0 10 -13v-971h154q10 0 10 -10t-10 -10h-164q-11 0 -11 12v412q-28 -205 -147 -325 q-118 -119 -299 -119q-344 0 -344 411v592h-154q-10 0 -10 10zM459 1341q0 29 28 29q29 0 29 -29q0 -28 -29 -28q-28 0 -28 28zM705 1341q0 29 28 29q29 0 29 -29q0 -28 -29 -28q-28 0 -28 28z" />
<glyph unicode="&#xfd;" horiz-adv-x="1155" d="M6 993q0 11 10 11h301q11 0 11 -11q0 -10 -11 -10h-157l422 -969l411 969h-155q-11 0 -11 10q0 11 11 11h301q10 0 10 -11q0 -10 -10 -10h-121l-473 -1102q-72 -167 -136 -238q-65 -73 -161 -73q-95 0 -158 39q-23 14 -16 24q4 4 28 -8q70 -35 152 -35q20 0 48 7 q24 6 45 21q23 17 38 30q16 15 34 40q3 5 13 19.5t15 20.5q13 16 27 46l21 42q9 21 18 41q13 29 13 32l43 97l-434 997h-119q-10 0 -10 10zM485 1241q-5 8 25 27l330 213q30 21 37 12q6 -10 -25 -29l-328 -211q-33 -23 -39 -12z" />
<glyph unicode="&#xfe;" horiz-adv-x="1163" d="M47 -399q0 10 10 10h154v1782h-154q-10 0 -10 10t10 10h164q10 0 10 -12v-821q24 197 142 321q117 123 305 123q192 0 291 -133q98 -132 98 -356q0 -253 -117 -404t-354 -151q-208 0 -365 94v-463h154q10 0 10 -10q0 -11 -10 -11h-328q-10 0 -10 11zM231 96 q179 -96 367 -96q230 0 339 150q110 151 110 385q0 214 -95 342q-94 127 -280 127q-213 0 -327 -165t-114 -403v-340z" />
<glyph unicode="&#xff;" horiz-adv-x="1155" d="M6 993q0 11 10 11h301q11 0 11 -11q0 -10 -11 -10h-157l422 -969l411 969h-155q-11 0 -11 10q0 11 11 11h301q10 0 10 -11q0 -10 -10 -10h-121l-473 -1102q-72 -167 -136 -238q-65 -73 -161 -73q-95 0 -158 39q-23 14 -16 24q4 4 28 -8q70 -35 152 -35q20 0 48 7 q24 6 45 21q23 17 38 30q16 15 34 40q3 5 13 19.5t15 20.5q13 16 27 46l21 42q9 21 18 41q13 29 13 32l43 97l-434 997h-119q-10 0 -10 10zM426 1341q0 29 29 29q28 0 28 -29q0 -28 -28 -28q-29 0 -29 28zM672 1341q0 29 28 29q29 0 29 -29q0 -28 -29 -28q-28 0 -28 28z" />
<glyph unicode="&#x152;" horiz-adv-x="2017" d="M117 707q0 321 167 524t478 203q193 0 338 -86v53q0 12 12 12h799q10 0 10 -12v-291q0 -12 -10 -12t-10 12v283h-781v-643h680q10 0 10 -11q0 -10 -10 -10h-680v-709h789v304q0 12 10 12t10 -12v-312q0 -12 -10 -12h-807q-12 0 -12 12v51q-144 -83 -338 -83 q-312 0 -478 202q-167 203 -167 525zM137 707q0 -319 165 -513t460 -194q192 0 338 90v1233q-145 90 -338 90q-295 0 -460 -193q-165 -194 -165 -513z" />
<glyph unicode="&#x153;" horiz-adv-x="1755" d="M96 502q0 236 130 379t356 143q217 0 354 -137q128 137 328 137q196 0 295 -106q98 -105 98 -267q0 -91 -12 -141q-6 -21 -25 -21h-799q1 -242 121 -366q118 -123 334 -123q190 0 326 111q16 14 22 8q9 -9 -12 -25q-135 -114 -336 -114q-232 0 -348 126 q-132 -126 -346 -126q-226 0 -356 142t-130 380zM117 502q0 -232 126 -367t339 -135q195 0 331 121q-112 133 -112 381q0 224 123 370q-129 132 -342 132q-212 0 -339 -136q-126 -135 -126 -366zM821 510h803q12 62 12 141q0 169 -102 260q-104 93 -272 93q-192 0 -316 -133 t-125 -361z" />
<glyph unicode="&#x178;" horiz-adv-x="1327" d="M6 1403q0 10 10 10h349q10 0 10 -10t-10 -10h-191l498 -740l483 740h-192q-11 0 -11 10t11 10h348q10 0 10 -10t-10 -10h-131l-498 -762v-611h215q10 0 10 -10t-10 -10h-451q-10 0 -10 10t10 10h216v611l-512 762h-134q-10 0 -10 10zM504 1690q0 28 28 28q29 0 29 -28 q0 -29 -29 -29q-28 0 -28 29zM770 1690q0 28 29 28q28 0 28 -28q0 -29 -28 -29q-29 0 -29 29z" />
<glyph unicode="&#x2c6;" horiz-adv-x="1073" d="M266 1241q-4 7 27 35l209 178q24 21 37 21q9 0 36 -21l207 -176q37 -28 29 -39q-6 -6 -45 23l-227 192l-232 -194q-35 -27 -41 -19z" />
<glyph unicode="&#x2dc;" horiz-adv-x="1073" d="M250 1282q-8 6 16 35q68 78 146 78q54 0 137 -57q81 -56 133 -56q58 0 125 70q24 29 33 22q7 -6 -17 -35q-68 -77 -145 -77q-56 0 -136 56t-134 56q-60 0 -123 -67q-2 -2 -5 -5.5t-4 -4.5q-2 -2 -4 -4.5t-3 -3.5q-4 -4 -7 -6q-4 -3 -6 -3z" />
<glyph unicode="&#x2000;" horiz-adv-x="918" />
<glyph unicode="&#x2001;" horiz-adv-x="1836" />
<glyph unicode="&#x2002;" horiz-adv-x="918" />
<glyph unicode="&#x2003;" horiz-adv-x="1836" />
<glyph unicode="&#x2004;" horiz-adv-x="612" />
<glyph unicode="&#x2005;" horiz-adv-x="459" />
<glyph unicode="&#x2006;" horiz-adv-x="306" />
<glyph unicode="&#x2007;" horiz-adv-x="306" />
<glyph unicode="&#x2008;" horiz-adv-x="229" />
<glyph unicode="&#x2009;" horiz-adv-x="367" />
<glyph unicode="&#x200a;" horiz-adv-x="102" />
<glyph unicode="&#x2010;" horiz-adv-x="675" d="M35 557q0 10 10 10h586q10 0 10 -10t-10 -10h-586q-10 0 -10 10z" />
<glyph unicode="&#x2011;" horiz-adv-x="675" d="M35 557q0 10 10 10h586q10 0 10 -10t-10 -10h-586q-10 0 -10 10z" />
<glyph unicode="&#x2012;" horiz-adv-x="675" d="M35 557q0 10 10 10h586q10 0 10 -10t-10 -10h-586q-10 0 -10 10z" />
<glyph unicode="&#x2013;" horiz-adv-x="675" d="M35 557q0 10 10 10h586q10 0 10 -10t-10 -10h-586q-10 0 -10 10z" />
<glyph unicode="&#x2014;" horiz-adv-x="1224" d="M35 557q0 10 10 10h1135q10 0 10 -10t-10 -10h-1135q-10 0 -10 10z" />
<glyph unicode="&#x2018;" horiz-adv-x="385" d="M59 1432q8 6 25 -25q1 -3 4 -6l191 -357q21 -38 14 -43q-7 -4 -13 3q-7 10 -20 30l-190 355q-21 39 -11 43z" />
<glyph unicode="&#x2019;" horiz-adv-x="385" d="M66 1001q-7 5 14 43l190 357q23 31 29 31q11 -5 -10 -43l-191 -355q-18 -28 -19 -30q-6 -7 -13 -3z" />
<glyph unicode="&#x201a;" horiz-adv-x="385" d="M25 -332q-7 5 14 43l190 357q23 30 29 30q11 -5 -10 -43l-191 -354q-4 -6 -8.5 -13.5t-7 -11.5t-3.5 -6q-5 -7 -13 -2z" />
<glyph unicode="&#x201c;" horiz-adv-x="610" d="M90 1432q8 6 25 -25q1 -3 4 -6l190 -357q21 -39 15 -43q-8 -5 -14 3q-1 2 -19 30l-191 355q-21 38 -10 43zM315 1432q8 6 25 -25q1 -3 4 -6l191 -357q21 -38 14 -43q-7 -4 -13 3q-7 10 -20 30l-190 355q-21 39 -11 43z" />
<glyph unicode="&#x201d;" horiz-adv-x="610" d="M66 1001q-7 5 14 43l190 357q23 31 29 31q11 -5 -10 -43l-191 -355q-18 -28 -19 -30q-6 -7 -13 -3zM291 1001q-7 5 14 43l191 357q23 31 28 31q11 -5 -10 -43l-190 -355q-13 -20 -20 -30q-6 -7 -13 -3z" />
<glyph unicode="&#x201e;" horiz-adv-x="610" d="M25 -332q-7 5 14 43l190 357q23 30 29 30q11 -5 -10 -43l-191 -354q-4 -6 -8.5 -13.5t-7 -11.5t-3.5 -6q-5 -7 -13 -2zM250 -332q-7 5 14 43l191 357q23 30 28 30q11 -5 -10 -43l-190 -354q-16 -26 -20 -31q-5 -7 -13 -2z" />
<glyph unicode="&#x2022;" horiz-adv-x="413" d="M117 602q0 42 25 66t65 24q39 0 64 -24q26 -24 26 -66q0 -41 -26 -65q-27 -25 -64 -25q-38 0 -65 25q-25 24 -25 65z" />
<glyph unicode="&#x2026;" horiz-adv-x="1150" d="M137 29q0 28 29 28t29 -28q0 -29 -29 -29t-29 29zM547 29q0 28 28 28q29 0 29 -28q0 -29 -29 -29q-28 0 -28 29zM956 29q0 28 29 28t29 -28q0 -29 -29 -29t-29 29z" />
<glyph unicode="&#x202f;" horiz-adv-x="367" />
<glyph unicode="&#x2039;" horiz-adv-x="641" d="M137 489q-24 28 2 54l375 354q29 25 33 21q6 -6 -21 -33l-387 -369l387 -391q26 -26 21 -33q-6 -10 -35 19z" />
<glyph unicode="&#x203a;" horiz-adv-x="641" d="M113 92q-7 6 20 33l387 369l-387 391q-25 25 -20 33q5 10 34 -19l375 -379q24 -27 -2 -53l-375 -354q-29 -24 -32 -21z" />
<glyph unicode="&#x205f;" horiz-adv-x="459" />
<glyph unicode="&#x20ac;" d="M-47 573q0 11 10 11h174q-4 33 -4 116q0 84 8 154h-178q-10 0 -10 10t10 10h182q39 259 192 409q154 151 408 151q169 0 302 -60q28 -12 28 -26v-269q0 -12 -10 -12t-10 12v269q-133 65 -314 65q-243 0 -390 -147q-145 -145 -185 -392h649q10 0 10 -10t-10 -10h-651 q-10 -59 -10 -152q0 -53 4 -118h657q10 0 10 -11q0 -10 -10 -10h-655q53 -563 569 -563q207 0 328 72v293q0 12 10 12t10 -12v-293q0 -14 -41 -35q-114 -57 -309 -57q-539 0 -590 583h-174q-10 0 -10 10z" />
<glyph unicode="&#x2122;" horiz-adv-x="1914" d="M68 1182v219q0 12 12 12h655q8 0 8 -12v-219q0 -13 -10 -13t-10 13v211h-307v-731h133q10 0 10 -11q0 -10 -10 -10h-287q-10 0 -10 10q0 11 10 11h133v731h-307v-211q0 -13 -10 -13t-10 13zM815 651q0 11 10 11h123v731h-123q-10 0 -10 10t10 10h133q11 0 21 -16 l354 -551l353 551q10 16 18 16h133q10 0 10 -10t-10 -10h-123v-731h123q10 0 10 -11q0 -10 -10 -10h-266q-10 0 -10 10q0 11 10 11h123v712l-342 -536q-10 -15 -21 -15t-18 15l-344 532v-708h123q10 0 10 -11q0 -10 -10 -10h-267q-10 0 -10 10z" />
<glyph unicode="&#x25fc;" horiz-adv-x="1003" d="M0 0v1004h1004v-1004h-1004z" />
</font>
</defs>
</svg>
