<?xml version="1.0" standalone="no"?>
<!DOCTYPE svg PUBLIC "-//W3C//DTD SVG 1.1//EN" "http://www.w3.org/Graphics/SVG/1.1/DTD/svg11.dtd" >
<svg xmlns="http://www.w3.org/2000/svg">
<metadata></metadata>
<defs>
<font id="articulat_cfmedium" horiz-adv-x="1105" >
<font-face units-per-em="2048" ascent="1638" descent="-410" />
<missing-glyph horiz-adv-x="593" />
<glyph unicode="&#xfb01;" horiz-adv-x="1062" d="M37 934v131h151v119q0 71 16.5 123t42.5 81.5t65 47.5t75.5 23.5t83.5 6.5q67 0 152 -18v-125q-82 12 -129 12q-78 0 -113 -34t-35 -119v-117h262v-131h-262v-934h-158v934h-151zM786 0v1065h158v-1065h-158zM786 1280v154h158v-154h-158z" />
<glyph unicode="&#xfb02;" horiz-adv-x="1083" d="M37 934v131h151v119q0 71 16.5 123t42.5 81.5t65 47.5t75.5 23.5t83.5 6.5q67 0 152 -18v-125q-82 12 -129 12q-78 0 -113 -34t-35 -119v-117h262v-131h-262v-934h-158v934h-151zM807 0v1434h158v-1434h-158z" />
<glyph horiz-adv-x="0" />
<glyph horiz-adv-x="682" />
<glyph unicode=" "  horiz-adv-x="593" />
<glyph unicode="&#x09;" horiz-adv-x="593" />
<glyph unicode="&#xa0;" horiz-adv-x="593" />
<glyph unicode="!" horiz-adv-x="468" d="M147 397v1037h175v-1037h-175zM156 0v205h184v-205h-184z" />
<glyph unicode="&#x22;" horiz-adv-x="677" d="M123 1044h158v390h-158v-390zM438 1044h158v390h-158v-390z" />
<glyph unicode="#" horiz-adv-x="1210" d="M92 393v125h219l41 397h-209v125h222l38 394h121l-39 -394h301l39 394h121l-39 -394h211v-125h-223l-39 -397h211v-125h-223l-41 -393h-121l39 393h-301l-39 -393h-121l39 393h-207zM434 518h299l41 397h-301z" />
<glyph unicode="$" horiz-adv-x="1193" d="M88 403h166q19 -117 86.5 -188t208.5 -84v551l-60 12q-366 82 -366 381q0 160 110.5 261.5t315.5 111.5v170h98v-170q191 -12 297 -106.5t127 -258.5h-164q-15 96 -75 153t-185 67v-498l55 -12q101 -22 174.5 -54t129.5 -80.5t84 -118t28 -159.5q0 -180 -124.5 -283 t-346.5 -114v-168h-98v170q-211 13 -326.5 123t-134.5 294zM289 1073q0 -190 231 -239l29 -7v476q-134 -8 -197 -72t-63 -158zM647 131q155 7 230 72t75 178q0 118 -69 180.5t-195 89.5l-41 8v-528z" />
<glyph unicode="%" horiz-adv-x="1482" d="M92 1135q0 145 74 227t188 82q116 0 189 -82t73 -227q0 -147 -73 -230.5t-189 -83.5t-189 83.5t-73 230.5zM209 1135q0 -106 39.5 -156.5t107.5 -50.5q67 0 106.5 51t39.5 156q0 102 -39.5 151t-106.5 49q-68 0 -107.5 -48.5t-39.5 -151.5zM260 0l842 1436l121 -2 l-840 -1434h-123zM866 303q0 145 74 227t188 82q116 0 189.5 -82t73.5 -227q0 -147 -74.5 -230t-190.5 -83t-188 83t-72 230zM983 305q0 -106 39.5 -156.5t107.5 -50.5q67 0 106.5 51t39.5 156q0 102 -39.5 151.5t-106.5 49.5q-68 0 -107.5 -49t-39.5 -152z" />
<glyph unicode="&#x26;" horiz-adv-x="1372" d="M123 383q0 60 16.5 111t42 88t69 74t82.5 61.5t97 56.5l27 14q-85 94 -134 180t-49 181q0 139 95.5 228t269.5 89q165 0 258.5 -89.5t93.5 -227.5q0 -121 -74.5 -215t-232.5 -180l-2 -2l350 -381q79 123 121 309h150q-60 -261 -168 -418l170 -184l-109 -96l-154 168 q-173 -168 -440 -168q-213 0 -346 115t-133 286zM293 391q0 -112 87 -187t230 -75q194 0 332 129l-389 426l-55 -31q-205 -108 -205 -262zM414 1151q0 -72 42.5 -137.5t129.5 -157.5l28 16q119 61 179.5 127t60.5 152q0 89 -57.5 142t-157.5 53q-104 0 -164.5 -53.5 t-60.5 -141.5z" />
<glyph unicode="'" horiz-adv-x="362" d="M102 1047h158v387h-158v-387z" />
<glyph unicode="(" horiz-adv-x="538" d="M92 655q0 507 217 871h148q-207 -377 -207 -871q0 -523 207 -921h-148q-217 388 -217 921z" />
<glyph unicode=")" horiz-adv-x="538" d="M92 -266q207 398 207 921q0 494 -207 871h148q217 -364 217 -871q0 -533 -217 -921h-148z" />
<glyph unicode="*" horiz-adv-x="956" d="M154 1157l32 133l230 -69l-6 239h135l-4 -239l229 69l33 -133l-223 -59l145 -195l-115 -74l-131 191l-133 -191l-115 74l148 195zM440 1122l39 -32l37 32l-10 41h-55z" />
<glyph unicode="+" horiz-adv-x="1054" d="M92 508v139h361v363h147v-363h363v-139h-363v-363h-147v363h-361z" />
<glyph unicode="," horiz-adv-x="411" d="M102 -74v199h207v-254q0 -227 -205 -240v54q40 22 53 61.5t13 118.5v61h-68z" />
<glyph unicode="-" horiz-adv-x="878" d="M92 516v115h694v-115h-694z" />
<glyph unicode="." horiz-adv-x="389" d="M102 0v205h185v-205h-185z" />
<glyph unicode="/" horiz-adv-x="876" d="M82 0l555 1434h158l-557 -1434h-156z" />
<glyph unicode="0" horiz-adv-x="1267" d="M78 690v53q0 169 43 304.5t118.5 222t176 132.5t217.5 46q118 0 218.5 -46t176.5 -132.5t119 -222t43 -304.5v-53q0 -170 -43 -305.5t-119 -221.5t-176.5 -131.5t-218.5 -45.5q-117 0 -217 45.5t-176 131.5t-119 221.5t-43 305.5zM236 690q0 -260 105.5 -412.5 t291.5 -152.5q187 0 293 152.5t106 412.5v53q0 260 -106 414t-293 154q-186 0 -291.5 -154.5t-105.5 -413.5v-53z" />
<glyph unicode="1" horiz-adv-x="673" d="M82 1104v133q89 7 158.5 63t91.5 134h157v-1434h-157v1219q-40 -46 -107.5 -79t-142.5 -36z" />
<glyph unicode="2" d="M92 0v47q0 198 91 336.5t317 278.5q155 95 200 131q112 88 133 192q5 28 5 59q0 125 -81 195t-212 70q-132 0 -214.5 -77t-82.5 -228v-35h-154v35q0 202 119 323t332 121q210 0 331 -114.5t121 -289.5q0 -44 -7.5 -82.5t-24.5 -73.5t-35 -64t-50.5 -59.5t-58 -52.5 t-70 -51.5t-75.5 -48.5t-84 -51q-164 -100 -245 -197.5t-81 -218.5v-14h748v-131h-922z" />
<glyph unicode="3" horiz-adv-x="1196" d="M92 428h156q3 -141 98.5 -225t249.5 -84q155 0 252.5 75.5t97.5 217.5q0 141 -99 213.5t-288 72.5h-49v119h49q88 0 151 22t96.5 60t48.5 81t15 93q0 109 -78 173.5t-206 64.5q-133 0 -213 -74.5t-80 -222.5h-154q0 205 120.5 319.5t326.5 114.5q202 0 321 -105t119 -264 q0 -116 -68.5 -198t-189.5 -115q63 -9 121 -35t107 -68.5t78.5 -108t29.5 -144.5q0 -195 -137 -312.5t-373 -117.5q-230 0 -365 125.5t-137 322.5z" />
<glyph unicode="4" horiz-adv-x="1138" d="M82 383v131l663 920h158v-920h164v-131h-164v-383h-158v383h-663zM236 514h509v717z" />
<glyph unicode="5" horiz-adv-x="1200" d="M102 432h154q4 -140 100.5 -226.5t245.5 -86.5q155 0 251.5 92.5t96.5 267.5q0 116 -50.5 200t-126 122.5t-163.5 38.5q-193 0 -315 -150h-150l111 744h731v-131h-622l-74 -482q49 65 141 109.5t207 44.5q96 0 181 -34.5t149 -96.5t101.5 -156.5t37.5 -208.5 q0 -232 -135.5 -365.5t-370.5 -133.5q-228 0 -362.5 127t-137.5 325z" />
<glyph unicode="6" horiz-adv-x="1204" d="M102 678q0 122 15 228.5t53.5 208t97 174t151.5 116t212 43.5q106 0 191.5 -32.5t138.5 -86t82 -116.5t34 -130h-153q-16 101 -89 164.5t-204 63.5q-75 0 -135.5 -23.5t-101 -67.5t-69 -98.5t-43.5 -123.5t-21 -136.5t-5 -142.5q34 109 135 177.5t236 68.5 q133 0 242.5 -57t176 -170t66.5 -263q0 -231 -140 -363t-356 -132q-245 0 -379.5 182.5t-134.5 515.5zM283 479q0 -158 94 -259t239 -101q153 0 247.5 92t94.5 264q0 166 -95.5 262.5t-246.5 96.5q-143 0 -238 -95.5t-95 -259.5z" />
<glyph unicode="7" horiz-adv-x="995" d="M72 1296v138h852v-138q-411 -632 -504 -1296h-162q105 679 518 1296h-704z" />
<glyph unicode="8" horiz-adv-x="1196" d="M92 420q0 140 75.5 237t207.5 146q-90 44 -143.5 122.5t-53.5 174.5q0 149 112 248.5t308 99.5t308 -99.5t112 -248.5q0 -96 -53 -174.5t-142 -122.5q130 -49 205.5 -146.5t75.5 -236.5q0 -203 -142.5 -318.5t-363.5 -115.5q-143 0 -256.5 49.5t-181.5 149t-68 235.5z M252 428q0 -138 95 -220.5t251 -82.5t251 82.5t95 220.5q0 144 -95 226.5t-251 82.5q-155 0 -250.5 -82.5t-95.5 -226.5zM324 1090q0 -108 73 -176t201 -68t202 68t74 176q0 102 -72 165.5t-204 63.5t-203 -63.5t-71 -165.5z" />
<glyph unicode="9" horiz-adv-x="1204" d="M92 956q0 231 140 363.5t356 132.5q245 0 379.5 -182.5t134.5 -515.5q0 -122 -15 -228.5t-53.5 -208t-97 -174t-151.5 -116t-212 -43.5q-106 0 -191.5 32.5t-138.5 85.5t-82 116t-34 130h154q16 -101 88.5 -163t203.5 -62q90 0 158.5 35t109.5 90.5t66.5 135t34.5 158.5 t8 171q-36 -109 -137 -177.5t-235 -68.5q-99 0 -187 33.5t-154.5 94.5t-105.5 154.5t-39 206.5zM246 956q0 -165 96 -260.5t246 -95.5q145 0 239.5 94t94.5 258q0 158 -94.5 260.5t-239.5 102.5q-152 0 -247 -93.5t-95 -265.5z" />
<glyph unicode=":" horiz-adv-x="405" d="M113 0v205h184v-205h-184zM113 874v205h184v-205h-184z" />
<glyph unicode=";" horiz-adv-x="487" d="M63 -74v199h207v-254q0 -227 -204 -240v54q39 22 52 61t13 119v61h-68zM174 930v205h184v-205h-184z" />
<glyph unicode="&#x3c;" horiz-adv-x="1038" d="M92 418l854 -418v154l-715 338l715 339v154l-854 -418v-149z" />
<glyph unicode="=" horiz-adv-x="935" d="M92 352v115h752v-115h-752zM92 680v115h752v-115h-752z" />
<glyph unicode="&#x3e;" horiz-adv-x="1038" d="M92 0l854 418v149l-854 418v-154l715 -339l-715 -338v-154z" />
<glyph unicode="?" horiz-adv-x="1069" d="M92 991h158q0 155 78.5 237.5t210.5 82.5t206 -66t74 -186q0 -51 -19.5 -93t-51.5 -72t-70 -58.5t-76 -60.5t-70 -69.5t-51.5 -94t-19.5 -126.5v-88h166v88q0 58 19.5 104.5t50 78.5t68 60.5t75 58.5t68 65t50 88t19.5 119q0 184 -121.5 286.5t-316.5 102.5 q-201 0 -324.5 -118.5t-122.5 -338.5zM467 0v205h184v-205h-184z" />
<glyph unicode="@" horiz-adv-x="1548" d="M72 711q0 160 59 300t157 234.5t224.5 148.5t261.5 54q137 0 264.5 -54.5t224.5 -149.5t155.5 -233t58.5 -296q0 -178 -80 -276.5t-193 -98.5q-83 0 -136.5 51.5t-68.5 138.5q-30 -92 -102.5 -143t-161.5 -51q-59 0 -113.5 22t-101.5 65.5t-75.5 118t-28.5 169.5 q0 90 29 161t75.5 113t101 64t111.5 22q89 0 160.5 -58t71.5 -139v181h120v-445q0 -77 32 -117t93 -40q75 0 115.5 66.5t40.5 195.5q0 134 -48 250.5t-128.5 196.5t-188.5 125.5t-227 45.5q-115 0 -222 -45.5t-188.5 -125.5t-130.5 -198t-49 -253q0 -130 50 -245.5t132 -195 t189 -126t219 -46.5q95 0 185 31t159 86l131 -41q-185 -188 -475 -188q-134 0 -261.5 54t-225 147.5t-156.5 230.5t-59 293zM537 711q0 -123 60 -189.5t148 -66.5q89 0 148 69t59 187q0 112 -58.5 175.5t-148.5 63.5q-87 0 -147.5 -62.5t-60.5 -176.5z" />
<glyph unicode="A" horiz-adv-x="1423" d="M53 0l586 1434h145l588 -1434h-182l-146 371h-663l-148 -371h-180zM432 500h561l-280 714z" />
<glyph unicode="B" horiz-adv-x="1234" d="M119 0v1434h502q212 0 325 -96.5t113 -258.5q0 -105 -56 -183.5t-159 -111.5q145 -40 224 -137.5t79 -224.5q0 -206 -129 -314t-389 -108h-510zM285 145h344q183 0 265.5 70.5t82.5 206.5q0 127 -86 206t-260 79h-346v-562zM285 838h360q121 0 183.5 61.5t62.5 171.5 q0 217 -264 217h-342v-450z" />
<glyph unicode="C" horiz-adv-x="1306" d="M78 717q0 184 45.5 325.5t129 230t196 133t251.5 44.5q213 0 355 -95.5t180 -273.5h-164q-39 109 -128.5 163t-240.5 54q-212 0 -332 -143.5t-120 -437.5q0 -295 120 -438.5t332 -143.5q153 0 243.5 54.5t129.5 164.5h164q-38 -180 -181 -275t-358 -95 q-139 0 -251.5 44.5t-196 133t-129 230t-45.5 325.5z" />
<glyph unicode="D" horiz-adv-x="1347" d="M119 0v1434h450q332 0 506 -186.5t174 -530.5t-174 -530.5t-506 -186.5h-450zM285 152h270q267 0 393.5 139t126.5 426t-126.5 426t-393.5 139h-270v-1130z" />
<glyph unicode="E" horiz-adv-x="1112" d="M119 0v1434h897v-152h-731v-473h608v-143h-608v-514h751v-152h-917z" />
<glyph unicode="F" horiz-adv-x="1079" d="M119 0v1434h893v-152h-727v-498h592v-143h-592v-641h-166z" />
<glyph unicode="G" horiz-adv-x="1366" d="M78 717q0 186 45 327.5t128.5 229.5t196.5 132t254 44q208 0 351.5 -91t181.5 -253h-158q-44 95 -134 143.5t-241 48.5q-214 0 -333 -142.5t-119 -438.5t119 -439t333 -143q221 0 328.5 107t114.5 344h-330v135h455h26q2 -43 2 -84q0 -314 -130 -473q-147 -180 -466 -180 q-288 0 -456 184t-168 549z" />
<glyph unicode="H" horiz-adv-x="1329" d="M119 0v1434h166v-664h757v664h168v-1434h-168v633h-757v-633h-166z" />
<glyph unicode="I" horiz-adv-x="423" d="M129 0v1434h166v-1434h-166z" />
<glyph unicode="J" horiz-adv-x="1099" d="M98 154l105 106q53 -64 121.5 -97.5t167.5 -33.5q70 0 123 19.5t97 65.5t67.5 134t23.5 215v871h168v-891q0 -120 -25.5 -215t-69 -158.5t-105.5 -105.5t-131 -60t-148 -18q-249 0 -394 168z" />
<glyph unicode="K" horiz-adv-x="1398" d="M119 0v1434h166v-867l790 867h199l-627 -682l684 -752h-194l-586 647l-266 -291v-356h-166z" />
<glyph unicode="L" horiz-adv-x="1052" d="M129 0v1434h166v-1282h670v-152h-836z" />
<glyph unicode="M" horiz-adv-x="1728" d="M129 0v1434h166l569 -1227l570 1227h168v-1434h-168v1087l-504 -1087h-131l-504 1087v-1087h-166z" />
<glyph unicode="N" horiz-adv-x="1349" d="M129 0v1434h174l750 -1168v1168h168v-1434h-179l-747 1165v-1165h-166z" />
<glyph unicode="O" horiz-adv-x="1404" d="M78 717q0 185 45.5 326t128.5 229.5t196.5 133t253.5 44.5t253.5 -44.5t197 -133t129 -230t45.5 -325.5t-45.5 -325.5t-129 -230t-197 -133t-253.5 -44.5t-253.5 44.5t-196.5 133t-128.5 229.5t-45.5 326zM250 717q0 -295 119.5 -438.5t332.5 -143.5q214 0 333.5 143.5 t119.5 438.5t-119.5 438t-333.5 143t-333 -143t-119 -438z" />
<glyph unicode="P" horiz-adv-x="1216" d="M119 0v1434h520q247 0 369 -120.5t122 -342.5q0 -219 -122.5 -339t-368.5 -120h-354v-512h-166zM285 662h356q160 0 236.5 78t76.5 231q0 156 -76 234.5t-237 78.5h-356v-622z" />
<glyph unicode="Q" horiz-adv-x="1460" d="M72 717q0 185 45.5 326t128.5 229.5t196.5 133t253.5 44.5t254 -44.5t197.5 -133t129.5 -230t46 -325.5q0 -289 -113 -473l172 -176l-100 -99l-162 166q-161 -151 -424 -151q-140 0 -253.5 44.5t-196.5 133t-128.5 229.5t-45.5 326zM244 717q0 -295 120 -438.5 t332 -143.5q196 0 310 117l-238 240l100 96l217 -219q66 135 66 348q0 294 -120.5 437.5t-334.5 143.5q-212 0 -332 -143.5t-120 -437.5z" />
<glyph unicode="R" horiz-adv-x="1271" d="M119 0v1434h559q485 0 485 -420q0 -251 -227 -348q121 -34 175 -107.5t54 -200.5v-118q0 -105 9.5 -157.5t31.5 -82.5h-176q-22 30 -31.5 82.5t-9.5 157.5v114q0 69 -19 116.5t-55 72t-77.5 35t-96.5 10.5h-456v-588h-166zM285 725h422q282 0 282 287q0 144 -74.5 208 t-238.5 64h-391v-559z" />
<glyph unicode="S" horiz-adv-x="1245" d="M88 403h172q10 -61 32.5 -108t63.5 -86t109 -59.5t160 -20.5q362 0 362 252q0 61 -20.5 108t-59 78t-85.5 51t-109 33l-207 43q-381 81 -381 381q0 169 126.5 272t360.5 103q225 0 350.5 -96t147.5 -271h-170q-16 106 -92 164t-236 58q-164 0 -239.5 -65t-75.5 -167 q0 -190 240 -239l190 -41q213 -46 322.5 -141t109.5 -271q0 -189 -142 -293t-392 -104q-248 0 -382 112t-155 307z" />
<glyph unicode="T" horiz-adv-x="1140" d="M78 1284v150h575h410v-150h-410v-1284h-168v1284h-407z" />
<glyph unicode="U" horiz-adv-x="1325" d="M119 541v893h166v-879q0 -208 96.5 -313t280.5 -105t281 105t97 313v879h166v-893q0 -262 -146.5 -408.5t-397.5 -146.5q-250 0 -396.5 147t-146.5 408z" />
<glyph unicode="V" horiz-adv-x="1411" d="M63 1434h177l465 -1223l466 1223h177l-572 -1434h-141z" />
<glyph unicode="W" horiz-adv-x="2082" d="M78 1434h172l330 -1190l376 1190h170l375 -1190l332 1190h172l-416 -1434h-155l-394 1198l-391 -1198h-155z" />
<glyph unicode="X" horiz-adv-x="1390" d="M82 0l520 743l-483 691h184l391 -560l391 560h185l-484 -691l523 -743h-185l-430 612l-428 -612h-184z" />
<glyph unicode="Y" horiz-adv-x="1353" d="M68 1434h190l420 -717l420 717h190l-526 -869v-565h-168v565z" />
<glyph unicode="Z" horiz-adv-x="1232" d="M92 0v139l858 1157h-844v138h1016v-138l-858 -1157h877v-139h-1049z" />
<glyph unicode="[" horiz-adv-x="518" d="M92 -266v1792h334v-137h-176v-1518h176v-137h-334z" />
<glyph unicode="\" horiz-adv-x="917" d="M123 1434h156l557 -1434h-158z" />
<glyph unicode="]" horiz-adv-x="518" d="M92 -129h176v1518h-176v137h334v-1792h-334v137z" />
<glyph unicode="^" horiz-adv-x="980" d="M92 952l346 482h105l346 -482h-129l-268 375l-271 -375h-129z" />
<glyph unicode="_" horiz-adv-x="1208" d="M92 0h1024v-139h-1024v139z" />
<glyph unicode="`" horiz-adv-x="360" d="M0 1452l221 -262h139l-137 262h-223z" />
<glyph unicode="a" d="M68 293q0 141 93.5 218t274.5 101q12 2 63 8t73 9t66.5 10t69.5 13t54 15t47 19v23q0 137 -63 190t-201 53q-235 0 -260 -149h-152q17 135 124.5 204.5t289.5 69.5q218 0 319 -93t101 -312v-484q0 -44 19 -62q18 -17 60 -17h5v-109q-34 -10 -70 -10q-78 0 -118 35.5 t-40 117.5v74q-11 -23 -28 -47.5t-52 -60t-77 -62t-106.5 -46t-137.5 -19.5q-158 0 -256 80.5t-98 230.5zM227 299q0 -89 57.5 -141t161.5 -52q65 0 123 19t96 45t70.5 61t48 59t25.5 46v237q-12 -7 -29 -13t-42.5 -12t-45 -10t-58.5 -10.5t-59.5 -9.5t-70.5 -10t-70 -10 q-111 -17 -159 -65t-48 -134z" />
<glyph unicode="b" horiz-adv-x="1144" d="M109 0v1434h157v-568q105 211 355 211q68 0 133 -19.5t125 -63t105 -105.5t72 -154.5t27 -202.5q0 -112 -26.5 -204.5t-71.5 -155.5t-105 -106.5t-125 -63.5t-134 -20q-129 0 -220.5 62t-134.5 165v-209h-157zM258 532q0 -104 27.5 -186t75 -132t107.5 -75.5t128 -25.5 q67 0 125.5 25t105.5 74t74 131.5t27 188.5q0 105 -27 186.5t-74 130t-105.5 73t-125.5 24.5q-69 0 -128.5 -24.5t-107 -73t-75 -129.5t-27.5 -187z" />
<glyph unicode="c" horiz-adv-x="1046" d="M68 530q0 139 41.5 247t112 172t155 96t178.5 32q338 0 430 -309h-145q-36 89 -104 133.5t-179 44.5q-69 0 -128.5 -25t-106 -74.5t-73 -131t-26.5 -185.5t26.5 -185.5t73 -131t106 -75t128.5 -25.5q114 0 182.5 46t104.5 140h145q-89 -317 -434 -317q-94 0 -179 32.5 t-155 96.5t-111.5 172t-41.5 247z" />
<glyph unicode="d" horiz-adv-x="1155" d="M68 532q0 137 40.5 245t107.5 171.5t146.5 96t165.5 32.5q249 0 357 -211v568h157v-1434h-157v209q-43 -103 -135 -165t-222 -62q-68 0 -133 20t-124.5 63.5t-104.5 106t-71.5 155.5t-26.5 205zM223 532q0 -106 27 -188.5t73.5 -131.5t104.5 -74t125 -25q68 0 128.5 25.5 t108 75.5t75.5 132t28 186q0 105 -28 186.5t-76 130t-107.5 73t-128.5 24.5q-67 0 -125 -24.5t-104.5 -73t-73.5 -129.5t-27 -187z" />
<glyph unicode="e" horiz-adv-x="1101" d="M68 530q0 110 28 201.5t75 154.5t110.5 106.5t133.5 64t144 20.5q96 0 179.5 -33t150.5 -98t106 -173.5t39 -248.5v-49h-811q7 -92 38 -162.5t79.5 -113.5t107.5 -64.5t127 -21.5q91 0 157.5 27.5t115.5 92.5h153q-66 -133 -172.5 -192t-265.5 -59q-74 0 -144.5 20 t-134.5 63t-111.5 106t-76 155.5t-28.5 203.5zM223 586h656q-9 177 -97.5 268.5t-222.5 91.5q-64 0 -120 -22t-102.5 -65t-76.5 -113t-37 -160z" />
<glyph unicode="f" horiz-adv-x="688" d="M37 934v131h151v119q0 71 16.5 123t42.5 81.5t65 47.5t75.5 23.5t83.5 6.5q67 0 152 -18v-125q-82 12 -129 12q-78 0 -113 -34t-35 -119v-117h262v-131h-262v-934h-158v934h-151z" />
<glyph unicode="g" horiz-adv-x="1155" d="M68 532q0 137 40.5 245t107.5 171.5t146.5 96t165.5 32.5q249 0 357 -211v199h157v-1053v-12q-7 -451 -503 -451q-142 0 -255.5 55.5t-166.5 149.5l104 64q42 -63 124 -99t194 -36q172 0 259 74.5t87 254.5v197q-44 -96 -136 -154.5t-221 -58.5q-86 0 -165.5 32 t-146.5 94.5t-107.5 168.5t-40.5 241zM223 532q0 -103 27 -181.5t73.5 -125.5t104.5 -70.5t125 -23.5q69 0 128.5 23t108 69.5t76 125.5t27.5 183q0 105 -27.5 186t-76 128.5t-108 71.5t-128.5 24q-67 0 -125 -23.5t-105 -71.5t-73.5 -129t-26.5 -186z" />
<glyph unicode="h" horiz-adv-x="1138" d="M109 0v1434h157v-369v-246q11 34 38.5 74t72.5 82.5t116 71t152 28.5q83 0 150 -22t120 -70t82 -132t29 -200v-651h-158v641q0 295 -262 295q-74 0 -137.5 -28.5t-104 -72.5t-65.5 -89.5t-33 -86.5v-659h-157z" />
<glyph unicode="i" horiz-adv-x="395" d="M119 0v1065h157v-1065h-157zM119 1280v154h157v-154h-157z" />
<glyph unicode="j" horiz-adv-x="417" d="M-139 -248q111 -51 182 -51q55 0 82 46.5t27 125.5v1192h157v-1221q0 -295 -254 -295q-95 0 -194 54v149zM152 1286v148h157v-148h-157z" />
<glyph unicode="k" horiz-adv-x="1114" d="M115 0v342v1092h157v-928l539 559h190l-466 -479l534 -586h-188l-451 477l-158 -164v-313h-157z" />
<glyph unicode="l" horiz-adv-x="395" d="M119 0v1434h157v-1434h-157z" />
<glyph unicode="m" horiz-adv-x="1869" d="M115 0v1065h157v-246q10 33 37.5 73.5t71.5 83t113 71t147 28.5q288 0 354 -260q17 46 51 90.5t82.5 83t115.5 62.5t140 24q64 0 118 -13.5t102 -45t81 -80t52.5 -122.5t19.5 -169v-645h-158v639q0 158 -70 228.5t-186 70.5q-71 0 -135 -29.5t-105 -73.5t-65 -93.5 t-24 -92.5v-649h-158v641q0 158 -70 227.5t-186 69.5q-69 0 -130 -29t-100.5 -73t-64.5 -90t-33 -87v-659h-157z" />
<glyph unicode="n" horiz-adv-x="1144" d="M115 0v1065h157v-246q10 33 37.5 73.5t73 83t116.5 71t152 28.5q83 0 149.5 -22t119.5 -70t81.5 -132t28.5 -200v-651h-158v641q0 297 -262 297q-59 0 -112.5 -19.5t-90.5 -49.5t-66.5 -68t-46 -74t-22.5 -68v-659h-157z" />
<glyph unicode="o" horiz-adv-x="1118" d="M68 530q0 136 43.5 244t115 172.5t157 97.5t175.5 33q72 0 141 -20t133.5 -64t113 -106.5t77.5 -154.5t29 -202q0 -137 -44 -245.5t-116.5 -172.5t-157.5 -97t-176 -33q-72 0 -141 20t-132.5 63.5t-111.5 106.5t-77 155.5t-29 202.5zM223 530q0 -105 28 -186.5t76 -131 t107 -74.5t125 -25q67 0 126.5 25t107.5 74.5t76 131t28 186.5t-28 186.5t-76 130.5t-107.5 74t-126.5 25q-66 0 -125 -25t-107 -74t-76 -130.5t-28 -186.5z" />
<glyph unicode="p" horiz-adv-x="1146" d="M109 -389v1454h157v-201q104 213 355 213q87 0 167 -33t147 -96.5t107.5 -171.5t40.5 -244q0 -111 -26.5 -203.5t-71 -155t-104.5 -105.5t-125.5 -62.5t-134.5 -19.5q-131 0 -222.5 61t-132.5 164v-600h-157zM258 532q0 -105 27 -185.5t74.5 -129t107.5 -72.5t129 -24 q68 0 126.5 23.5t105 71.5t73.5 129t27 187t-27 186.5t-73.5 128.5t-105 71.5t-126.5 23.5q-69 0 -128.5 -23.5t-107 -71t-75 -128.5t-27.5 -187z" />
<glyph unicode="q" horiz-adv-x="1150" d="M68 532q0 136 40.5 244t107.5 171.5t147 96.5t167 33q251 0 355 -213v201h157v-1454h-157v600q-41 -103 -132.5 -164t-222.5 -61q-69 0 -134.5 19.5t-125.5 62.5t-104.5 105.5t-71 155t-26.5 203.5zM223 532q0 -106 27 -187t73.5 -129t105 -71.5t126.5 -23.5q69 0 129 24 t107.5 72.5t74.5 129t27 185.5q0 106 -27.5 187t-75 128.5t-107 71t-128.5 23.5q-68 0 -126.5 -23.5t-105 -71.5t-73.5 -128.5t-27 -186.5z" />
<glyph unicode="r" horiz-adv-x="759" d="M109 0v1065h157v-264q26 116 125 195t244 79q20 0 78 -4v-139q-27 2 -72 2q-154 -1 -249.5 -83t-125.5 -228v-623h-157z" />
<glyph unicode="s" horiz-adv-x="999" d="M68 299h145q41 -193 291 -193q121 0 194.5 45t73.5 138q0 78 -43.5 113t-144.5 59l-189 45q-152 36 -223.5 103t-71.5 182q0 138 105 212t289 74q336 0 405 -278h-145q-31 86 -93 121.5t-165 35.5q-117 0 -176.5 -43.5t-59.5 -121.5q0 -71 41.5 -110.5t142.5 -64.5 l168 -41q69 -16 111 -29t87 -35.5t69 -50.5t39.5 -71t15.5 -100q0 -81 -34.5 -141t-95.5 -94.5t-135.5 -51t-164.5 -16.5q-184 0 -299.5 77t-136.5 236z" />
<glyph unicode="t" horiz-adv-x="643" d="M41 934v131h154v266h157v-266h205v-131h-205v-727q0 -45 20.5 -64.5t69.5 -19.5q54 0 133 14v-127q-62 -22 -172 -22q-97 0 -152.5 46.5t-55.5 166.5v733h-154z" />
<glyph unicode="u" horiz-adv-x="1144" d="M115 414v651h157v-641q0 -295 263 -295q73 0 136 28.5t103.5 73t65.5 89.5t34 86v659h158v-1065h-158v246q-11 -34 -38.5 -74t-73 -82.5t-116.5 -71t-152 -28.5q-83 0 -149.5 22t-119.5 70t-81.5 132t-28.5 200z" />
<glyph unicode="v" horiz-adv-x="1120" d="M47 1065h160l352 -903l354 903h160l-424 -1065h-178z" />
<glyph unicode="w" horiz-adv-x="1644" d="M47 1065h160l246 -870l305 870h129l303 -870l248 870h159l-317 -1065h-147l-312 870l-311 -870h-145z" />
<glyph unicode="x" horiz-adv-x="1085" d="M63 0l392 547l-373 518h176l285 -395l284 395h174l-370 -518l391 -547h-176l-303 424l-305 -424h-175z" />
<glyph unicode="y" horiz-adv-x="1081" d="M47 1065h156l334 -889l342 889h157l-450 -1153q-35 -89 -79.5 -149t-99.5 -92t-111 -46t-128 -16v137q207 11 270 174l25 66z" />
<glyph unicode="z" horiz-adv-x="1028" d="M88 0v135l666 795h-645v135h833v-135l-668 -795h668v-135h-854z" />
<glyph unicode="{" horiz-adv-x="577" d="M92 627l92 149v574q0 85 50.5 130.5t121.5 45.5h129v-137h-71q-32 0 -52 -19t-20 -51v-553l-90 -139l90 -135v-551q0 -32 20 -51t52 -19h71v-137h-129q-72 0 -122 45t-50 131v571z" />
<glyph unicode="|" horiz-adv-x="446" d="M154 -389v2027h139v-2027h-139z" />
<glyph unicode="}" horiz-adv-x="577" d="M92 -129h72q32 0 52 19t20 51v551l92 135l-92 139v553q0 32 -20 51t-52 19h-72v137h129q71 0 121.5 -45.5t50.5 -130.5v-574l92 -149l-92 -146v-571q0 -86 -50 -131t-122 -45h-129v137z" />
<glyph unicode="~" horiz-adv-x="954" d="M102 518q0 98 60 156.5t151 58.5q43 0 82.5 -16.5t70 -39.5t59.5 -46t63.5 -39.5t70.5 -16.5q54 0 84.5 29.5t28.5 65.5h80q0 -98 -60 -156.5t-151 -58.5q-42 0 -81.5 16t-70 39.5t-60 46.5t-64 39t-70.5 16q-55 0 -85 -29t-28 -65h-80z" />
<glyph unicode="&#xa1;" horiz-adv-x="385" d="M147 -369v1039h175v-1039h-175zM156 860v205h184v-205h-184z" />
<glyph unicode="&#xa2;" horiz-adv-x="1034" d="M68 672q0 126 36 227t97.5 163.5t137 98.5t161.5 45v228h100v-228q303 -17 385 -299h-145q-68 158 -240 172v-813q94 7 152.5 52t91.5 128h145q-84 -292 -389 -309v-219h-100v219q-86 10 -161.5 46.5t-137 100t-97.5 163.5t-36 225zM223 672q0 -179 77 -281.5t200 -122.5 v809q-123 -20 -200 -122.5t-77 -282.5z" />
<glyph unicode="&#xa3;" horiz-adv-x="1107" d="M92 602v98h133q-4 8 -22 41.5t-23.5 45.5t-20 42.5t-20.5 50t-14 48t-11 56.5t-3 58q0 183 128 294.5t324 111.5q189 0 321 -118t132 -310v-37h-158v37q0 136 -81 213.5t-214 77.5q-137 0 -216 -73.5t-79 -197.5q0 -43 13.5 -92.5t26 -78.5t43.5 -90t40 -79h279v-98h-240 q16 -56 16 -108q0 -109 -49.5 -199t-138.5 -176q74 25 151 29t144 -6t134.5 -20t148 -8t159.5 25v-139q-72 -19 -148 -21.5t-137.5 7t-130.5 19.5t-128.5 16.5t-130 -3t-136.5 -38.5l-82 108q191 200 191 401q0 48 -21 113h-180z" />
<glyph unicode="&#xa4;" horiz-adv-x="1153" d="M104 623l93 92q-80 116 -80 260q0 143 82 262l-95 94l105 105l92 -93q121 91 274 91q151 0 275 -93l94 95l105 -105l-97 -94q82 -122 82 -262q0 -137 -80 -258l95 -94l-105 -103l-90 90q-124 -94 -279 -94q-153 0 -276 92l-90 -88zM250 975q0 -82 40 -156t116 -122 t169 -48t169.5 48t117.5 122t41 156q0 81 -41 155t-117.5 122t-169.5 48q-139 0 -232 -99.5t-93 -225.5z" />
<glyph unicode="&#xa5;" horiz-adv-x="1343" d="M68 1434h190l420 -717l420 717h190l-522 -863h260v-104h-264v-111h264v-106h-264v-250h-168v250h-277v106h277v111h-277v104h271z" />
<glyph unicode="&#xa6;" horiz-adv-x="446" d="M154 184h139v-573h-139v573zM154 1065v573h139v-573h-139z" />
<glyph unicode="&#xa7;" horiz-adv-x="1273" d="M96 -63h172q10 -62 32.5 -109t63.5 -86t109 -59.5t160 -20.5q362 0 362 252q0 61 -20.5 108t-59 78t-85.5 51t-109 33l-207 43q-381 81 -381 381q0 150 94 244q-73 85 -73 223q0 169 126.5 272t360.5 103q225 0 350.5 -96t147.5 -271h-170q-16 106 -92 164t-236 58 q-164 0 -239.5 -65t-75.5 -167q0 -190 239 -239l191 -41q213 -46 322.5 -141t109.5 -271q0 -148 -88 -242q67 -92 67 -227q0 -188 -142.5 -291.5t-391.5 -103.5q-248 0 -382 112t-155 308zM305 606q0 -190 240 -239l190 -41q143 -30 240 -82q41 56 41 137q0 61 -20.5 108 t-59 78t-86 51t-109.5 33l-206 43q-100 21 -175 58q-55 -58 -55 -146z" />
<glyph unicode="&#xa8;" horiz-adv-x="600" d="M0 1270v182h166v-182h-166zM436 1270v182h164v-182h-164z" />
<glyph unicode="&#xa9;" horiz-adv-x="1605" d="M72 717q0 155 58 291.5t156.5 232t233 150.5t283.5 55t283.5 -55t233 -150.5t156.5 -232t58 -291.5q0 -208 -98.5 -376t-265.5 -261.5t-367 -93.5t-367 93.5t-265.5 261.5t-98.5 376zM174 717q0 -181 84.5 -325.5t228 -224t316.5 -79.5t317 79.5t229 224.5t85 325 t-85 324.5t-229 224.5t-317 80t-316.5 -80t-228 -224.5t-84.5 -324.5zM391 717q0 100 34.5 183.5t91.5 137t130.5 82.5t153.5 29q82 0 150 -24.5t125.5 -82.5t86.5 -147h-116q-61 147 -246 147q-125 0 -210 -85.5t-85 -239.5q0 -155 85 -241.5t210 -86.5q186 0 250 152h114 q-42 -133 -139.5 -194.5t-224.5 -61.5q-80 0 -153.5 29t-130.5 82.5t-91.5 137t-34.5 183.5z" />
<glyph unicode="&#xaa;" horiz-adv-x="735" d="M68 987q0 94 59 137.5t172 51.5l213 16q-2 81 -37.5 117.5t-120.5 36.5q-133 0 -200 -82l-68 67q89 119 268 119q155 0 218 -73.5t61 -233.5v-197q0 -56 10 -88t35 -72h-123q-9 11 -19.5 43t-11.5 64q-91 -111 -215 -111q-111 0 -176 49t-65 156zM186 985q0 -98 133 -98 q75 0 125 39.5t68 83.5v94q-30 -7 -207 -21q-63 -6 -91 -29t-28 -69z" />
<glyph unicode="&#xab;" horiz-adv-x="808" d="M92 473v277l266 184v-127l-184 -195l184 -196v-127zM451 473v277l266 184v-127l-185 -195l185 -196v-127z" />
<glyph unicode="&#xac;" horiz-adv-x="999" d="M92 512v127h817v-363h-157v236h-660z" />
<glyph unicode="&#xad;" horiz-adv-x="819" d="M92 516v115h694v-115h-694z" />
<glyph unicode="&#xae;" horiz-adv-x="1605" d="M72 717q0 155 58 291.5t156.5 232t233 150.5t283.5 55t283.5 -55t233 -150.5t156.5 -232t58 -291.5q0 -208 -98.5 -376t-265.5 -261.5t-367 -93.5t-367 93.5t-265.5 261.5t-98.5 376zM174 717q0 -181 84.5 -325.5t228 -224t316.5 -79.5t317 79.5t229 224.5t85 325 t-85 324.5t-229 224.5t-317 80t-316.5 -80t-228 -224.5t-84.5 -324.5zM520 309v815h307q269 0 269 -231q0 -153 -148 -205q78 -15 112 -56t34 -118v-65q0 -113 24 -140h-102q-21 28 -21 142v61q0 41 -11.5 68t-33.5 39.5t-44.5 17t-53.5 4.5h-234v-332h-98zM618 727h218 q76 0 118.5 41.5t42.5 124.5q0 147 -170 147h-209v-313z" />
<glyph unicode="&#xaf;" horiz-adv-x="624" d="M0 1352v100h625v-100h-625z" />
<glyph unicode="&#xb0;" horiz-adv-x="786" d="M92 1176q0 123 88 210t213 87t213 -87t88 -210q0 -126 -88 -215t-213 -89t-213 89t-88 215zM215 1176q0 -74 49.5 -128.5t128.5 -54.5t128.5 54.5t49.5 128.5q0 71 -49.5 123.5t-128.5 52.5t-128.5 -52.5t-49.5 -123.5z" />
<glyph unicode="&#xb1;" horiz-adv-x="1054" d="M92 584v139h361v362h147v-362h363v-139h-363v-363h-147v363h-361zM152 -33v117h749v-117h-749z" />
<glyph unicode="&#xb2;" horiz-adv-x="528" d="M113 901v19q0 75 34 130.5t117 108.5q72 45 89 64q26 28 26 67q0 40 -26.5 64t-69.5 24q-45 0 -72 -26t-27 -74v-14h-71v14q0 75 45 120.5t125 45.5q77 0 122.5 -43.5t45.5 -110.5q0 -59 -37.5 -98.5t-114.5 -85.5q-111 -68 -111 -135v-6h269v-64h-344z" />
<glyph unicode="&#xb3;" horiz-adv-x="559" d="M135 1067h68q1 -57 34.5 -85t90.5 -28q55 0 90 24.5t35 74.5q0 49 -36 73.5t-102 24.5h-22v59h22q57 0 83 25t26 63t-27 61t-73 23q-49 0 -77 -26t-28 -80h-67q0 79 46 123.5t126 44.5q79 0 124.5 -40t45.5 -101q0 -44 -27 -75t-68 -42q47 -7 85 -41t38 -94 q0 -69 -52 -113.5t-144 -44.5q-89 0 -140 48t-51 126z" />
<glyph unicode="&#xb4;" horiz-adv-x="360" d="M0 1190h139l221 262h-223z" />
<glyph unicode="&#xb5;" horiz-adv-x="1132" d="M115 -389v1454h157v-641q0 -295 263 -295q73 0 136 28.5t103.5 73t65.5 89.5t34 86v659h158v-1065h-158v246q-11 -34 -38.5 -74t-73 -82.5t-116.5 -71t-152 -28.5q-136 0 -222 55v-434h-157z" />
<glyph unicode="&#xb6;" horiz-adv-x="1191" d="M61 1028q0 178 113.5 292t312.5 114h283h309v-1885h-131v1780h-178v-1780h-139v1078h-144q-199 0 -312.5 112.5t-113.5 288.5z" />
<glyph unicode="&#xb7;" horiz-adv-x="385" d="M102 483v203h185v-203h-185z" />
<glyph unicode="&#xb8;" horiz-adv-x="323" d="M0 -145l94 147h144l-107 -113q75 8 134 -33.5t59 -119.5q0 -189 -314 -189v74q187 3 187 111q0 55 -48 73t-108 -14z" />
<glyph unicode="&#xb9;" horiz-adv-x="368" d="M61 1292v70q30 0 58 22.5t39 51.5h67v-535h-67v440q-27 -49 -97 -49z" />
<glyph unicode="&#xba;" horiz-adv-x="772" d="M68 1114q0 64 18.5 119t50 94t72 67.5t85.5 42t91 13.5q58 0 114 -22t102.5 -63t75 -106.5t28.5 -144.5t-28.5 -144.5t-74.5 -107t-102.5 -64t-114.5 -22.5q-57 0 -113 22.5t-101.5 64t-74 107t-28.5 144.5zM184 1116q0 -107 59 -168t142 -61q84 0 142.5 60.5t58.5 168.5 q0 105 -58.5 165t-142.5 60q-83 0 -142 -60t-59 -165z" />
<glyph unicode="&#xbb;" horiz-adv-x="808" d="M92 289v127l184 196l-184 195v127l266 -184v-277zM451 289v127l184 196l-184 195v127l266 -184v-277z" />
<glyph unicode="&#xbc;" horiz-adv-x="1165" d="M104 0l893 1434h86l-893 -1434h-86zM119 1292v70q30 0 57.5 22.5t38.5 51.5h68v-535h-68v440q-27 -49 -96 -49zM756 135v55l243 345h68v-345h61v-55h-61v-135h-68v135h-243zM819 190h180v256z" />
<glyph unicode="&#xbd;" horiz-adv-x="1204" d="M125 1292v70q30 0 57.5 22.5t38.5 51.5h68v-535h-68v440q-27 -49 -96 -49zM127 0l893 1434h88l-893 -1434h-88zM780 0v18q0 76 34 131.5t118 108.5q36 23 49.5 32t32 26t24.5 33.5t6 39.5q0 40 -26 64t-70 24t-71 -26t-27 -74v-15h-70v15q0 75 45 120.5t123 45.5 q79 0 124.5 -43.5t45.5 -110.5q0 -59 -38 -99t-115 -85q-109 -66 -109 -135v-7h266v-63h-342z" />
<glyph unicode="&#xbe;" horiz-adv-x="1261" d="M94 1067h70q1 -57 34.5 -85t90.5 -28q55 0 89 24.5t34 74.5q0 49 -36 73.5t-102 24.5h-22v59h22q57 0 84 25t27 63t-27 61t-73 23q-105 0 -105 -106h-69q0 79 47 123.5t127 44.5q77 0 122.5 -40t45.5 -101q0 -44 -26.5 -75t-66.5 -42q46 -7 83.5 -41t37.5 -94 q0 -69 -51.5 -113.5t-142.5 -44.5q-89 0 -141 48t-52 126zM186 0l893 1434h86l-893 -1434h-86zM793 135v55l243 345h68v-345h61v-55h-61v-135h-68v135h-243zM856 190h180v256z" />
<glyph unicode="&#xbf;" horiz-adv-x="1069" d="M92 8q0 -185 121.5 -288t316.5 -103q203 0 326.5 118.5t120.5 338.5h-158q0 -155 -77.5 -237.5t-211.5 -82.5q-132 0 -206 66.5t-74 187.5q0 51 19.5 92.5t51.5 71.5t70 58t76 60t70 69.5t51.5 94t19.5 126.5v90h-166v-90q0 -58 -19.5 -104.5t-50 -78t-68 -60.5t-75 -59 t-68 -64.5t-50 -87t-19.5 -118.5zM418 860v205h184v-205h-184z" />
<glyph unicode="&#xc0;" horiz-adv-x="1423" d="M53 0l586 1434h145l588 -1434h-182l-146 371h-663l-148 -371h-180zM428 1821h223l137 -262h-139zM432 500h561l-280 714z" />
<glyph unicode="&#xc1;" horiz-adv-x="1423" d="M53 0l586 1434h145l588 -1434h-182l-146 371h-663l-148 -371h-180zM432 500h561l-280 714zM643 1559l137 262h224l-222 -262h-139z" />
<glyph unicode="&#xc2;" horiz-adv-x="1423" d="M53 0l586 1434h145l588 -1434h-182l-146 371h-663l-148 -371h-180zM389 1556l184 265h277l184 -265h-127l-194 183l-197 -183h-127zM432 500h561l-280 714z" />
<glyph unicode="&#xc3;" horiz-adv-x="1423" d="M53 0l586 1434h145l588 -1434h-182l-146 371h-663l-148 -371h-180zM352 1659q0 93 57.5 148t145.5 55q40 0 77 -15t66 -37t57 -44t61 -37t67 -15q53 0 81.5 27t26.5 61h76q0 -93 -57.5 -148t-145.5 -55q-40 0 -77 15t-65.5 37t-56.5 44t-61 37t-67 15q-53 0 -81 -27 t-26 -61h-78zM432 500h561l-280 714z" />
<glyph unicode="&#xc4;" horiz-adv-x="1423" d="M53 0l586 1434h145l588 -1434h-182l-146 371h-663l-148 -371h-180zM412 1638v183h166v-183h-166zM432 500h561l-280 714zM848 1638v183h164v-183h-164z" />
<glyph unicode="&#xc5;" horiz-adv-x="1423" d="M53 0l586 1434h145l588 -1434h-182l-146 371h-663l-148 -371h-180zM432 500h561l-280 714zM537 1731q0 72 51.5 123t126.5 51q71 0 121.5 -51t50.5 -123q0 -71 -50.5 -121.5t-121.5 -50.5q-75 0 -126.5 50.5t-51.5 121.5zM616 1731q0 -38 28.5 -66.5t66.5 -28.5 q39 0 67.5 28t28.5 67q0 41 -28 68.5t-68 27.5q-39 0 -67 -27.5t-28 -68.5z" />
<glyph unicode="&#xc6;" horiz-adv-x="2029" d="M53 0l981 1434h176h721v-152h-729v-473h606v-143h-606v-514h750v-152h-918v446h-499l-304 -446h-178zM627 582h407v596z" />
<glyph unicode="&#xc7;" horiz-adv-x="1306" d="M78 717q0 184 45.5 325.5t129 230t196 133t251.5 44.5q213 0 355 -95.5t180 -273.5h-164q-39 109 -128.5 163t-240.5 54q-212 0 -332 -143.5t-120 -437.5q0 -295 120 -438.5t332 -143.5q153 0 243.5 54.5t129.5 164.5h164q-38 -177 -177 -272t-349 -98l-88 -95 q74 8 132 -33.5t58 -119.5q0 -189 -313 -189v74q186 3 186 111q0 55 -48 73t-108 -14l-26 41l-14 23l88 137q-233 37 -367.5 220t-134.5 505z" />
<glyph unicode="&#xc8;" horiz-adv-x="1112" d="M119 0v1434h897v-152h-731v-473h608v-143h-608v-514h751v-152h-917zM303 1821h223l138 -262h-140z" />
<glyph unicode="&#xc9;" horiz-adv-x="1112" d="M119 0v1434h897v-152h-731v-473h608v-143h-608v-514h751v-152h-917zM516 1559l137 262h224l-222 -262h-139z" />
<glyph unicode="&#xca;" horiz-adv-x="1112" d="M119 0v1434h897v-152h-731v-473h608v-143h-608v-514h751v-152h-917zM264 1556l185 265h276l184 -265h-127l-194 183l-197 -183h-127z" />
<glyph unicode="&#xcb;" horiz-adv-x="1112" d="M119 0v1434h897v-152h-731v-473h608v-143h-608v-514h751v-152h-917zM287 1638v183h166v-183h-166zM723 1638v183h164v-183h-164z" />
<glyph unicode="&#xcc;" horiz-adv-x="423" d="M-72 1821l222 -262h139l-137 262h-224zM129 0v1434h166v-1434h-166z" />
<glyph unicode="&#xcd;" horiz-adv-x="423" d="M129 0v1434h166v-1434h-166zM143 1559h140l221 262h-223z" />
<glyph unicode="&#xce;" horiz-adv-x="423" d="M-111 1556l185 265h276l185 -265h-127l-195 183l-197 -183h-127zM129 0v1434h166v-1434h-166z" />
<glyph unicode="&#xcf;" horiz-adv-x="423" d="M-88 1638v183h166v-183h-166zM129 0v1434h166v-1434h-166zM348 1638v183h164v-183h-164z" />
<glyph unicode="&#xd0;" horiz-adv-x="1556" d="M150 655v115h112v664h451q332 0 506 -186.5t174 -530.5t-174 -530.5t-506 -186.5h-451v655h-112zM430 152h268q267 0 395 139t128 426t-128 426t-395 139h-268v-512h414v-115h-414v-503z" />
<glyph unicode="&#xd1;" horiz-adv-x="1349" d="M129 0v1434h174l750 -1168v1168h168v-1434h-179l-747 1165v-1165h-166zM317 1659q0 93 57.5 148t145.5 55q40 0 77 -15t66 -37t57 -44t61 -37t67 -15q53 0 81.5 27t26.5 61h76q0 -93 -57.5 -148t-145.5 -55q-40 0 -77 15t-65.5 37t-56.5 44t-61 37t-67 15q-53 0 -81 -27 t-26 -61h-78z" />
<glyph unicode="&#xd2;" horiz-adv-x="1404" d="M78 717q0 185 45.5 326t128.5 229.5t196.5 133t253.5 44.5t253.5 -44.5t197 -133t129 -230t45.5 -325.5t-45.5 -325.5t-129 -230t-197 -133t-253.5 -44.5t-253.5 44.5t-196.5 133t-128.5 229.5t-45.5 326zM250 717q0 -295 119.5 -438.5t332.5 -143.5q214 0 333.5 143.5 t119.5 438.5t-119.5 438t-333.5 143t-333 -143t-119 -438zM418 1821l221 -262h139l-137 262h-223z" />
<glyph unicode="&#xd3;" horiz-adv-x="1404" d="M78 717q0 185 45.5 326t128.5 229.5t196.5 133t253.5 44.5t253.5 -44.5t197 -133t129 -230t45.5 -325.5t-45.5 -325.5t-129 -230t-197 -133t-253.5 -44.5t-253.5 44.5t-196.5 133t-128.5 229.5t-45.5 326zM250 717q0 -295 119.5 -438.5t332.5 -143.5q214 0 333.5 143.5 t119.5 438.5t-119.5 438t-333.5 143t-333 -143t-119 -438zM633 1559h139l221 262h-223z" />
<glyph unicode="&#xd4;" horiz-adv-x="1404" d="M78 717q0 185 45.5 326t128.5 229.5t196.5 133t253.5 44.5t253.5 -44.5t197 -133t129 -230t45.5 -325.5t-45.5 -325.5t-129 -230t-197 -133t-253.5 -44.5t-253.5 44.5t-196.5 133t-128.5 229.5t-45.5 326zM250 717q0 -295 119.5 -438.5t332.5 -143.5q214 0 333.5 143.5 t119.5 438.5t-119.5 438t-333.5 143t-333 -143t-119 -438zM379 1556l184 265h277l184 -265h-127l-195 183l-196 -183h-127z" />
<glyph unicode="&#xd5;" horiz-adv-x="1404" d="M78 717q0 185 45.5 326t128.5 229.5t196.5 133t253.5 44.5t253.5 -44.5t197 -133t129 -230t45.5 -325.5t-45.5 -325.5t-129 -230t-197 -133t-253.5 -44.5t-253.5 44.5t-196.5 133t-128.5 229.5t-45.5 326zM250 717q0 -295 119.5 -438.5t332.5 -143.5q214 0 333.5 143.5 t119.5 438.5t-119.5 438t-333.5 143t-333 -143t-119 -438zM344 1659q0 93 57.5 148t145.5 55q40 0 77 -15t66 -37t57 -44t60.5 -37t66.5 -15q53 0 82 27t27 61h76q0 -93 -57.5 -148t-145.5 -55q-40 0 -77 15t-66 37t-56.5 44t-61 37t-67.5 15q-53 0 -80.5 -27t-25.5 -61h-78 z" />
<glyph unicode="&#xd6;" horiz-adv-x="1404" d="M78 717q0 185 45.5 326t128.5 229.5t196.5 133t253.5 44.5t253.5 -44.5t197 -133t129 -230t45.5 -325.5t-45.5 -325.5t-129 -230t-197 -133t-253.5 -44.5t-253.5 44.5t-196.5 133t-128.5 229.5t-45.5 326zM250 717q0 -295 119.5 -438.5t332.5 -143.5q214 0 333.5 143.5 t119.5 438.5t-119.5 438t-333.5 143t-333 -143t-119 -438zM401 1638v183h166v-183h-166zM838 1638v183h163v-183h-163z" />
<glyph unicode="&#xd7;" horiz-adv-x="899" d="M92 279l256 258l-254 254l99 98l253 -254l256 256l105 -105l-256 -256l256 -256l-98 -98l-256 256l-256 -258z" />
<glyph unicode="&#xd8;" horiz-adv-x="1404" d="M78 717q0 185 45.5 326t128.5 229.5t196.5 133t253.5 44.5q136 0 248 -41l56 117h172l-93 -193q242 -183 242 -616q0 -184 -45.5 -325.5t-129 -230t-197 -133t-253.5 -44.5q-138 0 -243 41l-60 -127h-172l97 198q-246 187 -246 621zM250 717q0 -321 145 -469l488 1020 q-80 30 -181 30q-214 0 -333 -143t-119 -438zM526 164q77 -29 176 -29q214 0 333.5 143.5t119.5 438.5q0 319 -143 465z" />
<glyph unicode="&#xd9;" horiz-adv-x="1325" d="M119 541v893h166v-879q0 -208 96.5 -313t280.5 -105t281 105t97 313v879h166v-893q0 -262 -146.5 -408.5t-397.5 -146.5q-250 0 -396.5 147t-146.5 408zM373 1821l221 -262h139l-137 262h-223z" />
<glyph unicode="&#xda;" horiz-adv-x="1325" d="M119 541v893h166v-879q0 -208 96.5 -313t280.5 -105t281 105t97 313v879h166v-893q0 -262 -146.5 -408.5t-397.5 -146.5q-250 0 -396.5 147t-146.5 408zM588 1559h139l221 262h-223z" />
<glyph unicode="&#xdb;" horiz-adv-x="1325" d="M119 541v893h166v-879q0 -208 96.5 -313t280.5 -105t281 105t97 313v879h166v-893q0 -262 -146.5 -408.5t-397.5 -146.5q-250 0 -396.5 147t-146.5 408zM334 1556l184 265h277l184 -265h-127l-195 183l-196 -183h-127z" />
<glyph unicode="&#xdc;" horiz-adv-x="1325" d="M119 541v893h166v-879q0 -208 96.5 -313t280.5 -105t281 105t97 313v879h166v-893q0 -262 -146.5 -408.5t-397.5 -146.5q-250 0 -396.5 147t-146.5 408zM356 1638v183h166v-183h-166zM793 1638v183h163v-183h-163z" />
<glyph unicode="&#xdd;" horiz-adv-x="1353" d="M68 1434h190l420 -717l420 717h190l-526 -869v-565h-168v565zM608 1559h140l221 262h-224z" />
<glyph unicode="&#xde;" horiz-adv-x="1310" d="M150 0v1434h157v-277h340q245 0 390 -120.5t145 -315.5q0 -207 -142.5 -321.5t-392.5 -114.5h-340v-285h-157zM307 424h344q181 0 277 68t96 229q0 150 -98.5 224.5t-274.5 74.5h-344v-596z" />
<glyph unicode="&#xdf;" horiz-adv-x="1200" d="M119 0v1032q0 198 113.5 300t332.5 102q209 0 334 -95.5t125 -265.5q0 -114 -58.5 -189t-164.5 -98q145 -27 228 -126.5t83 -239.5q0 -213 -135 -316.5t-404 -103.5h-127v139h129q186 0 282.5 67t96.5 214q0 145 -101.5 218t-285.5 73h-121v137h121q158 0 228.5 51 t70.5 174q0 223 -297 223q-155 0 -224 -63t-69 -201v-1032h-157z" />
<glyph unicode="&#xe0;" d="M68 293q0 141 93.5 218t274.5 101q12 2 63 8t73 9t66.5 10t69.5 13t54 15t47 19v23q0 137 -63 190t-201 53q-235 0 -260 -149h-152q17 135 124.5 204.5t289.5 69.5q218 0 319 -93t101 -312v-484q0 -44 19 -62t65 -17v-109q-34 -10 -70 -10q-78 0 -118 35.5t-40 117.5v74 q-11 -23 -28 -47.5t-52 -60t-77 -62t-106.5 -46t-137.5 -19.5q-158 0 -256 80.5t-98 230.5zM227 299q0 -89 57.5 -141t161.5 -52q65 0 123 19t96 45t70.5 61t48 59t25.5 46v237q-12 -7 -29 -13t-42.5 -12t-45 -10t-58.5 -10.5t-59.5 -9.5t-70.5 -10t-70 -10 q-111 -17 -159 -65t-48 -134zM258 1452h223l137 -262h-139z" />
<glyph unicode="&#xe1;" d="M68 293q0 141 93.5 218t274.5 101q12 2 63 8t73 9t66.5 10t69.5 13t54 15t47 19v23q0 137 -63 190t-201 53q-235 0 -260 -149h-152q17 135 124.5 204.5t289.5 69.5q218 0 319 -93t101 -312v-484q0 -44 19 -62t65 -17v-109q-34 -10 -70 -10q-78 0 -118 35.5t-40 117.5v74 q-11 -23 -28 -47.5t-52 -60t-77 -62t-106.5 -46t-137.5 -19.5q-158 0 -256 80.5t-98 230.5zM227 299q0 -89 57.5 -141t161.5 -52q65 0 123 19t96 45t70.5 61t48 59t25.5 46v237q-12 -7 -29 -13t-42.5 -12t-45 -10t-58.5 -10.5t-59.5 -9.5t-70.5 -10t-70 -10 q-111 -17 -159 -65t-48 -134zM473 1190l137 262h224l-222 -262h-139z" />
<glyph unicode="&#xe2;" d="M68 293q0 141 93.5 218t274.5 101q12 2 63 8t73 9t66.5 10t69.5 13t54 15t47 19v23q0 137 -63 190t-201 53q-235 0 -260 -149h-152q17 135 124.5 204.5t289.5 69.5q218 0 319 -93t101 -312v-484q0 -44 19 -62t65 -17v-109q-34 -10 -70 -10q-78 0 -118 35.5t-40 117.5v74 q-11 -23 -28 -47.5t-52 -60t-77 -62t-106.5 -46t-137.5 -19.5q-158 0 -256 80.5t-98 230.5zM219 1188l184 264h277l184 -264h-127l-194 182l-197 -182h-127zM227 299q0 -89 57.5 -141t161.5 -52q65 0 123 19t96 45t70.5 61t48 59t25.5 46v237q-12 -7 -29 -13t-42.5 -12 t-45 -10t-58.5 -10.5t-59.5 -9.5t-70.5 -10t-70 -10q-111 -17 -159 -65t-48 -134z" />
<glyph unicode="&#xe3;" d="M68 293q0 141 93.5 218t274.5 101q12 2 63 8t73 9t66.5 10t69.5 13t54 15t47 19v23q0 137 -63 190t-201 53q-235 0 -260 -149h-152q17 135 124.5 204.5t289.5 69.5q218 0 319 -93t101 -312v-484q0 -44 19 -62t65 -17v-109q-34 -10 -70 -10q-78 0 -118 35.5t-40 117.5v74 q-11 -23 -28 -47.5t-52 -60t-77 -62t-106.5 -46t-137.5 -19.5q-158 0 -256 80.5t-98 230.5zM184 1290q0 93 57.5 148t145.5 55q40 0 77 -15t66 -36.5t57 -43.5t61 -37t67 -15q53 0 81.5 27t26.5 61h76q0 -93 -57.5 -148t-145.5 -55q-40 0 -77 15t-65.5 36.5t-56.5 43.5 t-61 37t-67 15q-53 0 -81 -27t-26 -61h-78zM227 299q0 -89 57.5 -141t161.5 -52q65 0 123 19t96 45t70.5 61t48 59t25.5 46v237q-12 -7 -29 -13t-42.5 -12t-45 -10t-58.5 -10.5t-59.5 -9.5t-70.5 -10t-70 -10q-111 -17 -159 -65t-48 -134z" />
<glyph unicode="&#xe4;" d="M68 293q0 141 93.5 218t274.5 101q12 2 63 8t73 9t66.5 10t69.5 13t54 15t47 19v23q0 137 -63 190t-201 53q-235 0 -260 -149h-152q17 135 124.5 204.5t289.5 69.5q218 0 319 -93t101 -312v-484q0 -44 19 -62t65 -17v-109q-34 -10 -70 -10q-78 0 -118 35.5t-40 117.5v74 q-11 -23 -28 -47.5t-52 -60t-77 -62t-106.5 -46t-137.5 -19.5q-158 0 -256 80.5t-98 230.5zM227 299q0 -89 57.5 -141t161.5 -52q65 0 123 19t96 45t70.5 61t48 59t25.5 46v237q-12 -7 -29 -13t-42.5 -12t-45 -10t-58.5 -10.5t-59.5 -9.5t-70.5 -10t-70 -10 q-111 -17 -159 -65t-48 -134zM244 1270v182h166v-182h-166zM680 1270v182h164v-182h-164z" />
<glyph unicode="&#xe5;" d="M68 293q0 141 93.5 218t274.5 101q12 2 63 8t73 9t66.5 10t69.5 13t54 15t47 19v23q0 137 -63 190t-201 53q-235 0 -260 -149h-152q17 135 124.5 204.5t289.5 69.5q218 0 319 -93t101 -312v-484q0 -44 19 -62t65 -17v-109q-34 -10 -70 -10q-78 0 -118 35.5t-40 117.5v74 q-11 -23 -28 -47.5t-52 -60t-77 -62t-106.5 -46t-137.5 -19.5q-158 0 -256 80.5t-98 230.5zM227 299q0 -89 57.5 -141t161.5 -52q65 0 123 19t96 45t70.5 61t48 59t25.5 46v237q-12 -7 -29 -13t-42.5 -12t-45 -10t-58.5 -10.5t-59.5 -9.5t-70.5 -10t-70 -10 q-111 -17 -159 -65t-48 -134zM367 1362q0 72 51.5 123t126.5 51q71 0 121.5 -51t50.5 -123q0 -70 -50.5 -121t-121.5 -51q-75 0 -126.5 50.5t-51.5 121.5zM446 1362q0 -38 28.5 -66t66.5 -28q40 0 68 28t28 66q0 41 -28 68.5t-68 27.5q-39 0 -67 -27.5t-28 -68.5z" />
<glyph unicode="&#xe6;" horiz-adv-x="1843" d="M68 293q0 141 93.5 218t274.5 101q12 2 63 8t73 9t66.5 10t69.5 13t54 15t47 19q0 151 -63.5 208.5t-202.5 57.5q-230 0 -258 -149h-152q17 135 124 204.5t288 69.5q147 0 239.5 -42t137.5 -138q68 89 168 134.5t210 45.5q96 0 179.5 -33t151 -97.5t106.5 -173.5t39 -249 v-49h-809q7 -92 38 -163t79 -113.5t106.5 -64t126.5 -21.5q90 0 156.5 27.5t115.5 92.5h156q-67 -133 -173.5 -192t-264.5 -59q-92 0 -176 29t-157 94.5t-114 160.5q-24 -50 -58.5 -95.5t-87 -90.5t-128 -71.5t-164.5 -26.5q-158 0 -256 80.5t-98 230.5zM227 299 q0 -89 57.5 -141t161.5 -52q65 0 123 18.5t96.5 45.5t70 61.5t47.5 61.5t26 51v174v12v13v30q-12 -7 -29 -13t-42.5 -12t-45 -10t-58.5 -10.5t-59.5 -9.5t-70.5 -10t-70 -10q-111 -17 -159 -65t-48 -134zM967 586h653q-9 177 -97.5 268.5t-222.5 91.5q-132 0 -225.5 -92 t-107.5 -268z" />
<glyph unicode="&#xe7;" horiz-adv-x="1046" d="M68 530q0 139 41.5 247t112 172t155 96t178.5 32q338 0 430 -309h-145q-36 89 -104 133.5t-179 44.5q-69 0 -128.5 -25t-106 -74.5t-73 -131t-26.5 -185.5t26.5 -185.5t73 -131t106 -75t128.5 -25.5q114 0 182.5 46t104.5 140h145q-80 -288 -375 -315l-88 -95 q74 8 132.5 -33.5t58.5 -119.5q0 -189 -314 -189v74q187 3 187 111q0 55 -48 73t-108 -14l-26 41l-15 23l84 133q-66 10 -125 35t-111.5 70t-90.5 106t-60 146t-22 185z" />
<glyph unicode="&#xe8;" horiz-adv-x="1101" d="M68 530q0 110 28 201.5t75 154.5t110.5 106.5t133.5 64t144 20.5q96 0 179.5 -33t150.5 -98t106 -173.5t39 -248.5v-49h-811q7 -92 38 -162.5t79.5 -113.5t107.5 -64.5t127 -21.5q91 0 157.5 27.5t115.5 92.5h153q-66 -133 -172.5 -192t-265.5 -59q-74 0 -144.5 20 t-134.5 63t-111.5 106t-76 155.5t-28.5 203.5zM223 586h656q-9 177 -97.5 268.5t-222.5 91.5q-64 0 -120 -22t-102.5 -65t-76.5 -113t-37 -160zM272 1452h224l137 -262h-139z" />
<glyph unicode="&#xe9;" horiz-adv-x="1101" d="M68 530q0 110 28 201.5t75 154.5t110.5 106.5t133.5 64t144 20.5q96 0 179.5 -33t150.5 -98t106 -173.5t39 -248.5v-49h-811q7 -92 38 -162.5t79.5 -113.5t107.5 -64.5t127 -21.5q91 0 157.5 27.5t115.5 92.5h153q-66 -133 -172.5 -192t-265.5 -59q-74 0 -144.5 20 t-134.5 63t-111.5 106t-76 155.5t-28.5 203.5zM223 586h656q-9 177 -97.5 268.5t-222.5 91.5q-64 0 -120 -22t-102.5 -65t-76.5 -113t-37 -160zM487 1190l138 262h223l-221 -262h-140z" />
<glyph unicode="&#xea;" horiz-adv-x="1101" d="M68 530q0 110 28 201.5t75 154.5t110.5 106.5t133.5 64t144 20.5q96 0 179.5 -33t150.5 -98t106 -173.5t39 -248.5v-49h-811q7 -92 38 -162.5t79.5 -113.5t107.5 -64.5t127 -21.5q91 0 157.5 27.5t115.5 92.5h153q-66 -133 -172.5 -192t-265.5 -59q-74 0 -144.5 20 t-134.5 63t-111.5 106t-76 155.5t-28.5 203.5zM223 586h656q-9 177 -97.5 268.5t-222.5 91.5q-64 0 -120 -22t-102.5 -65t-76.5 -113t-37 -160zM233 1188l185 264h276l185 -264h-127l-195 182l-197 -182h-127z" />
<glyph unicode="&#xeb;" horiz-adv-x="1101" d="M68 530q0 110 28 201.5t75 154.5t110.5 106.5t133.5 64t144 20.5q96 0 179.5 -33t150.5 -98t106 -173.5t39 -248.5v-49h-811q7 -92 38 -162.5t79.5 -113.5t107.5 -64.5t127 -21.5q91 0 157.5 27.5t115.5 92.5h153q-66 -133 -172.5 -192t-265.5 -59q-74 0 -144.5 20 t-134.5 63t-111.5 106t-76 155.5t-28.5 203.5zM223 586h656q-9 177 -97.5 268.5t-222.5 91.5q-64 0 -120 -22t-102.5 -65t-76.5 -113t-37 -160zM258 1270v182h166v-182h-166zM694 1270v182h164v-182h-164z" />
<glyph unicode="&#xec;" horiz-adv-x="385" d="M-92 1452l221 -262h139l-137 262h-223zM115 0v1065h157v-1065h-157z" />
<glyph unicode="&#xed;" horiz-adv-x="385" d="M115 0v1065h157v-1065h-157zM123 1190h139l221 262h-223z" />
<glyph unicode="&#xee;" horiz-adv-x="385" d="M-131 1188l184 264h277l184 -264h-127l-194 182l-197 -182h-127zM115 0v1065h157v-1065h-157z" />
<glyph unicode="&#xef;" horiz-adv-x="385" d="M-109 1270v182h166v-182h-166zM115 0v1065h157v-1065h-157zM328 1270v182h164v-182h-164z" />
<glyph unicode="&#xf0;" horiz-adv-x="1167" d="M68 516q0 264 127 406.5t356 142.5q160 0 240 -80q-83 127 -134 193l-223 -27v90l160 21q-63 84 -139 172h170l123 -152l192 25v-93l-127 -16q123 -163 182.5 -326t59.5 -348q0 -132 -39 -236.5t-108 -171t-160 -101.5t-197 -35q-98 0 -184.5 35t-153.5 100.5t-106 169 t-39 231.5zM225 516q0 -194 94 -295.5t232 -101.5q71 0 132.5 24t110 71t76 124.5t27.5 177.5q0 410 -346 410q-156 0 -241 -99.5t-85 -310.5z" />
<glyph unicode="&#xf1;" horiz-adv-x="1144" d="M115 0v1065h157v-246q10 33 37.5 73.5t73 83t116.5 71t152 28.5q83 0 149.5 -22t119.5 -70t81.5 -132t28.5 -200v-651h-158v641q0 297 -262 297q-59 0 -112.5 -19.5t-90.5 -49.5t-66.5 -68t-46 -74t-22.5 -68v-659h-157zM213 1290q0 93 57.5 148t145.5 55q40 0 77 -15 t66 -36.5t57 -43.5t60.5 -37t66.5 -15q53 0 82 27t27 61h76q0 -93 -57.5 -148t-145.5 -55q-49 0 -95 23t-76.5 50.5t-73 50.5t-83.5 23q-53 0 -80.5 -27t-25.5 -61h-78z" />
<glyph unicode="&#xf2;" horiz-adv-x="1118" d="M68 530q0 136 43.5 244t115 172.5t157 97.5t175.5 33q72 0 141 -20t133.5 -64t113 -106.5t77.5 -154.5t29 -202q0 -137 -44 -245.5t-116.5 -172.5t-157.5 -97t-176 -33q-72 0 -141 20t-132.5 63.5t-111.5 106.5t-77 155.5t-29 202.5zM223 530q0 -105 28 -186.5t76 -131 t107 -74.5t125 -25q67 0 126.5 25t107.5 74.5t76 131t28 186.5t-28 186.5t-76 130.5t-107.5 74t-126.5 25q-66 0 -125 -25t-107 -74t-76 -130.5t-28 -186.5zM274 1452l222 -262h139l-137 262h-224z" />
<glyph unicode="&#xf3;" horiz-adv-x="1118" d="M68 530q0 136 43.5 244t115 172.5t157 97.5t175.5 33q72 0 141 -20t133.5 -64t113 -106.5t77.5 -154.5t29 -202q0 -137 -44 -245.5t-116.5 -172.5t-157.5 -97t-176 -33q-72 0 -141 20t-132.5 63.5t-111.5 106.5t-77 155.5t-29 202.5zM223 530q0 -105 28 -186.5t76 -131 t107 -74.5t125 -25q67 0 126.5 25t107.5 74.5t76 131t28 186.5t-28 186.5t-76 130.5t-107.5 74t-126.5 25q-66 0 -125 -25t-107 -74t-76 -130.5t-28 -186.5zM489 1190h140l221 262h-223z" />
<glyph unicode="&#xf4;" horiz-adv-x="1118" d="M68 530q0 136 43.5 244t115 172.5t157 97.5t175.5 33q72 0 141 -20t133.5 -64t113 -106.5t77.5 -154.5t29 -202q0 -137 -44 -245.5t-116.5 -172.5t-157.5 -97t-176 -33q-72 0 -141 20t-132.5 63.5t-111.5 106.5t-77 155.5t-29 202.5zM223 530q0 -105 28 -186.5t76 -131 t107 -74.5t125 -25q67 0 126.5 25t107.5 74.5t76 131t28 186.5t-28 186.5t-76 130.5t-107.5 74t-126.5 25q-66 0 -125 -25t-107 -74t-76 -130.5t-28 -186.5zM236 1188l184 264h276l185 -264h-127l-195 182l-197 -182h-126z" />
<glyph unicode="&#xf5;" horiz-adv-x="1118" d="M68 530q0 136 43.5 244t115 172.5t157 97.5t175.5 33q72 0 141 -20t133.5 -64t113 -106.5t77.5 -154.5t29 -202q0 -137 -44 -245.5t-116.5 -172.5t-157.5 -97t-176 -33q-72 0 -141 20t-132.5 63.5t-111.5 106.5t-77 155.5t-29 202.5zM201 1290q0 93 57 148t145 55 q40 0 77 -15t66 -36.5t57 -43.5t61 -37t67 -15q53 0 82 27t27 61h75q0 -93 -57 -148t-145 -55q-49 0 -95 23t-76.5 50.5t-73 50.5t-83.5 23q-53 0 -80.5 -27t-25.5 -61h-78zM223 530q0 -105 28 -186.5t76 -131t107 -74.5t125 -25q67 0 126.5 25t107.5 74.5t76 131t28 186.5 t-28 186.5t-76 130.5t-107.5 74t-126.5 25q-66 0 -125 -25t-107 -74t-76 -130.5t-28 -186.5z" />
<glyph unicode="&#xf6;" horiz-adv-x="1118" d="M68 530q0 136 43.5 244t115 172.5t157 97.5t175.5 33q72 0 141 -20t133.5 -64t113 -106.5t77.5 -154.5t29 -202q0 -137 -44 -245.5t-116.5 -172.5t-157.5 -97t-176 -33q-72 0 -141 20t-132.5 63.5t-111.5 106.5t-77 155.5t-29 202.5zM223 530q0 -105 28 -186.5t76 -131 t107 -74.5t125 -25q67 0 126.5 25t107.5 74.5t76 131t28 186.5t-28 186.5t-76 130.5t-107.5 74t-126.5 25q-66 0 -125 -25t-107 -74t-76 -130.5t-28 -186.5zM260 1270v182h166v-182h-166zM696 1270v182h164v-182h-164z" />
<glyph unicode="&#xf7;" horiz-adv-x="940" d="M96 516v115h752v-115h-752zM395 252q0 31 23 53.5t55 22.5t55 -22.5t23 -53.5q0 -32 -23 -55t-55 -23t-55 23t-23 55zM395 895q0 31 23 54.5t55 23.5t55 -23.5t23 -54.5q0 -32 -23 -55t-55 -23t-55 23t-23 55z" />
<glyph unicode="&#xf8;" horiz-adv-x="1118" d="M68 530q0 136 43.5 244t115 172.5t157 97.5t175.5 33t164 -28l65 135h162l-98 -203q93 -70 147 -183.5t54 -267.5q0 -137 -44 -245.5t-116.5 -172.5t-157.5 -97t-176 -33q-87 0 -172 30l-53 -114h-162l88 186q-89 68 -140.5 180.5t-51.5 265.5zM223 530q0 -202 101 -315 l342 713q-52 18 -107 18q-66 0 -125 -25t-107 -74t-76 -130.5t-28 -186.5zM446 133q50 -20 113 -20q67 0 126.5 25t107.5 74.5t76 131t28 186.5q0 208 -109 320z" />
<glyph unicode="&#xf9;" horiz-adv-x="1144" d="M115 414v651h157v-641q0 -295 263 -295q73 0 136 28.5t103.5 73t65.5 89.5t34 86v659h158v-1065h-158v246q-11 -34 -38.5 -74t-73 -82.5t-116.5 -71t-152 -28.5q-83 0 -149.5 22t-119.5 70t-81.5 132t-28.5 200zM289 1452h223l137 -262h-139z" />
<glyph unicode="&#xfa;" horiz-adv-x="1144" d="M115 414v651h157v-641q0 -295 263 -295q73 0 136 28.5t103.5 73t65.5 89.5t34 86v659h158v-1065h-158v246q-11 -34 -38.5 -74t-73 -82.5t-116.5 -71t-152 -28.5q-83 0 -149.5 22t-119.5 70t-81.5 132t-28.5 200zM504 1190l137 262h223l-221 -262h-139z" />
<glyph unicode="&#xfb;" horiz-adv-x="1144" d="M115 414v651h157v-641q0 -295 263 -295q73 0 136 28.5t103.5 73t65.5 89.5t34 86v659h158v-1065h-158v246q-11 -34 -38.5 -74t-73 -82.5t-116.5 -71t-152 -28.5q-83 0 -149.5 22t-119.5 70t-81.5 132t-28.5 200zM250 1188l184 264h277l184 -264h-127l-195 182l-196 -182 h-127z" />
<glyph unicode="&#xfc;" horiz-adv-x="1144" d="M115 414v651h157v-641q0 -295 263 -295q73 0 136 28.5t103.5 73t65.5 89.5t34 86v659h158v-1065h-158v246q-11 -34 -38.5 -74t-73 -82.5t-116.5 -71t-152 -28.5q-83 0 -149.5 22t-119.5 70t-81.5 132t-28.5 200zM274 1270v182h166v-182h-166zM711 1270v182h163v-182h-163 z" />
<glyph unicode="&#xfd;" horiz-adv-x="1081" d="M47 1065h156l334 -889l342 889h157l-450 -1153q-35 -89 -79.5 -149t-99.5 -92t-111 -46t-128 -16v137q207 11 270 174l25 66zM475 1190l137 262h224l-222 -262h-139z" />
<glyph unicode="&#xfe;" horiz-adv-x="1202" d="M102 -389v1454v369h158v-568q22 43 47 74q109 137 307 137h2q86 0 165.5 -32t146.5 -95t107.5 -170t41.5 -243v-2v-3v-2v-2q-1 -138 -41.5 -246t-107.5 -171.5t-146.5 -96t-165.5 -32.5q-130 0 -221.5 62t-134.5 165v-598h-158zM252 532q0 -161 70 -272 q44 -70 114.5 -104.5t153.5 -34.5q117 0 202.5 67t114.5 205q15 62 15 139q0 113 -33 207q-40 102 -119.5 152.5t-179.5 50.5q-153 0 -244 -104q-94 -112 -94 -306z" />
<glyph unicode="&#xff;" horiz-adv-x="1081" d="M47 1065h156l334 -889l342 889h157l-450 -1153q-35 -89 -79.5 -149t-99.5 -92t-111 -46t-128 -16v137q207 11 270 174l25 66zM244 1270v182h166v-182h-166zM680 1270v182h164v-182h-164z" />
<glyph unicode="&#x152;" horiz-adv-x="2154" d="M78 717q0 185 45.5 326t128.5 229.5t196.5 133t253.5 44.5q294 0 457 -184v168h897v-152h-729v-473h606v-143h-606v-514h750v-152h-918v168q-163 -184 -457 -184q-140 0 -253.5 44.5t-196.5 133t-128.5 229.5t-45.5 326zM250 717q0 -295 119.5 -438.5t332.5 -143.5 q214 0 333.5 143.5t119.5 438.5t-119.5 438t-333.5 143t-333 -143t-119 -438z" />
<glyph unicode="&#x153;" horiz-adv-x="1931" d="M68 530q0 136 43.5 244t115 172.5t157 97.5t175.5 33q124 0 235 -59t179 -174q66 115 177 174t236 59q96 0 180.5 -33t152 -98t106.5 -173.5t39 -248.5v-49h-811q7 -92 38 -163t79.5 -113.5t107.5 -64t127 -21.5q90 0 156.5 27.5t115.5 92.5h154q-66 -133 -172.5 -192 t-265.5 -59q-127 0 -239.5 59t-180.5 174q-68 -115 -179 -174t-235 -59q-72 0 -141 20t-132.5 63.5t-111.5 106.5t-77 155.5t-29 202.5zM223 530q0 -105 28 -186.5t76 -131t107 -74.5t125 -25q67 0 126.5 25t107.5 74.5t76 131t28 186.5t-28 186.5t-76 130.5t-107.5 74 t-126.5 25q-66 0 -125 -25t-107 -74t-76 -130.5t-28 -186.5zM1053 586h655q-9 177 -97.5 268.5t-224.5 91.5q-85 0 -155 -38t-119 -121t-59 -201z" />
<glyph unicode="&#x178;" horiz-adv-x="1353" d="M68 1434h190l420 -717l420 717h190l-526 -869v-565h-168v565zM377 1638v183h166v-183h-166zM813 1638v183h164v-183h-164z" />
<glyph unicode="&#x2c6;" horiz-adv-x="645" d="M0 1188l184 264h277l184 -264h-127l-194 182l-197 -182h-127z" />
<glyph unicode="&#x2dc;" horiz-adv-x="714" d="M0 1290q0 93 57.5 148t145.5 55q40 0 77 -15t66 -36.5t57 -43.5t60.5 -37t66.5 -15q53 0 82 27t27 61h76q0 -93 -57.5 -148t-145.5 -55q-49 0 -95 23t-76.5 50.5t-73 50.5t-83.5 23q-53 0 -80.5 -27t-25.5 -61h-78z" />
<glyph unicode="&#x2000;" horiz-adv-x="952" />
<glyph unicode="&#x2001;" horiz-adv-x="1905" />
<glyph unicode="&#x2002;" horiz-adv-x="952" />
<glyph unicode="&#x2003;" horiz-adv-x="1905" />
<glyph unicode="&#x2004;" horiz-adv-x="635" />
<glyph unicode="&#x2005;" horiz-adv-x="476" />
<glyph unicode="&#x2006;" horiz-adv-x="317" />
<glyph unicode="&#x2007;" horiz-adv-x="317" />
<glyph unicode="&#x2008;" horiz-adv-x="238" />
<glyph unicode="&#x2009;" horiz-adv-x="381" />
<glyph unicode="&#x200a;" horiz-adv-x="105" />
<glyph unicode="&#x2010;" horiz-adv-x="878" d="M92 516v115h694v-115h-694z" />
<glyph unicode="&#x2011;" horiz-adv-x="878" d="M92 516v115h694v-115h-694z" />
<glyph unicode="&#x2012;" horiz-adv-x="878" d="M92 516v115h694v-115h-694z" />
<glyph unicode="&#x2013;" horiz-adv-x="1228" d="M92 510v127h1045v-127h-1045z" />
<glyph unicode="&#x2014;" horiz-adv-x="1351" d="M92 510v127h1168v-127h-1168z" />
<glyph unicode="&#x2018;" horiz-adv-x="360" d="M82 940v254q0 227 205 240v-54q-40 -22 -54 -62t-14 -118v-61h70v-199h-207z" />
<glyph unicode="&#x2019;" horiz-adv-x="360" d="M82 1235v199h207v-252q0 -225 -205 -242v55q39 21 52.5 61t13.5 118v61h-68z" />
<glyph unicode="&#x201a;" horiz-adv-x="360" d="M82 -74v199h207v-254q0 -227 -205 -240v54q40 22 53 61.5t13 118.5v61h-68z" />
<glyph unicode="&#x201c;" horiz-adv-x="688" d="M82 940v254q0 227 205 240v-54q-40 -22 -54 -62t-14 -118v-61h70v-199h-207zM412 940v254q0 228 204 240v-54q-41 -22 -54 -61t-13 -119v-61h67v-199h-204z" />
<glyph unicode="&#x201d;" horiz-adv-x="688" d="M82 1014v53q41 22 54.5 61.5t13.5 118.5v62h-68v198h205v-254q0 -226 -205 -239zM412 1014v55q41 21 54 60t13 118v62h-67v198h204v-252q0 -68 -17.5 -116t-48.5 -73.5t-64 -37t-74 -14.5z" />
<glyph unicode="&#x201e;" horiz-adv-x="681" d="M82 -74v199h207v-254q0 -227 -205 -240v54q40 22 53 61.5t13 118.5v61h-68zM403 -74v199h209v-254q0 -227 -206 -240v54q39 22 52 61t13 119v61h-68z" />
<glyph unicode="&#x2022;" horiz-adv-x="532" d="M102 541q0 68 48.5 116t117.5 48q66 0 114 -48.5t48 -115.5q0 -69 -48 -117.5t-114 -48.5q-69 0 -117.5 48.5t-48.5 117.5z" />
<glyph unicode="&#x2026;" horiz-adv-x="1396" d="M102 0v205h185v-205h-185zM608 0v205h185v-205h-185zM1114 0v205h184v-205h-184z" />
<glyph unicode="&#x202f;" horiz-adv-x="381" />
<glyph unicode="&#x2039;" horiz-adv-x="450" d="M92 473v275l266 186v-129l-184 -193l184 -196v-127z" />
<glyph unicode="&#x203a;" horiz-adv-x="450" d="M92 289v127l184 196l-184 195v127l266 -184v-277z" />
<glyph unicode="&#x205f;" horiz-adv-x="476" />
<glyph unicode="&#x20ac;" horiz-adv-x="1388" d="M72 526v103h100q-2 29 -2 88v47h-98v100h106q17 147 69.5 259.5t133.5 183.5t184.5 107t227.5 36q213 0 354.5 -95t179.5 -274h-164q-39 109 -128 163t-240 54q-184 0 -299.5 -107t-145.5 -327h391v-100h-399v-47q0 -59 2 -88h397v-103h-383q36 -197 149.5 -294 t287.5 -97q153 0 243 54.5t129 164.5h164q-38 -180 -180.5 -275t-357.5 -95q-161 0 -285.5 57t-210 180.5t-113.5 304.5h-112z" />
<glyph unicode="&#x2122;" horiz-adv-x="1048" d="M102 1366v68h340v-68h-131v-301h-78v301h-131zM514 1065v369h78l139 -293l137 293h78v-369h-78v235l-106 -235h-64l-106 235v-235h-78z" />
<glyph unicode="&#x25fc;" horiz-adv-x="1064" d="M0 0v1065h1065v-1065h-1065z" />
</font>
</defs>
</svg>
