<?xml version="1.0" standalone="no"?>
<!DOCTYPE svg PUBLIC "-//W3C//DTD SVG 1.1//EN" "http://www.w3.org/Graphics/SVG/1.1/DTD/svg11.dtd" >
<svg xmlns="http://www.w3.org/2000/svg">
<metadata></metadata>
<defs>
<font id="alsschlangeslab-buploadedfile" horiz-adv-x="1150" >
<font-face units-per-em="2048" ascent="1575" descent="-473" />
<missing-glyph horiz-adv-x="491" />
<glyph unicode="&#xfb01;" horiz-adv-x="1097" d="M35 -315q0 98 104 98h49v1218q0 217 82 318q89 115 291 115q155 0 246 -50q71 -43 49 -120q-23 -75 -127 -54q-99 27 -158 27q-151 0 -151 -164v-69h371q59 0 89 -35q29 -33 29 -86v-690h47q107 0 107 -99q0 -94 -107 -94h-327q-105 0 -105 94q0 99 105 99h49v614h-258 v-1024h47q106 0 106 -98q0 -95 -106 -95h-328q-104 0 -104 95z" />
<glyph unicode="&#xfb02;" horiz-adv-x="1097" d="M35 -315q0 98 104 98h49v1223q0 228 93 329q91 99 276 99q167 0 268 -52q55 -28 70 -70q14 -39 14 -114v-1005h47q107 0 107 -99q0 -94 -107 -94h-327q-105 0 -105 94q0 99 105 99h49v1034q-51 18 -111 18q-147 0 -147 -168v-73h67q111 0 111 -99q0 -98 -111 -98h-67 v-1024h47q106 0 106 -98q0 -95 -106 -95h-328q-104 0 -104 95z" />
<glyph horiz-adv-x="0" />
<glyph unicode="&#xd;" horiz-adv-x="681" />
<glyph unicode=" "  horiz-adv-x="491" />
<glyph unicode="&#x09;" horiz-adv-x="491" />
<glyph unicode="&#xa0;" horiz-adv-x="491" />
<glyph unicode="!" horiz-adv-x="505" d="M111 131q0 60 36 96q37 37 105 37t105 -37q38 -38 38 -96q0 -59 -38 -95q-37 -36 -105 -36q-70 0 -106 36q-35 35 -35 95zM135 530v775q0 48 31 84q30 34 86 34t85 -33q30 -34 30 -85v-775q0 -52 -30 -87q-29 -33 -85 -33q-57 0 -86 33q-31 36 -31 87z" />
<glyph unicode="&#x22;" horiz-adv-x="708" d="M121 1053v276q0 45 24 75t72 30t72 -30t24 -75v-276q0 -46 -24 -74q-24 -29 -72 -29t-72 29q-24 28 -24 74zM393 1053v276q0 44 26 75q26 30 73 30t71 -30q25 -31 25 -75v-276q0 -44 -25 -74q-24 -29 -71 -29t-73 29t-26 74z" />
<glyph unicode="#" horiz-adv-x="1314" d="M76 481q0 84 94 84h129l94 269h-102q-94 0 -94 86q0 84 94 84h164l125 354q33 96 118 69q78 -24 41 -124l-106 -299h237l125 354q33 96 119 69q78 -24 41 -124l-106 -299h98q92 0 92 -84q0 -41 -25 -64q-23 -22 -67 -22h-158l-94 -269h129q92 0 92 -84q0 -41 -24 -63 q-25 -23 -68 -23h-190l-113 -323q-41 -115 -125 -88q-44 12 -51 54q-8 43 10 77l98 280h-235l-113 -323q-41 -115 -125 -88q-44 12 -51 54q-8 43 10 77l99 280h-68q-94 0 -94 86zM479 565h236l94 269h-236z" />
<glyph unicode="$" d="M117 195v149q0 46 28 77q29 32 78 32t74 -31t25 -78v-106q120 -56 243 -56q112 0 174 50t62 141q0 72 -49 128q-48 55 -122 89l-158 75q-88 43 -158 87q-71 44 -121 126t-50 187q0 141 81 239q80 97 251 121v101q0 50 27 85q27 34 82 34q56 0 83 -34q27 -35 27 -85v-101 q127 -21 209 -67q86 -50 86 -133v-148q0 -49 -26 -78q-27 -30 -76 -30t-76 30t-27 78v103q-110 49 -202 49q-100 0 -150 -40q-51 -41 -51 -108q0 -75 68 -131q67 -55 163 -97q99 -43 194 -93q96 -50 165 -145q67 -92 67 -224q0 -145 -87 -255q-86 -109 -257 -142v-107 q0 -51 -27 -86q-27 -34 -83 -34q-55 0 -82 34q-27 35 -27 86v95q-166 12 -266 73q-92 56 -92 140z" />
<glyph unicode="%" horiz-adv-x="1726" d="M55 1042q0 182 87 287t245 105t245 -105t87 -287q0 -180 -87 -283q-87 -104 -245 -104t-245 104q-87 103 -87 283zM256 1042q0 -217 131 -217t131 217q0 222 -131 222t-131 -222zM543 70l477 1353q39 119 127 86q77 -27 37 -145l-473 -1356q-41 -114 -131 -84 q-78 27 -37 146zM1008 367q0 181 87 286t244 105q158 0 245 -105t87 -286q0 -180 -87 -284q-87 -103 -245 -103q-157 0 -244 103q-87 104 -87 284zM1208 367q0 -217 131 -217t131 217q0 221 -131 221t-131 -221z" />
<glyph unicode="&#x26;" horiz-adv-x="1425" d="M100 356q0 129 71 226q69 94 218 202q-125 173 -125 320q0 146 96 237q98 93 265 93q163 0 246 -77t83 -190q0 -103 -64 -194q-65 -92 -212 -203q96 -116 295 -309q38 60 61 141h-28q-105 0 -105 94q0 99 105 99h268q106 0 106 -99q0 -94 -106 -94h-43 q-33 -161 -111 -285q26 -26 140 -124h69q107 0 107 -99q0 -94 -107 -94h-123q-48 0 -110 57q-8 9 -109 97q-189 -174 -444 -174q-193 0 -318 95t-125 281zM334 373q0 -81 60 -139q59 -58 163 -58q168 0 285 111q-158 145 -338 356q-96 -76 -133 -136q-37 -59 -37 -134z M494 1116q0 -92 79 -205q187 137 187 242q0 49 -34 79t-93 30t-99 -39t-40 -107z" />
<glyph unicode="'" horiz-adv-x="434" d="M121 1053v276q0 45 24 75t72 30t72 -30t24 -75v-276q0 -46 -24 -74q-24 -29 -72 -29t-72 29q-24 28 -24 74z" />
<glyph unicode="(" horiz-adv-x="645" d="M100 707q0 251 81 463q82 214 202 337q114 119 197 41q63 -60 -21 -174q-231 -309 -225 -667q-6 -354 225 -668q84 -113 21 -174q-83 -80 -197 41q-121 127 -202 338t-81 463z" />
<glyph unicode=")" horiz-adv-x="645" d="M109 -135q-64 62 20 174q231 314 225 668q6 358 -225 667q-84 113 -20 174q82 78 196 -41q120 -123 202 -337q81 -212 81 -463q0 -252 -81 -463t-202 -338q-113 -121 -196 -41z" />
<glyph unicode="*" horiz-adv-x="763" d="M143 973q-37 71 35 114l74 41l-74 43q-72 44 -35 115q21 40 59 45q37 4 64 -18l70 -49l-4 84q0 86 88 86q91 0 86 -86l-4 -84l69 49q23 22 62 17q36 -4 59 -44q41 -74 -33 -115l-75 -43l75 -41q70 -38 33 -114q-21 -43 -58 -47q-39 -5 -63 18l-69 51l4 -84q0 -86 -86 -86 q-45 0 -68 25q-22 23 -20 61l4 84l-70 -51q-26 -21 -63 -17t-60 46z" />
<glyph unicode="+" horiz-adv-x="1071" d="M100 662q0 46 30 72q31 26 79 26h219v219q0 121 107 121q106 0 106 -121v-219h221q48 0 79 -26q30 -26 30 -72q0 -99 -109 -99h-221v-219q0 -119 -106 -119q-107 0 -107 119v219h-219q-109 0 -109 99z" />
<glyph unicode="," horiz-adv-x="495" d="M80 -106l164 307q55 107 145 61q43 -22 49 -69t-18 -80l-164 -310q-57 -111 -150 -61q-83 45 -26 152z" />
<glyph unicode="-" horiz-adv-x="757" d="M18 547q0 47 31 75q30 27 80 27h500q50 0 80 -27t30 -75q0 -49 -30 -76t-80 -27h-500q-50 0 -80 27q-31 28 -31 76z" />
<glyph unicode="." horiz-adv-x="507" d="M111 141q0 61 37 102q38 42 104 42q65 0 104 -42t39 -102t-38 -101q-37 -40 -105 -40t-105 40q-36 39 -36 101z" />
<glyph unicode="/" horiz-adv-x="692" d="M-46 -159q-11 44 7 89l571 1620q37 112 134 82q92 -30 49 -157l-570 -1608q-41 -114 -135 -86q-44 15 -56 60z" />
<glyph unicode="0" d="M63 707q0 333 128 530t384 197q255 0 383 -197q127 -196 127 -530q0 -338 -127 -532q-128 -195 -383 -195q-257 0 -384 195q-128 196 -128 532zM287 707q0 -254 74 -392q75 -139 214 -139q140 0 213 139q74 140 74 392q0 251 -74 391q-73 139 -213 139q-288 0 -288 -530z " />
<glyph unicode="1" d="M166 970q6 44 45 83l299 299q12 11 26.5 25t16.5 17q8 8 42 25q30 15 62 15q93 0 93 -138v-1103h59q106 0 106 -99q0 -94 -106 -94h-360q-105 0 -105 94q0 99 105 99h79v907l-180 -176q-33 -34 -73 -46t-80 15q-35 33 -29 77z" />
<glyph unicode="2" d="M127 127q0 111 36 206q37 97 93 162q57 66 126 123q89 74 137 108q65 47 126 98q57 48 93 108t36 125q0 74 -54 122t-159 48q-106 0 -248 -64q-112 -51 -151 11q-23 29 -14 71t53 76q75 54 178 83q105 30 199 30q208 0 314 -101q105 -101 105 -266q0 -108 -46 -196 q-48 -92 -114 -146q-80 -66 -151 -119l-154 -113q-70 -51 -122 -129q-53 -79 -60 -167h574q110 0 110 -99q0 -46 -30 -72q-31 -26 -80 -26h-672q-64 0 -94 35q-31 36 -31 92z" />
<glyph unicode="3" horiz-adv-x="1171" d="M166 227q43 67 137 21q144 -72 264 -72q131 0 196 68q64 67 64 186q0 234 -350 234q-121 0 -121 92q0 62 45 108l332 353h-395q-109 0 -109 98t109 98h567q87 0 106 -67q19 -68 -36 -123l-363 -379q219 -11 334 -119q115 -109 115 -293q0 -204 -132 -329 q-130 -123 -358 -123q-254 0 -370 100q-81 71 -35 147z" />
<glyph unicode="4" d="M87 498q-21 65 28 120l592 752q46 64 104 64q54 0 79 -34t25 -87v-695h72q41 0 67 -24q25 -24 25 -66q0 -96 -92 -96h-72v-317q0 -115 -106 -115q-54 0 -81 32q-28 33 -28 83v317h-507q-85 0 -106 66zM332 618h368v461z" />
<glyph unicode="5" d="M158 227q43 67 137 21q145 -72 264 -72q126 0 195 76t69 201q0 113 -63 182q-64 70 -180 70q-53 0 -128 -14q-69 -13 -98 -13q-51 0 -79 31t-23 88l33 471q10 145 139 145h453q122 0 122 -108q0 -109 -122 -109h-402l-22 -315q84 20 168 20q117 0 206 -39t137 -105 q46 -63 70 -140q23 -74 23 -152q0 -221 -135 -353t-359 -132q-254 0 -370 100q-81 71 -35 147z" />
<glyph unicode="6" d="M96 602q0 832 570 832q147 0 235 -48q92 -47 64 -131q-18 -51 -66 -56q-47 -5 -84 13q-81 25 -156 25q-169 0 -257 -129t-93 -328q113 152 326 152q195 0 309 -126q115 -127 115 -325q0 -201 -125 -352q-124 -149 -352 -149t-357 159t-129 463zM322 494q0 -131 65 -224 q66 -94 197 -94q119 0 185 86q67 87 67 211q0 112 -71 186t-177 74q-104 0 -185 -65t-81 -174z" />
<glyph unicode="7" d="M106 1305q0 108 121 108h688q82 0 109 -53q28 -53 -10 -133l-504 -1125q-60 -133 -162 -94q-44 16 -56 64q-12 46 15 108l463 1016h-543q-121 0 -121 109z" />
<glyph unicode="8" horiz-adv-x="1124" d="M70 367q0 233 266 391q-112 70 -161 144q-50 76 -50 179q0 160 123 256q124 97 313 97q190 0 313 -93q121 -91 121 -258q0 -198 -209 -342q143 -78 204 -160q63 -85 63 -206q0 -171 -135 -283q-134 -112 -353 -112q-217 0 -356 97t-139 290zM287 381q0 -94 77 -150 q76 -55 199 -55q124 0 197 55q74 56 74 142q0 164 -345 289q-202 -111 -202 -281zM344 1071q0 -140 289 -248q149 107 149 242q0 85 -61 128q-62 44 -162 44q-91 0 -153 -44t-62 -122z" />
<glyph unicode="9" d="M72 932q0 201 125 352q124 150 352 150q226 0 356 -160q129 -159 129 -463q0 -831 -569 -831q-150 0 -236 47q-92 47 -63 131q18 51 65 56t84 -13q81 -25 156 -25q169 0 257 129t93 328q-113 -152 -325 -152q-196 0 -310 126t-114 325zM295 940q0 -112 71 -186t177 -74 q103 0 184 65q82 66 82 175q0 128 -66 223q-66 94 -196 94q-120 0 -186 -86q-66 -85 -66 -211z" />
<glyph unicode=":" horiz-adv-x="507" d="M111 141q0 61 37 102q38 42 104 42q65 0 104 -42t39 -102t-38 -101q-37 -40 -105 -40t-105 40q-36 39 -36 101zM111 881q0 60 37 101q37 42 104 42q65 0 104 -42t39 -101q0 -61 -38 -102q-37 -40 -105 -40t-105 40q-36 39 -36 102z" />
<glyph unicode=";" horiz-adv-x="520" d="M80 -106l164 307q55 107 145 61q43 -22 49 -69t-18 -80l-164 -310q-57 -111 -150 -61q-83 45 -26 152zM180 881q0 58 38 101q38 42 104 42q65 0 104 -42t39 -101q0 -61 -38 -102q-37 -40 -105 -40t-105 40t-37 102z" />
<glyph unicode="&#x3c;" horiz-adv-x="1071" d="M213 685q0 58 55 101l410 312q27 22 56 34t62 4q30 -7 52 -38q49 -79 -60 -160l-329 -246l352 -278q92 -77 31 -154q-28 -33 -74 -33q-44 0 -88 35l-414 322q-53 44 -53 101z" />
<glyph unicode="=" horiz-adv-x="1071" d="M96 449q0 47 30 72q31 26 79 26h661q48 0 79 -26q30 -25 30 -72q0 -99 -109 -99h-661q-109 0 -109 99zM96 745q0 47 30 73q31 26 79 26h661q48 0 79 -26q30 -25 30 -73q0 -98 -109 -98h-661q-109 0 -109 98z" />
<glyph unicode="&#x3e;" horiz-adv-x="1071" d="M264 262q-49 79 60 160l329 246l-352 278q-92 77 -31 154q28 33 74 33q44 0 88 -35l414 -322q53 -44 53 -101q0 -59 -55 -102l-410 -311q-27 -22 -56 -34t-62 -4q-30 7 -52 38z" />
<glyph unicode="?" horiz-adv-x="860" d="M80 1283q16 44 65 73q129 78 295 78q184 0 280 -93q95 -92 95 -221q0 -73 -31 -143q-30 -69 -63 -107q-29 -34 -96 -98q-76 -71 -108 -122q-32 -50 -32 -126q0 -114 -104 -114q-102 0 -102 114q0 103 39 175q41 76 116 151q57 57 78 82q25 30 44 72t19 92q0 60 -41 100 q-43 41 -120 41q-72 0 -189 -51q-100 -45 -139 24q-21 30 -6 73zM242 131q0 59 37 96t104 37q68 0 105 -37q38 -38 38 -96q0 -59 -38 -95t-105 -36t-104 36t-37 95z" />
<glyph unicode="@" horiz-adv-x="1964" d="M100 473q0 427 245 683q244 255 671 255q411 0 629 -214q219 -215 219 -579q0 -314 -131 -466t-400 -152q-85 0 -121 31q-34 30 -34 94v31q-51 -95 -124 -136q-71 -40 -182 -40q-168 0 -264 133q-96 134 -96 360q0 263 112 408q110 143 326 143q160 0 244 -51 q39 31 96 31q99 0 99 -113v-705h2h28q242 0 242 437q0 275 -167 439q-166 163 -482 163q-334 0 -522 -191q-187 -190 -187 -561q0 -346 194 -532q195 -187 521 -187q59 0 95 4q38 4 77 12q35 7 43 7q92 15 110 -51q21 -81 -77 -121q-87 -35 -246 -35q-429 0 -675 244 q-245 243 -245 659zM731 465q0 -299 201 -299q246 0 246 457v178q-117 37 -199 37q-134 0 -192 -93q-56 -90 -56 -280z" />
<glyph unicode="A" horiz-adv-x="1435" d="M0 106q0 46 31 77q30 30 80 30h34l447 1120q39 101 125 101q82 0 119 -88l460 -1133h29q50 0 80 -30q31 -31 31 -77q0 -48 -31 -77t-80 -29h-301q-49 0 -80 29t-31 77q0 46 31 77q30 30 80 30h18l-69 186h-527l-69 -186h20q50 0 80 -30q31 -31 31 -77q0 -48 -31 -77 t-80 -29h-286q-49 0 -80 29t-31 77zM512 592h391l-198 516z" />
<glyph unicode="B" horiz-adv-x="1337" d="M61 106q0 46 31 77q30 30 80 30h64v987h-64q-49 0 -80 29t-31 78q0 45 31 76q30 30 80 30h287q111 10 223 10q516 0 516 -370q0 -93 -50 -176q-49 -81 -136 -121q119 -38 186 -124q68 -88 68 -208q0 -434 -568 -434q-110 0 -247 10h-279q-49 0 -80 29t-31 77zM471 205 q99 -12 238 -12q151 0 228 51t77 170q0 217 -307 217h-236v-426zM471 815h209q266 0 266 213q0 191 -287 191q-84 0 -188 -11v-393z" />
<glyph unicode="C" horiz-adv-x="1314" d="M100 707q0 331 174 529t484 198q243 0 379 -95q61 -43 61 -118v-160q0 -51 -30 -85t-85 -34q-56 0 -83 34t-27 85v117q-102 36 -211 36q-188 0 -296 -138t-108 -367q0 -237 116 -374q115 -136 294 -136q123 0 240 59v121q0 51 28 85t82 34q55 0 85 -34t30 -85v-160 q0 -73 -66 -119q-161 -120 -417 -120q-322 0 -486 195q-164 196 -164 532z" />
<glyph unicode="D" horiz-adv-x="1515" d="M61 106q0 46 31 77q30 30 80 30h64v987h-64q-49 0 -80 29t-31 78q0 45 31 76q30 30 80 30h299q103 10 221 10q358 0 541 -180q182 -179 182 -530q0 -340 -184 -531q-185 -192 -537 -192q-180 0 -270 10h-252q-49 0 -80 29t-31 77zM481 219q86 -10 213 -10q463 0 463 504 q0 491 -465 491q-92 0 -211 -12v-973z" />
<glyph unicode="E" horiz-adv-x="1251" d="M61 106q0 46 31 77q30 30 80 30h64v987h-64q-49 0 -80 29t-31 78q0 45 31 76q30 30 80 30h883q55 0 85 -34q29 -33 29 -85v-170q0 -52 -29 -85t-85 -33q-57 0 -83 33q-28 36 -28 85v70h-463v-358h457q55 0 87 -29t32 -80q0 -50 -32 -80q-33 -31 -87 -31h-457v-397h484v84 q0 51 28 85t82 34q55 0 85 -34q30 -35 30 -85v-184q0 -51 -30 -85t-85 -34h-903q-49 0 -80 29t-31 77z" />
<glyph unicode="F" horiz-adv-x="1179" d="M61 106q0 46 31 77q30 30 80 30h64v987h-64q-49 0 -80 29t-31 78q0 45 31 76q30 30 80 30h844q55 0 85 -34q29 -33 29 -85v-170q0 -52 -29 -85t-85 -33q-57 0 -83 33q-28 36 -28 85v70h-424v-356h426q53 0 85 -29t32 -80q0 -50 -32 -80q-33 -31 -85 -31h-426v-405h74 q50 0 80 -30q31 -31 31 -77q0 -48 -31 -77t-80 -29h-383q-49 0 -80 29t-31 77z" />
<glyph unicode="G" horiz-adv-x="1382" d="M100 709q0 328 181 527q180 198 491 198q240 0 375 -91q65 -49 65 -120v-160q0 -52 -29 -85q-30 -34 -85 -34q-56 0 -83 34q-28 36 -28 85v117q-106 34 -213 34q-200 0 -307 -140q-109 -142 -109 -372q0 -241 110 -372t310 -131q188 0 303 80v274h-231q-109 0 -109 94 t109 94h309q123 0 123 -106v-389q0 -89 -65 -135q-75 -57 -196 -94q-120 -37 -259 -37q-336 0 -499 193t-163 536z" />
<glyph unicode="H" horiz-adv-x="1613" d="M61 106q0 46 31 77q30 30 80 30h64v987h-64q-49 0 -80 29t-31 78q0 45 31 76q30 30 80 30h373q50 0 80 -30t30 -76q0 -49 -30 -78q-31 -29 -80 -29h-64v-369h652v369h-64q-49 0 -80 29t-31 78q0 45 31 76q30 30 80 30h373q50 0 80 -30t30 -76q0 -49 -30 -78 q-31 -29 -80 -29h-64v-987h64q50 0 80 -30t30 -77q0 -48 -30 -77q-31 -29 -80 -29h-373q-49 0 -80 29t-31 77q0 46 31 77q30 30 80 30h64v399h-652v-399h64q50 0 80 -30t30 -77q0 -48 -30 -77q-31 -29 -80 -29h-373q-49 0 -80 29t-31 77z" />
<glyph unicode="I" horiz-adv-x="716" d="M61 106q0 46 31 77q30 30 80 30h64v987h-64q-49 0 -80 29t-31 78q0 45 31 76q30 30 80 30h373q50 0 80 -30t30 -76q0 -49 -30 -78q-31 -29 -80 -29h-64v-987h64q50 0 80 -30t30 -77q0 -48 -30 -77q-31 -29 -80 -29h-373q-49 0 -80 29t-31 77z" />
<glyph unicode="J" horiz-adv-x="913" d="M63 199q23 53 79 53q28 0 65 -14q95 -39 149 -39q142 0 142 151v850h-86q-49 0 -80 29t-31 78q0 45 31 76q30 30 80 30h393q50 0 80 -30t30 -76q0 -49 -30 -78q-31 -29 -80 -29h-62v-854q0 -175 -88 -270q-89 -96 -260 -96q-166 0 -256 51q-87 48 -87 116q0 25 11 52z " />
<glyph unicode="K" horiz-adv-x="1353" d="M61 106q0 46 31 77q30 30 80 30h64v987h-64q-49 0 -80 29t-31 78q0 45 31 76q30 30 80 30h332q50 0 80 -30t30 -76q0 -49 -30 -78q-31 -29 -80 -29h-23v-430l396 430h-17q-49 0 -80 29q-30 29 -30 78q0 46 30 76t80 30h340q50 0 80 -30q31 -31 31 -76q0 -49 -31 -78 t-80 -29h-39l-448 -473l467 -514h63q50 0 80 -30q31 -31 31 -77q0 -48 -31 -77t-80 -29h-391q-49 0 -80 29t-31 77q0 46 31 77q30 30 80 30h20l-391 432v-432h43q50 0 80 -30q31 -31 31 -77q0 -48 -31 -77t-80 -29h-352q-49 0 -80 29t-31 77z" />
<glyph unicode="L" horiz-adv-x="1183" d="M61 106q0 46 31 77q30 30 80 30h64v987h-64q-49 0 -80 29t-31 78q0 45 31 76q30 30 80 30h377q50 0 80 -30t30 -76q0 -49 -30 -78q-31 -29 -80 -29h-68v-981h457v105q0 50 29 85q27 33 82 33q56 0 85 -33t29 -85v-205q0 -51 -27 -85t-79 -34h-885q-49 0 -80 29t-31 77z " />
<glyph unicode="M" horiz-adv-x="1775" d="M61 106q0 46 31 77q30 30 80 30h64v987h-64q-49 0 -80 29t-31 78q0 45 31 76q30 30 80 30h178q77 0 127 -80l418 -659l410 661q50 78 120 78h179q49 0 79 -30q31 -31 31 -76q0 -49 -31 -78t-79 -29h-64v-987h64q49 0 79 -30q31 -31 31 -77q0 -48 -31 -77t-79 -29h-373 q-49 0 -80 29t-31 77q0 46 31 77q30 30 80 30h63v745l-299 -483q-45 -74 -112 -74q-70 0 -115 72l-303 475v-735h80q50 0 80 -30t30 -77q0 -48 -30 -77q-31 -29 -80 -29h-373q-49 0 -80 29t-31 77z" />
<glyph unicode="N" horiz-adv-x="1613" d="M61 106q0 46 31 77q30 30 80 30h68v987h-68q-49 0 -80 29t-31 78q0 45 31 76q30 30 80 30h182q72 0 121 -67l676 -910v764h-82q-49 0 -80 29t-31 78q0 45 31 76q30 30 80 30h373q50 0 80 -30t30 -76q0 -49 -30 -78q-31 -29 -80 -29h-68v-1075q0 -55 -32 -90t-85 -35 q-61 0 -110 61l-684 908v-756h82q50 0 80 -30t30 -77q0 -48 -30 -77q-31 -29 -80 -29h-373q-49 0 -80 29t-31 77z" />
<glyph unicode="O" horiz-adv-x="1546" d="M100 707q0 317 175 522t497 205q323 0 498 -205q176 -206 176 -522q0 -319 -176 -524q-175 -203 -498 -203q-322 0 -497 203t-175 524zM358 707q0 -223 108 -366q108 -142 306 -142q200 0 308 142q108 143 108 366t-108 365t-308 142q-198 0 -306 -142t-108 -365z" />
<glyph unicode="P" horiz-adv-x="1257" d="M61 106q0 46 31 77q30 30 80 30h64v987h-64q-49 0 -80 29t-31 78q0 45 31 76q30 30 80 30h287q107 10 207 10q253 0 396 -109q144 -110 144 -343q0 -238 -151 -359q-150 -120 -396 -120q-119 0 -178 10v-289h74q50 0 80 -30q31 -31 31 -77q0 -48 -31 -77t-80 -29h-383 q-49 0 -80 29t-31 77zM481 713q64 -8 164 -8q303 0 303 260q0 243 -289 243q-89 0 -178 -12v-483z" />
<glyph unicode="Q" horiz-adv-x="1546" d="M100 707q0 317 175 522t497 205q323 0 498 -205q176 -206 176 -522q0 -359 -211 -560q54 -48 162 -127q57 -40 57 -86q0 -26 -18 -53q-25 -36 -66 -36q-31 0 -72 20q-101 53 -233 170q-132 -55 -293 -55q-322 0 -497 203t-175 524zM358 707q0 -223 108 -366 q108 -142 306 -142q67 0 125 16q-70 89 -100 162q-15 30 -15 58q0 12 3 23q9 38 44 56q22 12 44 12q45 0 85 -55q62 -88 109 -147q121 139 121 383q0 223 -108 365t-308 142q-198 0 -306 -142t-108 -365z" />
<glyph unicode="R" horiz-adv-x="1382" d="M61 106q0 46 31 77q30 30 80 30h64v987h-64q-49 0 -80 29t-31 78q0 45 31 76q30 30 80 30h285q91 10 200 10q531 0 531 -426q0 -143 -70 -245t-188 -142l262 -397h49q50 0 80 -30q31 -31 31 -77q0 -48 -31 -77t-80 -29h-381q-49 0 -80 29q-30 28 -30 77q0 47 30 77t80 30 h43l-213 352q-24 -4 -88 -4q-62 0 -121 8v-356h43q50 0 80 -30q31 -31 31 -77q0 -48 -31 -77t-80 -29h-352q-49 0 -80 29t-31 77zM481 754q76 -9 140 -9q157 0 233 57t76 181q0 221 -293 221q-54 0 -156 -12v-438z" />
<glyph unicode="S" horiz-adv-x="1144" d="M72 221v160q0 51 28 85t82 34q55 0 85 -34q30 -35 30 -85v-115q122 -61 278 -61q116 0 182 45t66 133q0 87 -73 139q-74 53 -179 86t-210 75t-179 134q-73 91 -73 236q0 177 119 278q121 103 350 103q205 0 356 -86q86 -50 86 -127v-158q0 -51 -30 -85t-85 -34 q-56 0 -83 34t-27 85v96q-120 49 -236 49q-203 0 -203 -147q0 -64 54 -112q52 -46 132 -70q73 -22 172 -62q91 -37 172 -78q79 -40 132 -125t53 -200q0 -198 -125 -317q-123 -117 -377 -117q-227 0 -389 83q-108 55 -108 158z" />
<glyph unicode="T" horiz-adv-x="1288" d="M41 1055v239q0 48 27 83t79 36h992q54 -2 81 -36q27 -35 27 -83v-239q0 -52 -29 -85q-30 -34 -85 -34q-56 0 -83 34q-28 36 -28 85v139h-256v-981h63q50 0 80 -30q31 -31 31 -77q0 -48 -31 -77t-80 -29h-372q-49 0 -80 29t-31 77q0 46 31 77q30 30 80 30h63v981h-254 v-139q0 -52 -29 -85q-30 -34 -85 -34q-56 0 -83 34q-28 36 -28 85z" />
<glyph unicode="U" horiz-adv-x="1525" d="M47 1307q0 45 31 76q30 30 80 30h372q50 0 80 -30q31 -31 31 -76q0 -49 -31 -78t-80 -29h-63v-639q0 -362 301 -362t301 366v635h-74q-49 0 -80 29q-30 29 -30 78q0 46 30 76t80 30h373q50 0 80 -30q31 -31 31 -76q0 -49 -31 -78t-80 -29h-63v-625q0 -127 -27 -229 q-27 -103 -86 -187q-60 -85 -168 -132q-109 -47 -258 -47q-291 0 -417 162q-128 164 -128 429v629h-63q-49 0 -80 29t-31 78z" />
<glyph unicode="V" horiz-adv-x="1476" d="M0 1307q0 45 31 76q30 30 80 30h356q50 0 80 -30q31 -31 31 -76q0 -49 -31 -78t-80 -29h-41l334 -852l311 852h-47q-49 0 -80 29t-31 78q0 45 31 76q30 30 80 30h342q50 0 80 -30q31 -31 31 -76q0 -49 -31 -78t-80 -29h-55l-441 -1126q-37 -94 -125 -94q-79 0 -118 90 l-467 1130h-49q-49 0 -80 29t-31 78z" />
<glyph unicode="W" horiz-adv-x="1943" d="M0 1307q0 45 31 76q30 30 80 30h354q50 0 80 -30t30 -76q0 -49 -30 -78q-31 -29 -80 -29h-49l202 -811l240 727q30 107 123 107q90 0 119 -103l235 -733l205 813h-49q-49 0 -80 29t-31 78q0 45 31 76q30 30 80 30h342q50 0 80 -30q31 -31 31 -76q0 -49 -31 -78t-80 -29 h-57l-318 -1116q-30 -104 -119 -104q-85 0 -120 102l-250 766l-262 -768q-33 -100 -117 -100q-95 0 -123 104l-305 1116h-51q-49 0 -80 29t-31 78z" />
<glyph unicode="X" horiz-adv-x="1421" d="M10 106q0 46 31 77q30 30 80 30h65l381 514l-360 473h-31q-49 0 -80 29q-30 29 -30 78q0 46 30 76t80 30h344q50 0 80 -30q31 -31 31 -76q0 -49 -31 -78t-80 -29h-18l219 -295l217 295h-27q-49 0 -80 29q-30 29 -30 78q0 46 30 76t80 30h332q50 0 80 -30q31 -31 31 -76 q0 -49 -31 -78t-80 -29h-43l-346 -459l397 -528h49q50 0 80 -30q31 -31 31 -77q0 -48 -31 -77t-80 -29h-382q-49 0 -80 29t-31 77q0 46 31 77q30 30 80 30h36l-254 344l-245 -344h34q49 0 78 -30q29 -31 29 -77q0 -48 -29 -77t-78 -29h-368q-49 0 -80 29t-31 77z" />
<glyph unicode="Y" horiz-adv-x="1329" d="M0 1307q0 45 31 76q30 30 80 30h356q50 0 80 -30q31 -31 31 -76q0 -49 -31 -78t-80 -29h-21l244 -366l236 366h-8q-49 0 -80 29t-31 78q0 45 31 76q30 30 80 30h301q49 0 79 -30q31 -31 31 -76q0 -49 -31 -78t-79 -29h-29l-385 -577v-410h43q50 0 80 -30t30 -77 q0 -48 -30 -77q-31 -29 -80 -29h-332q-49 0 -80 29q-30 29 -30 77q0 47 30 77t80 30h43v399l-414 588h-34q-49 0 -80 29t-31 78z" />
<glyph unicode="Z" horiz-adv-x="1245" d="M112 73q-8 24 -8 46q0 46 33 86l735 989h-497v-100q0 -50 -30 -85q-30 -34 -85 -34q-56 0 -83 34q-27 35 -27 85v200q0 51 28 85t82 34h799q92 0 119 -67q9 -23 9 -46q0 -44 -34 -86l-735 -995h538v125q0 50 29 85q28 34 82 34q55 0 85 -34q30 -35 30 -85v-225 q0 -51 -30 -85t-85 -34h-2h-836q-93 0 -117 73z" />
<glyph unicode="[" horiz-adv-x="649" d="M121 -25v1461q0 120 112 120h246q51 0 80 -26q31 -28 31 -72q0 -98 -111 -98h-137v-1307h137q51 0 80 -26q31 -28 31 -72q0 -98 -111 -98h-241q-58 0 -87 32q-30 33 -30 86z" />
<glyph unicode="\" horiz-adv-x="692" d="M12 1475q-43 127 49 157q97 30 134 -82l571 -1620q18 -45 7 -89q-12 -45 -56 -60q-94 -28 -135 86z" />
<glyph unicode="]" horiz-adv-x="649" d="M31 -45q0 45 30 72q29 26 80 26h138v1307h-138q-110 0 -110 98q0 45 30 72q29 26 80 26h246q113 0 113 -120v-1461q0 -53 -30 -86q-29 -32 -87 -32h-242q-110 0 -110 98z" />
<glyph unicode="^" horiz-adv-x="1173" d="M92 784q1 41 33 84l346 492q51 74 117 74q60 0 117 -74l350 -481q30 -34 29 -82q-2 -49 -42 -78q-91 -63 -170 49l-292 416l-293 -424q-76 -104 -160 -47q-36 28 -35 71z" />
<glyph unicode="_" horiz-adv-x="1212" d="M18 -147q0 46 31 74t80 28h954q49 0 80 -28t31 -74q0 -48 -31 -76q-30 -27 -80 -27h-954q-50 0 -80 27q-31 28 -31 76z" />
<glyph unicode="`" horiz-adv-x="1079" d="M373 1440q45 68 135 8l248 -164q94 -61 41 -133q-46 -65 -135 -2l-240 158q-95 63 -49 133z" />
<glyph unicode="a" horiz-adv-x="1099" d="M35 281q0 174 126 255q124 80 314 80q135 0 215 -14v23q0 99 -43 152q-43 54 -166 54q-19 0 -51 -2q-22 -1 -50 -8q-12 -3 -42 -11l-49 -15q-36 -11 -49 -15q-18 -6 -36 -6t-35 6q-34 12 -46 47q-6 17 -6 34q0 50 57 87q113 76 334 76q403 0 403 -381v-450h50 q104 0 104 -99q0 -94 -104 -94h-160q-56 0 -83 34q-28 36 -28 85v37q-101 -176 -328 -176q-155 0 -240 81q-87 83 -87 220zM262 299q0 -64 43 -101q44 -38 119 -38q122 0 194 81t72 185v35q-63 10 -182 10q-246 0 -246 -172z" />
<glyph unicode="b" horiz-adv-x="1187" d="M35 94q0 99 104 99h49v1028h-49q-104 0 -104 94q0 98 104 98h164q56 0 86 -34q31 -36 31 -85v-426q96 156 299 156q188 0 289 -134q100 -133 100 -358q0 -249 -116 -401q-115 -151 -345 -151q-163 0 -258 53q-29 -33 -86 -33h-164q-104 0 -104 94zM420 223 q83 -47 203 -47q247 0 247 361q0 290 -198 290q-252 0 -252 -444v-160z" />
<glyph unicode="c" horiz-adv-x="960" d="M80 494q0 246 130 388t355 142q174 0 264 -57q62 -41 62 -98v-7v-143q0 -48 -27 -78q-28 -31 -76 -31q-47 0 -75 31q-27 30 -27 78v84q-53 14 -115 14q-118 0 -186 -86t-68 -237q0 -143 71 -226q70 -82 185 -82q81 0 197 58q40 19 71 19q44 0 68 -40q16 -27 16 -53 q0 -49 -57 -96q-118 -94 -317 -94q-221 0 -346 135q-125 136 -125 379z" />
<glyph unicode="d" horiz-adv-x="1187" d="M80 471q0 249 116 401t345 152q131 0 227 -39v236h-47q-105 0 -105 94q0 98 105 98h164q55 0 85 -34q29 -33 29 -85v-1101h50q104 0 104 -99q0 -94 -104 -94h-164q-56 0 -86 34q-31 36 -31 85v16q-91 -155 -299 -155q-188 0 -289 134q-100 133 -100 357zM317 467 q0 -291 199 -291q252 0 252 445v159q-83 47 -203 47q-248 0 -248 -360z" />
<glyph unicode="e" horiz-adv-x="1052" d="M80 498q0 239 129 383q128 143 348 143q196 0 308 -112t112 -296q0 -60 -10 -96q-16 -54 -45 -78q-30 -24 -91 -24h-522q5 -118 76 -185t190 -67q89 0 218 53q32 13 57 13q45 0 70 -42q12 -19 12 -40q0 -13 -5 -28q-13 -40 -50 -63q-118 -79 -324 -79q-229 0 -351 135 q-122 136 -122 383zM309 580h453q2 28 2 51q0 93 -52 149q-53 58 -155 58q-108 0 -173 -67q-64 -66 -75 -191z" />
<glyph unicode="f" horiz-adv-x="753" d="M35 -315q0 98 104 98h49v1229q0 217 74 309q90 113 275 113q144 0 223 -48q60 -35 60 -86q0 -17 -7 -36q-20 -57 -81 -57q-23 0 -50 7q-78 23 -135 23q-127 0 -127 -160v-73h174q111 0 111 -99q0 -98 -111 -98h-174v-1024h47q106 0 106 -98q0 -95 -106 -95h-328 q-104 0 -104 95z" />
<glyph unicode="g" horiz-adv-x="1067" d="M39 -141q0 143 147 227q-96 52 -96 162q0 106 111 196q-90 90 -90 234q0 158 106 252t303 94q86 0 160 -20h283q94 0 94 -82q0 -80 -94 -80h-72q41 -84 41 -164q0 -154 -108 -248q-107 -94 -304 -94q-107 0 -194 31q-56 -35 -56 -84q0 -46 68 -70q72 -26 246 -33 q207 -8 318 -66q112 -59 112 -194q0 -156 -133 -253t-381 -97t-355 83q-106 82 -106 206zM248 -115q0 -57 60 -97q59 -40 190 -40q151 0 222 43q73 44 73 111q0 50 -61 73q-60 22 -214 33q-78 5 -160 19q-110 -51 -110 -142zM317 678q0 -75 55 -121q54 -45 148 -45 q95 0 149 45t54 121t-54 123q-55 47 -149 47q-93 0 -148 -47t-55 -123z" />
<glyph unicode="h" horiz-adv-x="1261" d="M35 94q0 99 104 99h49v1028h-49q-104 0 -104 94q0 98 104 98h164q56 0 86 -34q31 -36 31 -85v-440q45 83 126 127q80 43 177 43q191 0 270 -111q80 -112 80 -327v-393h47q107 0 107 -99q0 -94 -107 -94h-164q-55 0 -85 34q-29 33 -29 85v471q0 229 -174 229 q-72 0 -122 -35q-51 -35 -76 -99q-25 -63 -37 -136q-11 -69 -13 -166v-190h47q106 0 106 -99q0 -94 -106 -94h-328q-104 0 -104 94z" />
<glyph unicode="i" horiz-adv-x="608" d="M35 94q0 99 104 99h49v618h-49q-104 0 -104 94q0 99 104 99h164q56 0 86 -34q31 -36 31 -85v-692h47q106 0 106 -99q0 -94 -106 -94h-328q-104 0 -104 94zM170 1268q0 56 36 91q35 34 97 34q61 0 98 -34t37 -91q0 -59 -37 -92t-98 -33q-60 0 -97 32q-36 31 -36 93z" />
<glyph unicode="j" horiz-adv-x="522" d="M-154 -256q18 57 82 57q16 0 35 -4q86 -20 125 -20q72 0 96 43q25 45 25 133v858h-47q-105 0 -105 94q0 99 105 99h164q55 0 85 -34q29 -33 29 -85v-955q0 -360 -317 -360q-133 0 -211 39q-72 35 -72 96q0 18 6 39zM190 1268q0 56 36 91q35 34 98 34q61 0 98 -34t37 -91 q0 -59 -37 -92q-38 -33 -98 -33q-61 0 -98 32q-36 31 -36 93z" />
<glyph unicode="k" horiz-adv-x="1097" d="M35 94q0 99 104 99h49v1028h-49q-104 0 -104 94q0 98 104 98h162q55 0 85 -34q30 -35 30 -85v-755l262 272q-96 1 -96 94q0 99 102 99h266q107 0 107 -99q0 -94 -107 -94h-16l-303 -309l311 -309h57q107 0 107 -99q0 -94 -107 -94h-131q-42 1 -96 55l-356 379v-241h22 q107 0 107 -99q0 -94 -107 -94h-299q-104 0 -104 94z" />
<glyph unicode="l" horiz-adv-x="763" d="M35 1315q0 98 104 98h164q56 0 86 -34q31 -36 31 -85v-946q0 -87 26 -125q27 -39 91 -39q45 0 108 25q24 10 46 10q15 0 29 -4q35 -10 50 -45q9 -23 9 -44q0 -60 -74 -101q-78 -45 -207 -45q-310 0 -310 335v906h-49q-104 0 -104 94z" />
<glyph unicode="m" horiz-adv-x="1837" d="M35 94q0 99 104 99h49v618h-49q-104 0 -104 94q0 99 104 99h162q55 0 85 -34t30 -85v-33q100 172 311 172q100 0 172 -51q70 -50 98 -148q44 95 133 147t199 52q178 0 249 -109t71 -323v-399h47q106 0 106 -99q0 -94 -106 -94h-162q-56 0 -84 34q-29 35 -29 85v479 q0 112 -30 171q-30 58 -119 58q-240 0 -240 -454v-180h49q107 0 107 -99q0 -94 -107 -94h-163q-56 0 -84 34q-29 35 -29 85v434q0 138 -29 207q-28 67 -121 67q-235 0 -239 -436v-198h51q106 0 106 -99q0 -94 -106 -94h-328q-104 0 -104 94z" />
<glyph unicode="n" horiz-adv-x="1261" d="M35 94q0 99 104 99h49v618h-49q-104 0 -104 94q0 99 104 99h164q56 0 86 -34q31 -36 31 -85v-31q45 83 126 127q80 43 177 43q191 0 270 -111q80 -112 80 -327v-393h47q107 0 107 -99q0 -94 -107 -94h-164q-55 0 -85 34q-29 33 -29 85v471q0 229 -174 229q-72 0 -122 -35 q-51 -35 -76 -99q-25 -63 -37 -136q-11 -69 -13 -166v-190h47q106 0 106 -99q0 -94 -106 -94h-328q-104 0 -104 94z" />
<glyph unicode="o" horiz-adv-x="1140" d="M80 502q0 232 129 377t360 145q232 0 362 -146t130 -376t-130 -376t-362 -146q-231 0 -360 145t-129 377zM317 502q0 -146 66 -236t186 -90q123 0 189 90q65 89 65 236q0 146 -65 235q-66 90 -189 90q-120 0 -186 -91q-66 -92 -66 -234z" />
<glyph unicode="p" horiz-adv-x="1187" d="M35 -315q0 98 104 98h49v1028h-49q-104 0 -104 94q0 99 104 99h164q56 0 86 -34q31 -36 31 -85v-17q92 156 299 156q188 0 289 -134q100 -133 100 -358q0 -249 -116 -401q-115 -151 -345 -151q-133 0 -227 38v-235h47q106 0 106 -98q0 -95 -106 -95h-328q-104 0 -104 95z M420 223q83 -47 203 -47q247 0 247 361q0 290 -198 290q-252 0 -252 -444v-160z" />
<glyph unicode="q" horiz-adv-x="1187" d="M80 471q0 249 116 401t345 152q163 0 258 -53q29 33 86 33h164q104 0 104 -99q0 -94 -104 -94h-50v-1028h48q106 0 106 -98q0 -95 -106 -95h-328q-105 0 -105 95q0 98 105 98h49v352q-91 -155 -299 -155q-188 0 -289 134q-100 133 -100 357zM317 467q0 -291 199 -291 q252 0 252 445v159q-83 47 -203 47q-248 0 -248 -360z" />
<glyph unicode="r" horiz-adv-x="825" d="M35 94q0 99 104 99h49v618h-49q-104 0 -104 94q0 99 104 99h164q56 0 86 -34q31 -36 31 -77q32 58 90 95q57 36 125 36q120 0 167 -59q30 -37 30 -76q0 -23 -11 -47q-25 -55 -78 -55q-23 0 -51 10q-56 18 -96 18q-176 0 -176 -350v-272h47q106 0 106 -99q0 -94 -106 -94 h-328q-104 0 -104 94z" />
<glyph unicode="s" horiz-adv-x="931" d="M72 172v92q0 46 28 77q29 32 78 32t74 -31q24 -30 24 -78v-57q102 -41 199 -41q152 0 152 104q0 52 -54 87t-129 59q-54 17 -151 55q-76 30 -129 98t-53 168q0 140 98 213q100 74 264 74q175 0 293 -68q54 -29 65 -82q5 -27 5 -36v-90q0 -48 -27 -78q-28 -31 -76 -31 t-76 31q-26 29 -26 78v59q-91 31 -150 31q-137 0 -137 -93q0 -50 53 -85q48 -32 129 -57q72 -22 152 -54q76 -30 129 -96q53 -67 53 -162q0 -151 -101 -231t-304 -80t-320 77q-63 44 -63 115z" />
<glyph unicode="t" horiz-adv-x="706" d="M131 326v804q0 50 30 85q30 34 85 34q56 0 86 -34q30 -35 30 -85v-126h175q110 0 110 -99q0 -98 -110 -98h-175v-457q0 -88 27 -127t90 -39q47 0 109 25q24 10 46 10q14 0 28 -4q34 -10 49 -45q9 -22 9 -43q0 -58 -73 -100q-83 -47 -205 -47q-311 0 -311 346z" />
<glyph unicode="u" horiz-adv-x="1261" d="M35 905q0 99 104 99h166q55 0 85 -34t30 -85v-471q0 -230 174 -230q72 0 122 35q51 35 76 99q23 58 36 137q13 75 14 166v190h-47q-105 0 -105 94q0 99 105 99h163q55 0 85 -34t30 -85v-692h49q105 0 105 -99q0 -94 -105 -94h-164q-56 0 -86 34q-30 35 -30 85v31 q-45 -83 -126 -127q-80 -43 -177 -43q-192 0 -271 110q-80 112 -80 328v393h-49q-104 0 -104 94z" />
<glyph unicode="v" horiz-adv-x="1058" d="M0 905q0 99 104 99h261q106 0 106 -99q0 -94 -106 -94h-15l189 -489l190 489h-12q-105 0 -105 94q0 99 105 99h235q107 0 107 -99q0 -94 -107 -94l-307 -737q-39 -94 -108 -94q-72 0 -109 88l-319 743h-5q-104 0 -104 94z" />
<glyph unicode="w" horiz-adv-x="1470" d="M0 905q0 99 104 99h261q106 0 106 -99q0 -94 -106 -94h-17l146 -487l145 460q28 90 100 90q70 0 103 -90l157 -465l138 492h-9q-104 0 -104 94q0 99 104 99h236q106 0 106 -99q0 -94 -106 -94h-14l-217 -707q-22 -65 -48 -94q-27 -30 -79 -30q-48 0 -75 27q-26 26 -48 85 l-150 463l-139 -457q-17 -57 -46 -89q-26 -29 -79 -29q-52 0 -77 29t-46 91l-233 711h-9q-104 0 -104 94z" />
<glyph unicode="x" horiz-adv-x="1060" d="M0 94q0 99 104 99h25l272 315l-245 303h-15q-104 0 -104 94q0 99 104 99h234q106 0 106 -99q0 -66 -59 -88l117 -164l127 160q-80 11 -80 92q0 99 104 99h228q106 0 106 -99q0 -94 -106 -94h-17l-239 -283l278 -335h14q107 0 107 -99q0 -94 -107 -94h-280q-105 0 -105 94 q0 93 93 99l-142 188l-147 -188q98 -6 98 -99q0 -94 -106 -94h-261q-104 0 -104 94z" />
<glyph unicode="y" horiz-adv-x="1058" d="M14 905q0 99 105 99h260q106 0 106 -99q0 -94 -106 -94h-12l202 -537l181 537h-19q-104 0 -104 94q0 99 104 99h236q106 0 106 -99q0 -94 -106 -94l-310 -821q-90 -242 -173 -331t-216 -89q-99 0 -166 37q-74 41 -74 98q0 21 11 45q21 49 74 49q21 0 47 -8 q78 -24 110 -24q67 0 107 58q42 61 86 175l-344 811q-105 0 -105 94z" />
<glyph unicode="z" horiz-adv-x="991" d="M111 65q-7 20 -7 40q0 43 33 83l504 619h-307v-68q0 -47 -27 -77q-28 -31 -76 -31q-47 0 -75 31q-27 30 -27 77v156q0 48 28 79q27 30 81 30h561q89 0 112 -66q7 -20 7 -40q0 -44 -35 -85l-502 -616h346v65q0 45 29 77t78 32q48 0 73 -31t25 -78v-153q0 -46 -26 -77 t-72 -32h-617q-83 0 -106 65z" />
<glyph unicode="{" horiz-adv-x="708" d="M78 707q0 55 51 98q61 51 61 127v328q0 144 67 231q66 86 210 86q83 0 141 -29q42 -22 59 -54q18 -34 7 -69q-24 -76 -99 -59q-64 16 -77 16q-90 0 -90 -122v-353q0 -150 -115 -200q115 -51 115 -203v-350q0 -123 90 -123q18 0 45 7t32 7q78 15 99 -57q22 -76 -66 -123 q-52 -29 -141 -29q-144 0 -210 86q-67 87 -67 230v327q0 81 -61 127q-51 45 -51 101z" />
<glyph unicode="|" horiz-adv-x="456" d="M131 -123v1657q0 44 26 75q25 29 72 29q49 0 72 -29q25 -31 25 -75v-1657q0 -44 -25 -74q-24 -28 -72 -28q-47 0 -72 28q-26 29 -26 74z" />
<glyph unicode="}" horiz-adv-x="708" d="M29 -12q21 72 98 57q6 0 33 -7t45 -7q90 0 90 123v350q0 152 115 203q-115 50 -115 200v353q0 122 -90 122q-14 0 -78 -16q-74 -17 -98 59q-11 35 7 69q17 33 58 54q58 29 142 29q143 0 209 -86q67 -87 67 -231v-328q0 -76 61 -127q52 -44 52 -98q0 -55 -52 -101 q-61 -46 -61 -127v-327q0 -143 -67 -230q-66 -86 -209 -86q-90 0 -142 29q-88 46 -65 123z" />
<glyph unicode="~" horiz-adv-x="1030" d="M85 592q4 44 42 82q101 98 217 98q71 0 191 -43t151 -43q56 0 105 39q84 67 139 12q29 -30 21 -71q-7 -40 -42 -78q-99 -99 -217 -99q-62 0 -178 43t-162 43q-57 0 -112 -40q-80 -62 -131 -13q-29 24 -24 70z" />
<glyph unicode="&#xa1;" horiz-adv-x="505" d="M111 1282q0 60 35 95q36 36 106 36q68 0 105 -36q38 -36 38 -95q0 -58 -38 -96q-37 -37 -105 -37t-105 37q-36 36 -36 96zM135 109v774q0 51 31 87q30 34 86 34q55 0 85 -34t30 -87v-774q0 -51 -30 -85t-85 -34q-56 0 -86 35q-31 36 -31 84z" />
<glyph unicode="&#xa2;" d="M160 494q0 212 99 349q99 136 276 171v102q0 52 26 85q27 34 82 34q109 0 109 -119v-100q96 -12 157 -49q66 -44 62 -105v-143q0 -48 -27 -78q-28 -31 -76 -31q-47 0 -75 31q-27 30 -27 78v84q-53 14 -115 14q-118 0 -186 -86t-68 -237q0 -143 71 -226q70 -82 185 -82 q81 0 197 58q99 46 139 -21q46 -78 -41 -149q-77 -62 -196 -84v-103q0 -120 -109 -120q-55 0 -82 34q-26 33 -26 86v101q-178 28 -277 159q-98 129 -98 347z" />
<glyph unicode="&#xa3;" d="M109 102q0 105 108 105q68 0 108 56t40 138q0 63 -21 129h-129q-100 0 -100 95q0 94 100 94h49q-80 169 -80 309q0 189 120 297q121 109 323 109q250 -1 381 -131q32 -38 32 -91v-165q0 -49 -26 -78q-28 -31 -76 -31t-76 31q-26 29 -26 78v122q-125 48 -209 48 q-94 0 -147 -53q-52 -52 -52 -142q0 -91 68 -248l24 -55h242q100 0 100 -94q0 -95 -100 -95h-182q8 -42 8 -92q0 -152 -84 -231h360v80q0 45 29 77q28 31 78 31q49 0 73 -30q25 -31 25 -78v-178q0 -48 -27 -78q-28 -31 -75 -31h-748q-52 0 -82 28q-28 27 -28 74z" />
<glyph unicode="&#xa4;" horiz-adv-x="1304" d="M128 262q8 48 48 88l103 105q-68 113 -68 264q0 153 68 262l-103 106q-40 40 -48 89q-8 47 32 88q44 37 89 29t79 -48l102 -121q113 64 252 64q143 0 250 -62l102 119q34 40 79 48t89 -29q40 -41 32 -88q-8 -49 -48 -89l-105 -106q70 -110 70 -262q0 -151 -68 -264 l103 -105q40 -40 48 -88q8 -47 -32 -88q-45 -38 -89 -30t-79 49l-100 116q-110 -61 -252 -61q-140 0 -254 63l-100 -118q-35 -41 -79 -49t-89 30q-40 41 -32 88zM408 717q0 -131 75 -206q77 -77 199 -77q123 0 198 77q74 75 74 206q0 130 -74 207t-198 77q-122 0 -198 -80 t-76 -204z" />
<glyph unicode="&#xa5;" d="M-10 1311q0 102 104 102h277q106 0 106 -102q0 -99 -106 -99h-4l221 -403l215 403h-10q-105 0 -105 99q0 102 105 102h262q106 0 106 -102q0 -99 -106 -99h-15l-307 -534h182q84 0 84 -72q0 -71 -84 -71h-215v-103h215q84 0 84 -72q0 -71 -84 -71h-215v-96h52 q106 0 106 -99q0 -94 -106 -94h-340q-105 0 -105 94q0 99 105 99h51v96h-213q-86 0 -86 71q0 72 86 72h213v103h-213q-86 0 -86 71q0 72 86 72h170l-316 534h-10q-104 0 -104 99z" />
<glyph unicode="&#xa6;" horiz-adv-x="456" d="M131 -123v623q0 43 26 74q25 30 72 30q48 0 72 -30q25 -31 25 -74v-623q0 -44 -25 -74q-24 -28 -72 -28q-47 0 -72 28q-26 29 -26 74zM131 911v623q0 44 26 75q25 29 72 29q49 0 72 -29q25 -31 25 -75v-623q0 -43 -25 -73q-24 -29 -72 -29q-46 0 -72 29t-26 73z" />
<glyph unicode="&#xa7;" horiz-adv-x="1167" d="M121 457q0 217 219 331q-143 104 -143 287q0 167 110 262q112 97 320 97q194 0 313 -74q72 -45 72 -121v-149q0 -48 -27 -78q-28 -31 -76 -31q-47 0 -75 31q-27 30 -27 78v114q-102 33 -176 33q-101 0 -151 -45t-50 -119q0 -19 5 -39q1 -4 10 -34q4 -13 20 -29 q11 -11 23 -25q7 -8 31 -22q20 -11 32 -20q6 -4 37 -18l37 -16q3 -1 16.5 -6t24.5 -9q8 -3 17.5 -6.5t14.5 -5.5t7 -3q163 -66 252 -156q90 -92 90 -223q0 -118 -65 -203q-64 -84 -155 -129q144 -105 144 -287q0 -160 -111 -259t-319 -99q-195 0 -314 74q-71 44 -71 120v148 q0 46 28 77t78 31t74 -30t24 -78v-111q90 -34 177 -34q101 0 150 45q50 45 50 118q0 19 -5 39q-1 4 -10 34q-4 14 -20 30q-17 17 -23 24q-9 10 -31 23q-27 15 -32 19q-11 8 -36 19l-37 15q-3 1 -16.5 6t-24.5 9q-37 15 -39 16q-170 67 -255 152q-87 87 -87 227zM354 492 q0 -82 48 -132q48 -49 143 -90q15 -8 62 -26q18 -7 61 -25q145 69 145 207q0 82 -48 131q-48 50 -142 90l-125 49q-144 -68 -144 -204z" />
<glyph unicode="&#xa8;" horiz-adv-x="1079" d="M215 1266q0 57 34 91t95 34q59 0 94 -35t35 -90q0 -56 -35 -91q-34 -34 -94 -34t-95 33q-34 33 -34 92zM606 1266q0 57 34 91t93 34t94 -35t35 -90q0 -56 -35 -91q-34 -34 -94 -34q-61 0 -94 33t-33 92z" />
<glyph unicode="&#xa9;" horiz-adv-x="1605" d="M84 707q0 319 192 523t525 204q331 0 526 -204t195 -523q0 -320 -195 -524q-194 -203 -526 -203q-334 0 -525 203q-192 204 -192 524zM258 707q0 -257 146 -409q147 -153 397 -153q252 0 399 153q148 154 148 409q0 253 -149 407t-398 154t-397 -154q-146 -152 -146 -407 zM438 707q0 196 107 305q107 108 282 108q135 0 207 -57q45 -35 41 -96v-78q0 -98 -92 -98t-92 98v41q-29 4 -53 4q-84 0 -130 -58q-47 -59 -47 -169q0 -107 46 -165q45 -57 124 -57q37 0 80 15v47q0 46 24 73t69 27q44 0 68 -27t24 -73v-80q0 -51 -37 -88q-38 -34 -106 -57 q-67 -23 -132 -23q-187 0 -285 108q-98 109 -98 300z" />
<glyph unicode="&#xaa;" horiz-adv-x="837" d="M59 895q0 128 89 197q88 69 235 69q61 0 149 -18v12q0 61 -29 87q-31 28 -102 28q-36 0 -192 -39q-28 -8 -54 2q-28 11 -38 43q-23 69 63 108q103 50 234 50q325 0 325 -275v-317h21q102 0 102 -82q0 -84 -102 -84h-125q-85 0 -103 80q-69 -101 -221 -101q-115 0 -184 64 q-68 63 -68 176zM274 903q0 -43 30 -68q31 -26 69 -26q88 0 124 58q35 57 35 130v23q-54 16 -120 16q-69 0 -103 -37q-35 -38 -35 -96z" />
<glyph unicode="&#xab;" horiz-adv-x="1146" d="M225 406q-98 99 4 198l281 283q40 42 83 46q44 5 81 -32q63 -72 -25 -160l-235 -231l241 -242q42 -42 46 -86q5 -46 -29 -80q-37 -30 -80 -24q-42 6 -80 41zM668 406q-98 99 4 198l280 283q40 42 83 46q44 5 81 -32q63 -73 -24 -160l-236 -231l242 -242q42 -42 46 -86 q5 -45 -30 -80q-37 -30 -80 -24q-42 6 -80 41z" />
<glyph unicode="&#xac;" horiz-adv-x="1071" d="M100 672q0 46 30 72q31 26 79 26h651q53 0 82 -29t29 -82v-231q0 -49 -28 -85q-27 -34 -83 -34q-55 0 -82 34q-26 33 -26 85v145h-543q-109 0 -109 99z" />
<glyph unicode="&#xad;" horiz-adv-x="749" d="M14 547q0 47 31 75q30 27 80 27h500q50 0 80 -27t30 -75q0 -49 -30 -76t-80 -27h-500q-50 0 -80 27q-31 28 -31 76z" />
<glyph unicode="&#xae;" horiz-adv-x="1380" d="M162 901q0 235 144 384t384 149q241 0 385 -149t144 -384t-144 -384q-144 -148 -385 -148q-240 0 -384 148q-144 149 -144 384zM330 901q0 -169 98 -270q100 -103 262 -103q163 0 261 103t98 270q0 166 -98 269q-97 102 -261 102q-163 0 -262 -102q-98 -101 -98 -269z M453 682q0 43 51 43h6v348v6h-6q-51 0 -51 45q0 43 51 43h98q44 7 80 7q89 0 145 -41t56 -121q0 -111 -97 -150l80 -137h13q51 0 51 -43q0 -45 -51 -45h-45q-38 0 -60 43l-86 158h-37q-29 0 -45 2v-115h6q52 0 52 -43q0 -45 -52 -45h-108q-51 0 -51 45zM606 924q20 -2 60 -2 q64 0 89 19t25 69q0 77 -108 77q-36 0 -66 -8v-155z" />
<glyph unicode="&#xaf;" horiz-adv-x="1079" d="M209 1245q0 82 96 82h469q96 0 96 -82t-96 -82h-469q-96 0 -96 82z" />
<glyph unicode="&#xb0;" horiz-adv-x="1142" d="M246 1108q0 148 87 237t238 89q150 0 237 -89t87 -237q0 -150 -87 -239t-237 -89q-151 0 -238 89q-87 88 -87 239zM420 1108q0 -79 40 -119q41 -41 111 -41q72 0 111 41t39 119q0 158 -150 158q-71 0 -111 -40t-40 -118z" />
<glyph unicode="&#xb1;" horiz-adv-x="1071" d="M100 334q0 48 30 73q29 25 79 25h653q50 0 79 -25q30 -26 30 -73q0 -98 -109 -98h-653q-109 0 -109 98zM100 713q0 47 30 72q31 26 79 26h219v199q0 120 107 120q106 0 106 -120v-199h221q48 0 79 -26q30 -25 30 -72q0 -99 -109 -99h-221v-39q0 -118 -106 -118 q-107 0 -107 118v39h-219q-109 0 -109 99z" />
<glyph unicode="&#xb2;" horiz-adv-x="653" d="M57 766q0 78 34 139q35 63 82 101t97 70q43 27 83 64q34 31 34 64q0 51 -68 51q-44 0 -147 -41q-73 -28 -106 27q-17 32 -7 64t41 55q95 74 238 74q121 0 190 -58q68 -57 68 -153q0 -63 -30 -113q-31 -51 -72 -81q-39 -28 -87 -58q-41 -25 -80 -58q-37 -31 -44 -63h233 q102 0 102 -86q0 -88 -102 -88h-373q-86 0 -86 90z" />
<glyph unicode="&#xb3;" horiz-adv-x="694" d="M88 827q24 55 92 37q111 -33 160 -33q113 0 113 87q0 86 -158 86q-65 0 -77 49q-12 48 28 77l143 117h-178q-102 0 -102 84q0 82 102 82h338q70 0 83 -61t-40 -101l-162 -127q105 -7 169 -62q63 -54 63 -149q0 -125 -87 -192q-85 -66 -231 -66t-219 56q-65 49 -37 116z " />
<glyph unicode="&#xb4;" horiz-adv-x="1079" d="M383 1151q-53 74 43 137l246 160q88 57 133 -10q43 -72 -49 -135l-238 -156q-89 -63 -135 4z" />
<glyph unicode="&#xb5;" horiz-adv-x="1261" d="M35 -315q0 98 104 98h49v1028h-49q-104 0 -104 94q0 99 104 99h166q55 0 85 -34t30 -85v-471q0 -230 174 -230q72 0 122 35q51 35 76 99q23 58 36 137q13 75 14 166v190h-45q-105 0 -105 94q0 99 105 99h161q55 0 85 -34t30 -85v-692h47q107 0 107 -99q0 -94 -107 -94 h-162q-56 0 -86 34q-30 35 -30 85v31q-68 -170 -242 -170q-113 0 -180 71v-268h47q106 0 106 -98q0 -95 -106 -95h-328q-104 0 -104 95z" />
<glyph unicode="&#xb6;" horiz-adv-x="950" d="M18 1004q0 172 104 291q103 118 263 118q60 0 88 -28q27 -27 27 -85v-1423q0 -44 -25 -74q-24 -28 -72 -28q-47 0 -71 28q-25 30 -25 74v717q-124 7 -207 124q-82 115 -82 286zM592 -123v1432q0 45 25 74q25 30 73 30t73 -30q25 -29 25 -74v-1432q0 -46 -25 -74t-73 -28 t-73 28t-25 74z" />
<glyph unicode="&#xb7;" horiz-adv-x="505" d="M111 674q0 60 37 101q37 42 104 42q65 0 104 -42t39 -101q0 -61 -38 -102q-37 -40 -105 -40t-105 40q-36 39 -36 102z" />
<glyph unicode="&#xb8;" horiz-adv-x="845" d="M197 -416q-10 26 2 51q18 46 80 29q73 -18 108 -18q88 0 88 65q0 35 -28 54q-26 17 -93 28q-32 4 -44 25q-11 19 -5 47l33 143q18 75 88 64q69 -11 53 -86l-14 -74q112 -6 162 -64q49 -56 49 -135q0 -87 -64 -146t-192 -59q-117 0 -184 35q-29 15 -39 41z" />
<glyph unicode="&#xb9;" horiz-adv-x="591" d="M32 1115q3 34 34 65l204 202q47 52 107 52q90 0 90 -109v-475h25q102 0 102 -86q0 -88 -102 -88h-261q-102 0 -102 88q0 86 102 86h41v309l-102 -92q-23 -23 -53 -29q-31 -6 -64 21q-24 22 -21 56z" />
<glyph unicode="&#xba;" horiz-adv-x="774" d="M55 1042q0 182 87 287t245 105t245 -105t87 -287q0 -180 -87 -283q-87 -104 -245 -104t-245 104q-87 103 -87 283zM256 1042q0 -217 131 -217t131 217q0 222 -131 222t-131 -222z" />
<glyph unicode="&#xbb;" horiz-adv-x="1146" d="M116 827q-5 46 29 80q38 31 80 25t80 -41l287 -287q98 -99 -4 -198l-281 -283q-40 -42 -83 -46q-44 -5 -81 32q-63 71 25 159l235 232l-241 241q-42 42 -46 86zM558 827q-5 45 30 80q38 31 80 25t80 -41l286 -287q98 -99 -4 -198l-280 -283q-40 -42 -83 -46 q-44 -5 -81 32q-63 72 24 159l236 232l-242 241q-42 42 -46 86z" />
<glyph unicode="&#xbc;" horiz-adv-x="1519" d="M32 1115q3 34 34 65l204 202q47 52 107 52q90 0 90 -109v-475h25q102 0 102 -86q0 -88 -102 -88h-261q-102 0 -102 88q0 86 102 86h41v309l-102 -92q-23 -23 -53 -29q-31 -6 -64 21q-24 22 -21 56zM442 70l478 1353q39 119 127 86q77 -26 36 -145l-473 -1356 q-41 -114 -131 -84q-78 27 -37 146zM842 243q-18 58 24 107l301 357q51 61 107 61q90 0 90 -109v-325h31q78 0 78 -74t-78 -74h-31v-88q0 -98 -90 -98q-88 0 -88 98v88h-254q-72 0 -90 57zM1032 334h160v180z" />
<glyph unicode="&#xbd;" horiz-adv-x="1583" d="M32 1115q3 34 34 65l204 202q47 52 107 52q90 0 90 -109v-475h25q102 0 102 -86q0 -88 -102 -88h-261q-102 0 -102 88q0 86 102 86h41v309l-102 -92q-23 -23 -53 -29q-31 -6 -64 21q-24 22 -21 56zM461 70l477 1353q39 119 127 86q77 -27 37 -145l-473 -1356 q-41 -114 -131 -84q-78 27 -37 146zM981 90q0 78 34 139q35 63 82 101t97 70q43 27 83 64q34 31 34 64q0 52 -68 52q-44 0 -147 -41q-74 -29 -107 26q-17 30 -6 64q10 32 41 55q95 74 238 74q121 0 190 -58q68 -57 68 -153q0 -63 -30 -113t-73 -81q-39 -28 -87 -58 q-45 -28 -80 -57q-36 -30 -44 -64h234q102 0 102 -86q0 -88 -102 -88h-373q-86 0 -86 90z" />
<glyph unicode="&#xbe;" horiz-adv-x="1579" d="M88 827q24 55 92 37q111 -33 160 -33q113 0 113 87q0 86 -158 86q-65 0 -77 49q-12 48 28 77l143 117h-178q-102 0 -102 84q0 82 102 82h338q70 0 83 -61t-40 -101l-162 -127q105 -7 169 -62q63 -54 63 -149q0 -125 -87 -192q-85 -66 -231 -66t-219 56q-65 49 -37 116z M524 70l477 1353q39 119 127 86q77 -27 37 -145l-473 -1356q-41 -114 -131 -84q-78 27 -37 146zM928 243q-18 58 24 107l301 357q51 61 107 61q90 0 90 -109v-325h31q78 0 78 -74t-78 -74h-31v-88q0 -98 -90 -98q-88 0 -88 98v88h-254q-72 0 -90 57zM1118 334h160v180z" />
<glyph unicode="&#xbf;" horiz-adv-x="860" d="M31 293q0 75 30 143q29 66 64 107q29 34 96 98q76 71 108 122q31 49 31 126q0 115 105 115q102 0 102 -115q0 -101 -40 -175q-42 -78 -115 -151q-57 -57 -78 -82q-26 -31 -44 -71q-20 -45 -20 -93q0 -59 42 -100q43 -41 120 -41q72 0 189 51q100 45 139 -24q21 -30 6 -73 t-66 -73q-127 -77 -294 -77q-185 0 -280 92t-95 221zM319 1282q0 59 38 95t106 36q67 0 104 -36t37 -95t-37 -96t-104 -37q-69 0 -106 37q-38 38 -38 96z" />
<glyph unicode="&#xc0;" horiz-adv-x="1435" d="M0 106q0 46 31 77q30 30 80 30h34l447 1120q39 101 125 101q82 0 119 -88l460 -1133h29q50 0 80 -30q31 -31 31 -77q0 -48 -31 -77t-80 -29h-301q-49 0 -80 29t-31 77q0 46 31 77q30 30 80 30h18l-69 186h-527l-69 -186h20q50 0 80 -30q31 -31 31 -77q0 -48 -31 -77 t-80 -29h-286q-49 0 -80 29t-31 77zM362 1782q34 71 138 24l293 -137q108 -49 63 -131q-37 -69 -141 -20l-285 131q-107 53 -68 133zM512 592h391l-198 516z" />
<glyph unicode="&#xc1;" horiz-adv-x="1435" d="M0 106q0 46 31 77q30 30 80 30h34l447 1120q39 101 125 101q82 0 119 -88l460 -1133h29q50 0 80 -30q31 -31 31 -77q0 -48 -31 -77t-80 -29h-301q-49 0 -80 29t-31 77q0 46 31 77q30 30 80 30h18l-69 186h-527l-69 -186h20q50 0 80 -30q31 -31 31 -77q0 -48 -31 -77 t-80 -29h-286q-49 0 -80 29t-31 77zM512 592h391l-198 516zM618 1538q-43 81 64 131l293 137q103 47 137 -24q39 -80 -68 -133l-284 -131q-109 -50 -142 20z" />
<glyph unicode="&#xc2;" horiz-adv-x="1435" d="M0 106q0 46 31 77q30 30 80 30h34l447 1120q39 101 125 101q82 0 119 -88l460 -1133h29q50 0 80 -30q31 -31 31 -77q0 -48 -31 -77t-80 -29h-301q-49 0 -80 29t-31 77q0 46 31 77q30 30 80 30h18l-69 186h-527l-69 -186h20q50 0 80 -30q31 -31 31 -77q0 -48 -31 -77 t-80 -29h-286q-49 0 -80 29t-31 77zM356 1536q-33 73 60 125l223 127q66 37 133 0l246 -133q91 -47 47 -127q-37 -72 -125 -23l-238 131l-221 -125q-40 -22 -74 -16t-51 41zM512 592h391l-198 516z" />
<glyph unicode="&#xc3;" horiz-adv-x="1435" d="M0 106q0 46 31 77q30 30 80 30h34l447 1120q39 101 125 101q82 0 119 -88l460 -1133h29q50 0 80 -30q31 -31 31 -77q0 -48 -31 -77t-80 -29h-301q-49 0 -80 29t-31 77q0 46 31 77q30 30 80 30h18l-69 186h-527l-69 -186h20q50 0 80 -30q31 -31 31 -77q0 -48 -31 -77 t-80 -29h-286q-49 0 -80 29t-31 77zM358 1587q5 40 35 70q84 94 195 94q61 0 157 -44t121 -44q38 0 90 43q66 60 119 14q55 -50 -12 -129q-82 -94 -197 -94q-65 0 -155 45t-121 45q-40 0 -98 -47q-63 -49 -109 -14q-29 23 -25 61zM512 592h391l-198 516z" />
<glyph unicode="&#xc4;" horiz-adv-x="1435" d="M0 106q0 46 31 77q30 30 80 30h34l447 1120q39 101 125 101q82 0 119 -88l460 -1133h29q50 0 80 -30q31 -31 31 -77q0 -48 -31 -77t-80 -29h-301q-49 0 -80 29t-31 77q0 46 31 77q30 30 80 30h18l-69 186h-527l-69 -186h20q50 0 80 -30q31 -31 31 -77q0 -48 -31 -77 t-80 -29h-286q-49 0 -80 29t-31 77zM350 1630q0 57 42 90t106 33q67 0 109 -33t42 -90q0 -58 -42 -88q-43 -31 -109 -31q-65 0 -107 31q-41 30 -41 88zM512 592h391l-198 516zM776 1630q0 57 41 90t109 33q65 0 107 -33t42 -90q0 -58 -42 -88q-43 -31 -107 -31 q-67 0 -109 31q-41 30 -41 88z" />
<glyph unicode="&#xc5;" horiz-adv-x="1435" d="M0 106q0 46 31 77q30 30 80 30h34l447 1120q13 30 24 47q-143 37 -143 181q0 87 64 139q63 51 180 51t180 -51q64 -52 64 -139q0 -67 -38 -116q-38 -48 -106 -65q14 -20 19 -34l460 -1133h29q50 0 80 -30q31 -31 31 -77q0 -48 -31 -77t-80 -29h-301q-49 0 -80 29t-31 77 q0 46 31 77q30 30 80 30h18l-69 186h-527l-69 -186h20q50 0 80 -30q31 -31 31 -77q0 -48 -31 -77t-80 -29h-286q-49 0 -80 29t-31 77zM512 592h391l-198 516zM625 1561q0 -39 24 -65t68 -26q42 0 68 26t26 65q0 37 -27 62q-28 26 -67 26q-43 0 -68 -25q-24 -24 -24 -63z" />
<glyph unicode="&#xc6;" horiz-adv-x="1918" d="M0 106q0 46 31 77q30 30 80 30h28l770 1122q49 78 133 78h680q55 0 85 -34t30 -85v-170q0 -50 -30 -85q-29 -33 -85 -33q-57 0 -83 33q-27 35 -27 85v70h-463v-358h457q55 0 87 -29q31 -28 31 -80q0 -50 -31 -80q-33 -31 -87 -31h-457v-397h483v84q0 50 29 85 q28 34 82 34q55 0 85 -34q30 -35 30 -85v-184q0 -51 -30 -85t-85 -34h-696q-58 0 -95 37t-37 92v229h-413l-96 -145h6q50 0 80 -30t30 -77q0 -48 -30 -77q-31 -29 -80 -29h-301q-49 0 -80 29t-31 77zM618 547h297v457z" />
<glyph unicode="&#xc7;" horiz-adv-x="1314" d="M100 707q0 331 174 529t484 198q243 0 379 -95q61 -43 61 -118v-160q0 -51 -30 -85t-85 -34q-56 0 -83 34t-27 85v117q-102 36 -211 36q-188 0 -296 -138t-108 -367q0 -237 116 -374q115 -136 294 -136q123 0 240 59v121q0 51 28 85t82 34q55 0 85 -34t30 -85v-160 q0 -73 -66 -119q-158 -114 -391 -120l-12 -68q112 -6 162 -64q49 -56 49 -135q0 -87 -64 -146t-192 -59q-117 0 -184 35q-29 15 -39 41t2 51q18 46 80 29q74 -18 108 -18q88 0 88 65q0 36 -28 55q-24 16 -93 27q-32 4 -44 25q-11 19 -5 47l27 123q-264 35 -397 225 q-134 191 -134 494z" />
<glyph unicode="&#xc8;" horiz-adv-x="1251" d="M61 106q0 46 31 77q30 30 80 30h64v987h-64q-49 0 -80 29t-31 78q0 45 31 76q30 30 80 30h883q55 0 85 -34q29 -33 29 -85v-170q0 -52 -29 -85t-85 -33q-57 0 -83 33q-28 36 -28 85v70h-463v-358h457q55 0 87 -29t32 -80q0 -50 -32 -80q-33 -31 -87 -31h-457v-397h484v84 q0 51 28 85t82 34q55 0 85 -34q30 -35 30 -85v-184q0 -51 -30 -85t-85 -34h-903q-49 0 -80 29t-31 77zM377 1782q34 71 137 24l293 -137q108 -49 63 -131q-37 -69 -141 -20l-285 131q-106 52 -67 133z" />
<glyph unicode="&#xc9;" horiz-adv-x="1251" d="M61 106q0 46 31 77q30 30 80 30h64v987h-64q-49 0 -80 29t-31 78q0 45 31 76q30 30 80 30h883q55 0 85 -34q29 -33 29 -85v-170q0 -52 -29 -85t-85 -33q-57 0 -83 33q-28 36 -28 85v70h-463v-358h457q55 0 87 -29t32 -80q0 -50 -32 -80q-33 -31 -87 -31h-457v-397h484v84 q0 51 28 85t82 34q55 0 85 -34q30 -35 30 -85v-184q0 -51 -30 -85t-85 -34h-903q-49 0 -80 29t-31 77zM571 1538q-43 81 64 131l293 137q103 47 137 -24q39 -80 -68 -133l-284 -131q-109 -50 -142 20z" />
<glyph unicode="&#xca;" horiz-adv-x="1251" d="M61 106q0 46 31 77q30 30 80 30h64v987h-64q-49 0 -80 29t-31 78q0 45 31 76q30 30 80 30h883q55 0 85 -34q29 -33 29 -85v-170q0 -52 -29 -85t-85 -33q-57 0 -83 33q-28 36 -28 85v70h-463v-358h457q55 0 87 -29t32 -80q0 -50 -32 -80q-33 -31 -87 -31h-457v-397h484v84 q0 51 28 85t82 34q55 0 85 -34q30 -35 30 -85v-184q0 -51 -30 -85t-85 -34h-903q-49 0 -80 29t-31 77zM342 1536q-33 74 59 125l224 127q66 37 133 0l246 -133q91 -47 47 -127q-37 -72 -125 -23l-238 131l-221 -125q-40 -22 -75 -16q-33 6 -50 41z" />
<glyph unicode="&#xcb;" horiz-adv-x="1251" d="M61 106q0 46 31 77q30 30 80 30h64v987h-64q-49 0 -80 29t-31 78q0 45 31 76q30 30 80 30h883q55 0 85 -34q29 -33 29 -85v-170q0 -52 -29 -85t-85 -33q-57 0 -83 33q-28 36 -28 85v70h-463v-358h457q55 0 87 -29t32 -80q0 -50 -32 -80q-33 -31 -87 -31h-457v-397h484v84 q0 51 28 85t82 34q55 0 85 -34q30 -35 30 -85v-184q0 -51 -30 -85t-85 -34h-903q-49 0 -80 29t-31 77zM317 1630q0 57 42 90t106 33q67 0 109 -33t42 -90q0 -58 -42 -88q-43 -31 -109 -31q-65 0 -107 31q-41 30 -41 88zM743 1630q0 57 41 90q40 33 109 33q65 0 107 -33 t42 -90q0 -58 -42 -88q-43 -31 -107 -31q-67 0 -109 31q-41 30 -41 88z" />
<glyph unicode="&#xcc;" horiz-adv-x="716" d="M10 1782q34 71 137 24l293 -137q108 -50 64 -131q-38 -69 -142 -20l-284 131q-107 53 -68 133zM100 106q0 46 31 77q30 30 80 30h63v987h-63q-49 0 -80 29t-31 78q0 45 31 76q30 30 80 30h373q50 0 80 -30t30 -76q0 -49 -30 -78q-31 -29 -80 -29h-64v-987h64q50 0 80 -30 t30 -77q0 -48 -30 -77q-31 -29 -80 -29h-373q-49 0 -80 29t-31 77z" />
<glyph unicode="&#xcd;" horiz-adv-x="716" d="M61 106q0 46 31 77q30 30 80 30h64v987h-64q-49 0 -80 29t-31 78q0 45 31 76q30 30 80 30h373q50 0 80 -30t30 -76q0 -49 -30 -78q-31 -29 -80 -29h-64v-987h64q50 0 80 -30t30 -77q0 -48 -30 -77q-31 -29 -80 -29h-373q-49 0 -80 29t-31 77zM238 1538q-43 82 63 131 l293 137q103 47 137 -24q39 -81 -67 -133l-285 -131q-108 -49 -141 20z" />
<glyph unicode="&#xce;" horiz-adv-x="716" d="M33 1536q-33 74 59 125l223 127q66 38 134 0l245 -133q91 -47 47 -127q-37 -72 -125 -23l-237 131l-221 -125q-40 -22 -75 -16q-33 6 -50 41zM94 106q0 46 31 77q30 30 80 30h63v987h-63q-49 0 -80 29t-31 78q0 45 31 76q30 30 80 30h373q49 0 79 -30q31 -31 31 -76 q0 -49 -31 -78t-79 -29h-64v-987h64q49 0 79 -30q31 -31 31 -77q0 -48 -31 -77t-79 -29h-373q-49 0 -80 29t-31 77z" />
<glyph unicode="&#xcf;" horiz-adv-x="716" d="M-4 1630q0 57 42 90t105 33q68 0 110 -33t42 -90q0 -58 -42 -88q-43 -31 -110 -31q-64 0 -106 31q-41 30 -41 88zM61 106q0 46 31 77q30 30 80 30h64v987h-64q-49 0 -80 29t-31 78q0 45 31 76q30 30 80 30h373q50 0 80 -30t30 -76q0 -49 -30 -78q-31 -29 -80 -29h-64 v-987h64q50 0 80 -30t30 -77q0 -48 -30 -77q-31 -29 -80 -29h-373q-49 0 -80 29t-31 77zM422 1630q0 57 41 90t108 33q66 0 108 -33t42 -90q0 -58 -42 -88q-43 -31 -108 -31q-66 0 -108 31q-41 30 -41 88z" />
<glyph unicode="&#xd0;" horiz-adv-x="1525" d="M72 106q0 47 30 77t80 30h64v987h-64q-49 0 -80 29q-30 29 -30 78q0 46 30 76t80 30h299q103 10 221 10q358 0 541 -180q182 -179 182 -530q0 -340 -184 -531q-185 -192 -536 -192q-181 0 -271 10h-252q-49 0 -80 29q-30 28 -30 77zM72 727q0 80 84 80h608q84 0 84 -80 q0 -78 -84 -78h-608q-84 0 -84 78zM492 219q86 -10 213 -10q462 0 462 504q0 491 -465 491q-92 0 -210 -12v-973z" />
<glyph unicode="&#xd1;" horiz-adv-x="1613" d="M61 106q0 46 31 77q30 30 80 30h68v987h-68q-49 0 -80 29t-31 78q0 45 31 76q30 30 80 30h182q72 0 121 -67l676 -910v764h-82q-49 0 -80 29t-31 78q0 45 31 76q30 30 80 30h373q50 0 80 -30t30 -76q0 -49 -30 -78q-31 -29 -80 -29h-68v-1075q0 -55 -32 -90t-85 -35 q-61 0 -110 61l-684 908v-756h82q50 0 80 -30t30 -77q0 -48 -30 -77q-31 -29 -80 -29h-373q-49 0 -80 29t-31 77zM444 1587q5 40 35 70q84 94 195 94q61 0 157 -44t121 -44q38 0 90 43q66 60 119 14q55 -50 -12 -129q-82 -94 -197 -94q-65 0 -155 45t-121 45q-40 0 -98 -47 q-63 -49 -109 -14q-29 23 -25 61z" />
<glyph unicode="&#xd2;" horiz-adv-x="1546" d="M100 707q0 317 175 522t497 205q323 0 498 -205q176 -206 176 -522q0 -319 -176 -524q-175 -203 -498 -203q-322 0 -497 203t-175 524zM358 707q0 -223 108 -366q108 -142 306 -142q200 0 308 142q108 143 108 366t-108 365t-308 142q-198 0 -306 -142t-108 -365z M455 1782q34 71 137 24l293 -137q108 -49 63 -131q-37 -69 -141 -20l-285 131q-106 52 -67 133z" />
<glyph unicode="&#xd3;" horiz-adv-x="1546" d="M100 707q0 317 175 522t497 205q323 0 498 -205q176 -206 176 -522q0 -319 -176 -524q-175 -203 -498 -203q-322 0 -497 203t-175 524zM358 707q0 -223 108 -366q108 -142 306 -142q200 0 308 142q108 143 108 366t-108 365t-308 142q-198 0 -306 -142t-108 -365z M639 1538q-43 82 63 131l293 137q104 47 138 -24q39 -80 -68 -133l-285 -131q-108 -49 -141 20z" />
<glyph unicode="&#xd4;" horiz-adv-x="1546" d="M100 707q0 317 175 522t497 205q323 0 498 -205q176 -206 176 -522q0 -319 -176 -524q-175 -203 -498 -203q-322 0 -497 203t-175 524zM358 707q0 -223 108 -366q108 -142 306 -142q200 0 308 142q108 143 108 366t-108 365t-308 142q-198 0 -306 -142t-108 -365z M414 1536q-33 74 59 125l223 127q66 37 133 0l246 -133q91 -47 47 -127q-37 -72 -125 -23l-237 131l-221 -125q-40 -22 -75 -16q-33 6 -50 41z" />
<glyph unicode="&#xd5;" horiz-adv-x="1546" d="M100 707q0 317 175 522t497 205q323 0 498 -205q176 -206 176 -522q0 -319 -176 -524q-175 -203 -498 -203q-322 0 -497 203t-175 524zM358 707q0 -223 108 -366q108 -142 306 -142q200 0 308 142q108 143 108 366t-108 365t-308 142q-198 0 -306 -142t-108 -365z M412 1587q5 41 34 70q84 94 195 94q62 0 158 -44t121 -44q38 0 90 43q65 59 118 14q56 -50 -12 -129q-82 -94 -196 -94q-66 0 -156 45t-121 45q-40 0 -98 -47q-63 -49 -109 -14q-28 22 -24 61z" />
<glyph unicode="&#xd6;" horiz-adv-x="1546" d="M100 707q0 317 175 522t497 205q323 0 498 -205q176 -206 176 -522q0 -319 -176 -524q-175 -203 -498 -203q-322 0 -497 203t-175 524zM358 707q0 -223 108 -366q108 -142 306 -142q200 0 308 142q108 143 108 366t-108 365t-308 142q-198 0 -306 -142t-108 -365z M401 1630q0 57 42 90t106 33q67 0 109 -33t42 -90q0 -58 -42 -88q-43 -31 -109 -31q-65 0 -107 31q-41 30 -41 88zM827 1630q0 57 41 90q40 33 109 33q65 0 107 -33t42 -90q0 -58 -42 -88q-43 -31 -107 -31q-67 0 -109 31q-41 30 -41 88z" />
<glyph unicode="&#xd7;" horiz-adv-x="1071" d="M291 969q68 80 164 -8l155 -154l154 156q78 79 145 12q69 -73 -8 -150l-149 -155l155 -154q82 -82 13 -160q-39 -38 -82 -33q-41 5 -80 39l-156 154l-156 -156q-35 -38 -73 -42q-39 -5 -74 30q-70 70 6 148l156 157l-156 154q-83 83 -14 162z" />
<glyph unicode="&#xd8;" horiz-adv-x="1546" d="M100 707q0 317 175 522t497 205q70 0 141 -17l27 72q39 110 133 80q83 -27 45 -142l-24 -65q170 -84 261 -258q91 -173 91 -397q0 -319 -176 -524q-175 -203 -498 -203q-88 0 -164 16l-26 -72q-16 -46 -52 -69t-79 -9q-89 27 -45 144l24 71q-160 89 -245 258t-85 388z M358 707q0 -133 45 -249t123 -177l326 925q-37 8 -80 8q-195 0 -304 -140q-110 -142 -110 -367zM668 211q50 -12 104 -12q200 0 308 142q108 143 108 366q0 143 -48 259q-48 115 -139 179z" />
<glyph unicode="&#xd9;" horiz-adv-x="1525" d="M47 1307q0 45 31 76q30 30 80 30h372q50 0 80 -30q31 -31 31 -76q0 -49 -31 -78t-80 -29h-63v-639q0 -362 301 -362t301 366v635h-74q-49 0 -80 29q-30 29 -30 78q0 46 30 76t80 30h373q50 0 80 -30q31 -31 31 -76q0 -49 -31 -78t-80 -29h-63v-625q0 -127 -27 -229 q-27 -103 -86 -187q-60 -85 -168 -132q-109 -47 -258 -47q-291 0 -417 162q-128 164 -128 429v629h-63q-49 0 -80 29t-31 78zM483 1782q34 71 138 24l292 -137q108 -50 64 -131q-37 -69 -141 -20l-285 131q-107 53 -68 133z" />
<glyph unicode="&#xda;" horiz-adv-x="1525" d="M47 1307q0 45 31 76q30 30 80 30h372q50 0 80 -30q31 -31 31 -76q0 -49 -31 -78t-80 -29h-63v-639q0 -362 301 -362t301 366v635h-74q-49 0 -80 29q-30 29 -30 78q0 46 30 76t80 30h373q50 0 80 -30q31 -31 31 -76q0 -49 -31 -78t-80 -29h-63v-625q0 -127 -27 -229 q-27 -103 -86 -187q-60 -85 -168 -132q-109 -47 -258 -47q-291 0 -417 162q-128 164 -128 429v629h-63q-49 0 -80 29t-31 78zM668 1538q-43 82 63 131l293 137q103 47 137 -24q39 -81 -67 -133l-285 -131q-108 -49 -141 20z" />
<glyph unicode="&#xdb;" horiz-adv-x="1525" d="M47 1307q0 45 31 76q30 30 80 30h372q50 0 80 -30q31 -31 31 -76q0 -49 -31 -78t-80 -29h-63v-639q0 -362 301 -362t301 366v635h-74q-49 0 -80 29q-30 29 -30 78q0 46 30 76t80 30h373q50 0 80 -30q31 -31 31 -76q0 -49 -31 -78t-80 -29h-63v-625q0 -127 -27 -229 q-27 -103 -86 -187q-60 -85 -168 -132q-109 -47 -258 -47q-291 0 -417 162q-128 164 -128 429v629h-63q-49 0 -80 29t-31 78zM416 1536q-33 74 59 125l223 127q66 37 133 0l246 -133q91 -47 47 -127q-37 -72 -125 -23l-237 131l-221 -125q-40 -22 -75 -16q-33 6 -50 41z" />
<glyph unicode="&#xdc;" horiz-adv-x="1525" d="M47 1307q0 45 31 76q30 30 80 30h372q50 0 80 -30q31 -31 31 -76q0 -49 -31 -78t-80 -29h-63v-639q0 -362 301 -362t301 366v635h-74q-49 0 -80 29q-30 29 -30 78q0 46 30 76t80 30h373q50 0 80 -30q31 -31 31 -76q0 -49 -31 -78t-80 -29h-63v-625q0 -127 -27 -229 q-27 -103 -86 -187q-60 -85 -168 -132q-109 -47 -258 -47q-291 0 -417 162q-128 164 -128 429v629h-63q-49 0 -80 29t-31 78zM403 1630q0 57 42 90t106 33q67 0 109 -33t42 -90q0 -58 -42 -88q-43 -31 -109 -31q-65 0 -107 31q-41 30 -41 88zM829 1630q0 57 41 90 q40 33 109 33q65 0 107 -33t42 -90q0 -58 -42 -88q-43 -31 -107 -31q-67 0 -109 31q-41 30 -41 88z" />
<glyph unicode="&#xdd;" horiz-adv-x="1329" d="M0 1307q0 45 31 76q30 30 80 30h356q50 0 80 -30q31 -31 31 -76q0 -49 -31 -78t-80 -29h-21l244 -366l236 366h-8q-49 0 -80 29t-31 78q0 45 31 76q30 30 80 30h301q49 0 79 -30q31 -31 31 -76q0 -49 -31 -78t-79 -29h-29l-385 -577v-410h43q50 0 80 -30t30 -77 q0 -48 -30 -77q-31 -29 -80 -29h-332q-49 0 -80 29q-30 29 -30 77q0 47 30 77t80 30h43v399l-414 588h-34q-49 0 -80 29t-31 78zM567 1538q-43 81 64 131l293 137q103 47 137 -24q39 -80 -68 -133l-284 -131q-109 -50 -142 20z" />
<glyph unicode="&#xde;" horiz-adv-x="1257" d="M61 106q0 46 31 77q30 30 80 30h64v987h-64q-49 0 -80 29t-31 78q0 45 31 76q30 30 80 30h352q51 0 81 -24t30 -72q0 -96 -111 -96h-43v-64q101 14 187 14q538 0 538 -434q0 -232 -153 -343t-396 -111q-115 0 -176 8v-98h74q50 0 81 -25q30 -24 30 -72q0 -96 -111 -96 h-383q-49 0 -80 29t-31 77zM481 487q51 -6 160 -6q307 4 307 254q0 236 -289 236q-58 0 -178 -13v-471z" />
<glyph unicode="&#xdf;" horiz-adv-x="1208" d="M35 -315q0 98 104 98h49v1192q0 225 99 342t319 117q192 0 302 -78t110 -219q0 -70 -33 -133q-35 -66 -73 -103q-35 -34 -72 -79q-33 -40 -33 -68q0 -29 35 -61q30 -27 85 -64q49 -32 101 -74q51 -40 86 -108q35 -67 35 -148q0 -136 -89 -228q-88 -91 -274 -91 q-138 0 -221 45q-44 24 -61 65q-16 40 2 78q30 62 127 29q99 -31 151 -31q66 0 99 36q32 35 32 91q0 62 -53 115t-117 88q-63 35 -116 95q-54 62 -54 134q0 59 33 115t72 90q37 33 72 85q32 48 32 101q0 60 -46 90q-48 31 -128 31q-108 0 -149 -70t-41 -227v-1157h47 q106 0 106 -98q0 -95 -106 -95h-328q-104 0 -104 95z" />
<glyph unicode="&#xe0;" horiz-adv-x="1099" d="M35 281q0 174 126 255q124 80 314 80q135 0 215 -14v23q0 99 -43 152q-43 54 -166 54q-19 0 -51 -2q-22 -1 -50 -8q-12 -3 -42 -11l-49 -15q-36 -11 -49 -15q-37 -12 -71 0t-46 47q-24 72 51 121q113 76 334 76q403 0 403 -381v-450h50q104 0 104 -99q0 -94 -104 -94 h-160q-56 0 -83 34q-28 36 -28 85v37q-101 -176 -328 -176q-155 0 -240 81q-87 83 -87 220zM203 1440q45 68 135 8l248 -164q94 -61 41 -133q-46 -65 -135 -2l-240 158q-95 63 -49 133zM262 299q0 -64 43 -101q44 -38 119 -38q122 0 194 81t72 185v35q-63 10 -182 10 q-246 0 -246 -172z" />
<glyph unicode="&#xe1;" horiz-adv-x="1099" d="M35 281q0 174 126 255q124 80 314 80q135 0 215 -14v23q0 99 -43 152q-43 54 -166 54q-19 0 -51 -2q-22 -1 -50 -8q-12 -3 -42 -11l-49 -15q-36 -11 -49 -15q-37 -12 -71 0t-46 47q-24 72 51 121q113 76 334 76q403 0 403 -381v-450h50q104 0 104 -99q0 -94 -104 -94 h-160q-56 0 -83 34q-28 36 -28 85v37q-101 -176 -328 -176q-155 0 -240 81q-87 83 -87 220zM262 299q0 -64 43 -101q44 -38 119 -38q122 0 194 81t72 185v35q-63 10 -182 10q-246 0 -246 -172zM377 1151q-53 74 43 137l246 160q88 57 133 -10q43 -72 -49 -135l-238 -156 q-89 -63 -135 4z" />
<glyph unicode="&#xe2;" horiz-adv-x="1099" d="M35 281q0 174 126 255q124 80 314 80q135 0 215 -14v23q0 99 -43 152q-43 54 -166 54q-19 0 -51 -2q-22 -1 -50 -8q-12 -3 -42 -11l-49 -15q-36 -11 -49 -15q-37 -12 -71 0t-46 47q-24 72 51 121q113 76 334 76q403 0 403 -381v-450h50q104 0 104 -99q0 -94 -104 -94 h-160q-56 0 -83 34q-28 36 -28 85v37q-101 -176 -328 -176q-155 0 -240 81q-87 83 -87 220zM186 1151q-44 63 33 119l215 157q67 51 139 0l226 -161q36 -26 41 -64q4 -36 -17 -57q-45 -56 -118 -4l-209 153l-189 -145q-78 -57 -121 2zM262 299q0 -64 43 -101q44 -38 119 -38 q122 0 194 81t72 185v35q-63 10 -182 10q-246 0 -246 -172z" />
<glyph unicode="&#xe3;" horiz-adv-x="1099" d="M35 281q0 174 126 255q124 80 314 80q135 0 215 -14v23q0 99 -43 152q-43 54 -166 54q-19 0 -51 -2q-22 -1 -50 -8q-12 -3 -42 -11l-49 -15q-36 -11 -49 -15q-37 -12 -71 0t-46 47q-24 72 51 121q113 76 334 76q403 0 403 -381v-450h50q104 0 104 -99q0 -94 -104 -94 h-160q-56 0 -83 34q-28 36 -28 85v37q-101 -176 -328 -176q-155 0 -240 81q-87 83 -87 220zM159 1217q3 37 31 71q85 96 189 96q64 0 147 -44t107 -44q30 0 80 43q63 55 118 9q25 -25 22 -60q-3 -34 -30 -67q-78 -99 -192 -99q-63 0 -143 44t-109 44q-35 0 -86 -45 q-61 -49 -111 -8q-26 22 -23 60zM262 299q0 -64 43 -101q44 -38 119 -38q122 0 194 81t72 185v35q-63 10 -182 10q-246 0 -246 -172z" />
<glyph unicode="&#xe4;" horiz-adv-x="1099" d="M35 281q0 174 126 255q124 80 314 80q135 0 215 -14v23q0 99 -43 152q-43 54 -166 54q-19 0 -51 -2q-22 -1 -50 -8q-12 -3 -42 -11l-49 -15q-36 -11 -49 -15q-37 -12 -71 0t-46 47q-24 72 51 121q113 76 334 76q403 0 403 -381v-450h50q104 0 104 -99q0 -94 -104 -94 h-160q-56 0 -83 34q-28 36 -28 85v37q-101 -176 -328 -176q-155 0 -240 81q-87 83 -87 220zM180 1266q0 56 35 91q34 34 94 34q59 0 94 -35t35 -90q0 -56 -35 -91q-34 -34 -94 -34q-61 0 -95 33t-34 92zM262 299q0 -64 43 -101q44 -38 119 -38q122 0 194 81t72 185v35 q-63 10 -182 10q-246 0 -246 -172zM571 1266q0 57 34 91t93 34q60 0 95 -35q34 -34 34 -90q0 -57 -34 -91t-95 -34t-94 33t-33 92z" />
<glyph unicode="&#xe5;" horiz-adv-x="1099" d="M35 281q0 174 126 255q124 80 314 80q135 0 215 -14v23q0 99 -43 152q-43 54 -166 54q-19 0 -51 -2q-22 -1 -50 -8q-12 -3 -42 -11l-49 -15q-36 -11 -49 -15q-37 -12 -71 0t-46 47q-24 72 51 121q113 76 334 76q403 0 403 -381v-450h50q104 0 104 -99q0 -94 -104 -94 h-160q-56 0 -83 34q-28 36 -28 85v37q-101 -176 -328 -176q-155 0 -240 81q-87 83 -87 220zM262 299q0 -64 43 -101q44 -38 119 -38q122 0 194 81t72 185v35q-63 10 -182 10q-246 0 -246 -172zM272 1294q0 90 61 145q60 54 163 54q102 0 162 -54q61 -55 61 -145 q0 -92 -61 -145t-162 -53q-102 0 -163 53t-61 145zM399 1294q0 -40 28 -66t69 -26q40 0 68 26t28 66q0 41 -28 67q-26 25 -68 25q-43 0 -69 -25q-28 -26 -28 -67z" />
<glyph unicode="&#xe6;" horiz-adv-x="1630" d="M29 272q0 324 448 324h203v55q0 82 -49 131t-156 49q-33 0 -64 -4q-33 -4 -55 -9t-60 -16l-60 -18q-97 -23 -119 43q-29 89 82 140q129 57 303 57q251 0 311 -172q117 172 356 172q181 0 283 -105t102 -266q0 -101 -31 -151q-31 -51 -130 -51h-506q7 -285 266 -285 q95 0 227 53q82 33 115 -31q20 -36 5 -74q-15 -39 -58 -65q-114 -69 -299 -69q-279 0 -387 229q-114 -229 -400 -229q-155 0 -240 78q-87 80 -87 214zM256 293q0 -64 45 -98q46 -35 119 -35q122 0 191 79q69 80 69 185v27h-180q-120 0 -182 -34t-62 -124zM893 596h444 q6 33 6 76q0 74 -52 120t-152 46q-102 0 -169 -62t-77 -180z" />
<glyph unicode="&#xe7;" horiz-adv-x="960" d="M80 494q0 246 130 388t355 142q174 0 264 -57q66 -44 62 -105v-143q0 -48 -27 -78q-28 -31 -76 -31q-47 0 -75 31q-27 30 -27 78v84q-53 14 -115 14q-118 0 -186 -86t-68 -237q0 -143 71 -226q70 -82 185 -82q81 0 197 58q99 46 139 -21q46 -78 -41 -149 q-112 -88 -297 -94l-12 -68q112 -6 162 -64q49 -56 49 -135q0 -84 -67 -145q-66 -60 -189 -60q-117 0 -184 35q-29 15 -39 41t2 51q18 46 80 29q73 -18 108 -18q88 0 88 65q0 37 -27 55q-24 16 -93 27q-33 5 -45 25q-11 19 -5 47l27 127q-163 34 -255 166q-91 130 -91 336z " />
<glyph unicode="&#xe8;" horiz-adv-x="1052" d="M80 498q0 239 129 383q128 143 348 143q196 0 308 -112t112 -296q0 -60 -10 -96q-16 -54 -45 -78q-30 -24 -91 -24h-522q5 -118 76 -185t190 -67q89 0 218 53q89 37 127 -29q19 -31 7 -68q-13 -40 -50 -63q-118 -79 -324 -79q-229 0 -351 135q-122 136 -122 383z M279 1440q45 68 135 8l248 -164q93 -60 40 -133q-46 -65 -135 -2l-239 158q-95 63 -49 133zM309 580h453q2 28 2 51q0 93 -52 149q-53 58 -155 58q-108 0 -173 -67q-64 -66 -75 -191z" />
<glyph unicode="&#xe9;" horiz-adv-x="1052" d="M80 498q0 239 129 383q128 143 348 143q196 0 308 -112t112 -296q0 -60 -10 -96q-16 -54 -45 -78q-30 -24 -91 -24h-522q5 -118 76 -185t190 -67q89 0 218 53q89 37 127 -29q19 -31 7 -68q-13 -40 -50 -63q-118 -79 -324 -79q-229 0 -351 135q-122 136 -122 383zM309 580 h453q2 28 2 51q0 93 -52 149q-53 58 -155 58q-108 0 -173 -67q-64 -66 -75 -191zM432 1151q-53 74 43 137l246 160q88 57 133 -10q43 -72 -49 -135l-238 -156q-89 -63 -135 4z" />
<glyph unicode="&#xea;" horiz-adv-x="1052" d="M80 498q0 239 129 383q128 143 348 143q196 0 308 -112t112 -296q0 -60 -10 -96q-16 -54 -45 -78q-30 -24 -91 -24h-522q5 -118 76 -185t190 -67q89 0 218 53q89 37 127 -29q19 -31 7 -68q-13 -40 -50 -63q-118 -79 -324 -79q-229 0 -351 135q-122 136 -122 383z M242 1151q-44 64 32 119l215 157q68 51 140 0l225 -161q36 -26 41 -64q4 -37 -16 -57q-45 -57 -119 -4l-209 153l-188 -145q-78 -57 -121 2zM309 580h453q2 28 2 51q0 93 -52 149q-53 58 -155 58q-108 0 -173 -67q-64 -66 -75 -191z" />
<glyph unicode="&#xeb;" horiz-adv-x="1052" d="M80 498q0 239 129 383q128 143 348 143q196 0 308 -112t112 -296q0 -60 -10 -96q-16 -54 -45 -78q-30 -24 -91 -24h-522q5 -118 76 -185t190 -67q89 0 218 53q89 37 127 -29q19 -31 7 -68q-13 -40 -50 -63q-118 -79 -324 -79q-229 0 -351 135q-122 136 -122 383z M231 1266q0 57 34 91t95 34q60 0 95 -35q34 -34 34 -90q0 -57 -34 -91t-95 -34q-60 0 -95 33q-34 33 -34 92zM309 580h453q2 28 2 51q0 93 -52 149q-53 58 -155 58q-108 0 -173 -67q-64 -66 -75 -191zM623 1266q0 58 33 91q34 34 94 34q59 0 94 -35t35 -90q0 -56 -35 -91 q-34 -34 -94 -34q-62 0 -95 33q-32 32 -32 92z" />
<glyph unicode="&#xec;" horiz-adv-x="608" d="M61 1440q46 68 136 8l247 -164q94 -61 41 -133q-46 -65 -135 -2l-239 158q-95 64 -50 133zM80 94q0 99 104 99h49v618h-49q-104 0 -104 94q0 99 104 99h164q56 0 86 -34q31 -36 31 -85v-692h47q106 0 106 -99q0 -94 -106 -94h-328q-104 0 -104 94z" />
<glyph unicode="&#xed;" horiz-adv-x="608" d="M35 94q0 99 104 99h49v618h-49q-104 0 -104 94q0 99 104 99h164q56 0 86 -34q31 -36 31 -85v-692h47q106 0 106 -99q0 -94 -106 -94h-328q-104 0 -104 94zM193 1151q-53 74 43 137l245 160q88 57 133 -10q43 -72 -49 -135l-237 -156q-89 -63 -135 4z" />
<glyph unicode="&#xee;" horiz-adv-x="608" d="M27 1151q-44 64 32 119l215 157q68 51 140 0l225 -161q36 -26 41 -64q4 -37 -16 -57q-45 -57 -119 -4l-209 153l-189 -145q-77 -57 -120 2zM78 94q0 99 104 99h49v618h-49q-104 0 -104 94q0 99 104 99h164q56 0 86 -34q31 -36 31 -85v-692h47q106 0 106 -99 q0 -94 -106 -94h-328q-104 0 -104 94z" />
<glyph unicode="&#xef;" horiz-adv-x="493" d="M-96 1266q0 57 34 91t95 34q59 0 94 -35t35 -90q0 -56 -35 -91q-34 -34 -94 -34q-61 0 -95 33t-34 92zM-23 94q0 99 105 99h49v618h-49q-105 0 -105 94q0 99 105 99h164q56 0 86 -34t30 -85v-692h48q106 0 106 -99q0 -94 -106 -94h-328q-105 0 -105 94zM295 1266 q0 57 34 91t93 34t94 -35t35 -90q0 -56 -35 -91q-34 -34 -94 -34q-61 0 -94 33t-33 92z" />
<glyph unicode="&#xf0;" horiz-adv-x="1124" d="M80 494q0 222 108 365q108 142 320 142q213 0 319 -143q-12 100 -74 184q-63 86 -151 129l-106 -94q-19 -19 -46 -24q-26 -5 -53 16q-43 43 15 96l65 56q-32 8 -162 32q-100 21 -88 105q15 89 146 74q146 -15 252 -62l86 76q51 46 94 6q18 -24 13 -49t-23 -43l-56 -47 q162 -102 234 -264q71 -160 71 -398q0 -308 -120 -489q-121 -182 -361 -182q-231 0 -357 137t-126 377zM317 496q0 -144 66 -232t178 -88q77 0 126 34q51 36 77 99q26 64 37 142q10 73 10 178q-74 176 -248 176q-122 0 -184 -80t-62 -229z" />
<glyph unicode="&#xf1;" horiz-adv-x="1261" d="M35 94q0 99 104 99h49v618h-49q-104 0 -104 94q0 99 104 99h164q56 0 86 -34q31 -36 31 -85v-31q45 83 126 127q80 43 177 43q191 0 270 -111q80 -112 80 -327v-393h47q107 0 107 -99q0 -94 -107 -94h-164q-55 0 -85 34q-29 33 -29 85v471q0 229 -174 229q-72 0 -122 -35 q-51 -35 -76 -99q-25 -63 -37 -136q-11 -69 -13 -166v-190h47q106 0 106 -99q0 -94 -106 -94h-328q-104 0 -104 94zM288 1217q3 37 31 71q85 96 189 96q64 0 147 -44t107 -44q30 0 80 43q63 56 119 9q24 -24 21 -60q-3 -34 -30 -67q-78 -99 -192 -99q-63 0 -143 44t-109 44 q-35 0 -86 -45q-61 -49 -111 -8q-26 22 -23 60z" />
<glyph unicode="&#xf2;" horiz-adv-x="1140" d="M80 502q0 232 129 377t360 145q232 0 362 -146t130 -376t-130 -376t-362 -146q-231 0 -360 145t-129 377zM276 1440q46 68 136 8l247 -164q94 -61 41 -133q-46 -65 -135 -2l-239 158q-95 64 -50 133zM317 502q0 -146 66 -236t186 -90q123 0 189 90q65 89 65 236 q0 146 -65 235q-66 90 -189 90q-120 0 -186 -91q-66 -92 -66 -234z" />
<glyph unicode="&#xf3;" horiz-adv-x="1140" d="M80 502q0 232 129 377t360 145q232 0 362 -146t130 -376t-130 -376t-362 -146q-231 0 -360 145t-129 377zM317 502q0 -146 66 -236t186 -90q123 0 189 90q65 89 65 236q0 146 -65 235q-66 90 -189 90q-120 0 -186 -91q-66 -92 -66 -234zM463 1151q-53 74 43 137l246 160 q88 57 133 -10q43 -72 -49 -135l-238 -156q-89 -63 -135 4z" />
<glyph unicode="&#xf4;" horiz-adv-x="1140" d="M80 502q0 232 129 377t360 145q232 0 362 -146t130 -376t-130 -376t-362 -146q-231 0 -360 145t-129 377zM252 1151q-44 63 33 119l215 157q67 51 139 0l225 -161q36 -26 41 -64q4 -37 -16 -57q-45 -57 -119 -4l-209 153l-188 -145q-78 -57 -121 2zM317 502 q0 -146 66 -236t186 -90q123 0 189 90q65 89 65 236q0 146 -65 235q-66 90 -189 90q-120 0 -186 -91q-66 -92 -66 -234z" />
<glyph unicode="&#xf5;" horiz-adv-x="1140" d="M80 502q0 232 129 377t360 145q232 0 362 -146t130 -376t-130 -376t-362 -146q-231 0 -360 145t-129 377zM222 1217q3 36 32 71q85 96 188 96q65 0 148 -44t106 -44q30 0 80 43q63 56 119 9q24 -24 21 -60q-3 -35 -29 -67q-78 -99 -193 -99q-62 0 -142 44t-110 44 q-35 0 -86 -45q-60 -49 -110 -8q-27 23 -24 60zM317 502q0 -146 66 -236t186 -90q123 0 189 90q65 89 65 236q0 146 -65 235q-66 90 -189 90q-120 0 -186 -91q-66 -92 -66 -234z" />
<glyph unicode="&#xf6;" horiz-adv-x="1140" d="M80 502q0 232 129 377t360 145q232 0 362 -146t130 -376t-130 -376t-362 -146q-231 0 -360 145t-129 377zM246 1266q0 56 35 91q34 34 94 34q59 0 94 -35t35 -90q0 -56 -35 -91q-34 -34 -94 -34q-61 0 -95 33t-34 92zM317 502q0 -146 66 -236t186 -90q123 0 189 90 q65 89 65 236q0 146 -65 235q-66 90 -189 90q-120 0 -186 -91q-66 -92 -66 -234zM637 1266q0 57 34 91t93 34t94 -35t35 -90q0 -56 -35 -91q-34 -34 -94 -34q-61 0 -94 33t-33 92z" />
<glyph unicode="&#xf7;" horiz-adv-x="1071" d="M100 662q0 46 30 72q31 26 79 26h653q48 0 79 -26q30 -26 30 -72q0 -99 -109 -99h-653q-109 0 -109 99zM393 307q0 63 37 101t105 38t105 -38q38 -40 38 -101q0 -59 -38 -97t-105 -38t-105 38q-37 37 -37 97zM393 1014q0 62 37 100q38 39 105 39t105 -39q38 -40 38 -100 t-38 -98q-37 -37 -105 -37t-105 37t-37 98z" />
<glyph unicode="&#xf8;" horiz-adv-x="1140" d="M80 502q0 232 129 377t360 145q27 0 80 -8l29 76q38 109 133 79q83 -27 45 -141l-27 -74q111 -63 171 -183q61 -122 61 -271q0 -230 -130 -376t-362 -146q-27 0 -88 8l-26 -78q-17 -47 -53 -71q-35 -23 -78 -7q-84 29 -45 143l24 74q-110 67 -166 184q-57 119 -57 269z M317 502q0 -176 89 -260l204 581q-19 4 -41 4q-123 0 -187 -91q-65 -92 -65 -234zM520 180q13 -4 49 -4q123 0 189 90q65 89 65 236q0 178 -92 264z" />
<glyph unicode="&#xf9;" horiz-adv-x="1261" d="M35 905q0 99 104 99h166q55 0 85 -34t30 -85v-471q0 -230 174 -230q72 0 122 35q51 35 76 99q23 58 36 137q13 75 14 166v190h-47q-105 0 -105 94q0 99 105 99h163q55 0 85 -34t30 -85v-692h49q105 0 105 -99q0 -94 -105 -94h-164q-56 0 -86 34q-30 35 -30 85v31 q-45 -83 -126 -127q-80 -43 -177 -43q-192 0 -271 110q-80 112 -80 328v393h-49q-104 0 -104 94zM354 1440q45 68 135 8l248 -164q94 -61 41 -133q-46 -65 -135 -2l-240 158q-95 63 -49 133z" />
<glyph unicode="&#xfa;" horiz-adv-x="1261" d="M35 905q0 99 104 99h166q55 0 85 -34t30 -85v-471q0 -230 174 -230q72 0 122 35q51 35 76 99q23 58 36 137q13 75 14 166v190h-47q-105 0 -105 94q0 99 105 99h163q55 0 85 -34t30 -85v-692h49q105 0 105 -99q0 -94 -105 -94h-164q-56 0 -86 34q-30 35 -30 85v31 q-45 -83 -126 -127q-80 -43 -177 -43q-192 0 -271 110q-80 112 -80 328v393h-49q-104 0 -104 94zM543 1151q-53 74 43 137l245 160q89 57 134 -10q43 -71 -50 -135l-237 -156q-89 -63 -135 4z" />
<glyph unicode="&#xfb;" horiz-adv-x="1261" d="M35 905q0 99 104 99h166q55 0 85 -34t30 -85v-471q0 -230 174 -230q72 0 122 35q51 35 76 99q23 58 36 137q13 75 14 166v190h-47q-105 0 -105 94q0 99 105 99h163q55 0 85 -34t30 -85v-692h49q105 0 105 -99q0 -94 -105 -94h-164q-56 0 -86 34q-30 35 -30 85v31 q-45 -83 -126 -127q-80 -43 -177 -43q-192 0 -271 110q-80 112 -80 328v393h-49q-104 0 -104 94zM317 1151q-44 63 33 119l215 157q68 51 140 0l225 -161q36 -26 41 -64q4 -36 -17 -57q-45 -56 -118 -4l-209 153l-189 -145q-78 -57 -121 2z" />
<glyph unicode="&#xfc;" horiz-adv-x="1261" d="M35 905q0 99 104 99h166q55 0 85 -34t30 -85v-471q0 -230 174 -230q72 0 122 35q51 35 76 99q23 58 36 137q13 75 14 166v190h-47q-105 0 -105 94q0 99 105 99h163q55 0 85 -34t30 -85v-692h49q105 0 105 -99q0 -94 -105 -94h-164q-56 0 -86 34q-30 35 -30 85v31 q-45 -83 -126 -127q-80 -43 -177 -43q-192 0 -271 110q-80 112 -80 328v393h-49q-104 0 -104 94zM309 1266q0 57 34 91t95 34q59 0 94 -35t35 -90q0 -56 -35 -91q-34 -34 -94 -34t-95 33q-34 33 -34 92zM700 1266q0 57 34 91t93 34q60 0 95 -35q34 -34 34 -90q0 -57 -34 -91 t-95 -34t-94 33t-33 92z" />
<glyph unicode="&#xfd;" horiz-adv-x="1058" d="M14 905q0 99 105 99h260q106 0 106 -99q0 -94 -106 -94h-12l202 -537l181 537h-19q-104 0 -104 94q0 99 104 99h236q106 0 106 -99q0 -94 -106 -94l-310 -821q-90 -242 -173 -331t-216 -89q-99 0 -166 37q-102 57 -63 143q30 68 121 41q78 -24 110 -24q67 0 107 58 q42 61 86 175l-344 811q-105 0 -105 94zM446 1151q-53 74 43 137l246 160q88 57 133 -10q43 -72 -49 -135l-237 -156q-89 -64 -136 4z" />
<glyph unicode="&#xfe;" horiz-adv-x="1187" d="M35 -315q0 98 104 98h49v1438h-49q-104 0 -104 94q0 98 104 98h164q56 0 86 -34q31 -36 31 -85v-426q92 156 299 156q188 0 289 -134q100 -133 100 -358q0 -249 -116 -401q-115 -151 -345 -151q-133 0 -227 38v-235h47q106 0 106 -98q0 -95 -106 -95h-328q-104 0 -104 95 zM420 223q83 -47 203 -47q247 0 247 361q0 290 -198 290q-252 0 -252 -444v-160z" />
<glyph unicode="&#xff;" horiz-adv-x="1058" d="M14 905q0 99 105 99h260q106 0 106 -99q0 -94 -106 -94h-12l202 -537l181 537h-19q-104 0 -104 94q0 99 104 99h236q106 0 106 -99q0 -94 -106 -94l-310 -821q-90 -242 -173 -331t-216 -89q-99 0 -166 37q-102 57 -63 143q30 68 121 41q78 -24 110 -24q67 0 107 58 q42 61 86 175l-344 811q-105 0 -105 94zM233 1266q0 57 34 91t95 34q60 0 95 -35t35 -90q0 -56 -35 -91q-34 -34 -95 -34q-60 0 -95 33q-34 33 -34 92zM625 1266q0 58 33 91q34 34 94 34q59 0 94 -35t35 -90q0 -56 -35 -91q-34 -34 -94 -34q-62 0 -95 33q-32 32 -32 92z" />
<glyph unicode="&#x152;" horiz-adv-x="2007" d="M100 707q0 317 175 522t497 205q141 0 262 -48q33 27 82 27h694q55 0 85 -34t30 -85v-170q0 -50 -30 -85q-29 -33 -85 -33q-57 0 -83 33q-27 35 -27 85v70h-463v-358h457q55 0 87 -29q31 -28 31 -80q0 -50 -31 -80q-33 -31 -87 -31h-457v-397h483v84q0 50 29 85 q28 34 82 34q55 0 85 -34q30 -35 30 -85v-184q0 -51 -30 -85t-85 -34h-713q-53 0 -86 27q-123 -47 -260 -47q-322 0 -497 203t-175 524zM358 707q0 -223 108 -366q108 -142 306 -142q125 0 219 49v917q-91 49 -219 49q-198 0 -306 -142t-108 -365z" />
<glyph unicode="&#x153;" horiz-adv-x="1673" d="M80 502q0 232 127 377t358 145q181 0 303 -106q124 106 310 106q196 0 308 -112q111 -111 111 -296q0 -60 -10 -96q-16 -54 -45 -78q-30 -24 -90 -24h-518q5 -117 74 -185q68 -67 188 -67q94 0 217 51q87 37 125 -27q18 -31 8 -69q-11 -41 -49 -64q-117 -77 -323 -77 q-198 0 -316 100q-128 -100 -299 -100q-231 0 -355 143t-124 379zM317 502q0 -148 67 -238q66 -88 189 -88q101 0 179 51q-47 118 -47 271q0 148 51 266q-74 63 -183 63q-123 0 -189 -88q-67 -90 -67 -237zM934 580h448q2 28 2 51q0 93 -52 149q-53 58 -154 58 q-107 0 -171 -67q-62 -65 -73 -191z" />
<glyph unicode="&#x178;" horiz-adv-x="1329" d="M0 1307q0 45 31 76q30 30 80 30h356q50 0 80 -30q31 -31 31 -76q0 -49 -31 -78t-80 -29h-21l244 -366l236 366h-8q-49 0 -80 29t-31 78q0 45 31 76q30 30 80 30h301q49 0 79 -30q31 -31 31 -76q0 -49 -31 -78t-79 -29h-29l-385 -577v-410h43q50 0 80 -30t30 -77 q0 -48 -30 -77q-31 -29 -80 -29h-332q-49 0 -80 29q-30 29 -30 77q0 47 30 77t80 30h43v399l-414 588h-34q-49 0 -80 29t-31 78zM324 1630q0 57 42 90t105 33q68 0 110 -33t42 -90q0 -58 -42 -88q-43 -31 -110 -31q-64 0 -106 31q-41 30 -41 88zM750 1630q0 57 41 90t108 33 q66 0 108 -33t42 -90q0 -58 -42 -88q-43 -31 -108 -31q-66 0 -108 31q-41 30 -41 88z" />
<glyph unicode="&#x2c6;" horiz-adv-x="1079" d="M264 1151q-44 63 33 119l215 157q67 51 139 0l226 -161q36 -26 41 -64q4 -36 -17 -57q-45 -57 -119 -4l-209 153l-188 -145q-78 -57 -121 2z" />
<glyph unicode="&#x2dc;" horiz-adv-x="1079" d="M194 1217q3 37 31 71q85 96 189 96q64 0 147 -44t107 -44q30 0 80 43q63 55 118 9q25 -25 22 -60q-3 -34 -30 -67q-78 -99 -192 -99q-63 0 -143 44t-109 44q-35 0 -86 -45q-61 -49 -111 -8q-26 22 -23 60z" />
<glyph unicode="&#x2000;" horiz-adv-x="912" />
<glyph unicode="&#x2001;" horiz-adv-x="1824" />
<glyph unicode="&#x2002;" horiz-adv-x="912" />
<glyph unicode="&#x2003;" horiz-adv-x="1824" />
<glyph unicode="&#x2004;" horiz-adv-x="608" />
<glyph unicode="&#x2005;" horiz-adv-x="456" />
<glyph unicode="&#x2006;" horiz-adv-x="304" />
<glyph unicode="&#x2007;" horiz-adv-x="304" />
<glyph unicode="&#x2008;" horiz-adv-x="228" />
<glyph unicode="&#x2009;" horiz-adv-x="364" />
<glyph unicode="&#x200a;" horiz-adv-x="101" />
<glyph unicode="&#x2010;" horiz-adv-x="757" d="M18 547q0 47 31 75q30 27 80 27h500q50 0 80 -27t30 -75q0 -49 -30 -76t-80 -27h-500q-50 0 -80 27q-31 28 -31 76z" />
<glyph unicode="&#x2011;" horiz-adv-x="757" d="M18 547q0 47 31 75q30 27 80 27h500q50 0 80 -27t30 -75q0 -49 -30 -76t-80 -27h-500q-50 0 -80 27q-31 28 -31 76z" />
<glyph unicode="&#x2012;" horiz-adv-x="757" d="M18 547q0 47 31 75q30 27 80 27h500q50 0 80 -27t30 -75q0 -49 -30 -76t-80 -27h-500q-50 0 -80 27q-31 28 -31 76z" />
<glyph unicode="&#x2013;" horiz-adv-x="757" d="M18 547q0 47 31 75q30 27 80 27h500q50 0 80 -27t30 -75q0 -49 -30 -76t-80 -27h-500q-50 0 -80 27q-31 28 -31 76z" />
<glyph unicode="&#x2014;" horiz-adv-x="1191" d="M18 547q0 47 31 75q30 27 80 27h934q50 0 80 -27q31 -28 31 -75q0 -48 -31 -76q-30 -27 -80 -27h-934q-50 0 -80 27q-31 28 -31 76z" />
<glyph unicode="&#x2018;" horiz-adv-x="495" d="M100 1444q6 46 50 69q90 46 145 -61l164 -307q57 -107 -27 -152q-92 -50 -149 62l-164 309q-25 34 -19 80z" />
<glyph unicode="&#x2019;" horiz-adv-x="495" d="M80 1145l164 307q55 107 145 61q43 -22 49 -69t-18 -80l-164 -309q-58 -112 -150 -62q-83 45 -26 152z" />
<glyph unicode="&#x201a;" horiz-adv-x="495" d="M80 -106l164 307q55 107 145 61q43 -22 49 -69t-18 -80l-164 -310q-57 -111 -150 -61q-83 45 -26 152z" />
<glyph unicode="&#x201c;" horiz-adv-x="811" d="M100 1444q6 46 50 69q90 46 145 -61l164 -307q57 -107 -27 -152q-92 -50 -149 62l-164 309q-25 34 -19 80zM416 1444q6 47 49 69q90 46 145 -61l164 -307q57 -107 -26 -152q-92 -50 -150 62l-164 309q-24 33 -18 80z" />
<glyph unicode="&#x201d;" horiz-adv-x="811" d="M80 1145l164 307q55 107 145 61q43 -22 49 -69t-18 -80l-164 -309q-58 -112 -150 -62q-83 45 -26 152zM395 1145l164 307q55 108 146 61q43 -22 49 -69q6 -46 -19 -80l-164 -309q-57 -112 -149 -62q-84 45 -27 152z" />
<glyph unicode="&#x201e;" horiz-adv-x="811" d="M80 -107l164 308q55 107 145 61q43 -22 49 -69t-18 -80l-164 -310q-57 -111 -150 -61q-83 44 -26 151zM395 -106l164 307q55 108 146 61q43 -22 49 -69q6 -46 -19 -80l-164 -310q-57 -111 -149 -61q-84 45 -27 152z" />
<glyph unicode="&#x2022;" horiz-adv-x="888" d="M182 633q0 113 67 189q66 75 193 75t196 -76q69 -77 69 -188q0 -116 -69 -188t-196 -72q-128 0 -193 71q-67 73 -67 189z" />
<glyph unicode="&#x2026;" horiz-adv-x="1404" d="M111 139q0 63 37 103q38 41 104 41q67 0 105 -41t38 -103q0 -60 -38 -100q-37 -39 -105 -39t-105 39q-36 37 -36 100zM559 139q0 62 38 103t103 41q68 0 106 -41t38 -103q0 -60 -38 -100q-38 -39 -106 -39q-66 0 -104 39q-37 38 -37 100zM1010 139q0 63 37 103 q38 41 104 41q65 0 103 -41t38 -103t-37 -100q-37 -39 -104 -39t-104 39q-37 38 -37 100z" />
<glyph unicode="&#x202f;" horiz-adv-x="364" />
<glyph unicode="&#x2039;" horiz-adv-x="704" d="M225 406q-98 99 4 198l281 283q40 42 83 46q44 5 81 -32q63 -72 -25 -160l-235 -231l241 -242q42 -42 46 -86q5 -46 -29 -80q-37 -30 -80 -24q-42 6 -80 41z" />
<glyph unicode="&#x203a;" horiz-adv-x="704" d="M116 827q-5 46 29 80q38 31 80 25t80 -41l287 -287q98 -99 -4 -198l-281 -283q-40 -42 -83 -46q-44 -5 -81 32q-63 71 25 159l235 232l-241 241q-42 42 -46 86z" />
<glyph unicode="&#x205f;" horiz-adv-x="456" />
<glyph unicode="&#x20ac;" d="M-57 565q0 78 82 78h75v62q0 41 2 77h-77q-82 0 -82 78t82 78h98q50 234 203 365q154 131 399 131q176 0 289 -64q71 -43 71 -119v-139q0 -49 -26 -78q-27 -30 -76 -30t-76 30q-26 29 -26 78v102q-90 21 -160 21q-297 0 -377 -297h436q82 0 82 -78t-82 -78h-461 q-2 -36 -2 -80v-59h463q82 0 82 -78t-82 -78h-440q76 -309 379 -309q87 0 176 33v111q0 44 29 76t77 32q49 0 74 -31t25 -77v-136q0 -82 -72 -127q-130 -79 -326 -79q-501 0 -585 507h-92q-82 0 -82 78z" />
<glyph unicode="&#x2122;" horiz-adv-x="1951" d="M41 1151v168q0 42 22 68t66 26h580q43 0 65 -26q23 -28 23 -68v-168q0 -41 -23 -67q-22 -25 -65 -25q-44 0 -66 25t-22 67v72h-91v-416h17q43 0 68 -24q26 -24 26 -62q0 -86 -94 -86h-258q-45 0 -68 22q-24 23 -24 64q0 38 25 62q26 24 67 24h16v416h-88v-72 q0 -42 -22 -67t-66 -25t-66 25t-22 67zM831 721q0 38 26 62q25 24 67 24h14v434h-14q-43 0 -68 23t-25 63q0 39 26 63q24 23 67 23h116q59 -1 115 -70l215 -274l213 274q52 70 119 70h115q44 0 68 -23q26 -24 26 -63q0 -86 -94 -86h-15v-434h15q43 0 68 -24q26 -24 26 -62 q0 -86 -94 -86h-254q-45 0 -68 22q-25 23 -25 64q0 38 26 62t67 24h14v272l-115 -153q-50 -64 -106 -64q-57 0 -107 62l-104 137v-254h14q43 0 69 -24q25 -24 25 -62q0 -86 -94 -86h-235q-45 0 -68 22q-25 23 -25 64z" />
<glyph unicode="&#x25fc;" horiz-adv-x="1003" d="M0 0v1004h1004v-1004h-1004z" />
</font>
</defs>
</svg>
